<svg viewBox="0 0 330 200" xmlns="http://www.w3.org/2000/svg"><g><g><g><g><g><line x1="50" y1="177" x2="45" y2="177" style="visibility: inherit;" fill="rgb(0, 0, 0)" stroke="rgb(204, 204, 204)" stroke-width="1px"></line><line x1="50" y1="159.3" x2="45" y2="159.3" style="visibility: inherit;" fill="rgb(0, 0, 0)" stroke="rgb(204, 204, 204)" stroke-width="1px"></line><line x1="50" y1="141.6" x2="45" y2="141.6" style="visibility: inherit;" fill="rgb(0, 0, 0)" stroke="rgb(204, 204, 204)" stroke-width="1px"></line><line x1="50" y1="123.89999999999999" x2="45" y2="123.89999999999999" style="visibility: inherit;" fill="rgb(0, 0, 0)" stroke="rgb(204, 204, 204)" stroke-width="1px"></line><line x1="50" y1="106.2" x2="45" y2="106.2" style="visibility: inherit;" fill="rgb(0, 0, 0)" stroke="rgb(204, 204, 204)" stroke-width="1px"></line><line x1="50" y1="88.5" x2="45" y2="88.5" style="visibility: inherit;" fill="rgb(0, 0, 0)" stroke="rgb(204, 204, 204)" stroke-width="1px"></line><line x1="50" y1="70.8" x2="45" y2="70.8" style="visibility: inherit;" fill="rgb(0, 0, 0)" stroke="rgb(204, 204, 204)" stroke-width="1px"></line><line x1="50" y1="53.10000000000001" x2="45" y2="53.10000000000001" style="visibility: inherit;" fill="rgb(0, 0, 0)" stroke="rgb(204, 204, 204)" stroke-width="1px"></line><line x1="50" y1="35.40000000000001" x2="45" y2="35.40000000000001" style="visibility: inherit;" fill="rgb(0, 0, 0)" stroke="rgb(204, 204, 204)" stroke-width="1px"></line><line x1="50" y1="17.699999999999996" x2="45" y2="17.699999999999996" style="visibility: inherit;" fill="rgb(0, 0, 0)" stroke="rgb(204, 204, 204)" stroke-width="1px"></line><line x1="50" y1="0" x2="45" y2="0" style="visibility: inherit;" fill="rgb(0, 0, 0)" stroke="rgb(204, 204, 204)" stroke-width="1px"></line></g><g transform="translate(40, 0)"><text x="0" y="177" dx="0em" dy="0.3em" style="text-anchor: end; visibility: hidden; font-family: Roboto, sans-serif; font-size: 12px; font-weight: 200;" fill="rgb(33, 33, 33)" stroke="none" stroke-width="1px">-0.1</text><text x="0" y="159.3" dx="0em" dy="0.3em" style="text-anchor: end; visibility: inherit; font-family: Roboto, sans-serif; font-size: 12px; font-weight: 200;" fill="rgb(33, 33, 33)" stroke="none" stroke-width="1px">0</text><text x="0" y="141.6" dx="0em" dy="0.3em" style="text-anchor: end; visibility: hidden; font-family: Roboto, sans-serif; font-size: 12px; font-weight: 200;" fill="rgb(33, 33, 33)" stroke="none" stroke-width="1px">0.1</text><text x="0" y="123.89999999999999" dx="0em" dy="0.3em" style="text-anchor: end; visibility: inherit; font-family: Roboto, sans-serif; font-size: 12px; font-weight: 200;" fill="rgb(33, 33, 33)" stroke="none" stroke-width="1px">0.2</text><text x="0" y="106.2" dx="0em" dy="0.3em" style="text-anchor: end; visibility: hidden; font-family: Roboto, sans-serif; font-size: 12px; font-weight: 200;" fill="rgb(33, 33, 33)" stroke="none" stroke-width="1px">0.3</text><text x="0" y="88.5" dx="0em" dy="0.3em" style="text-anchor: end; visibility: inherit; font-family: Roboto, sans-serif; font-size: 12px; font-weight: 200;" fill="rgb(33, 33, 33)" stroke="none" stroke-width="1px">0.4</text><text x="0" y="70.8" dx="0em" dy="0.3em" style="text-anchor: end; visibility: hidden; font-family: Roboto, sans-serif; font-size: 12px; font-weight: 200;" fill="rgb(33, 33, 33)" stroke="none" stroke-width="1px">0.5</text><text x="0" y="53.10000000000001" dx="0em" dy="0.3em" style="text-anchor: end; visibility: inherit; font-family: Roboto, sans-serif; font-size: 12px; font-weight: 200;" fill="rgb(33, 33, 33)" stroke="none" stroke-width="1px">0.6</text><text x="0" y="35.40000000000001" dx="0em" dy="0.3em" style="text-anchor: end; visibility: hidden; font-family: Roboto, sans-serif; font-size: 12px; font-weight: 200;" fill="rgb(33, 33, 33)" stroke="none" stroke-width="1px">0.7</text><text x="0" y="17.699999999999996" dx="0em" dy="0.3em" style="text-anchor: end; visibility: inherit; font-family: Roboto, sans-serif; font-size: 12px; font-weight: 200;" fill="rgb(33, 33, 33)" stroke="none" stroke-width="1px">0.8</text><text x="0" y="0" dx="0em" dy="0.3em" style="text-anchor: end; visibility: hidden; font-family: Roboto, sans-serif; font-size: 12px; font-weight: 200;" fill="rgb(33, 33, 33)" stroke="none" stroke-width="1px">0.9</text></g><line x1="50" y1="0" x2="50" y2="177" fill="rgb(0, 0, 0)" stroke="rgb(204, 204, 204)" stroke-width="1px"></line></g></g><g transform="translate(50, 0)" clip-path="url(#clip_0)"><clipPath id="clip_0"><rect width="280" height="177"></rect></clipPath><g><g><g><line x1="0" y1="0" x2="0" y2="177" fill="rgb(0, 0, 0)" stroke="rgb(66, 66, 66)" stroke-width="1px" opacity="0.25"></line><line x1="23.333333333333332" y1="0" x2="23.333333333333332" y2="177" fill="rgb(0, 0, 0)" stroke="rgb(66, 66, 66)" stroke-width="1px" opacity="0.25"></line><line x1="46.666666666666664" y1="0" x2="46.666666666666664" y2="177" fill="rgb(0, 0, 0)" stroke="rgb(66, 66, 66)" stroke-width="1px" opacity="0.25"></line><line x1="70" y1="0" x2="70" y2="177" fill="rgb(0, 0, 0)" stroke="rgb(66, 66, 66)" stroke-width="1px" opacity="0.25"></line><line x1="93.33333333333333" y1="0" x2="93.33333333333333" y2="177" fill="rgb(0, 0, 0)" stroke="rgb(66, 66, 66)" stroke-width="1px" opacity="0.25"></line><line x1="116.66666666666667" y1="0" x2="116.66666666666667" y2="177" fill="rgb(0, 0, 0)" stroke="rgb(66, 66, 66)" stroke-width="1px" opacity="0.25"></line><line x1="140" y1="0" x2="140" y2="177" fill="rgb(0, 0, 0)" stroke="rgb(66, 66, 66)" stroke-width="1px" opacity="0.25"></line><line x1="163.33333333333334" y1="0" x2="163.33333333333334" y2="177" fill="rgb(0, 0, 0)" stroke="rgb(66, 66, 66)" stroke-width="1px" opacity="0.25"></line><line x1="186.66666666666666" y1="0" x2="186.66666666666666" y2="177" fill="rgb(0, 0, 0)" stroke="rgb(66, 66, 66)" stroke-width="1px" opacity="0.25"></line><line x1="210" y1="0" x2="210" y2="177" fill="rgb(0, 0, 0)" stroke="rgb(66, 66, 66)" stroke-width="1px" opacity="0.25"></line><line x1="233.33333333333334" y1="0" x2="233.33333333333334" y2="177" fill="rgb(0, 0, 0)" stroke="rgb(66, 66, 66)" stroke-width="1px" opacity="0.25"></line><line x1="256.66666666666663" y1="0" x2="256.66666666666663" y2="177" fill="rgb(0, 0, 0)" stroke="rgb(66, 66, 66)" stroke-width="1px" opacity="0.25"></line><line x1="280" y1="0" x2="280" y2="177" fill="rgb(0, 0, 0)" stroke="rgb(66, 66, 66)" stroke-width="1px" opacity="0.25"></line></g><g><line x1="0" y1="177" x2="280" y2="177" fill="rgb(0, 0, 0)" stroke="rgb(66, 66, 66)" stroke-width="1px" opacity="0.25"></line><line x1="0" y1="159.3" x2="280" y2="159.3" fill="rgb(0, 0, 0)" stroke="rgb(66, 66, 66)" stroke-width="1px" opacity="0.25"></line><line x1="0" y1="141.6" x2="280" y2="141.6" fill="rgb(0, 0, 0)" stroke="rgb(66, 66, 66)" stroke-width="1px" opacity="0.25"></line><line x1="0" y1="123.89999999999999" x2="280" y2="123.89999999999999" fill="rgb(0, 0, 0)" stroke="rgb(66, 66, 66)" stroke-width="1px" opacity="0.25"></line><line x1="0" y1="106.2" x2="280" y2="106.2" fill="rgb(0, 0, 0)" stroke="rgb(66, 66, 66)" stroke-width="1px" opacity="0.25"></line><line x1="0" y1="88.5" x2="280" y2="88.5" fill="rgb(0, 0, 0)" stroke="rgb(66, 66, 66)" stroke-width="1px" opacity="0.25"></line><line x1="0" y1="70.8" x2="280" y2="70.8" fill="rgb(0, 0, 0)" stroke="rgb(66, 66, 66)" stroke-width="1px" opacity="0.25"></line><line x1="0" y1="53.10000000000001" x2="280" y2="53.10000000000001" fill="rgb(0, 0, 0)" stroke="rgb(66, 66, 66)" stroke-width="1px" opacity="0.25"></line><line x1="0" y1="35.40000000000001" x2="280" y2="35.40000000000001" fill="rgb(0, 0, 0)" stroke="rgb(66, 66, 66)" stroke-width="1px" opacity="0.25"></line><line x1="0" y1="17.699999999999996" x2="280" y2="17.699999999999996" fill="rgb(0, 0, 0)" stroke="rgb(66, 66, 66)" stroke-width="1px" opacity="0.25"></line><line x1="0" y1="0" x2="280" y2="0" fill="rgb(0, 0, 0)" stroke="rgb(66, 66, 66)" stroke-width="1px" opacity="0.25"></line></g></g></g><g><g><line x1="0" y1="159.3" x2="280" y2="159.3" fill="rgb(0, 0, 0)" stroke="rgb(153, 153, 153)" stroke-width="1.5px"></line></g></g><g><g><line x1="23.333333333333332" y1="0" x2="23.333333333333332" y2="177" fill="rgb(0, 0, 0)" stroke="rgb(153, 153, 153)" stroke-width="1.5px"></line></g></g><g><g><g><g><g><path stroke="rgb(51, 187, 238)" stroke-width="2px" d="M24.5,140.6973002806306L25.666666666666664,78.88890241384506L26.833333333333336,52.126503038406376L28,40.9754989027977L29.166666666666668,37.842606532573704L30.333333333333336,35.68320690393448L31.5,33.860099780559544L32.666666666666664,31.063499915599827L33.833333333333336,28.550104844570164L35,28.373107123374943L36.16666666666667,25.576507258415226L37.333333333333336,24.461401569843296L38.5,23.363998818397526L39.666666666666664,22.833005654811863L40.833333333333336,22.638304996490483L42,22.638304996490483L43.16666666666667,23.27550523281098L44.33333333333333,22.337407815456395L45.5,22.337407815456395L46.666666666666664,20.850603747367863L47.833333333333336,20.142602312564854L49,18.461108136177067L50.166666666666664,18.461108136177067L51.33333333333333,18.372604000568394L52.5,18.51420639753342L53.66666666666667,18.40799932479859L54.833333333333336,17.469901907444005L56,17.469901907444005L57.166666666666664,17.186707663536076L58.333333333333336,17.080500590801243L59.5,16.974304068088536L60.66666666666667,16.602605688571934L61.83333333333333,16.85040460824967L63,16.372499155998234L64.16666666666666,16.390202093124394L65.33333333333333,16.390202093124394L66.5,16.390202093124394L67.66666666666667,15.381303477287297L68.83333333333333,15.027308034896855L70,15.115801620483403L71.16666666666666,13.629008102416996L72.33333333333334,14.106903004646306L73.5,13.186508524417881L74.66666666666667,13.098004388809208L75.83333333333333,13.611305165290837L77,13.593602228164677L78.16666666666667,13.044906127452855L79.33333333333333,12.974104928970341L80.5,12.56700067520142L81.66666666666667,13.699798750877385L82.83333333333333,13.735204625129704L84,12.58470361232758L85.16666666666666,12.58470361232758L86.33333333333334,12.850205469131474L87.5,12.230708169937138L88.66666666666666,12.301498818397526L89.83333333333334,12.230708169937138L91,12.053699898719792L92.16666666666667,13.044906127452855L93.33333333333333,12.10680871009827L94.5,11.204106616973881L95.66666666666667,12.655504810810093L96.83333333333333,12.60240654945374L98,12.283806431293492L99.16666666666667,11.575804996490483L100.33333333333333,11.71740739345551L101.5,11.876702177524571L102.66666666666666,12.37230001688004L103.83333333333334,12.177599358558659L105,11.575804996490483L106.16666666666666,11.575804996490483L107.33333333333334,10.974000084400181L108.5,10.850100624561314L109.66666666666667,10.248306262493138L110.83333333333333,10.81470530033112L112,10.460699307918553L113.16666666666667,10.991703021526341L114.33333333333333,10.743904101848607L115.5,10.938604760169987L116.66666666666667,10.708508777618412L117.83333333333333,11.735099780559544L119,10.726201164722447L120.16666666666666,11.0094059586525L121.33333333333334,11.274907815456395L122.5,10.690805840492253L123.66666666666666,11.151008355617527L124.83333333333334,11.044801282882695L126,10.478402245044713L127.16666666666667,10.478402245044713L128.33333333333331,10.212900388240818L129.5,10.230603325366978L130.66666666666666,9.841202008724217L131.83333333333334,12.336904692649846L133,10.867803561687474L134.16666666666669,10.867803561687474L135.33333333333334,10.938604760169987L136.5,10.655399966239933L137.66666666666666,10.265998649597172L138.83333333333334,11.080207157135014L140,10.7792994260788L141.16666666666666,10.531500506401066L142.33333333333331,10.248306262493138L143.5,10.195208001136784L144.66666666666669,10.177505064010624L145.83333333333334,10.372205722332005L147,9.841202008724217L148.16666666666666,9.257100033760075L149.33333333333334,9.71730254888535L150.5,9.221704709529881L151.66666666666666,9.664204287528996L152.83333333333331,9.982804405689244L154,9.451800692081456L155.16666666666669,9.398702430725102L156.33333333333334,9.133200573921208L157.5,9.115508186817173L158.66666666666666,9.115508186817173L159.83333333333331,9.115508186817173L161,9.628808963298802L162.16666666666669,9.380999493598942L163.33333333333334,10.283701586723332L164.5,9.876607882976536L165.66666666666666,9.770400810241703L166.83333333333334,9.89430027008057L168,10.265998649597172L169.16666666666666,9.823499071598057L170.33333333333331,10.071308541297917L171.5,10.637707579135899L172.66666666666669,10.637707579135899L173.83333333333334,9.097805249691014L175,10.301404523849492L176.16666666666666,9.805806684494023L177.33333333333331,10.265998649597172L178.5,10.265998649597172L179.66666666666669,9.50489895343781L180.83333333333334,9.380999493598942L182,9.150903511047368L183.16666666666666,8.708403933048253L184.33333333333334,9.115508186817173L185.5,8.460605013370518L186.66666666666666,8.460605013370518L187.83333333333331,8.655305671691899L189,9.788103747367863L190.16666666666669,9.69959961175919L191.33333333333334,9.788103747367863L192.5,9.681907224655156L193.66666666666666,9.681907224655156L194.83333333333331,9.398702430725102L196,9.398702430725102L197.16666666666669,8.726106870174412L198.33333333333334,9.150903511047368L199.5,9.04470698833466L200.66666666666666,8.566801536083226L201.83333333333334,8.743799257278447L203,8.743799257278447L204.16666666666666,8.549098598957066L205.33333333333331,8.301299679279332L206.5,8.12430195808411L207.66666666666669,8.12430195808411L208.83333333333334,9.115508186817173L210,8.496000337600712L211.16666666666666,8.496000337600712L212.33333333333331,8.63760273456574L213.5,8.63760273456574L214.66666666666669,8.81460045576096L215.83333333333334,8.938499915599827L217,8.85000633001328L218.16666666666666,9.150903511047368L219.33333333333334,9.434108304977421L220.5,9.257100033760075L221.66666666666666,8.743799257278447L222.83333333333331,8.796908068656926L224,8.35440849065781L225.16666666666669,8.549098598957066L226.33333333333334,8.726106870174412L227.5,8.726106870174412L228.66666666666666,8.63760273456574L229.83333333333331,9.71730254888535L231,8.690700995922093L232.16666666666669,9.221704709529881L233.33333333333334,9.221704709529881L234.5,8.655305671691899L235.66666666666666,8.283607292175297L236.83333333333334,8.283607292175297L238,8.566801536083226L239.16666666666666,7.770306515693669L240.33333333333331,8.761502194404606L241.5,8.761502194404606L242.66666666666669,9.292505908012394L243.83333333333334,8.265904355049138L245,8.531406211853032L246.16666666666666,8.018105435371403L247.33333333333331,8.938499915599827L248.5,8.425199139118199L249.66666666666669,8.425199139118199L250.83333333333334,8.584504473209385L252,8.584504473209385L253.16666666666666,8.000402498245244L254.33333333333334,8.177400219440464L255.5,7.92960129976273L256.66666666666663,8.83230339288712" style="fill: none;" fill="none"></path></g><g><path stroke="rgb(238, 51, 119)" stroke-width="2px" d="M24.5,-1.5576010465622105L25.666666666666664,157.49460009969772L26.833333333333336,158.6097000187263L28,155.35290011130274L29.166666666666668,154.85729996412994L30.333333333333336,154.16700014770032L31.5,152.9280002743006L32.666666666666664,141.88320057392121L33.833333333333336,140.21940010339023L35,144.4674007996917L36.16666666666667,145.95420091152192L37.333333333333336,152.22000015825034L38.5,147.86580030173064L39.666666666666664,153.84840002954007L40.833333333333336,153.97230014875532L42,153.97230014875532L43.16666666666667,153.83070005960764L44.33333333333333,153.90150026902558L45.5,153.90150026902558L46.666666666666664,153.19350015297533L47.833333333333336,150.6270002268255L49,147.97200078070165L50.166666666666664,147.97200078070165L51.33333333333333,141.74160081446172L52.5,150.36150034815074L53.66666666666667,152.0961000390351L54.833333333333336,150.41459992825986L56,150.41459992825986L57.166666666666664,148.46760059818627L58.333333333333336,145.81259983330966L59.5,147.08700030595065L60.66666666666667,147.5118009030819L61.83333333333333,147.7950004220009L63,148.71540017724038L64.16666666666666,153.51210027113558L65.33333333333333,153.51210027113558L66.5,153.51210027113558L67.66666666666667,154.0077000886202L68.83333333333333,152.36159991770984L70,153.63600039035083L71.16666666666666,147.2993999451399L72.33333333333334,149.01629999578L73.5,146.0781003713608L74.66666666666667,147.91889988183976L75.83333333333333,149.01629999578L77,153.1757998533547L78.16666666666667,149.8482002310455L79.33333333333333,152.00759985968472L80.5,152.91029997467996L81.66666666666667,153.2820003323257L82.83333333333333,153.14039991348983L84,152.6448000960052L85.16666666666666,152.6448000960052L86.33333333333334,148.3260001793504L87.5,145.86570073217155L88.66666666666666,145.10459971725942L89.83333333333334,150.75090034604074L91,154.503300235793L92.16666666666667,152.94569991454483L93.33333333333333,142.18410039246083L94.5,146.11350097060205L95.66666666666667,155.8130999889225L96.83333333333333,155.65379992984236L98,151.0341005243361L99.16666666666667,147.35250084400178L100.33333333333333,152.6448000960052L101.5,149.33490011394025L102.66666666666666,151.49430040195585L103.83333333333334,148.36140011921526L105,145.4409001350403L106.16666666666666,145.4409001350403L107.33333333333334,147.67109964340926L108.5,152.9280002743006L109.66666666666667,152.62710045576097L110.83333333333333,155.15820011235775L112,155.93700010813774L113.16666666666667,155.6183999899775L114.33333333333333,152.5386002764106L115.5,154.41480005644263L116.66666666666667,152.23770045787097L117.83333333333333,148.02510036081077L119,143.49390014559032L120.16666666666666,146.41440078914167L121.33333333333334,146.36129989027978L122.5,150.07830016985537L123.66666666666666,152.5916998565197L124.83333333333334,155.29980020150543L126,153.26430003270508L127.16666666666667,153.26430003270508L128.33333333333331,154.29090026691557L129.5,155.54760011024774L130.66666666666666,151.49430040195585L131.83333333333334,154.99890005327762L133,155.63609995990993L134.16666666666669,155.63609995990993L135.33333333333334,154.32630020678045L136.5,152.41470015719534L137.66666666666666,146.89230096638204L138.83333333333334,151.7067000411451L140,150.76859998628498L141.16666666666666,152.3439002774656L142.33333333333331,155.99010001793505L143.5,154.55640014559032L144.66666666666669,155.10510020256044L145.83333333333334,156.060900227353L147,155.4236999910325L148.16666666666666,157.28220013082029L149.33333333333334,156.62730008941145L150.5,155.79540001899005L151.66666666666666,155.56530008018018L152.83333333333331,152.22000015825034L154,146.69760030806066L155.16666666666669,146.21970013082029L156.33333333333334,150.6270002268255L157.5,154.308600236848L158.66666666666666,154.308600236848L159.83333333333331,154.308600236848L161,154.99890005327762L162.16666666666669,155.7246001392603L163.33333333333334,153.29969997256995L164.5,154.71570020467044L165.66666666666666,154.76880011446775L166.83333333333334,155.68920019939543L168,155.51220017038287L169.16666666666666,157.28220013082029L170.33333333333331,155.01660002321006L171.5,155.4236999910325L172.66666666666669,155.4236999910325L173.83333333333334,154.66259996518494L175,155.087400232628L176.16666666666666,153.19350015297533L177.33333333333331,153.74220020994545L178.5,156.27330019623042L179.66666666666669,153.7598998501897L180.83333333333334,151.7067000411451L182,156.23789992667736L183.16666666666666,156.22019995674492L184.33333333333334,154.57410011552275L185.5,152.7863998554647L186.66666666666666,152.7863998554647L187.83333333333331,154.0607999984175L189,156.45030022524298L190.16666666666669,154.6448999952525L191.33333333333334,154.6448999952525L192.5,153.31740027219058L193.66666666666666,153.31740027219058L194.83333333333331,156.22019995674492L196,156.22019995674492L197.16666666666669,155.44139996096493L198.33333333333334,154.73340017460288L199.5,155.38830005116762L200.66666666666666,155.90160016827286L201.83333333333334,156.52110010497273L203,156.52110010497273L204.16666666666666,156.060900227353L205.33333333333331,155.15820011235775L206.5,155.77770004905761L207.66666666666669,155.77770004905761L208.83333333333334,155.2289999920875L210,156.060900227353L211.16666666666666,156.060900227353L212.33333333333331,156.45030022524298L213.5,156.45030022524298L214.66666666666669,156.98129998259247L215.83333333333334,152.82180045470596L217,154.0077000886202L218.16666666666666,152.8926003344357L219.33333333333334,154.82190002426506L220.5,155.9193001382053L221.66666666666666,156.57420001477004L222.83333333333331,157.06979999709876L224,157.7247000385076L225.16666666666669,156.39719998575748L226.33333333333334,155.476800230518L227.5,155.476800230518L228.66666666666666,146.36129989027978L229.83333333333331,151.84830045998098L231,153.60060045048596L232.16666666666669,154.62720002532006L233.33333333333334,154.62720002532006L234.5,150.874800465256L235.66666666666666,149.14020011499525L236.83333333333334,149.14020011499525L238,153.4236000917852L239.16666666666666,154.68030026480557L240.33333333333331,154.892700233683L241.5,154.892700233683L242.66666666666669,155.65379992984236L243.83333333333334,152.11380033865572L245,150.8394005253911L246.16666666666666,149.88360017091037L247.33333333333331,155.01660002321006L248.5,153.51210027113558L249.66666666666669,153.51210027113558L250.83333333333334,149.6535002321005L252,149.6535002321005L253.16666666666666,154.27319996729494L254.33333333333334,149.29950017407538L255.5,151.08720010444523L256.66666666666663,152.60940015614034" style="fill: none;" fill="none"></path></g></g></g></g></g></g><g transform="translate(50, 177)" clip-path="url(#clip_1)"><clipPath id="clip_1"><rect width="280" height="23"></rect></clipPath><g><g><line x1="0" y1="0" x2="0" y2="5" style="visibility: inherit;" fill="rgb(0, 0, 0)" stroke="rgb(204, 204, 204)" stroke-width="1px"></line><line x1="23.333333333333332" y1="0" x2="23.333333333333332" y2="5" style="visibility: inherit;" fill="rgb(0, 0, 0)" stroke="rgb(204, 204, 204)" stroke-width="1px"></line><line x1="46.666666666666664" y1="0" x2="46.666666666666664" y2="5" style="visibility: inherit;" fill="rgb(0, 0, 0)" stroke="rgb(204, 204, 204)" stroke-width="1px"></line><line x1="70" y1="0" x2="70" y2="5" style="visibility: inherit;" fill="rgb(0, 0, 0)" stroke="rgb(204, 204, 204)" stroke-width="1px"></line><line x1="93.33333333333333" y1="0" x2="93.33333333333333" y2="5" style="visibility: inherit;" fill="rgb(0, 0, 0)" stroke="rgb(204, 204, 204)" stroke-width="1px"></line><line x1="116.66666666666667" y1="0" x2="116.66666666666667" y2="5" style="visibility: inherit;" fill="rgb(0, 0, 0)" stroke="rgb(204, 204, 204)" stroke-width="1px"></line><line x1="140" y1="0" x2="140" y2="5" style="visibility: inherit;" fill="rgb(0, 0, 0)" stroke="rgb(204, 204, 204)" stroke-width="1px"></line><line x1="163.33333333333334" y1="0" x2="163.33333333333334" y2="5" style="visibility: inherit;" fill="rgb(0, 0, 0)" stroke="rgb(204, 204, 204)" stroke-width="1px"></line><line x1="186.66666666666666" y1="0" x2="186.66666666666666" y2="5" style="visibility: inherit;" fill="rgb(0, 0, 0)" stroke="rgb(204, 204, 204)" stroke-width="1px"></line><line x1="210" y1="0" x2="210" y2="5" style="visibility: inherit;" fill="rgb(0, 0, 0)" stroke="rgb(204, 204, 204)" stroke-width="1px"></line><line x1="233.33333333333334" y1="0" x2="233.33333333333334" y2="5" style="visibility: inherit;" fill="rgb(0, 0, 0)" stroke="rgb(204, 204, 204)" stroke-width="1px"></line><line x1="256.66666666666663" y1="0" x2="256.66666666666663" y2="5" style="visibility: inherit;" fill="rgb(0, 0, 0)" stroke="rgb(204, 204, 204)" stroke-width="1px"></line><line x1="280" y1="0" x2="280" y2="5" style="visibility: inherit;" fill="rgb(0, 0, 0)" stroke="rgb(204, 204, 204)" stroke-width="1px"></line></g><g transform="translate(0, 8)"><text x="0" y="0" dx="0em" dy="0.95em" style="text-anchor: middle; visibility: hidden; font-family: Roboto, sans-serif; font-size: 12px; font-weight: 200;" fill="rgb(33, 33, 33)" stroke="none" stroke-width="1px">-20</text><text x="23.333333333333332" y="0" dx="0em" dy="0.95em" style="text-anchor: middle; visibility: inherit; font-family: Roboto, sans-serif; font-size: 12px; font-weight: 200;" fill="rgb(33, 33, 33)" stroke="none" stroke-width="1px">0</text><text x="46.666666666666664" y="0" dx="0em" dy="0.95em" style="text-anchor: middle; visibility: hidden; font-family: Roboto, sans-serif; font-size: 12px; font-weight: 200;" fill="rgb(33, 33, 33)" stroke="none" stroke-width="1px">20</text><text x="70" y="0" dx="0em" dy="0.95em" style="text-anchor: middle; visibility: inherit; font-family: Roboto, sans-serif; font-size: 12px; font-weight: 200;" fill="rgb(33, 33, 33)" stroke="none" stroke-width="1px">40</text><text x="93.33333333333333" y="0" dx="0em" dy="0.95em" style="text-anchor: middle; visibility: hidden; font-family: Roboto, sans-serif; font-size: 12px; font-weight: 200;" fill="rgb(33, 33, 33)" stroke="none" stroke-width="1px">60</text><text x="116.66666666666667" y="0" dx="0em" dy="0.95em" style="text-anchor: middle; visibility: inherit; font-family: Roboto, sans-serif; font-size: 12px; font-weight: 200;" fill="rgb(33, 33, 33)" stroke="none" stroke-width="1px">80</text><text x="140" y="0" dx="0em" dy="0.95em" style="text-anchor: middle; visibility: hidden; font-family: Roboto, sans-serif; font-size: 12px; font-weight: 200;" fill="rgb(33, 33, 33)" stroke="none" stroke-width="1px">100</text><text x="163.33333333333334" y="0" dx="0em" dy="0.95em" style="text-anchor: middle; visibility: inherit; font-family: Roboto, sans-serif; font-size: 12px; font-weight: 200;" fill="rgb(33, 33, 33)" stroke="none" stroke-width="1px">120</text><text x="186.66666666666666" y="0" dx="0em" dy="0.95em" style="text-anchor: middle; visibility: hidden; font-family: Roboto, sans-serif; font-size: 12px; font-weight: 200;" fill="rgb(33, 33, 33)" stroke="none" stroke-width="1px">140</text><text x="210" y="0" dx="0em" dy="0.95em" style="text-anchor: middle; visibility: inherit; font-family: Roboto, sans-serif; font-size: 12px; font-weight: 200;" fill="rgb(33, 33, 33)" stroke="none" stroke-width="1px">160</text><text x="233.33333333333334" y="0" dx="0em" dy="0.95em" style="text-anchor: middle; visibility: hidden; font-family: Roboto, sans-serif; font-size: 12px; font-weight: 200;" fill="rgb(33, 33, 33)" stroke="none" stroke-width="1px">180</text><text x="256.66666666666663" y="0" dx="0em" dy="0.95em" style="text-anchor: middle; visibility: inherit; font-family: Roboto, sans-serif; font-size: 12px; font-weight: 200;" fill="rgb(33, 33, 33)" stroke="none" stroke-width="1px">200</text><text x="280" y="0" dx="0em" dy="0.95em" style="text-anchor: middle; visibility: hidden; font-family: Roboto, sans-serif; font-size: 12px; font-weight: 200;" fill="rgb(33, 33, 33)" stroke="none" stroke-width="1px">220</text></g><line x1="0" y1="0" x2="280" y2="0" fill="rgb(0, 0, 0)" stroke="rgb(204, 204, 204)" stroke-width="1px"></line></g></g></g></g></svg>