<svg viewBox="0 0 330 200" xmlns="http://www.w3.org/2000/svg"><g><g><g><g><g><line x1="40" y1="177" x2="35" y2="177" style="visibility: inherit;" fill="rgb(0, 0, 0)" stroke="rgb(204, 204, 204)" stroke-width="1px"></line><line x1="40" y1="159.3" x2="35" y2="159.3" style="visibility: inherit;" fill="rgb(0, 0, 0)" stroke="rgb(204, 204, 204)" stroke-width="1px"></line><line x1="40" y1="141.6" x2="35" y2="141.6" style="visibility: inherit;" fill="rgb(0, 0, 0)" stroke="rgb(204, 204, 204)" stroke-width="1px"></line><line x1="40" y1="123.89999999999999" x2="35" y2="123.89999999999999" style="visibility: inherit;" fill="rgb(0, 0, 0)" stroke="rgb(204, 204, 204)" stroke-width="1px"></line><line x1="40" y1="106.2" x2="35" y2="106.2" style="visibility: inherit;" fill="rgb(0, 0, 0)" stroke="rgb(204, 204, 204)" stroke-width="1px"></line><line x1="40" y1="88.5" x2="35" y2="88.5" style="visibility: inherit;" fill="rgb(0, 0, 0)" stroke="rgb(204, 204, 204)" stroke-width="1px"></line><line x1="40" y1="70.8" x2="35" y2="70.8" style="visibility: inherit;" fill="rgb(0, 0, 0)" stroke="rgb(204, 204, 204)" stroke-width="1px"></line><line x1="40" y1="53.10000000000001" x2="35" y2="53.10000000000001" style="visibility: inherit;" fill="rgb(0, 0, 0)" stroke="rgb(204, 204, 204)" stroke-width="1px"></line><line x1="40" y1="35.39999999999999" x2="35" y2="35.39999999999999" style="visibility: inherit;" fill="rgb(0, 0, 0)" stroke="rgb(204, 204, 204)" stroke-width="1px"></line><line x1="40" y1="17.699999999999996" x2="35" y2="17.699999999999996" style="visibility: inherit;" fill="rgb(0, 0, 0)" stroke="rgb(204, 204, 204)" stroke-width="1px"></line><line x1="40" y1="0" x2="35" y2="0" style="visibility: inherit;" fill="rgb(0, 0, 0)" stroke="rgb(204, 204, 204)" stroke-width="1px"></line></g><g transform="translate(30, 0)"><text x="0" y="177" dx="0em" dy="0.3em" style="text-anchor: end; visibility: hidden; font-family: Roboto, sans-serif; font-size: 12px; font-weight: 200;" fill="rgb(33, 33, 33)" stroke="none" stroke-width="1px">0</text><text x="0" y="159.3" dx="0em" dy="0.3em" style="text-anchor: end; visibility: inherit; font-family: Roboto, sans-serif; font-size: 12px; font-weight: 200;" fill="rgb(33, 33, 33)" stroke="none" stroke-width="1px">0.1</text><text x="0" y="141.6" dx="0em" dy="0.3em" style="text-anchor: end; visibility: hidden; font-family: Roboto, sans-serif; font-size: 12px; font-weight: 200;" fill="rgb(33, 33, 33)" stroke="none" stroke-width="1px">0.2</text><text x="0" y="123.89999999999999" dx="0em" dy="0.3em" style="text-anchor: end; visibility: inherit; font-family: Roboto, sans-serif; font-size: 12px; font-weight: 200;" fill="rgb(33, 33, 33)" stroke="none" stroke-width="1px">0.3</text><text x="0" y="106.2" dx="0em" dy="0.3em" style="text-anchor: end; visibility: hidden; font-family: Roboto, sans-serif; font-size: 12px; font-weight: 200;" fill="rgb(33, 33, 33)" stroke="none" stroke-width="1px">0.4</text><text x="0" y="88.5" dx="0em" dy="0.3em" style="text-anchor: end; visibility: inherit; font-family: Roboto, sans-serif; font-size: 12px; font-weight: 200;" fill="rgb(33, 33, 33)" stroke="none" stroke-width="1px">0.5</text><text x="0" y="70.8" dx="0em" dy="0.3em" style="text-anchor: end; visibility: hidden; font-family: Roboto, sans-serif; font-size: 12px; font-weight: 200;" fill="rgb(33, 33, 33)" stroke="none" stroke-width="1px">0.6</text><text x="0" y="53.10000000000001" dx="0em" dy="0.3em" style="text-anchor: end; visibility: inherit; font-family: Roboto, sans-serif; font-size: 12px; font-weight: 200;" fill="rgb(33, 33, 33)" stroke="none" stroke-width="1px">0.7</text><text x="0" y="35.39999999999999" dx="0em" dy="0.3em" style="text-anchor: end; visibility: hidden; font-family: Roboto, sans-serif; font-size: 12px; font-weight: 200;" fill="rgb(33, 33, 33)" stroke="none" stroke-width="1px">0.8</text><text x="0" y="17.699999999999996" dx="0em" dy="0.3em" style="text-anchor: end; visibility: inherit; font-family: Roboto, sans-serif; font-size: 12px; font-weight: 200;" fill="rgb(33, 33, 33)" stroke="none" stroke-width="1px">0.9</text><text x="0" y="0" dx="0em" dy="0.3em" style="text-anchor: end; visibility: hidden; font-family: Roboto, sans-serif; font-size: 12px; font-weight: 200;" fill="rgb(33, 33, 33)" stroke="none" stroke-width="1px">1</text></g><line x1="40" y1="0" x2="40" y2="177" fill="rgb(0, 0, 0)" stroke="rgb(204, 204, 204)" stroke-width="1px"></line></g></g><g transform="translate(40, 0)" clip-path="url(#clip_0)"><clipPath id="clip_0"><rect width="290" height="177"></rect></clipPath><g><g><g><line x1="0" y1="0" x2="0" y2="177" fill="rgb(0, 0, 0)" stroke="rgb(66, 66, 66)" stroke-width="1px" opacity="0.25"></line><line x1="24.166666666666664" y1="0" x2="24.166666666666664" y2="177" fill="rgb(0, 0, 0)" stroke="rgb(66, 66, 66)" stroke-width="1px" opacity="0.25"></line><line x1="48.33333333333333" y1="0" x2="48.33333333333333" y2="177" fill="rgb(0, 0, 0)" stroke="rgb(66, 66, 66)" stroke-width="1px" opacity="0.25"></line><line x1="72.5" y1="0" x2="72.5" y2="177" fill="rgb(0, 0, 0)" stroke="rgb(66, 66, 66)" stroke-width="1px" opacity="0.25"></line><line x1="96.66666666666666" y1="0" x2="96.66666666666666" y2="177" fill="rgb(0, 0, 0)" stroke="rgb(66, 66, 66)" stroke-width="1px" opacity="0.25"></line><line x1="120.83333333333334" y1="0" x2="120.83333333333334" y2="177" fill="rgb(0, 0, 0)" stroke="rgb(66, 66, 66)" stroke-width="1px" opacity="0.25"></line><line x1="145" y1="0" x2="145" y2="177" fill="rgb(0, 0, 0)" stroke="rgb(66, 66, 66)" stroke-width="1px" opacity="0.25"></line><line x1="169.16666666666669" y1="0" x2="169.16666666666669" y2="177" fill="rgb(0, 0, 0)" stroke="rgb(66, 66, 66)" stroke-width="1px" opacity="0.25"></line><line x1="193.33333333333331" y1="0" x2="193.33333333333331" y2="177" fill="rgb(0, 0, 0)" stroke="rgb(66, 66, 66)" stroke-width="1px" opacity="0.25"></line><line x1="217.5" y1="0" x2="217.5" y2="177" fill="rgb(0, 0, 0)" stroke="rgb(66, 66, 66)" stroke-width="1px" opacity="0.25"></line><line x1="241.66666666666669" y1="0" x2="241.66666666666669" y2="177" fill="rgb(0, 0, 0)" stroke="rgb(66, 66, 66)" stroke-width="1px" opacity="0.25"></line><line x1="265.8333333333333" y1="0" x2="265.8333333333333" y2="177" fill="rgb(0, 0, 0)" stroke="rgb(66, 66, 66)" stroke-width="1px" opacity="0.25"></line><line x1="290" y1="0" x2="290" y2="177" fill="rgb(0, 0, 0)" stroke="rgb(66, 66, 66)" stroke-width="1px" opacity="0.25"></line></g><g><line x1="0" y1="177" x2="290" y2="177" fill="rgb(0, 0, 0)" stroke="rgb(66, 66, 66)" stroke-width="1px" opacity="0.25"></line><line x1="0" y1="159.3" x2="290" y2="159.3" fill="rgb(0, 0, 0)" stroke="rgb(66, 66, 66)" stroke-width="1px" opacity="0.25"></line><line x1="0" y1="141.6" x2="290" y2="141.6" fill="rgb(0, 0, 0)" stroke="rgb(66, 66, 66)" stroke-width="1px" opacity="0.25"></line><line x1="0" y1="123.89999999999999" x2="290" y2="123.89999999999999" fill="rgb(0, 0, 0)" stroke="rgb(66, 66, 66)" stroke-width="1px" opacity="0.25"></line><line x1="0" y1="106.2" x2="290" y2="106.2" fill="rgb(0, 0, 0)" stroke="rgb(66, 66, 66)" stroke-width="1px" opacity="0.25"></line><line x1="0" y1="88.5" x2="290" y2="88.5" fill="rgb(0, 0, 0)" stroke="rgb(66, 66, 66)" stroke-width="1px" opacity="0.25"></line><line x1="0" y1="70.8" x2="290" y2="70.8" fill="rgb(0, 0, 0)" stroke="rgb(66, 66, 66)" stroke-width="1px" opacity="0.25"></line><line x1="0" y1="53.10000000000001" x2="290" y2="53.10000000000001" fill="rgb(0, 0, 0)" stroke="rgb(66, 66, 66)" stroke-width="1px" opacity="0.25"></line><line x1="0" y1="35.39999999999999" x2="290" y2="35.39999999999999" fill="rgb(0, 0, 0)" stroke="rgb(66, 66, 66)" stroke-width="1px" opacity="0.25"></line><line x1="0" y1="17.699999999999996" x2="290" y2="17.699999999999996" fill="rgb(0, 0, 0)" stroke="rgb(66, 66, 66)" stroke-width="1px" opacity="0.25"></line><line x1="0" y1="0" x2="290" y2="0" fill="rgb(0, 0, 0)" stroke="rgb(66, 66, 66)" stroke-width="1px" opacity="0.25"></line></g></g></g><g><g><line x1="0" y1="177" x2="290" y2="177" fill="rgb(0, 0, 0)" stroke="rgb(153, 153, 153)" stroke-width="1.5px"></line></g></g><g><g><line x1="24.166666666666664" y1="0" x2="24.166666666666664" y2="177" fill="rgb(0, 0, 0)" stroke="rgb(153, 153, 153)" stroke-width="1.5px"></line></g></g><g><g><g><g><g><path stroke="rgb(51, 187, 238)" stroke-width="2px" d="M25.375,156.18480107188225L26.583333333333332,129.13920217752457L27.791666666666668,61.45440638065338L29,48.56879925727844L30.208333333333336,41.4888060092926L31.416666666666668,39.364801704883575L32.625,41.06399881839752L33.833333333333336,36.107999324798584L35.041666666666664,33.4176065325737L36.25,31.860001266002655L37.458333333333336,29.877599358558655L38.666666666666664,28.74480128288269L39.875,27.18720656633377L41.083333333333336,28.320004642009735L42.29166666666667,26.054408490657806L43.5,23.505607545375824L44.708333333333336,22.656003713607788L45.916666666666664,23.93040418624878L47.125,23.080800354480743L48.33333333333333,24.072006583213806L49.541666666666664,22.797606110572815L50.75,21.94800227880478L51.958333333333336,22.089604675769806L53.166666666666664,19.25759893655777L54.375,19.96560037136078L55.583333333333336,20.673601806163788L56.791666666666664,17.983209013938904L58,19.399201333522797L59.208333333333336,18.124800860881805L60.41666666666667,19.116007089614868L61.625,18.97440469264984L62.833333333333336,18.124800860881805L64.04166666666667,16.42560374736786L65.25,19.116007089614868L66.45833333333333,17.841606616973877L67.66666666666667,17.133605182170868L68.875,17.133605182170868L70.08333333333333,17.275207579135895L71.29166666666666,16.850400388240814L72.5,18.549608051776886L73.70833333333333,16.142398953437805L74.91666666666667,17.416799426078796L76.125,17.275207579135895L77.33333333333333,16.42560374736786L78.54166666666666,15.71760231256485L79.75,16.850400388240814L80.95833333333333,14.584804236888885L82.16666666666667,15.292805671691895L83.375,16.284001350402832L84.58333333333334,15.859204709529877L85.79166666666667,16.708808541297913L87,16.567206144332886L88.20833333333333,16.99200278520584L89.41666666666667,16.284001350402832L90.625,15.292805671691895L91.83333333333333,16.142398953437805L93.04166666666667,15.575999915599823L94.25,15.151203274726868L95.45833333333333,16.000807106494904L96.66666666666666,16.000807106494904L97.875,16.000807106494904L99.08333333333333,15.434408068656921L100.29166666666667,14.301599442958832L101.5,14.443201839923859L102.70833333333334,15.434408068656921L103.91666666666667,16.000807106494904L105.125,12.885607123374939L106.33333333333333,13.876802802085876L107.54166666666667,14.584804236888885L108.75,14.584804236888885L109.95833333333333,14.86800903081894L111.16666666666667,14.86800903081894L112.375,15.859204709529877L113.58333333333333,14.726406633853912L114.79166666666666,15.434408068656921L116,16.142398953437805L117.20833333333333,15.575999915599823L118.41666666666667,14.584804236888885L119.625,13.73520040512085L120.83333333333334,14.726406633853912L122.04166666666667,15.00960087776184L123.25,16.000807106494904L124.45833333333333,15.434408068656921L125.66666666666667,14.584804236888885L126.875,14.443201839923859L128.08333333333334,14.301599442958832L129.29166666666669,13.452006161212921L130.5,13.310403764247894L131.70833333333334,14.584804236888885L132.91666666666666,15.434408068656921L134.125,13.876802802085876L135.33333333333334,14.018405199050903L136.54166666666666,15.151203274726868L137.75,14.584804236888885L138.95833333333334,15.71760231256485L140.16666666666666,14.16000759601593L141.375,14.86800903081894L142.58333333333331,14.301599442958832L143.79166666666666,14.86800903081894L145,13.593608558177948L146.20833333333334,13.876802802085876L147.41666666666666,13.310403764247894L148.625,13.310403764247894L149.83333333333334,14.16000759601593L151.04166666666669,13.73520040512085L152.25,14.16000759601593L153.45833333333334,12.885607123374939L154.66666666666666,13.168801367282867L155.875,14.018405199050903L157.08333333333331,13.73520040512085L158.29166666666666,13.310403764247894L159.5,13.452006161212921L160.70833333333334,13.02719897031784L161.91666666666666,13.452006161212921L163.125,13.876802802085876L164.33333333333334,13.73520040512085L165.54166666666666,13.452006161212921L166.75,13.452006161212921L167.95833333333334,14.018405199050903L169.16666666666669,13.310403764247894L170.375,13.02719897031784L171.58333333333334,14.16000759601593L172.79166666666666,14.584804236888885L174,13.168801367282867L175.20833333333331,12.460799932479858L176.41666666666666,13.310403764247894L177.625,13.452006161212921L178.83333333333334,13.73520040512085L180.04166666666666,13.73520040512085L181.25,13.876802802085876L182.45833333333334,13.73520040512085L183.66666666666666,15.292805671691895L184.875,13.876802802085876L186.08333333333334,14.301599442958832L187.29166666666669,13.593608558177948L188.5,13.452006161212921L189.70833333333334,14.86800903081894L190.91666666666666,14.018405199050903L192.125,14.584804236888885L193.33333333333331,14.584804236888885L194.54166666666666,13.876802802085876L195.75,13.168801367282867L196.95833333333334,14.018405199050903L198.16666666666666,13.452006161212921L199.375,13.73520040512085L200.58333333333334,13.310403764247894L201.79166666666666,14.018405199050903L203,14.018405199050903L204.20833333333334,14.301599442958832L205.41666666666669,13.452006161212921L206.625,13.876802802085876L207.83333333333334,13.168801367282867L209.04166666666666,14.018405199050903L210.25,13.452006161212921L211.45833333333331,13.593608558177948L212.66666666666666,14.301599442958832L213.875,14.018405199050903L215.08333333333334,12.885607123374939L216.29166666666666,13.452006161212921L217.5,13.168801367282867L218.70833333333334,12.885607123374939L219.91666666666666,12.744004726409912L221.125,12.744004726409912L222.33333333333334,13.02719897031784L223.54166666666669,13.452006161212921L224.75,13.168801367282867L225.95833333333334,13.168801367282867L227.16666666666666,13.168801367282867L228.375,13.876802802085876L229.58333333333331,13.876802802085876L230.79166666666666,13.593608558177948L232,13.02719897031784L233.20833333333334,13.593608558177948L234.41666666666666,13.876802802085876L235.625,13.168801367282867L236.83333333333334,12.460799932479858L238.04166666666666,12.602402329444885L239.25,12.885607123374939L240.45833333333334,12.744004726409912L241.66666666666669,13.02719897031784L242.875,12.602402329444885L244.08333333333334,13.02719897031784L245.29166666666666,12.602402329444885L246.5,12.602402329444885L247.70833333333331,12.744004726409912L248.91666666666666,12.036003291606903L250.125,13.168801367282867L251.33333333333334,13.452006161212921L252.54166666666666,12.460799932479858L253.75,12.885607123374939L254.95833333333334,12.602402329444885L256.1666666666667,12.602402329444885L257.375,12.885607123374939L258.58333333333337,13.02719897031784L259.7916666666667,12.460799932479858L261,11.894400894641876L262.2083333333333,11.894400894641876L263.4166666666667,12.460799932479858L264.625,13.02719897031784L265.8333333333333,12.319208085536957" style="fill: none;" fill="none"></path></g><g><path stroke="rgb(238, 51, 119)" stroke-width="2px" d="M25.375,177L26.583333333333332,176.1504000420682L27.791666666666668,172.04400017671287L29,167.37120053172112L30.208333333333336,165.81360054016113L31.416666666666668,164.68079982697964L32.625,164.11440078914165L33.833333333333336,165.53039970248938L35.041666666666664,164.39760030806065L36.25,162.69840055704117L37.458333333333336,161.99040044099092L38.666666666666664,161.99040044099092L39.875,162.55680079758167L41.083333333333336,164.9640006646514L42.29166666666667,162.27359995990992L43.5,153.06960108876228L44.708333333333336,154.20240180194378L45.916666666666664,160.57440020889044L47.125,155.760000474751L48.33333333333333,154.91040059924126L49.541666666666664,156.18480107188225L50.75,158.3088001012802L51.958333333333336,153.21120084822178L53.166666666666664,155.6184007152915L54.375,155.19360011816025L55.583333333333336,160.9992008060217L56.791666666666664,155.760000474751L58,146.98080088198185L59.208333333333336,154.91040059924126L60.41666666666667,155.05200035870075L61.625,159.01680021733046L62.833333333333336,147.12240064144135L64.04166666666667,152.21999989449978L65.25,147.40560016036034L66.45833333333333,158.16720034182072L67.66666666666667,153.49440036714077L68.875,154.62720108032227L70.08333333333333,148.96320015192032L71.29166666666666,154.91040059924126L72.5,148.68000063300133L73.70833333333333,148.96320015192032L74.91666666666667,146.27280208468437L76.125,146.83920112252235L77.33333333333333,154.06079940497875L78.54166666666666,147.26400040090084L79.75,153.49440036714077L80.95833333333333,145.42320089042187L82.16666666666667,147.97200183570385L83.375,143.2992018610239L84.58333333333334,148.39680111408234L85.79166666666667,149.81280134618282L87,149.1047999113798L88.20833333333333,145.14000137150288L89.41666666666667,150.5208001434803L90.625,149.2463996708393L91.83333333333333,153.21120084822178L93.04166666666667,146.55600160360336L94.25,156.32640083134174L95.45833333333333,151.5120010972023L96.66666666666666,152.21999989449978L97.875,149.2463996708393L99.08333333333333,148.11360159516335L100.29166666666667,144.99840161204338L101.5,145.56480064988136L102.70833333333334,145.14000137150288L103.91666666666667,151.08720181882381L105.125,153.06960108876228L106.33333333333333,148.39680111408234L107.54166666666667,151.08720181882381L108.75,155.05200035870075L109.95833333333333,153.77759988605976L111.16666666666667,150.8039996623993L112.375,153.21120084822178L113.58333333333333,146.41440184414387L114.79166666666666,149.3879994302988L116,154.06079940497875L117.20833333333333,153.91919964551926L118.41666666666667,154.48560132086277L119.625,151.2288015782833L120.83333333333334,152.21999989449978L122.04166666666667,146.55600160360336L123.25,150.5208001434803L124.45833333333333,147.97200183570385L125.66666666666667,151.6536008566618L126.875,149.81280134618282L128.08333333333334,147.97200183570385L129.29166666666669,146.69760136306286L130.5,150.2376006245613L131.70833333333334,152.6448018103838L132.91666666666666,149.2463996708393L134.125,149.2463996708393L135.33333333333334,146.83920112252235L136.54166666666666,150.9455994218588L137.75,144.00720065832138L138.95833333333334,147.97200183570385L140.16666666666666,147.40560016036034L141.375,156.32640083134174L142.58333333333331,157.034400947392L143.79166666666666,151.3704013377428L145,148.39680111408234L146.20833333333334,148.82160039246082L147.41666666666666,147.83039943873882L148.625,147.26400040090084L149.83333333333334,146.27280208468437L151.04166666666669,151.3704013377428L152.25,151.9368003755808L153.45833333333334,154.06079940497875L154.66666666666666,150.6623999029398L155.875,154.48560132086277L157.08333333333331,148.96320015192032L158.29166666666666,155.3352011963725L159.5,154.20240180194378L160.70833333333334,154.06079940497875L161.91666666666666,153.77759988605976L163.125,153.63600012660027L164.33333333333334,146.69760136306286L165.54166666666666,153.49440036714077L166.75,155.3352011963725L167.95833333333334,154.48560132086277L169.16666666666669,156.32640083134174L170.375,153.21120084822178L171.58333333333334,155.05200035870075L172.79166666666666,152.21999989449978L174,152.7864015698433L175.20833333333331,148.82160039246082L176.41666666666666,152.50319941341877L177.625,151.9368003755808L178.83333333333334,156.89279986917973L180.04166666666666,152.6448018103838L181.25,152.07840013504028L182.45833333333334,152.36159965395927L183.66666666666666,145.70640040934086L184.875,150.9455994218588L186.08333333333334,147.12240064144135L187.29166666666669,151.9368003755808L188.5,148.96320015192032L189.70833333333334,151.08720181882381L190.91666666666666,151.6536008566618L192.125,151.3704013377428L193.33333333333331,153.21120084822178L194.54166666666666,152.36159965395927L195.75,148.25520135462284L196.95833333333334,150.2376006245613L198.16666666666666,153.21120084822178L199.375,153.91919964551926L200.58333333333334,155.05200035870075L201.79166666666666,154.62720108032227L203,155.9016002342105L204.20833333333334,153.63600012660027L205.41666666666669,150.6623999029398L206.625,154.62720108032227L207.83333333333334,150.5208001434803L209.04166666666666,147.68879967927933L210.25,148.39680111408234L211.45833333333331,146.13119968771935L212.66666666666666,150.3792003840208L213.875,149.2463996708393L215.08333333333334,145.14000137150288L216.29166666666666,152.07840013504028L217.5,154.20240180194378L218.70833333333334,151.2288015782833L219.91666666666666,152.36159965395927L221.125,154.76880083978176L222.33333333333334,154.62720108032227L223.54166666666669,152.50319941341877L224.75,152.50319941341877L225.95833333333334,150.3792003840208L227.16666666666666,151.5120010972023L228.375,150.8039996623993L229.58333333333331,148.39680111408234L230.79166666666666,151.7952006161213L232,151.9368003755808L233.20833333333334,151.9368003755808L234.41666666666666,152.50319941341877L235.625,152.36159965395927L236.83333333333334,154.06079940497875L238.04166666666666,153.49440036714077L239.25,150.8039996623993L240.45833333333334,151.2288015782833L241.66666666666669,150.6623999029398L242.875,151.5120010972023L244.08333333333334,150.5208001434803L245.29166666666666,152.6448018103838L246.5,154.34400156140327L247.70833333333331,155.6184007152915L248.91666666666666,154.20240180194378L250.125,155.3352011963725L251.33333333333334,154.34400156140327L252.54166666666666,154.48560132086277L253.75,153.77759988605976L254.95833333333334,152.50319941341877L256.1666666666667,153.21120084822178L257.375,152.21999989449978L258.58333333333337,155.760000474751L259.7916666666667,153.91919964551926L261,153.49440036714077L262.2083333333333,152.6448018103838L263.4166666666667,151.6536008566618L264.625,151.3704013377428L265.8333333333333,151.9368003755808" style="fill: none;" fill="none"></path></g></g></g></g></g></g><g transform="translate(40, 177)" clip-path="url(#clip_1)"><clipPath id="clip_1"><rect width="290" height="23"></rect></clipPath><g><g><line x1="0" y1="0" x2="0" y2="5" style="visibility: inherit;" fill="rgb(0, 0, 0)" stroke="rgb(204, 204, 204)" stroke-width="1px"></line><line x1="24.166666666666664" y1="0" x2="24.166666666666664" y2="5" style="visibility: inherit;" fill="rgb(0, 0, 0)" stroke="rgb(204, 204, 204)" stroke-width="1px"></line><line x1="48.33333333333333" y1="0" x2="48.33333333333333" y2="5" style="visibility: inherit;" fill="rgb(0, 0, 0)" stroke="rgb(204, 204, 204)" stroke-width="1px"></line><line x1="72.5" y1="0" x2="72.5" y2="5" style="visibility: inherit;" fill="rgb(0, 0, 0)" stroke="rgb(204, 204, 204)" stroke-width="1px"></line><line x1="96.66666666666666" y1="0" x2="96.66666666666666" y2="5" style="visibility: inherit;" fill="rgb(0, 0, 0)" stroke="rgb(204, 204, 204)" stroke-width="1px"></line><line x1="120.83333333333334" y1="0" x2="120.83333333333334" y2="5" style="visibility: inherit;" fill="rgb(0, 0, 0)" stroke="rgb(204, 204, 204)" stroke-width="1px"></line><line x1="145" y1="0" x2="145" y2="5" style="visibility: inherit;" fill="rgb(0, 0, 0)" stroke="rgb(204, 204, 204)" stroke-width="1px"></line><line x1="169.16666666666669" y1="0" x2="169.16666666666669" y2="5" style="visibility: inherit;" fill="rgb(0, 0, 0)" stroke="rgb(204, 204, 204)" stroke-width="1px"></line><line x1="193.33333333333331" y1="0" x2="193.33333333333331" y2="5" style="visibility: inherit;" fill="rgb(0, 0, 0)" stroke="rgb(204, 204, 204)" stroke-width="1px"></line><line x1="217.5" y1="0" x2="217.5" y2="5" style="visibility: inherit;" fill="rgb(0, 0, 0)" stroke="rgb(204, 204, 204)" stroke-width="1px"></line><line x1="241.66666666666669" y1="0" x2="241.66666666666669" y2="5" style="visibility: inherit;" fill="rgb(0, 0, 0)" stroke="rgb(204, 204, 204)" stroke-width="1px"></line><line x1="265.8333333333333" y1="0" x2="265.8333333333333" y2="5" style="visibility: inherit;" fill="rgb(0, 0, 0)" stroke="rgb(204, 204, 204)" stroke-width="1px"></line><line x1="290" y1="0" x2="290" y2="5" style="visibility: inherit;" fill="rgb(0, 0, 0)" stroke="rgb(204, 204, 204)" stroke-width="1px"></line></g><g transform="translate(0, 8)"><text x="0" y="0" dx="0em" dy="0.95em" style="text-anchor: middle; visibility: hidden; font-family: Roboto, sans-serif; font-size: 12px; font-weight: 200;" fill="rgb(33, 33, 33)" stroke="none" stroke-width="1px">-20</text><text x="24.166666666666664" y="0" dx="0em" dy="0.95em" style="text-anchor: middle; visibility: inherit; font-family: Roboto, sans-serif; font-size: 12px; font-weight: 200;" fill="rgb(33, 33, 33)" stroke="none" stroke-width="1px">0</text><text x="48.33333333333333" y="0" dx="0em" dy="0.95em" style="text-anchor: middle; visibility: hidden; font-family: Roboto, sans-serif; font-size: 12px; font-weight: 200;" fill="rgb(33, 33, 33)" stroke="none" stroke-width="1px">20</text><text x="72.5" y="0" dx="0em" dy="0.95em" style="text-anchor: middle; visibility: inherit; font-family: Roboto, sans-serif; font-size: 12px; font-weight: 200;" fill="rgb(33, 33, 33)" stroke="none" stroke-width="1px">40</text><text x="96.66666666666666" y="0" dx="0em" dy="0.95em" style="text-anchor: middle; visibility: hidden; font-family: Roboto, sans-serif; font-size: 12px; font-weight: 200;" fill="rgb(33, 33, 33)" stroke="none" stroke-width="1px">60</text><text x="120.83333333333334" y="0" dx="0em" dy="0.95em" style="text-anchor: middle; visibility: inherit; font-family: Roboto, sans-serif; font-size: 12px; font-weight: 200;" fill="rgb(33, 33, 33)" stroke="none" stroke-width="1px">80</text><text x="145" y="0" dx="0em" dy="0.95em" style="text-anchor: middle; visibility: hidden; font-family: Roboto, sans-serif; font-size: 12px; font-weight: 200;" fill="rgb(33, 33, 33)" stroke="none" stroke-width="1px">100</text><text x="169.16666666666669" y="0" dx="0em" dy="0.95em" style="text-anchor: middle; visibility: inherit; font-family: Roboto, sans-serif; font-size: 12px; font-weight: 200;" fill="rgb(33, 33, 33)" stroke="none" stroke-width="1px">120</text><text x="193.33333333333331" y="0" dx="0em" dy="0.95em" style="text-anchor: middle; visibility: hidden; font-family: Roboto, sans-serif; font-size: 12px; font-weight: 200;" fill="rgb(33, 33, 33)" stroke="none" stroke-width="1px">140</text><text x="217.5" y="0" dx="0em" dy="0.95em" style="text-anchor: middle; visibility: inherit; font-family: Roboto, sans-serif; font-size: 12px; font-weight: 200;" fill="rgb(33, 33, 33)" stroke="none" stroke-width="1px">160</text><text x="241.66666666666669" y="0" dx="0em" dy="0.95em" style="text-anchor: middle; visibility: hidden; font-family: Roboto, sans-serif; font-size: 12px; font-weight: 200;" fill="rgb(33, 33, 33)" stroke="none" stroke-width="1px">180</text><text x="265.8333333333333" y="0" dx="0em" dy="0.95em" style="text-anchor: middle; visibility: inherit; font-family: Roboto, sans-serif; font-size: 12px; font-weight: 200;" fill="rgb(33, 33, 33)" stroke="none" stroke-width="1px">200</text><text x="290" y="0" dx="0em" dy="0.95em" style="text-anchor: middle; visibility: hidden; font-family: Roboto, sans-serif; font-size: 12px; font-weight: 200;" fill="rgb(33, 33, 33)" stroke="none" stroke-width="1px">220</text></g><line x1="0" y1="0" x2="290" y2="0" fill="rgb(0, 0, 0)" stroke="rgb(204, 204, 204)" stroke-width="1px"></line></g></g></g></g></svg>