<svg viewBox="0 0 330 200" xmlns="http://www.w3.org/2000/svg"><g><g><g><g><g><line x1="40" y1="177" x2="35" y2="177" style="visibility: inherit;" fill="rgb(0, 0, 0)" stroke="rgb(204, 204, 204)" stroke-width="1px"></line><line x1="40" y1="154.875" x2="35" y2="154.875" style="visibility: inherit;" fill="rgb(0, 0, 0)" stroke="rgb(204, 204, 204)" stroke-width="1px"></line><line x1="40" y1="132.75" x2="35" y2="132.75" style="visibility: inherit;" fill="rgb(0, 0, 0)" stroke="rgb(204, 204, 204)" stroke-width="1px"></line><line x1="40" y1="110.625" x2="35" y2="110.625" style="visibility: inherit;" fill="rgb(0, 0, 0)" stroke="rgb(204, 204, 204)" stroke-width="1px"></line><line x1="40" y1="88.5" x2="35" y2="88.5" style="visibility: inherit;" fill="rgb(0, 0, 0)" stroke="rgb(204, 204, 204)" stroke-width="1px"></line><line x1="40" y1="66.375" x2="35" y2="66.375" style="visibility: inherit;" fill="rgb(0, 0, 0)" stroke="rgb(204, 204, 204)" stroke-width="1px"></line><line x1="40" y1="44.25000000000002" x2="35" y2="44.25000000000002" style="visibility: inherit;" fill="rgb(0, 0, 0)" stroke="rgb(204, 204, 204)" stroke-width="1px"></line><line x1="40" y1="22.125" x2="35" y2="22.125" style="visibility: inherit;" fill="rgb(0, 0, 0)" stroke="rgb(204, 204, 204)" stroke-width="1px"></line><line x1="40" y1="0" x2="35" y2="0" style="visibility: inherit;" fill="rgb(0, 0, 0)" stroke="rgb(204, 204, 204)" stroke-width="1px"></line></g><g transform="translate(30, 0)"><text x="0" y="177" dx="0em" dy="0.3em" style="text-anchor: end; visibility: hidden; font-family: Roboto, sans-serif; font-size: 12px; font-weight: 200;" fill="rgb(33, 33, 33)" stroke="none" stroke-width="1px">0.1</text><text x="0" y="154.875" dx="0em" dy="0.3em" style="text-anchor: end; visibility: inherit; font-family: Roboto, sans-serif; font-size: 12px; font-weight: 200;" fill="rgb(33, 33, 33)" stroke="none" stroke-width="1px">0.2</text><text x="0" y="132.75" dx="0em" dy="0.3em" style="text-anchor: end; visibility: hidden; font-family: Roboto, sans-serif; font-size: 12px; font-weight: 200;" fill="rgb(33, 33, 33)" stroke="none" stroke-width="1px">0.3</text><text x="0" y="110.625" dx="0em" dy="0.3em" style="text-anchor: end; visibility: inherit; font-family: Roboto, sans-serif; font-size: 12px; font-weight: 200;" fill="rgb(33, 33, 33)" stroke="none" stroke-width="1px">0.4</text><text x="0" y="88.5" dx="0em" dy="0.3em" style="text-anchor: end; visibility: hidden; font-family: Roboto, sans-serif; font-size: 12px; font-weight: 200;" fill="rgb(33, 33, 33)" stroke="none" stroke-width="1px">0.5</text><text x="0" y="66.375" dx="0em" dy="0.3em" style="text-anchor: end; visibility: inherit; font-family: Roboto, sans-serif; font-size: 12px; font-weight: 200;" fill="rgb(33, 33, 33)" stroke="none" stroke-width="1px">0.6</text><text x="0" y="44.25000000000002" dx="0em" dy="0.3em" style="text-anchor: end; visibility: hidden; font-family: Roboto, sans-serif; font-size: 12px; font-weight: 200;" fill="rgb(33, 33, 33)" stroke="none" stroke-width="1px">0.7</text><text x="0" y="22.125" dx="0em" dy="0.3em" style="text-anchor: end; visibility: inherit; font-family: Roboto, sans-serif; font-size: 12px; font-weight: 200;" fill="rgb(33, 33, 33)" stroke="none" stroke-width="1px">0.8</text><text x="0" y="0" dx="0em" dy="0.3em" style="text-anchor: end; visibility: hidden; font-family: Roboto, sans-serif; font-size: 12px; font-weight: 200;" fill="rgb(33, 33, 33)" stroke="none" stroke-width="1px">0.9</text></g><line x1="40" y1="0" x2="40" y2="177" fill="rgb(0, 0, 0)" stroke="rgb(204, 204, 204)" stroke-width="1px"></line></g></g><g transform="translate(40, 0)" clip-path="url(#clip_0)"><clipPath id="clip_0"><rect width="290" height="177"></rect></clipPath><g><g><g><line x1="0" y1="0" x2="0" y2="177" fill="rgb(0, 0, 0)" stroke="rgb(66, 66, 66)" stroke-width="1px" opacity="0.25"></line><line x1="24.166666666666664" y1="0" x2="24.166666666666664" y2="177" fill="rgb(0, 0, 0)" stroke="rgb(66, 66, 66)" stroke-width="1px" opacity="0.25"></line><line x1="48.33333333333333" y1="0" x2="48.33333333333333" y2="177" fill="rgb(0, 0, 0)" stroke="rgb(66, 66, 66)" stroke-width="1px" opacity="0.25"></line><line x1="72.5" y1="0" x2="72.5" y2="177" fill="rgb(0, 0, 0)" stroke="rgb(66, 66, 66)" stroke-width="1px" opacity="0.25"></line><line x1="96.66666666666666" y1="0" x2="96.66666666666666" y2="177" fill="rgb(0, 0, 0)" stroke="rgb(66, 66, 66)" stroke-width="1px" opacity="0.25"></line><line x1="120.83333333333334" y1="0" x2="120.83333333333334" y2="177" fill="rgb(0, 0, 0)" stroke="rgb(66, 66, 66)" stroke-width="1px" opacity="0.25"></line><line x1="145" y1="0" x2="145" y2="177" fill="rgb(0, 0, 0)" stroke="rgb(66, 66, 66)" stroke-width="1px" opacity="0.25"></line><line x1="169.16666666666669" y1="0" x2="169.16666666666669" y2="177" fill="rgb(0, 0, 0)" stroke="rgb(66, 66, 66)" stroke-width="1px" opacity="0.25"></line><line x1="193.33333333333331" y1="0" x2="193.33333333333331" y2="177" fill="rgb(0, 0, 0)" stroke="rgb(66, 66, 66)" stroke-width="1px" opacity="0.25"></line><line x1="217.5" y1="0" x2="217.5" y2="177" fill="rgb(0, 0, 0)" stroke="rgb(66, 66, 66)" stroke-width="1px" opacity="0.25"></line><line x1="241.66666666666669" y1="0" x2="241.66666666666669" y2="177" fill="rgb(0, 0, 0)" stroke="rgb(66, 66, 66)" stroke-width="1px" opacity="0.25"></line><line x1="265.8333333333333" y1="0" x2="265.8333333333333" y2="177" fill="rgb(0, 0, 0)" stroke="rgb(66, 66, 66)" stroke-width="1px" opacity="0.25"></line><line x1="290" y1="0" x2="290" y2="177" fill="rgb(0, 0, 0)" stroke="rgb(66, 66, 66)" stroke-width="1px" opacity="0.25"></line></g><g><line x1="0" y1="177" x2="290" y2="177" fill="rgb(0, 0, 0)" stroke="rgb(66, 66, 66)" stroke-width="1px" opacity="0.25"></line><line x1="0" y1="154.875" x2="290" y2="154.875" fill="rgb(0, 0, 0)" stroke="rgb(66, 66, 66)" stroke-width="1px" opacity="0.25"></line><line x1="0" y1="132.75" x2="290" y2="132.75" fill="rgb(0, 0, 0)" stroke="rgb(66, 66, 66)" stroke-width="1px" opacity="0.25"></line><line x1="0" y1="110.625" x2="290" y2="110.625" fill="rgb(0, 0, 0)" stroke="rgb(66, 66, 66)" stroke-width="1px" opacity="0.25"></line><line x1="0" y1="88.5" x2="290" y2="88.5" fill="rgb(0, 0, 0)" stroke="rgb(66, 66, 66)" stroke-width="1px" opacity="0.25"></line><line x1="0" y1="66.375" x2="290" y2="66.375" fill="rgb(0, 0, 0)" stroke="rgb(66, 66, 66)" stroke-width="1px" opacity="0.25"></line><line x1="0" y1="44.25000000000002" x2="290" y2="44.25000000000002" fill="rgb(0, 0, 0)" stroke="rgb(66, 66, 66)" stroke-width="1px" opacity="0.25"></line><line x1="0" y1="22.125" x2="290" y2="22.125" fill="rgb(0, 0, 0)" stroke="rgb(66, 66, 66)" stroke-width="1px" opacity="0.25"></line><line x1="0" y1="0" x2="290" y2="0" fill="rgb(0, 0, 0)" stroke="rgb(66, 66, 66)" stroke-width="1px" opacity="0.25"></line></g></g></g><g><g><line x1="0" y1="199.125" x2="290" y2="199.125" fill="rgb(0, 0, 0)" stroke="rgb(153, 153, 153)" stroke-width="1.5px"></line></g></g><g><g><line x1="24.166666666666664" y1="0" x2="24.166666666666664" y2="177" fill="rgb(0, 0, 0)" stroke="rgb(153, 153, 153)" stroke-width="1.5px"></line></g></g><g><g><g><g><g><path stroke="rgb(51, 187, 238)" stroke-width="2px" d="M25.375,170.9377509020269L26.583333333333332,120.802499525249L27.791666666666668,63.69787386059761L29,50.24588352441788L30.208333333333336,45.86513189971447L31.416666666666668,42.325124725699425L32.625,37.45763464272022L33.833333333333336,33.873383313417435L35.041666666666664,32.2361253798008L36.25,31.063503608107567L37.458333333333336,30.510379135608673L38.666666666666664,28.961635887622833L39.875,26.859754979610443L41.083333333333336,28.76250422000885L42.29166666666667,27.05887345969677L43.5,26.550006330013275L44.708333333333336,26.550006330013275L45.916666666666664,24.979134410619736L47.125,24.448125422000885L48.33333333333333,23.364005148410797L49.541666666666664,23.14275799691677L50.75,22.67813502252102L51.958333333333336,23.341876477003098L53.166666666666664,23.12062932550907L54.375,23.80649945139885L55.583333333333336,23.40824930369854L56.791666666666664,22.23562753200531L58,22.169254705309868L59.208333333333336,22.899382174015045L60.41666666666667,22.058624535799026L61.625,22.125010550022125L62.833333333333336,21.107249915599823L64.04166666666667,19.47000516951084L65.25,19.735509663820267L66.45833333333333,19.691252321004868L67.66666666666667,19.558506667613983L68.875,19.558506667613983L70.08333333333333,18.385884895920753L71.29166666666666,19.514249324798584L72.5,18.385884895920753L73.70833333333333,18.16462455689907L74.91666666666667,18.142509073019028L76.125,18.031878903508186L77.33333333333333,18.054007574915886L78.54166666666666,18.054007574915886L79.75,18.62926071882248L80.95833333333333,17.877004578709602L82.16666666666667,16.9035012871027L83.375,16.438878312706947L84.58333333333334,16.859257131814957L85.79166666666667,16.173373818397522L87,15.73087951540947L88.20833333333333,15.33262936770916L89.41666666666667,15.33262936770916L90.625,15.33262936770916L91.83333333333333,15.553876519203186L93.04166666666667,15.841509684920311L94.25,15.930011183023453L95.45833333333333,15.863625168800354L96.66666666666666,16.084885507822037L97.875,15.266256541013718L99.08333333333333,15.75300818681717L100.29166666666667,16.682254135608673L101.5,14.624630570411682L102.70833333333334,14.978623375296593L103.91666666666667,14.978623375296593L105.125,14.314881920814514L106.33333333333333,13.960875928401947L107.54166666666667,15.376873522996902L108.75,14.95650789141655L109.95833333333333,14.95650789141655L111.16666666666667,15.045009389519691L112.375,15.509632363915443L113.58333333333333,14.51400040090084L114.79166666666666,14.071506097912788L116,15.553876519203186L117.20833333333333,16.372505486011505L118.41666666666667,14.491884917020798L119.625,14.491884917020798L120.83333333333334,14.624630570411682L122.04166666666667,14.735260739922523L123.25,14.314881920814514L124.45833333333333,13.651127278804779L125.66666666666667,12.9873858243227L126.875,13.78388611972332L128.08333333333334,13.872374430298805L129.29166666666669,12.9873858243227L130.5,12.9873858243227L131.70833333333334,12.9873858243227L132.91666666666666,12.9873858243227L134.125,13.806001603603363L135.33333333333334,13.142260149121284L136.54166666666666,13.142260149121284L137.75,13.562625780701637L138.95833333333334,12.85462698340416L140.16666666666666,12.85462698340416L141.375,12.85462698340416L142.58333333333331,13.341378629207611L143.79166666666666,14.403383418917656L145,15.509632363915443L146.20833333333334,14.823749050498009L147.41666666666666,13.25287713110447L148.625,14.093634769320488L149.83333333333334,13.828130275011063L151.04166666666669,13.075874134898186L152.25,12.87675565481186L153.45833333333334,12.898884326219559L154.66666666666666,12.810382828116417L155.875,12.810382828116417L157.08333333333331,13.031629979610443L158.29166666666666,15.686635360121727L159.5,13.76175744831562L160.70833333333334,14.270624577999115L161.91666666666666,12.655508503317833L163.125,13.142260149121284L164.33333333333334,13.142260149121284L165.54166666666666,13.031629979610443L166.75,14.53612907230854L167.95833333333334,13.806001603603363L169.16666666666669,13.38563597202301L170.375,13.717500105500221L171.58333333333334,13.673255950212479L172.79166666666666,13.562625780701637L174,12.279373839497566L175.20833333333331,12.345759853720665L176.41666666666666,12.345759853720665L177.625,12.190885528922081L178.83333333333334,13.23074845969677L180.04166666666666,12.10238403081894L181.25,12.10238403081894L182.45833333333334,13.562625780701637L183.66666666666666,13.894503101706505L184.875,13.983004599809647L186.08333333333334,14.447627574205399L187.29166666666669,13.319249957799911L188.5,13.717500105500221L189.70833333333334,12.85462698340416L190.91666666666666,12.522749662399292L192.125,12.522749662399292L193.33333333333331,11.836879536509514L194.54166666666666,12.08025535941124L195.75,12.85462698340416L196.95833333333334,12.43424816429615L198.16666666666666,12.279373839497566L199.375,13.341378629207611L200.58333333333334,13.474124282598495L201.79166666666666,12.345759853720665L203,11.859008207917213L204.20833333333334,12.05812668800354L205.41666666666669,12.05812668800354L206.625,13.62899860739708L207.83333333333334,13.62899860739708L209.04166666666666,12.567007005214691L210.25,12.323631182312965L211.45833333333331,13.36350730061531L212.66666666666666,13.36350730061531L213.875,12.146628186106682L215.08333333333334,11.969625189900398L216.29166666666666,11.018250569701195L217.5,12.301502510905266L218.70833333333334,11.593503713607788L219.91666666666666,11.881123691797256L221.125,11.438629388809204L222.33333333333334,11.30588373541832L223.54166666666669,11.859008207917213L224.75,11.859008207917213L225.95833333333334,10.819132089614868L227.16666666666666,10.37662459909916L228.375,10.951877743005753L229.58333333333331,11.26162639260292L230.79166666666666,11.195253565907478L232,11.947509706020355L233.20833333333334,11.28375506401062L234.41666666666666,11.28375506401062L235.625,11.28375506401062L236.83333333333334,11.991753861308098L238.04166666666666,11.416500717401505L239.25,12.213001012802124L240.45833333333334,12.58913567662239L241.66666666666669,12.500634178519249L242.875,13.186504304409027L244.08333333333334,11.814750865101814L245.29166666666666,11.460758060216904L246.5,12.013882532715797L247.70833333333331,11.70413388311863L248.91666666666666,12.9873858243227L250.125,15.465375021100044L251.33333333333334,14.226380422711372L252.54166666666666,11.991753861308098L253.75,11.991753861308098L254.95833333333334,11.062507912516594L256.1666666666667,11.239510908722878L257.375,10.686373248696327L258.58333333333337,15.421130865812302L259.7916666666667,12.168756857514381L261,12.213001012802124L262.2083333333333,12.788254156708717L263.4166666666667,11.460758060216904L264.625,12.08025535941124L265.8333333333333,12.190885528922081" style="fill: none;" fill="none"></path></g><g><path stroke="rgb(238, 51, 119)" stroke-width="2px" d="M25.375,142.9938776269555L26.583333333333332,174.0795013345778L27.791666666666668,186.88987559080124L32.625,187.00049999076873L33.833333333333336,174.01312521100044L35.041666666666664,169.38900106027722L36.25,171.84487642161548L37.458333333333336,166.1366270519793L38.666666666666664,156.09187515825033L39.875,155.22900203615427L41.083333333333336,166.55699927732348L42.29166666666667,172.442249994725L43.5,173.1060013398528L44.708333333333336,173.1060013398528L45.916666666666664,168.5925007648766L47.125,140.36100091785192L48.33333333333333,148.54725102335215L49.541666666666664,160.69387723132968L50.75,160.71600260585546L51.958333333333336,170.3625010550022L53.166666666666664,163.260374519974L54.375,170.56162612885237L55.583333333333336,161.84437692537904L56.791666666666664,154.1006277166307L58,151.15800235792994L59.208333333333336,155.25112741068006L60.41666666666667,148.45875282213092L61.625,127.04174964129925L62.833333333333336,133.21462693065405L64.04166666666667,147.26400237903L65.25,160.5168775320053L66.45833333333333,155.78212650865316L67.66666666666667,135.4935042411089L68.875,135.4935042411089L70.08333333333333,122.41762878745794L71.29166666666666,160.82662618160248L72.5,142.68412897735834L73.70833333333333,133.08187468349934L74.91666666666667,130.47112664580345L76.125,130.71450246870518L77.33333333333333,138.74587824940681L78.54166666666666,138.74587824940681L79.75,147.7950014770031L80.95833333333333,134.520000949502L82.16666666666667,137.3962534815073L83.375,130.29412364959717L84.58333333333334,144.0780011974275L85.79166666666667,149.6977507174015L87,137.28562331199646L88.20833333333333,124.25399860739708L89.41666666666667,124.25399860739708L90.625,124.25399860739708L91.83333333333333,125.40450489521027L93.04166666666667,136.86525108665228L94.25,146.04712656140327L95.45833333333333,133.3031284287572L96.66666666666666,112.7490016669035L97.875,118.0589992403984L99.08333333333333,104.58488023281097L100.29166666666667,106.11150140315294L101.5,95.80125490576029L102.70833333333334,77.85787618160248L103.91666666666667,77.85787618160248L105.125,87.19463257491589L106.33333333333333,100.159877859056L107.54166666666667,105.3813805282116L108.75,67.59187383949757L109.95833333333333,67.59187383949757L111.16666666666667,68.21138432621956L112.375,68.56537713110447L113.58333333333333,85.33612748980522L114.79166666666666,103.78837993741035L116,126.99749889224768L117.20833333333333,132.66150245815516L118.41666666666667,126.99749889224768L119.625,126.99749889224768L120.83333333333334,124.8071296736598L122.04166666666667,104.03174916654825L123.25,94.6728772893548L124.45833333333333,96.61987727880478L125.66666666666667,100.31475218385458L126.875,100.8457545787096L128.08333333333334,101.55375337600708L129.29166666666669,100.22625068575144L130.5,100.22625068575144L131.70833333333334,100.22625068575144L132.91666666666666,100.22625068575144L134.125,124.01062937825918L135.33333333333334,97.88100054860115L136.54166666666666,97.88100054860115L137.75,118.32450373470783L138.95833333333334,106.15575215220451L140.16666666666666,106.15575215220451L141.375,106.15575215220451L142.58333333333331,120.64762520045042L143.79166666666666,125.44874905049801L145,140.33887884020805L146.20833333333334,139.87424927204847L147.41666666666666,125.97975144535303L148.625,138.85650182515383L149.83333333333334,141.4672498628497L151.04166666666669,118.32450373470783L152.25,127.7939991876483L153.45833333333334,138.74587824940681L154.66666666666666,154.03425159305334L155.875,159.49912678822875L157.08333333333331,153.03862622380257L158.29166666666666,155.98125158250332L159.5,157.33087635040283L160.70833333333334,136.79887825995684L161.91666666666666,140.42737374454737L163.125,154.18912591785192L164.33333333333334,154.18912591785192L165.54166666666666,134.67487527430058L166.75,161.53462497889996L167.95833333333334,164.4993757121265L169.16666666666669,160.60537573322654L170.375,173.2387502901256L171.58333333333334,161.68949930369854L172.79166666666666,155.1847512871027L174,169.52175001055002L175.20833333333331,160.3841252848506L176.41666666666666,160.3841252848506L177.625,150.69337608665228L178.83333333333334,143.19300270080566L180.04166666666666,137.61750063300133L181.25,137.61750063300133L182.45833333333334,134.18812362849712L183.66666666666666,125.51512847095728L184.875,127.59487411379814L186.08333333333334,142.0203743353486L187.29166666666669,147.57375102862716L188.5,128.28075083345175L189.70833333333334,132.30750305950642L190.91666666666666,130.13924932479858L192.125,130.13924932479858L193.33333333333331,124.96200399845839L194.54166666666666,144.83025074377656L195.75,158.4813760444522L196.95833333333334,151.18012773245573L198.16666666666666,135.6041278168559L199.375,139.14412839710712L200.58333333333334,141.66637493669987L201.79166666666666,126.5771266669035L203,114.91725540161133L204.20833333333334,133.1482541039586L205.41666666666669,133.1482541039586L206.625,138.52462450414896L207.83333333333334,138.52462450414896L209.04166666666666,118.32450373470783L210.25,107.61600049585104L211.45833333333331,106.64250379800797L212.66666666666666,106.64250379800797L213.875,109.60725123435259L215.08333333333334,111.02325542271137L216.29166666666666,109.89487780630589L217.5,100.40325368195772L218.70833333333334,114.29775150865316L219.91666666666666,108.45675154030323L221.125,145.36124984174967L222.33333333333334,156.18037665635347L223.54166666666669,132.573000960052L224.75,132.573000960052L225.95833333333334,133.7898734807968L227.16666666666666,127.92675143480301L228.375,117.06337387114763L229.58333333333331,119.89537565410137L230.79166666666666,128.56837740540504L232,118.14750073850155L233.20833333333334,129.18787470459938L234.41666666666666,129.18787470459938L235.625,129.18787470459938L236.83333333333334,133.63499915599823L238.04166666666666,137.48474838584661L239.25,134.29875379800797L240.45833333333334,146.31262775883079L241.66666666666669,147.88349967822433L242.875,146.60025103390217L244.08333333333334,139.87424927204847L245.29166666666666,142.26375015825033L246.5,98.45625369250774L247.70833333333331,111.2445025742054L248.91666666666666,93.94274982064962L250.125,136.79887825995684L251.33333333333334,100.04925428330898L252.54166666666666,131.57737559080124L253.75,131.57737559080124L254.95833333333334,139.23262330144644L256.1666666666667,150.82612503692508L257.375,109.47449898719788L258.58333333333337,103.3016282916069L259.7916666666667,122.10788013786077L261,129.1657526269555L262.2083333333333,128.2143780067563L263.4166666666667,128.59049948304892L264.625,153.34837487339973L265.8333333333333,160.7823754325509" style="fill: none;" fill="none"></path></g></g></g></g></g></g><g transform="translate(40, 177)" clip-path="url(#clip_1)"><clipPath id="clip_1"><rect width="290" height="23"></rect></clipPath><g><g><line x1="0" y1="0" x2="0" y2="5" style="visibility: inherit;" fill="rgb(0, 0, 0)" stroke="rgb(204, 204, 204)" stroke-width="1px"></line><line x1="24.166666666666664" y1="0" x2="24.166666666666664" y2="5" style="visibility: inherit;" fill="rgb(0, 0, 0)" stroke="rgb(204, 204, 204)" stroke-width="1px"></line><line x1="48.33333333333333" y1="0" x2="48.33333333333333" y2="5" style="visibility: inherit;" fill="rgb(0, 0, 0)" stroke="rgb(204, 204, 204)" stroke-width="1px"></line><line x1="72.5" y1="0" x2="72.5" y2="5" style="visibility: inherit;" fill="rgb(0, 0, 0)" stroke="rgb(204, 204, 204)" stroke-width="1px"></line><line x1="96.66666666666666" y1="0" x2="96.66666666666666" y2="5" style="visibility: inherit;" fill="rgb(0, 0, 0)" stroke="rgb(204, 204, 204)" stroke-width="1px"></line><line x1="120.83333333333334" y1="0" x2="120.83333333333334" y2="5" style="visibility: inherit;" fill="rgb(0, 0, 0)" stroke="rgb(204, 204, 204)" stroke-width="1px"></line><line x1="145" y1="0" x2="145" y2="5" style="visibility: inherit;" fill="rgb(0, 0, 0)" stroke="rgb(204, 204, 204)" stroke-width="1px"></line><line x1="169.16666666666669" y1="0" x2="169.16666666666669" y2="5" style="visibility: inherit;" fill="rgb(0, 0, 0)" stroke="rgb(204, 204, 204)" stroke-width="1px"></line><line x1="193.33333333333331" y1="0" x2="193.33333333333331" y2="5" style="visibility: inherit;" fill="rgb(0, 0, 0)" stroke="rgb(204, 204, 204)" stroke-width="1px"></line><line x1="217.5" y1="0" x2="217.5" y2="5" style="visibility: inherit;" fill="rgb(0, 0, 0)" stroke="rgb(204, 204, 204)" stroke-width="1px"></line><line x1="241.66666666666669" y1="0" x2="241.66666666666669" y2="5" style="visibility: inherit;" fill="rgb(0, 0, 0)" stroke="rgb(204, 204, 204)" stroke-width="1px"></line><line x1="265.8333333333333" y1="0" x2="265.8333333333333" y2="5" style="visibility: inherit;" fill="rgb(0, 0, 0)" stroke="rgb(204, 204, 204)" stroke-width="1px"></line><line x1="290" y1="0" x2="290" y2="5" style="visibility: inherit;" fill="rgb(0, 0, 0)" stroke="rgb(204, 204, 204)" stroke-width="1px"></line></g><g transform="translate(0, 8)"><text x="0" y="0" dx="0em" dy="0.95em" style="text-anchor: middle; visibility: hidden; font-family: Roboto, sans-serif; font-size: 12px; font-weight: 200;" fill="rgb(33, 33, 33)" stroke="none" stroke-width="1px">-20</text><text x="24.166666666666664" y="0" dx="0em" dy="0.95em" style="text-anchor: middle; visibility: inherit; font-family: Roboto, sans-serif; font-size: 12px; font-weight: 200;" fill="rgb(33, 33, 33)" stroke="none" stroke-width="1px">0</text><text x="48.33333333333333" y="0" dx="0em" dy="0.95em" style="text-anchor: middle; visibility: hidden; font-family: Roboto, sans-serif; font-size: 12px; font-weight: 200;" fill="rgb(33, 33, 33)" stroke="none" stroke-width="1px">20</text><text x="72.5" y="0" dx="0em" dy="0.95em" style="text-anchor: middle; visibility: inherit; font-family: Roboto, sans-serif; font-size: 12px; font-weight: 200;" fill="rgb(33, 33, 33)" stroke="none" stroke-width="1px">40</text><text x="96.66666666666666" y="0" dx="0em" dy="0.95em" style="text-anchor: middle; visibility: hidden; font-family: Roboto, sans-serif; font-size: 12px; font-weight: 200;" fill="rgb(33, 33, 33)" stroke="none" stroke-width="1px">60</text><text x="120.83333333333334" y="0" dx="0em" dy="0.95em" style="text-anchor: middle; visibility: inherit; font-family: Roboto, sans-serif; font-size: 12px; font-weight: 200;" fill="rgb(33, 33, 33)" stroke="none" stroke-width="1px">80</text><text x="145" y="0" dx="0em" dy="0.95em" style="text-anchor: middle; visibility: hidden; font-family: Roboto, sans-serif; font-size: 12px; font-weight: 200;" fill="rgb(33, 33, 33)" stroke="none" stroke-width="1px">100</text><text x="169.16666666666669" y="0" dx="0em" dy="0.95em" style="text-anchor: middle; visibility: inherit; font-family: Roboto, sans-serif; font-size: 12px; font-weight: 200;" fill="rgb(33, 33, 33)" stroke="none" stroke-width="1px">120</text><text x="193.33333333333331" y="0" dx="0em" dy="0.95em" style="text-anchor: middle; visibility: hidden; font-family: Roboto, sans-serif; font-size: 12px; font-weight: 200;" fill="rgb(33, 33, 33)" stroke="none" stroke-width="1px">140</text><text x="217.5" y="0" dx="0em" dy="0.95em" style="text-anchor: middle; visibility: inherit; font-family: Roboto, sans-serif; font-size: 12px; font-weight: 200;" fill="rgb(33, 33, 33)" stroke="none" stroke-width="1px">160</text><text x="241.66666666666669" y="0" dx="0em" dy="0.95em" style="text-anchor: middle; visibility: hidden; font-family: Roboto, sans-serif; font-size: 12px; font-weight: 200;" fill="rgb(33, 33, 33)" stroke="none" stroke-width="1px">180</text><text x="265.8333333333333" y="0" dx="0em" dy="0.95em" style="text-anchor: middle; visibility: inherit; font-family: Roboto, sans-serif; font-size: 12px; font-weight: 200;" fill="rgb(33, 33, 33)" stroke="none" stroke-width="1px">200</text><text x="290" y="0" dx="0em" dy="0.95em" style="text-anchor: middle; visibility: hidden; font-family: Roboto, sans-serif; font-size: 12px; font-weight: 200;" fill="rgb(33, 33, 33)" stroke="none" stroke-width="1px">220</text></g><line x1="0" y1="0" x2="290" y2="0" fill="rgb(0, 0, 0)" stroke="rgb(204, 204, 204)" stroke-width="1px"></line></g></g></g></g></svg>