<svg viewBox="0 0 330 200" xmlns="http://www.w3.org/2000/svg"><g><g><g><g><g><line x1="40" y1="177" x2="35" y2="177" style="visibility: inherit;" fill="rgb(0, 0, 0)" stroke="rgb(204, 204, 204)" stroke-width="1px"></line><line x1="40" y1="157.33333333333331" x2="35" y2="157.33333333333331" style="visibility: inherit;" fill="rgb(0, 0, 0)" stroke="rgb(204, 204, 204)" stroke-width="1px"></line><line x1="40" y1="137.66666666666666" x2="35" y2="137.66666666666666" style="visibility: inherit;" fill="rgb(0, 0, 0)" stroke="rgb(204, 204, 204)" stroke-width="1px"></line><line x1="40" y1="118.00000000000001" x2="35" y2="118.00000000000001" style="visibility: inherit;" fill="rgb(0, 0, 0)" stroke="rgb(204, 204, 204)" stroke-width="1px"></line><line x1="40" y1="98.33333333333334" x2="35" y2="98.33333333333334" style="visibility: inherit;" fill="rgb(0, 0, 0)" stroke="rgb(204, 204, 204)" stroke-width="1px"></line><line x1="40" y1="78.66666666666666" x2="35" y2="78.66666666666666" style="visibility: inherit;" fill="rgb(0, 0, 0)" stroke="rgb(204, 204, 204)" stroke-width="1px"></line><line x1="40" y1="59.00000000000001" x2="35" y2="59.00000000000001" style="visibility: inherit;" fill="rgb(0, 0, 0)" stroke="rgb(204, 204, 204)" stroke-width="1px"></line><line x1="40" y1="39.33333333333335" x2="35" y2="39.33333333333335" style="visibility: inherit;" fill="rgb(0, 0, 0)" stroke="rgb(204, 204, 204)" stroke-width="1px"></line><line x1="40" y1="19.666666666666657" x2="35" y2="19.666666666666657" style="visibility: inherit;" fill="rgb(0, 0, 0)" stroke="rgb(204, 204, 204)" stroke-width="1px"></line><line x1="40" y1="0" x2="35" y2="0" style="visibility: inherit;" fill="rgb(0, 0, 0)" stroke="rgb(204, 204, 204)" stroke-width="1px"></line></g><g transform="translate(30, 0)"><text x="0" y="177" dx="0em" dy="0.3em" style="text-anchor: end; visibility: hidden; font-family: Roboto, sans-serif; font-size: 12px; font-weight: 200;" fill="rgb(33, 33, 33)" stroke="none" stroke-width="1px">0</text><text x="0" y="157.33333333333331" dx="0em" dy="0.3em" style="text-anchor: end; visibility: inherit; font-family: Roboto, sans-serif; font-size: 12px; font-weight: 200;" fill="rgb(33, 33, 33)" stroke="none" stroke-width="1px">0.1</text><text x="0" y="137.66666666666666" dx="0em" dy="0.3em" style="text-anchor: end; visibility: hidden; font-family: Roboto, sans-serif; font-size: 12px; font-weight: 200;" fill="rgb(33, 33, 33)" stroke="none" stroke-width="1px">0.2</text><text x="0" y="118.00000000000001" dx="0em" dy="0.3em" style="text-anchor: end; visibility: inherit; font-family: Roboto, sans-serif; font-size: 12px; font-weight: 200;" fill="rgb(33, 33, 33)" stroke="none" stroke-width="1px">0.3</text><text x="0" y="98.33333333333334" dx="0em" dy="0.3em" style="text-anchor: end; visibility: hidden; font-family: Roboto, sans-serif; font-size: 12px; font-weight: 200;" fill="rgb(33, 33, 33)" stroke="none" stroke-width="1px">0.4</text><text x="0" y="78.66666666666666" dx="0em" dy="0.3em" style="text-anchor: end; visibility: inherit; font-family: Roboto, sans-serif; font-size: 12px; font-weight: 200;" fill="rgb(33, 33, 33)" stroke="none" stroke-width="1px">0.5</text><text x="0" y="59.00000000000001" dx="0em" dy="0.3em" style="text-anchor: end; visibility: hidden; font-family: Roboto, sans-serif; font-size: 12px; font-weight: 200;" fill="rgb(33, 33, 33)" stroke="none" stroke-width="1px">0.6</text><text x="0" y="39.33333333333335" dx="0em" dy="0.3em" style="text-anchor: end; visibility: inherit; font-family: Roboto, sans-serif; font-size: 12px; font-weight: 200;" fill="rgb(33, 33, 33)" stroke="none" stroke-width="1px">0.7</text><text x="0" y="19.666666666666657" dx="0em" dy="0.3em" style="text-anchor: end; visibility: hidden; font-family: Roboto, sans-serif; font-size: 12px; font-weight: 200;" fill="rgb(33, 33, 33)" stroke="none" stroke-width="1px">0.8</text><text x="0" y="0" dx="0em" dy="0.3em" style="text-anchor: end; visibility: hidden; font-family: Roboto, sans-serif; font-size: 12px; font-weight: 200;" fill="rgb(33, 33, 33)" stroke="none" stroke-width="1px">0.9</text></g><line x1="40" y1="0" x2="40" y2="177" fill="rgb(0, 0, 0)" stroke="rgb(204, 204, 204)" stroke-width="1px"></line></g></g><g transform="translate(40, 0)" clip-path="url(#clip_0)"><clipPath id="clip_0"><rect width="290" height="177"></rect></clipPath><g><g><g><line x1="0" y1="0" x2="0" y2="177" fill="rgb(0, 0, 0)" stroke="rgb(66, 66, 66)" stroke-width="1px" opacity="0.25"></line><line x1="24.166666666666664" y1="0" x2="24.166666666666664" y2="177" fill="rgb(0, 0, 0)" stroke="rgb(66, 66, 66)" stroke-width="1px" opacity="0.25"></line><line x1="48.33333333333333" y1="0" x2="48.33333333333333" y2="177" fill="rgb(0, 0, 0)" stroke="rgb(66, 66, 66)" stroke-width="1px" opacity="0.25"></line><line x1="72.5" y1="0" x2="72.5" y2="177" fill="rgb(0, 0, 0)" stroke="rgb(66, 66, 66)" stroke-width="1px" opacity="0.25"></line><line x1="96.66666666666666" y1="0" x2="96.66666666666666" y2="177" fill="rgb(0, 0, 0)" stroke="rgb(66, 66, 66)" stroke-width="1px" opacity="0.25"></line><line x1="120.83333333333334" y1="0" x2="120.83333333333334" y2="177" fill="rgb(0, 0, 0)" stroke="rgb(66, 66, 66)" stroke-width="1px" opacity="0.25"></line><line x1="145" y1="0" x2="145" y2="177" fill="rgb(0, 0, 0)" stroke="rgb(66, 66, 66)" stroke-width="1px" opacity="0.25"></line><line x1="169.16666666666669" y1="0" x2="169.16666666666669" y2="177" fill="rgb(0, 0, 0)" stroke="rgb(66, 66, 66)" stroke-width="1px" opacity="0.25"></line><line x1="193.33333333333331" y1="0" x2="193.33333333333331" y2="177" fill="rgb(0, 0, 0)" stroke="rgb(66, 66, 66)" stroke-width="1px" opacity="0.25"></line><line x1="217.5" y1="0" x2="217.5" y2="177" fill="rgb(0, 0, 0)" stroke="rgb(66, 66, 66)" stroke-width="1px" opacity="0.25"></line><line x1="241.66666666666669" y1="0" x2="241.66666666666669" y2="177" fill="rgb(0, 0, 0)" stroke="rgb(66, 66, 66)" stroke-width="1px" opacity="0.25"></line><line x1="265.8333333333333" y1="0" x2="265.8333333333333" y2="177" fill="rgb(0, 0, 0)" stroke="rgb(66, 66, 66)" stroke-width="1px" opacity="0.25"></line><line x1="290" y1="0" x2="290" y2="177" fill="rgb(0, 0, 0)" stroke="rgb(66, 66, 66)" stroke-width="1px" opacity="0.25"></line></g><g><line x1="0" y1="177" x2="290" y2="177" fill="rgb(0, 0, 0)" stroke="rgb(66, 66, 66)" stroke-width="1px" opacity="0.25"></line><line x1="0" y1="157.33333333333331" x2="290" y2="157.33333333333331" fill="rgb(0, 0, 0)" stroke="rgb(66, 66, 66)" stroke-width="1px" opacity="0.25"></line><line x1="0" y1="137.66666666666666" x2="290" y2="137.66666666666666" fill="rgb(0, 0, 0)" stroke="rgb(66, 66, 66)" stroke-width="1px" opacity="0.25"></line><line x1="0" y1="118.00000000000001" x2="290" y2="118.00000000000001" fill="rgb(0, 0, 0)" stroke="rgb(66, 66, 66)" stroke-width="1px" opacity="0.25"></line><line x1="0" y1="98.33333333333334" x2="290" y2="98.33333333333334" fill="rgb(0, 0, 0)" stroke="rgb(66, 66, 66)" stroke-width="1px" opacity="0.25"></line><line x1="0" y1="78.66666666666666" x2="290" y2="78.66666666666666" fill="rgb(0, 0, 0)" stroke="rgb(66, 66, 66)" stroke-width="1px" opacity="0.25"></line><line x1="0" y1="59.00000000000001" x2="290" y2="59.00000000000001" fill="rgb(0, 0, 0)" stroke="rgb(66, 66, 66)" stroke-width="1px" opacity="0.25"></line><line x1="0" y1="39.33333333333335" x2="290" y2="39.33333333333335" fill="rgb(0, 0, 0)" stroke="rgb(66, 66, 66)" stroke-width="1px" opacity="0.25"></line><line x1="0" y1="19.666666666666657" x2="290" y2="19.666666666666657" fill="rgb(0, 0, 0)" stroke="rgb(66, 66, 66)" stroke-width="1px" opacity="0.25"></line><line x1="0" y1="0" x2="290" y2="0" fill="rgb(0, 0, 0)" stroke="rgb(66, 66, 66)" stroke-width="1px" opacity="0.25"></line></g></g></g><g><g><line x1="0" y1="177" x2="290" y2="177" fill="rgb(0, 0, 0)" stroke="rgb(153, 153, 153)" stroke-width="1.5px"></line></g></g><g><g><line x1="24.166666666666664" y1="0" x2="24.166666666666664" y2="177" fill="rgb(0, 0, 0)" stroke="rgb(153, 153, 153)" stroke-width="1.5px"></line></g></g><g><g><g><g><g><path stroke="rgb(51, 187, 238)" stroke-width="2px" d="M25.375,151.70866640408835L26.583333333333332,101.99133547147115L27.791666666666668,53.375333070755L29,45.233341773351036L30.208333333333336,39.98233787218731L31.416666666666668,35.95067036151887L32.625,35.51800223191579L33.833333333333336,29.93266812960307L35.041666666666664,28.182337403297424L36.25,26.21567261219026L37.458333333333336,24.70133415857951L38.666666666666664,24.780002156893406L39.875,22.734669367472325L41.083333333333336,20.944998780886333L42.29166666666667,20.335336446762085L43.5,20.905670642852783L44.708333333333336,18.290003657341003L45.916666666666664,18.290003657341003L47.125,18.526007652282715L48.33333333333333,17.995001594225567L49.541666666666664,16.461004932721462L50.75,16.185672799746197L51.958333333333336,16.185672799746197L53.166666666666664,15.929998874664314L54.375,16.244670867919922L55.583333333333336,16.91334299246471L56.791666666666664,16.14633293946585L58,16.166002869606025L59.208333333333336,15.733334740002947L60.41666666666667,16.14633293946585L61.625,14.90733834107718L62.833333333333336,14.90733834107718L64.04166666666667,14.927008271217353L65.25,14.927008271217353L66.45833333333333,14.710674206415815L67.66666666666667,14.750002344449365L68.875,13.904336015383405L70.08333333333333,15.123672405878699L71.29166666666666,14.238666216532392L72.5,14.120670080184944L73.70833333333333,12.99967161814372L74.91666666666667,12.99967161814372L76.125,13.255333820978809L77.33333333333333,14.415672143300378L78.54166666666666,13.255333820978809L79.75,13.49133781592052L80.95833333333333,13.629003882408142L82.16666666666667,13.94367587566377L83.375,13.825668017069507L84.58333333333334,13.668332020441694L85.79166666666667,13.707671880722058L87,13.314331889152534L88.20833333333333,12.704669555028284L89.41666666666667,12.704669555028284L90.625,13.058669686317444L91.83333333333333,12.763667623202009L93.04166666666667,13.334001819292707L94.25,12.33099949359895L95.45833333333333,12.429337422053022L96.66666666666666,11.957341154416413L97.875,13.117667754491167L99.08333333333333,12.19333342711131L100.29166666666667,12.173675219217932L101.5,11.83933329582215L102.70833333333334,12.78333755334218L103.91666666666667,12.429337422053022L105.125,13.13733768463136L106.33333333333333,11.721337159474702L107.54166666666667,12.134335358937586L108.75,13.216005682945259L109.95833333333333,12.881675481796272L111.16666666666667,12.154005289077759L112.375,11.58367109298706L113.58333333333333,11.465674956639612L114.79166666666666,11.760665297508252L116,11.93767122427622L117.20833333333333,11.367337028185522L118.41666666666667,10.83634269237519L119.625,11.544342954953509L120.83333333333334,11.288669029871626L122.04166666666667,11.288669029871626L123.25,11.32800889015199L124.45833333333333,11.32800889015199L125.66666666666667,11.367337028185522L126.875,11.918001294136047L128.08333333333334,11.780335227648425L129.29166666666669,11.68200902144115L130.5,11.524673024813337L131.70833333333334,11.052665034929914L132.91666666666666,10.914998968442292L134.125,10.97400875886281L135.33333333333334,10.97400875886281L136.54166666666666,10.97400875886281L137.75,11.19034282366435L138.95833333333334,11.780335227648425L140.16666666666666,10.934668898582466L141.375,10.580668767293306L142.58333333333331,10.77733290195465L143.79166666666666,9.951336503028882L145,10.620008627573652L146.20833333333334,10.620008627573652L147.41666666666666,10.97400875886281L148.625,10.797002832094824L149.83333333333334,11.662339091300977L151.04166666666669,10.462672630945837L152.25,10.462672630945837L153.45833333333334,10.52167069911958L154.66666666666666,9.93166657288869L155.875,9.77434229850769L157.08333333333331,9.990676363309229L158.29166666666666,9.990676363309229L159.5,10.42333277066549L160.70833333333334,10.03000450134278L161.91666666666666,10.285666704177869L163.125,10.797002832094824L164.33333333333334,11.387006958325715L165.54166666666666,11.387006958325715L166.75,10.738004763921099L167.95833333333334,10.089002569516504L169.16666666666669,12.252343217531848L170.375,10.757674694061292L171.58333333333334,10.266008496284492L172.79166666666666,10.344676494598389L174,9.479340235392256L175.20833333333331,9.42034216721853L176.41666666666666,9.656334439913428L177.625,9.990676363309229L178.83333333333334,9.77434229850769L180.04166666666666,10.659336765607202L181.25,10.48234256108603L182.45833333333334,10.895340760548914L183.66666666666666,10.403674562772112L184.875,10.206998705863953L186.08333333333334,10.285666704177869L187.29166666666669,11.111674825350452L188.5,9.892338434855139L189.70833333333334,9.558008233706152L190.91666666666666,9.282676100730908L192.125,10.738004763921099L193.33333333333331,10.679006695747375L194.54166666666666,9.754672368367517L195.75,10.344676494598389L196.95833333333334,9.597336371739702L198.16666666666666,9.656334439913428L199.375,9.656334439913428L200.58333333333334,9.577666441599531L201.79166666666666,9.22366631031037L203,9.007332245508833L204.20833333333334,9.735002438227344L205.41666666666669,9.558008233706152L206.625,10.462672630945837L207.83333333333334,10.600338697433479L209.04166666666666,11.58367109298706L210.25,11.308338960011797L211.45833333333331,10.797002832094824L212.66666666666666,9.872668504714966L213.875,10.502000768979388L215.08333333333334,10.089002569516504L216.29166666666666,8.653332114219673L217.5,9.027002175649004L218.70833333333334,9.617006301879895L219.91666666666666,8.987674037615454L221.125,9.577666441599531L222.33333333333334,10.03000450134278L223.54166666666669,10.14800063769023L224.75,10.14800063769023L225.95833333333334,10.246338566144319L227.16666666666666,10.620008627573652L228.375,10.620008627573652L229.58333333333331,10.620008627573652L230.79166666666666,10.285666704177869L232,10.285666704177869L233.20833333333334,10.03000450134278L234.41666666666666,10.580668767293306L235.625,10.580668767293306L236.83333333333334,10.580668767293306L238.04166666666666,10.42333277066549L239.25,10.03000450134278L240.45833333333334,11.34766709804535L241.66666666666669,9.558008233706152L242.875,9.990676363309229L244.08333333333334,10.502000768979388L245.29166666666666,11.131333033243811L246.5,10.934668898582466L247.70833333333331,12.527675350507112L248.91666666666666,9.93166657288869L250.125,10.639666835467029L251.33333333333334,10.639666835467029L252.54166666666666,10.03000450134278L253.75,9.71533250808717L254.95833333333334,9.597336371739702L256.1666666666667,10.305336634318042L257.375,9.892338434855139L258.58333333333337,9.951336503028882L259.7916666666667,9.164668242136646L261,11.249340891838074L262.2083333333333,9.813670436541242L263.4166666666667,9.361332376797991L264.625,9.361332376797991L265.8333333333333,9.361332376797991" style="fill: none;" fill="none"></path></g><g><path stroke="rgb(238, 51, 119)" stroke-width="2px" d="M25.375,177L26.583333333333332,167.2650000527501L27.791666666666668,170.6476668342948L29,173.40100025261444L30.208333333333336,165.59333366155624L31.416666666666668,166.83233338842788L32.625,151.1776662071546L33.833333333333336,167.18633351971707L35.041666666666664,163.72500093777973L36.25,145.67100010315576L37.458333333333336,159.98833402494589L38.666666666666664,164.000333070755L39.875,159.63433389365673L41.083333333333336,160.83400035401186L42.29166666666667,161.91566774745783L43.5,155.15033418436846L44.708333333333336,159.06400116284686L45.916666666666664,159.06400116284686L47.125,150.72533400853476L48.33333333333333,145.82833316922188L49.541666666666664,138.94500053922337L50.75,135.12966709335643L51.958333333333336,135.12966709335643L53.166666666666664,132.00266691048938L54.375,144.13700051108995L55.583333333333336,147.08700062831244L56.791666666666664,154.93400011956692L58,156.99899990856647L59.208333333333336,160.06700055797896L60.41666666666667,156.6253342429797L61.625,152.81000079711276L62.833333333333336,152.81000079711276L64.04166666666667,155.48466731607914L65.25,155.48466731607914L66.45833333333333,153.43933452665806L67.66666666666667,145.2383349041144L68.875,142.8980000515779L70.08333333333333,125.29633434613545L71.29166666666666,135.70000128944713L72.5,150.66633300979933L73.70833333333333,137.0373338162899L74.91666666666667,137.0373338162899L76.125,138.49266834060353L77.33333333333333,117.35100132226943L78.54166666666666,122.44466922680536L79.75,118.78666591644287L80.95833333333333,138.4140003422896L82.16666666666667,138.5910004079342L83.375,128.79700165987015L84.58333333333334,126.37799880901973L85.79166666666667,127.18433700005214L87,133.0646673043569L88.20833333333333,128.06933439771333L89.41666666666667,128.06933439771333L90.625,133.49733543395996L91.83333333333333,131.82566684484482L93.04166666666667,127.3613370656967L94.25,134.99200102686882L95.45833333333333,136.01466742157936L96.66666666666666,130.2130021850268L97.875,137.62733501195908L99.08333333333333,129.1510017911593L100.29166666666667,126.43700273831685L101.5,129.68200198809308L102.70833333333334,120.98933470249175L103.91666666666667,138.37466634313267L105.125,137.96166814366975L106.33333333333333,117.92133551836012L107.54166666666667,124.13600188493729L108.75,135.44433322548866L109.95833333333333,132.55333410700163L111.16666666666667,133.57600050171217L112.375,136.17200048764548L113.58333333333333,131.90433484315872L114.79166666666666,141.83599965771037L116,135.05100202560425L117.20833333333333,121.73666896422705L118.41666666666667,113.94866607586543L119.625,129.70166898767152L120.83333333333334,121.93333309888841L122.04166666666667,121.93333309888841L123.25,118.82599991559981L124.45833333333333,117.70500145355861L125.66666666666667,123.56566768884659L126.875,130.5473353167375L128.08333333333334,129.11166779200238L129.29166666666669,129.0133357246717L130.5,127.55800120035806L131.70833333333334,137.470001945893L132.91666666666666,113.79133594036102L134.125,105.70833685000738L135.33333333333334,120.12400430440904L136.54166666666666,120.12400430440904L137.75,125.84699861208597L138.95833333333334,139.0040015379588L140.16666666666666,101.42100127538045L141.375,118.7670018474261L142.58333333333331,136.2113344868024L143.79166666666666,140.8526672621568L145,147.6770018239816L146.20833333333334,147.6770018239816L147.41666666666666,151.0990011394024L148.625,145.94633516669273L149.83333333333334,134.63800089557967L151.04166666666669,139.20066860318184L152.25,139.20066860318184L153.45833333333334,112.65066754817963L154.66666666666666,108.75666610399882L155.875,113.29966974258424L157.08333333333331,112.92599968115489L158.29166666666666,112.92599968115489L159.5,116.78066712617873L160.70833333333334,128.8363356590271L161.91666666666666,132.02233391006789L163.125,141.8950006564458L164.33333333333334,132.39600104093552L165.54166666666666,132.39600104093552L166.75,130.94066651662192L167.95833333333334,130.74400238196054L169.16666666666669,145.78900210062662L170.375,138.0993342101574L171.58333333333334,147.06733362873393L172.79166666666666,136.2113344868024L174,130.3703352510929L175.20833333333331,131.4519997139772L176.41666666666666,144.45166664322215L177.625,139.0629996061325L178.83333333333334,134.38233576218286L180.04166666666666,138.25666727622348L181.25,136.2113344868024L182.45833333333334,126.319000740846L183.66666666666666,126.7319989403089L184.875,125.96500060955682L186.08333333333334,125.9060025413831L187.29166666666669,104.23333239555359L188.5,103.46633406480153L189.70833333333334,112.41466941436133L190.91666666666666,121.26466683546703L192.125,107.06533344586691L193.33333333333331,121.77600296338399L194.54166666666666,132.59266810615858L195.75,125.15866827964783L196.95833333333334,125.80767047405244L198.16666666666666,120.32066843907039L199.375,120.32066843907039L200.58333333333334,124.8636662165324L201.79166666666666,131.57000171144804L203,135.44433322548866L204.20833333333334,132.12066890796024L205.41666666666669,141.79666858911514L206.625,150.3713338772456L207.83333333333334,151.51199933886528L209.04166666666666,150.07633474469185L210.25,148.95533335208893L211.45833333333331,143.82233437895775L212.66666666666666,141.7573345899582L213.875,145.21866790453592L215.08333333333334,146.6936664978663L216.29166666666666,148.93566635251045L217.5,149.74200161298114L218.70833333333334,137.88300014535585L219.91666666666666,144.74666870633763L221.125,145.0023338397344L222.33333333333334,142.2293337881565L223.54166666666669,135.60166629155478L224.75,135.60166629155478L225.95833333333334,130.40966925024986L227.16666666666666,134.73633296291035L228.375,134.73633296291035L229.58333333333331,134.73633296291035L230.79166666666666,132.19933397571245L232,132.19933397571245L233.20833333333334,141.7573345899582L234.41666666666666,142.50466885169348L235.625,142.50466885169348L236.83333333333334,145.06133483846983L238.04166666666666,139.45633373657864L239.25,144.2746665775776L240.45833333333334,136.25066848595938L241.66666666666669,138.86633547147116L242.875,134.42166683077812L244.08333333333334,130.33100125193596L245.29166666666666,127.67600319782892L246.5,117.92133551836012L247.70833333333331,136.29000248511633L248.91666666666666,133.9496676325798L250.125,130.11466718713442L251.33333333333334,130.11466718713442L252.54166666666666,123.42800162235896L253.75,121.12700076897939L254.95833333333334,113.53566787640254L256.1666666666667,106.04266705115637L257.375,107.04566937685014L258.58333333333337,119.35700011253357L259.7916666666667,125.19800227880476L261,120.69433263937633L262.2083333333333,108.32400383551916L263.4166666666667,119.31766611337663L264.625,119.31766611337663L265.8333333333333,119.31766611337663" style="fill: none;" fill="none"></path></g></g></g></g></g></g><g transform="translate(40, 177)" clip-path="url(#clip_1)"><clipPath id="clip_1"><rect width="290" height="23"></rect></clipPath><g><g><line x1="0" y1="0" x2="0" y2="5" style="visibility: inherit;" fill="rgb(0, 0, 0)" stroke="rgb(204, 204, 204)" stroke-width="1px"></line><line x1="24.166666666666664" y1="0" x2="24.166666666666664" y2="5" style="visibility: inherit;" fill="rgb(0, 0, 0)" stroke="rgb(204, 204, 204)" stroke-width="1px"></line><line x1="48.33333333333333" y1="0" x2="48.33333333333333" y2="5" style="visibility: inherit;" fill="rgb(0, 0, 0)" stroke="rgb(204, 204, 204)" stroke-width="1px"></line><line x1="72.5" y1="0" x2="72.5" y2="5" style="visibility: inherit;" fill="rgb(0, 0, 0)" stroke="rgb(204, 204, 204)" stroke-width="1px"></line><line x1="96.66666666666666" y1="0" x2="96.66666666666666" y2="5" style="visibility: inherit;" fill="rgb(0, 0, 0)" stroke="rgb(204, 204, 204)" stroke-width="1px"></line><line x1="120.83333333333334" y1="0" x2="120.83333333333334" y2="5" style="visibility: inherit;" fill="rgb(0, 0, 0)" stroke="rgb(204, 204, 204)" stroke-width="1px"></line><line x1="145" y1="0" x2="145" y2="5" style="visibility: inherit;" fill="rgb(0, 0, 0)" stroke="rgb(204, 204, 204)" stroke-width="1px"></line><line x1="169.16666666666669" y1="0" x2="169.16666666666669" y2="5" style="visibility: inherit;" fill="rgb(0, 0, 0)" stroke="rgb(204, 204, 204)" stroke-width="1px"></line><line x1="193.33333333333331" y1="0" x2="193.33333333333331" y2="5" style="visibility: inherit;" fill="rgb(0, 0, 0)" stroke="rgb(204, 204, 204)" stroke-width="1px"></line><line x1="217.5" y1="0" x2="217.5" y2="5" style="visibility: inherit;" fill="rgb(0, 0, 0)" stroke="rgb(204, 204, 204)" stroke-width="1px"></line><line x1="241.66666666666669" y1="0" x2="241.66666666666669" y2="5" style="visibility: inherit;" fill="rgb(0, 0, 0)" stroke="rgb(204, 204, 204)" stroke-width="1px"></line><line x1="265.8333333333333" y1="0" x2="265.8333333333333" y2="5" style="visibility: inherit;" fill="rgb(0, 0, 0)" stroke="rgb(204, 204, 204)" stroke-width="1px"></line><line x1="290" y1="0" x2="290" y2="5" style="visibility: inherit;" fill="rgb(0, 0, 0)" stroke="rgb(204, 204, 204)" stroke-width="1px"></line></g><g transform="translate(0, 8)"><text x="0" y="0" dx="0em" dy="0.95em" style="text-anchor: middle; visibility: hidden; font-family: Roboto, sans-serif; font-size: 12px; font-weight: 200;" fill="rgb(33, 33, 33)" stroke="none" stroke-width="1px">-20</text><text x="24.166666666666664" y="0" dx="0em" dy="0.95em" style="text-anchor: middle; visibility: inherit; font-family: Roboto, sans-serif; font-size: 12px; font-weight: 200;" fill="rgb(33, 33, 33)" stroke="none" stroke-width="1px">0</text><text x="48.33333333333333" y="0" dx="0em" dy="0.95em" style="text-anchor: middle; visibility: hidden; font-family: Roboto, sans-serif; font-size: 12px; font-weight: 200;" fill="rgb(33, 33, 33)" stroke="none" stroke-width="1px">20</text><text x="72.5" y="0" dx="0em" dy="0.95em" style="text-anchor: middle; visibility: inherit; font-family: Roboto, sans-serif; font-size: 12px; font-weight: 200;" fill="rgb(33, 33, 33)" stroke="none" stroke-width="1px">40</text><text x="96.66666666666666" y="0" dx="0em" dy="0.95em" style="text-anchor: middle; visibility: hidden; font-family: Roboto, sans-serif; font-size: 12px; font-weight: 200;" fill="rgb(33, 33, 33)" stroke="none" stroke-width="1px">60</text><text x="120.83333333333334" y="0" dx="0em" dy="0.95em" style="text-anchor: middle; visibility: inherit; font-family: Roboto, sans-serif; font-size: 12px; font-weight: 200;" fill="rgb(33, 33, 33)" stroke="none" stroke-width="1px">80</text><text x="145" y="0" dx="0em" dy="0.95em" style="text-anchor: middle; visibility: hidden; font-family: Roboto, sans-serif; font-size: 12px; font-weight: 200;" fill="rgb(33, 33, 33)" stroke="none" stroke-width="1px">100</text><text x="169.16666666666669" y="0" dx="0em" dy="0.95em" style="text-anchor: middle; visibility: inherit; font-family: Roboto, sans-serif; font-size: 12px; font-weight: 200;" fill="rgb(33, 33, 33)" stroke="none" stroke-width="1px">120</text><text x="193.33333333333331" y="0" dx="0em" dy="0.95em" style="text-anchor: middle; visibility: hidden; font-family: Roboto, sans-serif; font-size: 12px; font-weight: 200;" fill="rgb(33, 33, 33)" stroke="none" stroke-width="1px">140</text><text x="217.5" y="0" dx="0em" dy="0.95em" style="text-anchor: middle; visibility: inherit; font-family: Roboto, sans-serif; font-size: 12px; font-weight: 200;" fill="rgb(33, 33, 33)" stroke="none" stroke-width="1px">160</text><text x="241.66666666666669" y="0" dx="0em" dy="0.95em" style="text-anchor: middle; visibility: hidden; font-family: Roboto, sans-serif; font-size: 12px; font-weight: 200;" fill="rgb(33, 33, 33)" stroke="none" stroke-width="1px">180</text><text x="265.8333333333333" y="0" dx="0em" dy="0.95em" style="text-anchor: middle; visibility: inherit; font-family: Roboto, sans-serif; font-size: 12px; font-weight: 200;" fill="rgb(33, 33, 33)" stroke="none" stroke-width="1px">200</text><text x="290" y="0" dx="0em" dy="0.95em" style="text-anchor: middle; visibility: hidden; font-family: Roboto, sans-serif; font-size: 12px; font-weight: 200;" fill="rgb(33, 33, 33)" stroke="none" stroke-width="1px">220</text></g><line x1="0" y1="0" x2="290" y2="0" fill="rgb(0, 0, 0)" stroke="rgb(204, 204, 204)" stroke-width="1px"></line></g></g></g></g></svg>