<svg viewBox="0 0 330 200" xmlns="http://www.w3.org/2000/svg"><g><g><g><g><g><line x1="40" y1="177" x2="35" y2="177" style="visibility: inherit;" fill="rgb(0, 0, 0)" stroke="rgb(204, 204, 204)" stroke-width="1px"></line><line x1="40" y1="159.3" x2="35" y2="159.3" style="visibility: inherit;" fill="rgb(0, 0, 0)" stroke="rgb(204, 204, 204)" stroke-width="1px"></line><line x1="40" y1="141.6" x2="35" y2="141.6" style="visibility: inherit;" fill="rgb(0, 0, 0)" stroke="rgb(204, 204, 204)" stroke-width="1px"></line><line x1="40" y1="123.89999999999999" x2="35" y2="123.89999999999999" style="visibility: inherit;" fill="rgb(0, 0, 0)" stroke="rgb(204, 204, 204)" stroke-width="1px"></line><line x1="40" y1="106.2" x2="35" y2="106.2" style="visibility: inherit;" fill="rgb(0, 0, 0)" stroke="rgb(204, 204, 204)" stroke-width="1px"></line><line x1="40" y1="88.5" x2="35" y2="88.5" style="visibility: inherit;" fill="rgb(0, 0, 0)" stroke="rgb(204, 204, 204)" stroke-width="1px"></line><line x1="40" y1="70.8" x2="35" y2="70.8" style="visibility: inherit;" fill="rgb(0, 0, 0)" stroke="rgb(204, 204, 204)" stroke-width="1px"></line><line x1="40" y1="53.10000000000001" x2="35" y2="53.10000000000001" style="visibility: inherit;" fill="rgb(0, 0, 0)" stroke="rgb(204, 204, 204)" stroke-width="1px"></line><line x1="40" y1="35.39999999999999" x2="35" y2="35.39999999999999" style="visibility: inherit;" fill="rgb(0, 0, 0)" stroke="rgb(204, 204, 204)" stroke-width="1px"></line><line x1="40" y1="17.699999999999996" x2="35" y2="17.699999999999996" style="visibility: inherit;" fill="rgb(0, 0, 0)" stroke="rgb(204, 204, 204)" stroke-width="1px"></line><line x1="40" y1="0" x2="35" y2="0" style="visibility: inherit;" fill="rgb(0, 0, 0)" stroke="rgb(204, 204, 204)" stroke-width="1px"></line></g><g transform="translate(30, 0)"><text x="0" y="177" dx="0em" dy="0.3em" style="text-anchor: end; visibility: hidden; font-family: Roboto, sans-serif; font-size: 12px; font-weight: 200;" fill="rgb(33, 33, 33)" stroke="none" stroke-width="1px">0</text><text x="0" y="159.3" dx="0em" dy="0.3em" style="text-anchor: end; visibility: inherit; font-family: Roboto, sans-serif; font-size: 12px; font-weight: 200;" fill="rgb(33, 33, 33)" stroke="none" stroke-width="1px">0.1</text><text x="0" y="141.6" dx="0em" dy="0.3em" style="text-anchor: end; visibility: hidden; font-family: Roboto, sans-serif; font-size: 12px; font-weight: 200;" fill="rgb(33, 33, 33)" stroke="none" stroke-width="1px">0.2</text><text x="0" y="123.89999999999999" dx="0em" dy="0.3em" style="text-anchor: end; visibility: inherit; font-family: Roboto, sans-serif; font-size: 12px; font-weight: 200;" fill="rgb(33, 33, 33)" stroke="none" stroke-width="1px">0.3</text><text x="0" y="106.2" dx="0em" dy="0.3em" style="text-anchor: end; visibility: hidden; font-family: Roboto, sans-serif; font-size: 12px; font-weight: 200;" fill="rgb(33, 33, 33)" stroke="none" stroke-width="1px">0.4</text><text x="0" y="88.5" dx="0em" dy="0.3em" style="text-anchor: end; visibility: inherit; font-family: Roboto, sans-serif; font-size: 12px; font-weight: 200;" fill="rgb(33, 33, 33)" stroke="none" stroke-width="1px">0.5</text><text x="0" y="70.8" dx="0em" dy="0.3em" style="text-anchor: end; visibility: hidden; font-family: Roboto, sans-serif; font-size: 12px; font-weight: 200;" fill="rgb(33, 33, 33)" stroke="none" stroke-width="1px">0.6</text><text x="0" y="53.10000000000001" dx="0em" dy="0.3em" style="text-anchor: end; visibility: inherit; font-family: Roboto, sans-serif; font-size: 12px; font-weight: 200;" fill="rgb(33, 33, 33)" stroke="none" stroke-width="1px">0.7</text><text x="0" y="35.39999999999999" dx="0em" dy="0.3em" style="text-anchor: end; visibility: hidden; font-family: Roboto, sans-serif; font-size: 12px; font-weight: 200;" fill="rgb(33, 33, 33)" stroke="none" stroke-width="1px">0.8</text><text x="0" y="17.699999999999996" dx="0em" dy="0.3em" style="text-anchor: end; visibility: inherit; font-family: Roboto, sans-serif; font-size: 12px; font-weight: 200;" fill="rgb(33, 33, 33)" stroke="none" stroke-width="1px">0.9</text><text x="0" y="0" dx="0em" dy="0.3em" style="text-anchor: end; visibility: hidden; font-family: Roboto, sans-serif; font-size: 12px; font-weight: 200;" fill="rgb(33, 33, 33)" stroke="none" stroke-width="1px">1</text></g><line x1="40" y1="0" x2="40" y2="177" fill="rgb(0, 0, 0)" stroke="rgb(204, 204, 204)" stroke-width="1px"></line></g></g><g transform="translate(40, 0)" clip-path="url(#clip_0)"><clipPath id="clip_0"><rect width="290" height="177"></rect></clipPath><g><g><g><line x1="0" y1="0" x2="0" y2="177" fill="rgb(0, 0, 0)" stroke="rgb(66, 66, 66)" stroke-width="1px" opacity="0.25"></line><line x1="24.166666666666664" y1="0" x2="24.166666666666664" y2="177" fill="rgb(0, 0, 0)" stroke="rgb(66, 66, 66)" stroke-width="1px" opacity="0.25"></line><line x1="48.33333333333333" y1="0" x2="48.33333333333333" y2="177" fill="rgb(0, 0, 0)" stroke="rgb(66, 66, 66)" stroke-width="1px" opacity="0.25"></line><line x1="72.5" y1="0" x2="72.5" y2="177" fill="rgb(0, 0, 0)" stroke="rgb(66, 66, 66)" stroke-width="1px" opacity="0.25"></line><line x1="96.66666666666666" y1="0" x2="96.66666666666666" y2="177" fill="rgb(0, 0, 0)" stroke="rgb(66, 66, 66)" stroke-width="1px" opacity="0.25"></line><line x1="120.83333333333334" y1="0" x2="120.83333333333334" y2="177" fill="rgb(0, 0, 0)" stroke="rgb(66, 66, 66)" stroke-width="1px" opacity="0.25"></line><line x1="145" y1="0" x2="145" y2="177" fill="rgb(0, 0, 0)" stroke="rgb(66, 66, 66)" stroke-width="1px" opacity="0.25"></line><line x1="169.16666666666669" y1="0" x2="169.16666666666669" y2="177" fill="rgb(0, 0, 0)" stroke="rgb(66, 66, 66)" stroke-width="1px" opacity="0.25"></line><line x1="193.33333333333331" y1="0" x2="193.33333333333331" y2="177" fill="rgb(0, 0, 0)" stroke="rgb(66, 66, 66)" stroke-width="1px" opacity="0.25"></line><line x1="217.5" y1="0" x2="217.5" y2="177" fill="rgb(0, 0, 0)" stroke="rgb(66, 66, 66)" stroke-width="1px" opacity="0.25"></line><line x1="241.66666666666669" y1="0" x2="241.66666666666669" y2="177" fill="rgb(0, 0, 0)" stroke="rgb(66, 66, 66)" stroke-width="1px" opacity="0.25"></line><line x1="265.8333333333333" y1="0" x2="265.8333333333333" y2="177" fill="rgb(0, 0, 0)" stroke="rgb(66, 66, 66)" stroke-width="1px" opacity="0.25"></line><line x1="290" y1="0" x2="290" y2="177" fill="rgb(0, 0, 0)" stroke="rgb(66, 66, 66)" stroke-width="1px" opacity="0.25"></line></g><g><line x1="0" y1="177" x2="290" y2="177" fill="rgb(0, 0, 0)" stroke="rgb(66, 66, 66)" stroke-width="1px" opacity="0.25"></line><line x1="0" y1="159.3" x2="290" y2="159.3" fill="rgb(0, 0, 0)" stroke="rgb(66, 66, 66)" stroke-width="1px" opacity="0.25"></line><line x1="0" y1="141.6" x2="290" y2="141.6" fill="rgb(0, 0, 0)" stroke="rgb(66, 66, 66)" stroke-width="1px" opacity="0.25"></line><line x1="0" y1="123.89999999999999" x2="290" y2="123.89999999999999" fill="rgb(0, 0, 0)" stroke="rgb(66, 66, 66)" stroke-width="1px" opacity="0.25"></line><line x1="0" y1="106.2" x2="290" y2="106.2" fill="rgb(0, 0, 0)" stroke="rgb(66, 66, 66)" stroke-width="1px" opacity="0.25"></line><line x1="0" y1="88.5" x2="290" y2="88.5" fill="rgb(0, 0, 0)" stroke="rgb(66, 66, 66)" stroke-width="1px" opacity="0.25"></line><line x1="0" y1="70.8" x2="290" y2="70.8" fill="rgb(0, 0, 0)" stroke="rgb(66, 66, 66)" stroke-width="1px" opacity="0.25"></line><line x1="0" y1="53.10000000000001" x2="290" y2="53.10000000000001" fill="rgb(0, 0, 0)" stroke="rgb(66, 66, 66)" stroke-width="1px" opacity="0.25"></line><line x1="0" y1="35.39999999999999" x2="290" y2="35.39999999999999" fill="rgb(0, 0, 0)" stroke="rgb(66, 66, 66)" stroke-width="1px" opacity="0.25"></line><line x1="0" y1="17.699999999999996" x2="290" y2="17.699999999999996" fill="rgb(0, 0, 0)" stroke="rgb(66, 66, 66)" stroke-width="1px" opacity="0.25"></line><line x1="0" y1="0" x2="290" y2="0" fill="rgb(0, 0, 0)" stroke="rgb(66, 66, 66)" stroke-width="1px" opacity="0.25"></line></g></g></g><g><g><line x1="0" y1="177" x2="290" y2="177" fill="rgb(0, 0, 0)" stroke="rgb(153, 153, 153)" stroke-width="1.5px"></line></g></g><g><g><line x1="24.166666666666664" y1="0" x2="24.166666666666664" y2="177" fill="rgb(0, 0, 0)" stroke="rgb(153, 153, 153)" stroke-width="1.5px"></line></g></g><g><g><g><g><g><path stroke="rgb(51, 187, 238)" stroke-width="2px" d="M25.375,155.05200035870075L26.583333333333332,113.98800417780876L27.791666666666668,53.52479875087738L29,50.268006920814514L30.208333333333336,43.75440216064453L31.416666666666668,36.81600075960159L32.625,36.81600075960159L33.833333333333336,33.134401738643646L35.041666666666664,32.42640030384064L36.25,30.01920175552368L37.458333333333336,28.74480128288269L38.666666666666664,27.328808963298798L39.875,26.337602734565735L41.083333333333336,27.045604169368744L42.29166666666667,23.364005148410797L43.5,23.22240275144577L44.708333333333336,23.505607545375824L45.916666666666664,21.523205637931824L47.125,21.24000084400177L48.33333333333333,23.364005148410797L49.541666666666664,22.51440131664276L50.75,21.09840899705887L51.958333333333336,19.399201333522797L53.166666666666664,20.95680660009384L54.375,20.107202768325806L55.583333333333336,19.116007089614868L56.791666666666664,18.97440469264984L58,17.70000422000885L59.208333333333336,17.133605182170868L60.41666666666667,19.399201333522797L61.625,16.000807106494904L62.833333333333336,16.42560374736786L64.04166666666667,17.983209013938904L65.25,17.558401823043823L66.45833333333333,17.70000422000885L67.66666666666667,16.142398953437805L68.875,16.567206144332886L70.08333333333333,16.99200278520584L71.29166666666666,16.284001350402832L72.5,16.708808541297913L73.70833333333333,15.575999915599823L74.91666666666667,16.567206144332886L76.125,17.416799426078796L77.33333333333333,16.284001350402832L78.54166666666666,16.142398953437805L79.75,16.000807106494904L80.95833333333333,15.71760231256485L82.16666666666667,17.983209013938904L83.375,17.416799426078796L84.58333333333334,15.434408068656921L85.79166666666667,13.876802802085876L87,15.151203274726868L88.20833333333333,15.434408068656921L89.41666666666667,14.301599442958832L90.625,14.86800903081894L91.83333333333333,15.575999915599823L93.04166666666667,14.584804236888885L94.25,14.301599442958832L95.45833333333333,14.16000759601593L96.66666666666666,13.876802802085876L97.875,15.00960087776184L99.08333333333333,13.593608558177948L100.29166666666667,13.452006161212921L101.5,14.301599442958832L102.70833333333334,13.02719897031784L103.91666666666667,12.602402329444885L105.125,13.168801367282867L106.33333333333333,13.876802802085876L107.54166666666667,14.018405199050903L108.75,14.16000759601593L109.95833333333333,13.876802802085876L111.16666666666667,13.310403764247894L112.375,14.584804236888885L113.58333333333333,15.434408068656921L114.79166666666666,14.726406633853912L116,13.593608558177948L117.20833333333333,12.885607123374939L118.41666666666667,13.593608558177948L119.625,13.593608558177948L120.83333333333334,13.452006161212921L122.04166666666667,14.16000759601593L123.25,14.16000759601593L124.45833333333333,14.584804236888885L125.66666666666667,13.876802802085876L126.875,11.894400894641876L128.08333333333334,13.168801367282867L129.29166666666669,12.036003291606903L130.5,13.876802802085876L131.70833333333334,14.018405199050903L132.91666666666666,12.602402329444885L134.125,13.593608558177948L135.33333333333334,13.593608558177948L136.54166666666666,13.73520040512085L137.75,14.16000759601593L138.95833333333334,12.460799932479858L140.16666666666666,13.02719897031784L141.375,12.744004726409912L142.58333333333331,14.16000759601593L143.79166666666666,13.876802802085876L145,14.443201839923859L146.20833333333334,14.16000759601593L147.41666666666666,13.593608558177948L148.625,14.443201839923859L149.83333333333334,14.018405199050903L151.04166666666669,13.310403764247894L152.25,14.301599442958832L153.45833333333334,13.73520040512085L154.66666666666666,13.593608558177948L155.875,13.452006161212921L157.08333333333331,13.73520040512085L158.29166666666666,12.460799932479858L159.5,13.310403764247894L160.70833333333334,13.168801367282867L161.91666666666666,13.310403764247894L163.125,13.02719897031784L164.33333333333334,13.02719897031784L165.54166666666666,13.593608558177948L166.75,13.168801367282867L167.95833333333334,13.593608558177948L169.16666666666669,13.593608558177948L170.375,12.885607123374939L171.58333333333334,12.602402329444885L172.79166666666666,13.310403764247894L174,12.319208085536957L175.20833333333331,13.02719897031784L176.41666666666666,12.744004726409912L177.625,13.452006161212921L178.83333333333334,12.885607123374939L180.04166666666666,14.301599442958832L181.25,12.744004726409912L182.45833333333334,12.885607123374939L183.66666666666666,13.02719897031784L184.875,13.168801367282867L186.08333333333334,12.885607123374939L187.29166666666669,12.885607123374939L188.5,13.310403764247894L189.70833333333334,12.602402329444885L190.91666666666666,13.168801367282867L192.125,13.452006161212921L193.33333333333331,12.885607123374939L194.54166666666666,14.584804236888885L195.75,13.452006161212921L196.95833333333334,13.02719897031784L198.16666666666666,13.310403764247894L199.375,12.17760568857193L200.58333333333334,13.02719897031784L201.79166666666666,12.602402329444885L203,13.310403764247894L204.20833333333334,13.02719897031784L205.41666666666669,13.310403764247894L206.625,12.602402329444885L207.83333333333334,13.168801367282867L209.04166666666666,13.310403764247894L210.25,13.310403764247894L211.45833333333331,13.02719897031784L212.66666666666666,12.602402329444885L213.875,13.02719897031784L215.08333333333334,12.17760568857193L216.29166666666666,12.602402329444885L217.5,13.168801367282867L218.70833333333334,13.876802802085876L219.91666666666666,13.168801367282867L221.125,12.17760568857193L222.33333333333334,12.460799932479858L223.54166666666669,12.744004726409912L224.75,12.036003291606903L225.95833333333334,12.460799932479858L227.16666666666666,12.17760568857193L228.375,12.17760568857193L229.58333333333331,11.469604253768921L230.79166666666666,12.602402329444885L232,12.460799932479858L233.20833333333334,11.752809047698975L234.41666666666666,12.17760568857193L235.625,12.036003291606903L236.83333333333334,11.894400894641876L238.04166666666666,12.319208085536957L239.25,12.319208085536957L240.45833333333334,12.744004726409912L241.66666666666669,12.319208085536957L242.875,12.17760568857193L244.08333333333334,12.036003291606903L245.29166666666666,12.17760568857193L246.5,11.752809047698975L247.70833333333331,12.319208085536957L248.91666666666666,11.752809047698975L250.125,12.319208085536957L251.33333333333334,13.593608558177948L252.54166666666666,12.460799932479858L253.75,12.602402329444885L254.95833333333334,13.876802802085876L256.1666666666667,13.168801367282867L257.375,13.73520040512085L258.58333333333337,13.02719897031784L259.7916666666667,12.885607123374939L261,13.593608558177948L262.2083333333333,12.885607123374939L263.4166666666667,12.885607123374939L264.625,13.310403764247894L265.8333333333333,13.452006161212921" style="fill: none;" fill="none"></path></g><g><path stroke="rgb(238, 51, 119)" stroke-width="2px" d="M25.375,175.7256000218913L26.583333333333332,163.5480004325509L27.791666666666668,168.9288005232811L29,170.06159991770983L30.208333333333336,170.62800027430058L31.416666666666668,163.9727997109294L32.625,163.4064006730914L33.833333333333336,158.73360069841146L35.041666666666664,160.57440020889044L36.25,160.0079998522997L37.458333333333336,155.476800955832L38.666666666666664,154.48560132086277L39.875,154.20240180194378L41.083333333333336,146.69760136306286L42.29166666666667,146.41440184414387L43.5,140.32560163736343L44.708333333333336,148.96320015192032L45.916666666666664,148.39680111408234L47.125,149.67120158672333L48.33333333333333,154.34400156140327L49.541666666666664,149.52960182726383L50.75,137.49360117316246L51.958333333333336,143.7240011394024L53.166666666666664,152.07840013504028L54.375,143.86560089886189L55.583333333333336,141.0336004346609L56.791666666666664,146.41440184414387L58,144.99840161204338L59.208333333333336,136.21920070052147L60.41666666666667,136.50240021944046L61.625,145.28160113096237L62.833333333333336,150.2376006245613L64.04166666666667,149.81280134618282L65.25,148.82160039246082L66.45833333333333,144.7152020931244L67.66666666666667,144.57359969615936L68.875,143.86560089886189L70.08333333333333,146.98080088198185L71.29166666666666,138.62640188634396L72.5,137.21040165424347L73.70833333333333,142.1664011478424L74.91666666666667,141.74160186946392L76.125,140.32560163736343L77.33333333333333,139.90079972147942L78.54166666666666,139.75919996201992L79.75,146.55600160360336L80.95833333333333,140.89200067520142L82.16666666666667,134.520000949502L83.375,138.34319972991943L84.58333333333334,138.90960140526295L85.79166666666667,136.50240021944046L87,132.8208011984825L88.20833333333333,134.0952016711235L89.41666666666667,128.43120074272156L90.625,131.54640072584152L91.83333333333333,135.3696021437645L93.04166666666667,134.520000949502L94.25,134.6616007089615L95.45833333333333,133.3872002363205L96.66666666666666,135.511201903224L97.875,128.99759978055954L99.08333333333333,139.61760020256042L100.29166666666667,144.7152020931244L101.5,152.9280013293028L102.70833333333334,145.14000137150288L103.91666666666667,143.5824013799429L105.125,140.60880115628242L106.33333333333333,135.08639998733997L107.54166666666667,142.0248013883829L108.75,143.01599970459938L109.95833333333333,140.60880115628242L111.16666666666667,146.98080088198185L112.375,149.1047999113798L113.58333333333333,144.7152020931244L114.79166666666666,146.69760136306286L116,151.08720181882381L117.20833333333333,154.62720108032227L118.41666666666667,149.2463996708393L119.625,146.83920112252235L120.83333333333334,146.55600160360336L122.04166666666667,146.27280208468437L123.25,142.4496006667614L124.45833333333333,145.42320089042187L125.66666666666667,154.06079940497875L126.875,155.9016002342105L128.08333333333334,152.7864015698433L129.29166666666669,152.9280013293028L130.5,149.95440110564232L131.70833333333334,150.5208001434803L132.91666666666666,146.41440184414387L134.125,150.5208001434803L135.33333333333334,152.07840013504028L136.54166666666666,148.68000063300133L137.75,146.27280208468437L138.95833333333334,146.41440184414387L140.16666666666666,151.6536008566618L141.375,153.91919964551926L142.58333333333331,149.1047999113798L143.79166666666666,144.57359969615936L145,150.2376006245613L146.20833333333334,147.54719991981983L147.41666666666666,148.25520135462284L148.625,148.96320015192032L149.83333333333334,150.3792003840208L151.04166666666669,151.3704013377428L152.25,153.63600012660027L153.45833333333334,152.6448018103838L154.66666666666666,148.82160039246082L155.875,148.82160039246082L157.08333333333331,146.83920112252235L158.29166666666666,144.85680185258389L159.5,149.2463996708393L160.70833333333334,152.50319941341877L161.91666666666666,147.97200183570385L163.125,144.99840161204338L164.33333333333334,144.85680185258389L165.54166666666666,150.6623999029398L166.75,152.9280013293028L167.95833333333334,147.83039943873882L169.16666666666669,153.21120084822178L170.375,154.06079940497875L171.58333333333334,152.7864015698433L172.79166666666666,151.5120010972023L174,146.98080088198185L175.20833333333331,148.68000063300133L176.41666666666666,150.8039996623993L177.625,142.7328001856804L178.83333333333334,146.69760136306286L180.04166666666666,148.82160039246082L181.25,155.3352011963725L182.45833333333334,152.36159965395927L183.66666666666666,152.7864015698433L184.875,152.36159965395927L186.08333333333334,150.6623999029398L187.29166666666669,149.52960182726383L188.5,143.2992018610239L189.70833333333334,146.41440184414387L190.91666666666666,149.3879994302988L192.125,149.95440110564232L193.33333333333331,151.9368003755808L194.54166666666666,148.11360159516335L195.75,147.26400040090084L196.95833333333334,144.99840161204338L198.16666666666666,145.14000137150288L199.375,147.40560016036034L200.58333333333334,152.07840013504028L201.79166666666666,156.32640083134174L203,155.760000474751L204.20833333333334,152.21999989449978L205.41666666666669,148.68000063300133L206.625,148.68000063300133L207.83333333333334,154.20240180194378L209.04166666666666,151.6536008566618L210.25,154.06079940497875L211.45833333333331,149.95440110564232L212.66666666666666,148.68000063300133L213.875,151.3704013377428L215.08333333333334,151.9368003755808L216.29166666666666,151.9368003755808L217.5,153.77759988605976L218.70833333333334,148.25520135462284L219.91666666666666,146.69760136306286L221.125,147.97200183570385L222.33333333333334,146.83920112252235L223.54166666666669,147.54719991981983L224.75,148.25520135462284L225.95833333333334,150.09600086510181L227.16666666666666,146.41440184414387L228.375,148.68000063300133L229.58333333333331,151.3704013377428L230.79166666666666,150.5208001434803L232,153.63600012660027L233.20833333333334,152.6448018103838L234.41666666666666,153.91919964551926L235.625,149.1047999113798L236.83333333333334,150.8039996623993L238.04166666666666,151.7952006161213L239.25,149.95440110564232L240.45833333333334,151.08720181882381L241.66666666666669,151.08720181882381L242.875,152.07840013504028L244.08333333333334,149.52960182726383L245.29166666666666,152.9280013293028L246.5,152.07840013504028L247.70833333333331,154.62720108032227L248.91666666666666,154.34400156140327L250.125,153.49440036714077L251.33333333333334,150.2376006245613L252.54166666666666,153.49440036714077L253.75,154.48560132086277L254.95833333333334,153.06960108876228L256.1666666666667,150.3792003840208L257.375,154.06079940497875L258.58333333333337,150.09600086510181L259.7916666666667,154.06079940497875L261,155.3352011963725L262.2083333333333,153.21120084822178L263.4166666666667,150.2376006245613L264.625,149.81280134618282L265.8333333333333,149.81280134618282" style="fill: none;" fill="none"></path></g></g></g></g></g></g><g transform="translate(40, 177)" clip-path="url(#clip_1)"><clipPath id="clip_1"><rect width="290" height="23"></rect></clipPath><g><g><line x1="0" y1="0" x2="0" y2="5" style="visibility: inherit;" fill="rgb(0, 0, 0)" stroke="rgb(204, 204, 204)" stroke-width="1px"></line><line x1="24.166666666666664" y1="0" x2="24.166666666666664" y2="5" style="visibility: inherit;" fill="rgb(0, 0, 0)" stroke="rgb(204, 204, 204)" stroke-width="1px"></line><line x1="48.33333333333333" y1="0" x2="48.33333333333333" y2="5" style="visibility: inherit;" fill="rgb(0, 0, 0)" stroke="rgb(204, 204, 204)" stroke-width="1px"></line><line x1="72.5" y1="0" x2="72.5" y2="5" style="visibility: inherit;" fill="rgb(0, 0, 0)" stroke="rgb(204, 204, 204)" stroke-width="1px"></line><line x1="96.66666666666666" y1="0" x2="96.66666666666666" y2="5" style="visibility: inherit;" fill="rgb(0, 0, 0)" stroke="rgb(204, 204, 204)" stroke-width="1px"></line><line x1="120.83333333333334" y1="0" x2="120.83333333333334" y2="5" style="visibility: inherit;" fill="rgb(0, 0, 0)" stroke="rgb(204, 204, 204)" stroke-width="1px"></line><line x1="145" y1="0" x2="145" y2="5" style="visibility: inherit;" fill="rgb(0, 0, 0)" stroke="rgb(204, 204, 204)" stroke-width="1px"></line><line x1="169.16666666666669" y1="0" x2="169.16666666666669" y2="5" style="visibility: inherit;" fill="rgb(0, 0, 0)" stroke="rgb(204, 204, 204)" stroke-width="1px"></line><line x1="193.33333333333331" y1="0" x2="193.33333333333331" y2="5" style="visibility: inherit;" fill="rgb(0, 0, 0)" stroke="rgb(204, 204, 204)" stroke-width="1px"></line><line x1="217.5" y1="0" x2="217.5" y2="5" style="visibility: inherit;" fill="rgb(0, 0, 0)" stroke="rgb(204, 204, 204)" stroke-width="1px"></line><line x1="241.66666666666669" y1="0" x2="241.66666666666669" y2="5" style="visibility: inherit;" fill="rgb(0, 0, 0)" stroke="rgb(204, 204, 204)" stroke-width="1px"></line><line x1="265.8333333333333" y1="0" x2="265.8333333333333" y2="5" style="visibility: inherit;" fill="rgb(0, 0, 0)" stroke="rgb(204, 204, 204)" stroke-width="1px"></line><line x1="290" y1="0" x2="290" y2="5" style="visibility: inherit;" fill="rgb(0, 0, 0)" stroke="rgb(204, 204, 204)" stroke-width="1px"></line></g><g transform="translate(0, 8)"><text x="0" y="0" dx="0em" dy="0.95em" style="text-anchor: middle; visibility: hidden; font-family: Roboto, sans-serif; font-size: 12px; font-weight: 200;" fill="rgb(33, 33, 33)" stroke="none" stroke-width="1px">-20</text><text x="24.166666666666664" y="0" dx="0em" dy="0.95em" style="text-anchor: middle; visibility: inherit; font-family: Roboto, sans-serif; font-size: 12px; font-weight: 200;" fill="rgb(33, 33, 33)" stroke="none" stroke-width="1px">0</text><text x="48.33333333333333" y="0" dx="0em" dy="0.95em" style="text-anchor: middle; visibility: hidden; font-family: Roboto, sans-serif; font-size: 12px; font-weight: 200;" fill="rgb(33, 33, 33)" stroke="none" stroke-width="1px">20</text><text x="72.5" y="0" dx="0em" dy="0.95em" style="text-anchor: middle; visibility: inherit; font-family: Roboto, sans-serif; font-size: 12px; font-weight: 200;" fill="rgb(33, 33, 33)" stroke="none" stroke-width="1px">40</text><text x="96.66666666666666" y="0" dx="0em" dy="0.95em" style="text-anchor: middle; visibility: hidden; font-family: Roboto, sans-serif; font-size: 12px; font-weight: 200;" fill="rgb(33, 33, 33)" stroke="none" stroke-width="1px">60</text><text x="120.83333333333334" y="0" dx="0em" dy="0.95em" style="text-anchor: middle; visibility: inherit; font-family: Roboto, sans-serif; font-size: 12px; font-weight: 200;" fill="rgb(33, 33, 33)" stroke="none" stroke-width="1px">80</text><text x="145" y="0" dx="0em" dy="0.95em" style="text-anchor: middle; visibility: hidden; font-family: Roboto, sans-serif; font-size: 12px; font-weight: 200;" fill="rgb(33, 33, 33)" stroke="none" stroke-width="1px">100</text><text x="169.16666666666669" y="0" dx="0em" dy="0.95em" style="text-anchor: middle; visibility: inherit; font-family: Roboto, sans-serif; font-size: 12px; font-weight: 200;" fill="rgb(33, 33, 33)" stroke="none" stroke-width="1px">120</text><text x="193.33333333333331" y="0" dx="0em" dy="0.95em" style="text-anchor: middle; visibility: hidden; font-family: Roboto, sans-serif; font-size: 12px; font-weight: 200;" fill="rgb(33, 33, 33)" stroke="none" stroke-width="1px">140</text><text x="217.5" y="0" dx="0em" dy="0.95em" style="text-anchor: middle; visibility: inherit; font-family: Roboto, sans-serif; font-size: 12px; font-weight: 200;" fill="rgb(33, 33, 33)" stroke="none" stroke-width="1px">160</text><text x="241.66666666666669" y="0" dx="0em" dy="0.95em" style="text-anchor: middle; visibility: hidden; font-family: Roboto, sans-serif; font-size: 12px; font-weight: 200;" fill="rgb(33, 33, 33)" stroke="none" stroke-width="1px">180</text><text x="265.8333333333333" y="0" dx="0em" dy="0.95em" style="text-anchor: middle; visibility: inherit; font-family: Roboto, sans-serif; font-size: 12px; font-weight: 200;" fill="rgb(33, 33, 33)" stroke="none" stroke-width="1px">200</text><text x="290" y="0" dx="0em" dy="0.95em" style="text-anchor: middle; visibility: hidden; font-family: Roboto, sans-serif; font-size: 12px; font-weight: 200;" fill="rgb(33, 33, 33)" stroke="none" stroke-width="1px">220</text></g><line x1="0" y1="0" x2="290" y2="0" fill="rgb(0, 0, 0)" stroke="rgb(204, 204, 204)" stroke-width="1px"></line></g></g></g></g></svg>