<svg viewBox="0 0 330 200" xmlns="http://www.w3.org/2000/svg"><g><g><g><g><g><line x1="40" y1="177" x2="35" y2="177" style="visibility: inherit;" fill="rgb(0, 0, 0)" stroke="rgb(204, 204, 204)" stroke-width="1px"></line><line x1="40" y1="157.33333333333331" x2="35" y2="157.33333333333331" style="visibility: inherit;" fill="rgb(0, 0, 0)" stroke="rgb(204, 204, 204)" stroke-width="1px"></line><line x1="40" y1="137.66666666666666" x2="35" y2="137.66666666666666" style="visibility: inherit;" fill="rgb(0, 0, 0)" stroke="rgb(204, 204, 204)" stroke-width="1px"></line><line x1="40" y1="118.00000000000001" x2="35" y2="118.00000000000001" style="visibility: inherit;" fill="rgb(0, 0, 0)" stroke="rgb(204, 204, 204)" stroke-width="1px"></line><line x1="40" y1="98.33333333333334" x2="35" y2="98.33333333333334" style="visibility: inherit;" fill="rgb(0, 0, 0)" stroke="rgb(204, 204, 204)" stroke-width="1px"></line><line x1="40" y1="78.66666666666666" x2="35" y2="78.66666666666666" style="visibility: inherit;" fill="rgb(0, 0, 0)" stroke="rgb(204, 204, 204)" stroke-width="1px"></line><line x1="40" y1="59.00000000000001" x2="35" y2="59.00000000000001" style="visibility: inherit;" fill="rgb(0, 0, 0)" stroke="rgb(204, 204, 204)" stroke-width="1px"></line><line x1="40" y1="39.33333333333335" x2="35" y2="39.33333333333335" style="visibility: inherit;" fill="rgb(0, 0, 0)" stroke="rgb(204, 204, 204)" stroke-width="1px"></line><line x1="40" y1="19.666666666666657" x2="35" y2="19.666666666666657" style="visibility: inherit;" fill="rgb(0, 0, 0)" stroke="rgb(204, 204, 204)" stroke-width="1px"></line><line x1="40" y1="0" x2="35" y2="0" style="visibility: inherit;" fill="rgb(0, 0, 0)" stroke="rgb(204, 204, 204)" stroke-width="1px"></line></g><g transform="translate(30, 0)"><text x="0" y="177" dx="0em" dy="0.3em" style="text-anchor: end; visibility: hidden; font-family: Roboto, sans-serif; font-size: 12px; font-weight: 200;" fill="rgb(33, 33, 33)" stroke="none" stroke-width="1px">0</text><text x="0" y="157.33333333333331" dx="0em" dy="0.3em" style="text-anchor: end; visibility: inherit; font-family: Roboto, sans-serif; font-size: 12px; font-weight: 200;" fill="rgb(33, 33, 33)" stroke="none" stroke-width="1px">0.1</text><text x="0" y="137.66666666666666" dx="0em" dy="0.3em" style="text-anchor: end; visibility: hidden; font-family: Roboto, sans-serif; font-size: 12px; font-weight: 200;" fill="rgb(33, 33, 33)" stroke="none" stroke-width="1px">0.2</text><text x="0" y="118.00000000000001" dx="0em" dy="0.3em" style="text-anchor: end; visibility: inherit; font-family: Roboto, sans-serif; font-size: 12px; font-weight: 200;" fill="rgb(33, 33, 33)" stroke="none" stroke-width="1px">0.3</text><text x="0" y="98.33333333333334" dx="0em" dy="0.3em" style="text-anchor: end; visibility: hidden; font-family: Roboto, sans-serif; font-size: 12px; font-weight: 200;" fill="rgb(33, 33, 33)" stroke="none" stroke-width="1px">0.4</text><text x="0" y="78.66666666666666" dx="0em" dy="0.3em" style="text-anchor: end; visibility: inherit; font-family: Roboto, sans-serif; font-size: 12px; font-weight: 200;" fill="rgb(33, 33, 33)" stroke="none" stroke-width="1px">0.5</text><text x="0" y="59.00000000000001" dx="0em" dy="0.3em" style="text-anchor: end; visibility: hidden; font-family: Roboto, sans-serif; font-size: 12px; font-weight: 200;" fill="rgb(33, 33, 33)" stroke="none" stroke-width="1px">0.6</text><text x="0" y="39.33333333333335" dx="0em" dy="0.3em" style="text-anchor: end; visibility: inherit; font-family: Roboto, sans-serif; font-size: 12px; font-weight: 200;" fill="rgb(33, 33, 33)" stroke="none" stroke-width="1px">0.7</text><text x="0" y="19.666666666666657" dx="0em" dy="0.3em" style="text-anchor: end; visibility: hidden; font-family: Roboto, sans-serif; font-size: 12px; font-weight: 200;" fill="rgb(33, 33, 33)" stroke="none" stroke-width="1px">0.8</text><text x="0" y="0" dx="0em" dy="0.3em" style="text-anchor: end; visibility: hidden; font-family: Roboto, sans-serif; font-size: 12px; font-weight: 200;" fill="rgb(33, 33, 33)" stroke="none" stroke-width="1px">0.9</text></g><line x1="40" y1="0" x2="40" y2="177" fill="rgb(0, 0, 0)" stroke="rgb(204, 204, 204)" stroke-width="1px"></line></g></g><g transform="translate(40, 0)" clip-path="url(#clip_0)"><clipPath id="clip_0"><rect width="290" height="177"></rect></clipPath><g><g><g><line x1="0" y1="0" x2="0" y2="177" fill="rgb(0, 0, 0)" stroke="rgb(66, 66, 66)" stroke-width="1px" opacity="0.25"></line><line x1="24.166666666666664" y1="0" x2="24.166666666666664" y2="177" fill="rgb(0, 0, 0)" stroke="rgb(66, 66, 66)" stroke-width="1px" opacity="0.25"></line><line x1="48.33333333333333" y1="0" x2="48.33333333333333" y2="177" fill="rgb(0, 0, 0)" stroke="rgb(66, 66, 66)" stroke-width="1px" opacity="0.25"></line><line x1="72.5" y1="0" x2="72.5" y2="177" fill="rgb(0, 0, 0)" stroke="rgb(66, 66, 66)" stroke-width="1px" opacity="0.25"></line><line x1="96.66666666666666" y1="0" x2="96.66666666666666" y2="177" fill="rgb(0, 0, 0)" stroke="rgb(66, 66, 66)" stroke-width="1px" opacity="0.25"></line><line x1="120.83333333333334" y1="0" x2="120.83333333333334" y2="177" fill="rgb(0, 0, 0)" stroke="rgb(66, 66, 66)" stroke-width="1px" opacity="0.25"></line><line x1="145" y1="0" x2="145" y2="177" fill="rgb(0, 0, 0)" stroke="rgb(66, 66, 66)" stroke-width="1px" opacity="0.25"></line><line x1="169.16666666666669" y1="0" x2="169.16666666666669" y2="177" fill="rgb(0, 0, 0)" stroke="rgb(66, 66, 66)" stroke-width="1px" opacity="0.25"></line><line x1="193.33333333333331" y1="0" x2="193.33333333333331" y2="177" fill="rgb(0, 0, 0)" stroke="rgb(66, 66, 66)" stroke-width="1px" opacity="0.25"></line><line x1="217.5" y1="0" x2="217.5" y2="177" fill="rgb(0, 0, 0)" stroke="rgb(66, 66, 66)" stroke-width="1px" opacity="0.25"></line><line x1="241.66666666666669" y1="0" x2="241.66666666666669" y2="177" fill="rgb(0, 0, 0)" stroke="rgb(66, 66, 66)" stroke-width="1px" opacity="0.25"></line><line x1="265.8333333333333" y1="0" x2="265.8333333333333" y2="177" fill="rgb(0, 0, 0)" stroke="rgb(66, 66, 66)" stroke-width="1px" opacity="0.25"></line><line x1="290" y1="0" x2="290" y2="177" fill="rgb(0, 0, 0)" stroke="rgb(66, 66, 66)" stroke-width="1px" opacity="0.25"></line></g><g><line x1="0" y1="177" x2="290" y2="177" fill="rgb(0, 0, 0)" stroke="rgb(66, 66, 66)" stroke-width="1px" opacity="0.25"></line><line x1="0" y1="157.33333333333331" x2="290" y2="157.33333333333331" fill="rgb(0, 0, 0)" stroke="rgb(66, 66, 66)" stroke-width="1px" opacity="0.25"></line><line x1="0" y1="137.66666666666666" x2="290" y2="137.66666666666666" fill="rgb(0, 0, 0)" stroke="rgb(66, 66, 66)" stroke-width="1px" opacity="0.25"></line><line x1="0" y1="118.00000000000001" x2="290" y2="118.00000000000001" fill="rgb(0, 0, 0)" stroke="rgb(66, 66, 66)" stroke-width="1px" opacity="0.25"></line><line x1="0" y1="98.33333333333334" x2="290" y2="98.33333333333334" fill="rgb(0, 0, 0)" stroke="rgb(66, 66, 66)" stroke-width="1px" opacity="0.25"></line><line x1="0" y1="78.66666666666666" x2="290" y2="78.66666666666666" fill="rgb(0, 0, 0)" stroke="rgb(66, 66, 66)" stroke-width="1px" opacity="0.25"></line><line x1="0" y1="59.00000000000001" x2="290" y2="59.00000000000001" fill="rgb(0, 0, 0)" stroke="rgb(66, 66, 66)" stroke-width="1px" opacity="0.25"></line><line x1="0" y1="39.33333333333335" x2="290" y2="39.33333333333335" fill="rgb(0, 0, 0)" stroke="rgb(66, 66, 66)" stroke-width="1px" opacity="0.25"></line><line x1="0" y1="19.666666666666657" x2="290" y2="19.666666666666657" fill="rgb(0, 0, 0)" stroke="rgb(66, 66, 66)" stroke-width="1px" opacity="0.25"></line><line x1="0" y1="0" x2="290" y2="0" fill="rgb(0, 0, 0)" stroke="rgb(66, 66, 66)" stroke-width="1px" opacity="0.25"></line></g></g></g><g><g><line x1="0" y1="177" x2="290" y2="177" fill="rgb(0, 0, 0)" stroke="rgb(153, 153, 153)" stroke-width="1.5px"></line></g></g><g><g><line x1="24.166666666666664" y1="0" x2="24.166666666666664" y2="177" fill="rgb(0, 0, 0)" stroke="rgb(153, 153, 153)" stroke-width="1.5px"></line></g></g><g><g><g><g><g><path stroke="rgb(51, 187, 238)" stroke-width="2px" d="M25.375,157.333334505558L26.583333333333332,92.98400205373764L27.791666666666668,58.96066717306774L29,46.39366837342581L30.208333333333336,39.64800767103832L31.416666666666668,36.383338491121926L32.625,33.236665447552994L33.833333333333336,29.46067186196646L35.041666666666664,28.103669404983528L36.25,27.592333277066555L37.458333333333336,24.760332226753235L38.666666666666664,24.032673756281536L39.875,22.89200536410014L41.083333333333336,21.83000497023264L42.29166666666667,20.827002644538886L43.5,19.882998387018834L44.708333333333336,19.273336052894606L45.916666666666664,18.13266766071321L47.125,18.329331795374554L48.33333333333333,17.464007258415236L49.541666666666664,18.11300945281983L50.75,16.1070048014323L51.958333333333336,17.149335265159607L53.166666666666664,15.792332808176672L54.375,16.20534272988637L55.583333333333336,15.418674468994153L56.791666666666664,17.66067139307658L58,15.163000543912249L59.208333333333336,15.104002475738525L60.41666666666667,14.356674075126655L61.625,14.769672274589539L62.833333333333336,13.58967574437459L64.04166666666667,13.45200967788697L65.25,13.45200967788697L66.45833333333333,13.94367587566377L67.66666666666667,12.881675481796272L68.875,12.626001556714387L70.08333333333333,11.859003225962324L71.29166666666666,11.58367109298706L72.5,11.996669292449964L73.70833333333333,11.996669292449964L74.91666666666667,11.622999231020612L76.125,11.898343086242688L77.33333333333333,12.842335621515906L78.54166666666666,12.429337422053022L79.75,12.74400941530863L80.95833333333333,11.957341154416413L82.16666666666667,12.842335621515906L83.375,12.409667491912849L84.58333333333334,11.544342954953509L85.79166666666667,11.918001294136047L87,13.157007614771533L88.20833333333333,13.825668017069507L89.41666666666667,13.13733768463136L90.625,12.68499962488811L91.83333333333333,11.97699936230977L93.04166666666667,11.544342954953509L94.25,10.42333277066549L95.45833333333333,11.249340891838074L96.66666666666666,10.187340497970593L97.875,11.013336896896362L99.08333333333333,11.013336896896362L100.29166666666667,11.013336896896362L101.5,10.895340760548914L102.70833333333334,10.757674694061292L103.91666666666667,10.757674694061292L105.125,11.780335227648425L106.33333333333333,11.072334965070086L107.54166666666667,10.560998837153113L108.75,10.993666966756189L109.95833333333333,10.856000900268567L111.16666666666667,12.016339222590137L112.375,11.367337028185522L113.58333333333333,11.013336896896362L114.79166666666666,10.83634269237519L116,10.285666704177869L117.20833333333333,11.092004895210279L118.41666666666667,11.544342954953509L119.625,10.97400875886281L120.83333333333334,11.859003225962324L122.04166666666667,11.2296709616979L123.25,10.77733290195465L124.45833333333333,10.52167069911958L125.66666666666667,11.249340891838074L126.875,12.134335358937586L128.08333333333334,12.134335358937586L129.29166666666669,12.134335358937586L130.5,11.131333033243811L131.70833333333334,11.721337159474702L132.91666666666666,11.662339091300977L134.125,11.013336896896362L135.33333333333334,10.738004763921099L136.54166666666666,11.268999099731452L137.75,11.092004895210279L138.95833333333334,11.367337028185522L140.16666666666666,10.502000768979388L141.375,10.502000768979388L142.58333333333331,10.089002569516504L143.79166666666666,10.856000900268567L145,9.93166657288869L146.20833333333334,11.426335096359265L147.41666666666666,11.288669029871626L148.625,10.934668898582466L149.83333333333334,10.325006564458215L151.04166666666669,10.856000900268567L152.25,10.403674562772112L153.45833333333334,12.095007220904035L154.66666666666666,10.934668898582466L155.875,10.12834242979685L157.08333333333331,10.914998968442292L158.29166666666666,9.813670436541242L159.5,9.813670436541242L160.70833333333334,9.754672368367517L161.91666666666666,11.111674825350452L163.125,11.111674825350452L164.33333333333334,10.285666704177869L165.54166666666666,11.092004895210279L166.75,10.12834242979685L167.95833333333334,10.560998837153113L169.16666666666669,9.735002438227344L170.375,9.636676232020069L171.58333333333334,10.42333277066549L172.79166666666666,10.12834242979685L174,10.797002832094824L175.20833333333331,10.305336634318042L176.41666666666666,10.108672499656677L177.625,11.013336896896362L178.83333333333334,10.83634269237519L180.04166666666666,11.170672893524177L181.25,10.600338697433479L182.45833333333334,10.600338697433479L183.66666666666666,10.12834242979685L184.875,10.246338566144319L186.08333333333334,10.246338566144319L187.29166666666669,9.656334439913428L188.5,9.479340235392256L189.70833333333334,9.243336240450544L190.91666666666666,10.580668767293306L192.125,9.518668373425806L193.33333333333331,9.302334308624268L194.54166666666666,11.052665034929914L195.75,9.852998574574793L196.95833333333334,9.636676232020069L198.16666666666666,9.459670305252082L199.375,9.164668242136646L200.58333333333334,10.856000900268567L201.79166666666666,10.108672499656677L203,9.695674300193794L204.20833333333334,10.42333277066549L205.41666666666669,9.656334439913428L206.625,9.754672368367517L207.83333333333334,9.32200423876444L209.04166666666666,8.948334177335107L210.25,11.288669029871626L211.45833333333331,9.617006301879895L212.66666666666666,9.558008233706152L213.875,10.010334571202607L215.08333333333334,10.089002569516504L216.29166666666666,9.184338172276819L217.5,9.184338172276819L218.70833333333334,9.184338172276819L219.91666666666666,10.03000450134278L221.125,10.462672630945837L222.33333333333334,9.361332376797991L223.54166666666669,9.538338303565979L224.75,9.872668504714966L225.95833333333334,9.42034216721853L227.16666666666666,9.42034216721853L228.375,9.381002306938184L229.58333333333331,9.046672105789197L230.79166666666666,8.102667848269148L232,10.364334702491767L233.20833333333334,9.93166657288869L234.41666666666666,9.951336503028882L235.625,13.058669686317444L236.83333333333334,11.760665297508252L238.04166666666666,11.288669029871626L239.25,8.830338040987659L240.45833333333334,9.06634203592937L241.66666666666669,10.246338566144319L242.875,11.19034282366435L244.08333333333334,9.67600437005362L245.29166666666666,7.76833764712016L246.5,8.692671974500017L247.70833333333331,9.06634203592937L248.91666666666666,10.659336765607202L250.125,9.145010034243269L251.33333333333334,9.06634203592937L252.54166666666666,9.06634203592937L253.75,10.77733290195465L254.95833333333334,10.344676494598389L256.1666666666667,10.285666704177869L257.375,10.954338828722639L258.58333333333337,12.272001425425207L259.7916666666667,12.272001425425207L261,15.379334608713789L262.2083333333333,10.38400463263194L263.4166666666667,10.443002700805664L264.625,12.901333689689649L265.8333333333333,12.488335490226746" style="fill: none;" fill="none"></path></g><g><path stroke="rgb(238, 51, 119)" stroke-width="2px" d="M25.375,177L26.583333333333332,174.54166681319475L27.791666666666668,175.80033335648477L29,167.6583334505558L30.208333333333336,171.63099996248883L31.416666666666668,174.16800004864734L32.625,173.0863333878418L33.833333333333336,171.572000062714L35.041666666666664,172.33900022506714L36.25,169.23166704177856L37.458333333333336,171.00166696558395L38.666666666666664,170.37233323603868L39.875,167.55999991794425L41.083333333333336,167.50100038448969L42.29166666666667,167.34366658578315L43.5,167.40266685187817L44.708333333333336,167.81566724926233L45.916666666666664,160.57833375533423L47.125,161.44366708397865L48.33333333333333,154.8356665869554L49.541666666666664,141.9933356543382L50.75,150.8433330754439L51.958333333333336,146.83133549491563L53.166666666666664,139.1613346040249L54.375,144.8253337740898L55.583333333333336,120.08467030525206L56.791666666666664,162.87933314343294L58,148.7193352182706L59.208333333333336,140.34133406480154L60.41666666666667,144.8253337740898L61.625,146.18233330051103L62.833333333333336,145.2580019036929L64.04166666666667,145.84800016880035L65.25,145.84800016880035L66.45833333333333,153.7540006587903L67.66666666666667,152.318334599336L68.875,126.791002869606L70.08333333333333,139.0629996061325L71.29166666666666,134.48066782951355L72.5,144.62866670886677L73.70833333333333,144.62866670886677L74.91666666666667,136.44733555118245L76.125,144.5893327097098L77.33333333333333,140.59700212876004L78.54166666666666,150.3516668776671L79.75,153.38033352792263L80.95833333333333,144.3533345758915L82.16666666666667,157.4316665728887L83.375,159.61466689407825L84.58333333333334,159.12300069630146L85.79166666666667,154.167000323534L87,151.55133333802223L88.20833333333333,156.0156675130129L89.41666666666667,158.06100030243397L90.625,164.27566666901112L91.83333333333333,157.2350009729465L93.04166666666667,158.17900083462396L94.25,160.0866675575574L95.45833333333333,160.59800075491268L96.66666666666666,157.07766644159955L97.875,154.77666705350083L99.08333333333333,154.77666705350083L100.29166666666667,154.77666705350083L101.5,145.45466603835425L102.70833333333334,143.33066818118095L103.91666666666667,143.33066818118095L105.125,136.3293335537116L106.33333333333333,150.01733374595642L107.54166666666667,135.54266822338104L108.75,133.00566923618317L109.95833333333333,127.49900313218434L111.16666666666667,133.5563335021337L112.375,139.84966786702472L113.58333333333333,134.63800089557967L114.79166666666666,129.78033405542374L116,135.95566642284393L117.20833333333333,147.28366769353548L118.41666666666667,140.89200126131377L119.625,143.76333338022232L120.83333333333334,159.2016672293345L122.04166666666667,158.78866756459078L123.25,147.73599989215532L124.45833333333333,150.2533348103364L125.66666666666667,148.2670000890891L126.875,149.9386686782042L128.08333333333334,149.9386686782042L129.29166666666669,149.9386686782042L130.5,133.6350015004476L131.70833333333334,132.0813349088033L132.91666666666666,137.470001945893L134.125,140.5380011300246L135.33333333333334,148.20800202091533L136.54166666666666,147.48033475875854L137.75,146.91000056266785L138.95833333333334,153.47866706053415L140.16666666666666,144.33366757631302L141.375,144.33366757631302L142.58333333333331,128.48233552773792L143.79166666666666,127.7743352651596L145,122.64133336146674L146.20833333333334,125.88633261124293L147.41666666666666,113.45699987808862L148.625,116.11200086275737L149.83333333333334,111.58866715431215L151.04166666666669,111.706669151783L152.25,114.08633214235307L153.45833333333334,114.42066820462544L154.66666666666666,123.93933188915251L155.875,120.0650003751119L157.08333333333331,120.63533457120259L158.29166666666666,110.62499882777531L159.5,110.62499882777531L160.70833333333334,107.85200170675914L161.91666666666666,121.93333309888841L163.125,121.93333309888841L164.33333333333334,135.18866809209186L165.54166666666666,106.10167098045349L166.75,115.52200259764989L167.95833333333334,110.82166882356009L169.16666666666669,118.94400191307066L170.375,135.1690010925134L171.58333333333334,140.7936662634214L172.79166666666666,121.14667069911958L174,114.44033227364223L175.20833333333331,128.81666865944862L176.41666666666666,145.86766716837883L177.625,137.6076680123806L178.83333333333334,148.62100022037825L180.04166666666666,137.50933301448822L181.25,127.22366513808568L182.45833333333334,127.22366513808568L183.66666666666666,131.62899977962175L184.875,121.30400083462396L186.08333333333334,121.30400083462396L187.29166666666669,120.57633650302888L188.5,127.22366513808568L189.70833333333334,126.81066693862279L190.91666666666666,128.52166659633318L192.125,129.87866905331612L193.33333333333331,128.40366752942404L194.54166666666666,112.0213352839152L195.75,116.78066712617873L196.95833333333334,129.0133357246717L198.16666666666666,126.49600080649058L199.375,124.70633608102798L200.58333333333334,109.40566829840343L201.79166666666666,118.15733365217845L203,122.16933709383012L204.20833333333334,114.42066820462544L205.41666666666669,129.56399999062222L206.625,136.25066848595938L207.83333333333334,121.44166690111159L209.04166666666666,113.49633387724559L210.25,126.00433460871379L211.45833333333331,134.5200018286705L212.66666666666666,144.37300157546997L213.875,131.19633458058038L215.08333333333334,119.80933231115341L216.29166666666666,126.63366687297821L217.5,126.63366687297821L218.70833333333334,126.63366687297821L219.91666666666666,118.05900158484776L221.125,99.57233262062073L222.33333333333334,118.80633584658304L223.54166666666669,126.59433287382127L224.75,123.42800162235896L225.95833333333334,125.88633261124293L227.16666666666666,125.88633261124293L228.375,109.68100043137869L229.58333333333331,109.99566656351091L230.79166666666666,132.71066717306772L232,140.91166826089224L233.20833333333334,144.80566677451134L234.41666666666666,140.7740021944046L235.625,139.77099986871085L236.83333333333334,129.48533492287L238.04166666666666,145.74966810146967L239.25,103.8990021944046L240.45833333333334,124.39166994889577L241.66666666666669,135.79833335677782L242.875,127.08599907159805L244.08333333333334,127.16466706991197L245.29166666666666,130.6850013832251L246.5,125.39466641346613L247.70833333333331,116.50533499320349L248.91666666666666,139.6333338022232L250.125,134.1070006986459L251.33333333333334,136.44733555118245L252.54166666666666,136.44733555118245L253.75,143.2126661837101L254.95833333333334,129.1706687907378L256.1666666666667,134.5986668964227L257.375,141.28533539175987L258.58333333333337,133.7136665681998L259.7916666666667,133.7136665681998L261,135.12966709335643L262.2083333333333,139.18100160360336L263.4166666666667,142.09166772166887L264.625,126.67300087213515L265.8333333333333,124.23433395226797" style="fill: none;" fill="none"></path></g></g></g></g></g></g><g transform="translate(40, 177)" clip-path="url(#clip_1)"><clipPath id="clip_1"><rect width="290" height="23"></rect></clipPath><g><g><line x1="0" y1="0" x2="0" y2="5" style="visibility: inherit;" fill="rgb(0, 0, 0)" stroke="rgb(204, 204, 204)" stroke-width="1px"></line><line x1="24.166666666666664" y1="0" x2="24.166666666666664" y2="5" style="visibility: inherit;" fill="rgb(0, 0, 0)" stroke="rgb(204, 204, 204)" stroke-width="1px"></line><line x1="48.33333333333333" y1="0" x2="48.33333333333333" y2="5" style="visibility: inherit;" fill="rgb(0, 0, 0)" stroke="rgb(204, 204, 204)" stroke-width="1px"></line><line x1="72.5" y1="0" x2="72.5" y2="5" style="visibility: inherit;" fill="rgb(0, 0, 0)" stroke="rgb(204, 204, 204)" stroke-width="1px"></line><line x1="96.66666666666666" y1="0" x2="96.66666666666666" y2="5" style="visibility: inherit;" fill="rgb(0, 0, 0)" stroke="rgb(204, 204, 204)" stroke-width="1px"></line><line x1="120.83333333333334" y1="0" x2="120.83333333333334" y2="5" style="visibility: inherit;" fill="rgb(0, 0, 0)" stroke="rgb(204, 204, 204)" stroke-width="1px"></line><line x1="145" y1="0" x2="145" y2="5" style="visibility: inherit;" fill="rgb(0, 0, 0)" stroke="rgb(204, 204, 204)" stroke-width="1px"></line><line x1="169.16666666666669" y1="0" x2="169.16666666666669" y2="5" style="visibility: inherit;" fill="rgb(0, 0, 0)" stroke="rgb(204, 204, 204)" stroke-width="1px"></line><line x1="193.33333333333331" y1="0" x2="193.33333333333331" y2="5" style="visibility: inherit;" fill="rgb(0, 0, 0)" stroke="rgb(204, 204, 204)" stroke-width="1px"></line><line x1="217.5" y1="0" x2="217.5" y2="5" style="visibility: inherit;" fill="rgb(0, 0, 0)" stroke="rgb(204, 204, 204)" stroke-width="1px"></line><line x1="241.66666666666669" y1="0" x2="241.66666666666669" y2="5" style="visibility: inherit;" fill="rgb(0, 0, 0)" stroke="rgb(204, 204, 204)" stroke-width="1px"></line><line x1="265.8333333333333" y1="0" x2="265.8333333333333" y2="5" style="visibility: inherit;" fill="rgb(0, 0, 0)" stroke="rgb(204, 204, 204)" stroke-width="1px"></line><line x1="290" y1="0" x2="290" y2="5" style="visibility: inherit;" fill="rgb(0, 0, 0)" stroke="rgb(204, 204, 204)" stroke-width="1px"></line></g><g transform="translate(0, 8)"><text x="0" y="0" dx="0em" dy="0.95em" style="text-anchor: middle; visibility: hidden; font-family: Roboto, sans-serif; font-size: 12px; font-weight: 200;" fill="rgb(33, 33, 33)" stroke="none" stroke-width="1px">-20</text><text x="24.166666666666664" y="0" dx="0em" dy="0.95em" style="text-anchor: middle; visibility: inherit; font-family: Roboto, sans-serif; font-size: 12px; font-weight: 200;" fill="rgb(33, 33, 33)" stroke="none" stroke-width="1px">0</text><text x="48.33333333333333" y="0" dx="0em" dy="0.95em" style="text-anchor: middle; visibility: hidden; font-family: Roboto, sans-serif; font-size: 12px; font-weight: 200;" fill="rgb(33, 33, 33)" stroke="none" stroke-width="1px">20</text><text x="72.5" y="0" dx="0em" dy="0.95em" style="text-anchor: middle; visibility: inherit; font-family: Roboto, sans-serif; font-size: 12px; font-weight: 200;" fill="rgb(33, 33, 33)" stroke="none" stroke-width="1px">40</text><text x="96.66666666666666" y="0" dx="0em" dy="0.95em" style="text-anchor: middle; visibility: hidden; font-family: Roboto, sans-serif; font-size: 12px; font-weight: 200;" fill="rgb(33, 33, 33)" stroke="none" stroke-width="1px">60</text><text x="120.83333333333334" y="0" dx="0em" dy="0.95em" style="text-anchor: middle; visibility: inherit; font-family: Roboto, sans-serif; font-size: 12px; font-weight: 200;" fill="rgb(33, 33, 33)" stroke="none" stroke-width="1px">80</text><text x="145" y="0" dx="0em" dy="0.95em" style="text-anchor: middle; visibility: hidden; font-family: Roboto, sans-serif; font-size: 12px; font-weight: 200;" fill="rgb(33, 33, 33)" stroke="none" stroke-width="1px">100</text><text x="169.16666666666669" y="0" dx="0em" dy="0.95em" style="text-anchor: middle; visibility: inherit; font-family: Roboto, sans-serif; font-size: 12px; font-weight: 200;" fill="rgb(33, 33, 33)" stroke="none" stroke-width="1px">120</text><text x="193.33333333333331" y="0" dx="0em" dy="0.95em" style="text-anchor: middle; visibility: hidden; font-family: Roboto, sans-serif; font-size: 12px; font-weight: 200;" fill="rgb(33, 33, 33)" stroke="none" stroke-width="1px">140</text><text x="217.5" y="0" dx="0em" dy="0.95em" style="text-anchor: middle; visibility: inherit; font-family: Roboto, sans-serif; font-size: 12px; font-weight: 200;" fill="rgb(33, 33, 33)" stroke="none" stroke-width="1px">160</text><text x="241.66666666666669" y="0" dx="0em" dy="0.95em" style="text-anchor: middle; visibility: hidden; font-family: Roboto, sans-serif; font-size: 12px; font-weight: 200;" fill="rgb(33, 33, 33)" stroke="none" stroke-width="1px">180</text><text x="265.8333333333333" y="0" dx="0em" dy="0.95em" style="text-anchor: middle; visibility: inherit; font-family: Roboto, sans-serif; font-size: 12px; font-weight: 200;" fill="rgb(33, 33, 33)" stroke="none" stroke-width="1px">200</text><text x="290" y="0" dx="0em" dy="0.95em" style="text-anchor: middle; visibility: hidden; font-family: Roboto, sans-serif; font-size: 12px; font-weight: 200;" fill="rgb(33, 33, 33)" stroke="none" stroke-width="1px">220</text></g><line x1="0" y1="0" x2="290" y2="0" fill="rgb(0, 0, 0)" stroke="rgb(204, 204, 204)" stroke-width="1px"></line></g></g></g></g></svg>