<svg viewBox="0 0 330 200" xmlns="http://www.w3.org/2000/svg"><g><g><g><g><g><line x1="40" y1="177" x2="35" y2="177" style="visibility: inherit;" fill="rgb(0, 0, 0)" stroke="rgb(204, 204, 204)" stroke-width="1px"></line><line x1="40" y1="157.33333333333331" x2="35" y2="157.33333333333331" style="visibility: inherit;" fill="rgb(0, 0, 0)" stroke="rgb(204, 204, 204)" stroke-width="1px"></line><line x1="40" y1="137.66666666666666" x2="35" y2="137.66666666666666" style="visibility: inherit;" fill="rgb(0, 0, 0)" stroke="rgb(204, 204, 204)" stroke-width="1px"></line><line x1="40" y1="118" x2="35" y2="118" style="visibility: inherit;" fill="rgb(0, 0, 0)" stroke="rgb(204, 204, 204)" stroke-width="1px"></line><line x1="40" y1="98.33333333333334" x2="35" y2="98.33333333333334" style="visibility: inherit;" fill="rgb(0, 0, 0)" stroke="rgb(204, 204, 204)" stroke-width="1px"></line><line x1="40" y1="78.66666666666666" x2="35" y2="78.66666666666666" style="visibility: inherit;" fill="rgb(0, 0, 0)" stroke="rgb(204, 204, 204)" stroke-width="1px"></line><line x1="40" y1="59.00000000000001" x2="35" y2="59.00000000000001" style="visibility: inherit;" fill="rgb(0, 0, 0)" stroke="rgb(204, 204, 204)" stroke-width="1px"></line><line x1="40" y1="39.33333333333333" x2="35" y2="39.33333333333333" style="visibility: inherit;" fill="rgb(0, 0, 0)" stroke="rgb(204, 204, 204)" stroke-width="1px"></line><line x1="40" y1="19.666666666666657" x2="35" y2="19.666666666666657" style="visibility: inherit;" fill="rgb(0, 0, 0)" stroke="rgb(204, 204, 204)" stroke-width="1px"></line><line x1="40" y1="0" x2="35" y2="0" style="visibility: inherit;" fill="rgb(0, 0, 0)" stroke="rgb(204, 204, 204)" stroke-width="1px"></line></g><g transform="translate(30, 0)"><text x="0" y="177" dx="0em" dy="0.3em" style="text-anchor: end; visibility: hidden; font-family: Roboto, sans-serif; font-size: 12px; font-weight: 200;" fill="rgb(33, 33, 33)" stroke="none" stroke-width="1px">0.1</text><text x="0" y="157.33333333333331" dx="0em" dy="0.3em" style="text-anchor: end; visibility: inherit; font-family: Roboto, sans-serif; font-size: 12px; font-weight: 200;" fill="rgb(33, 33, 33)" stroke="none" stroke-width="1px">0.2</text><text x="0" y="137.66666666666666" dx="0em" dy="0.3em" style="text-anchor: end; visibility: hidden; font-family: Roboto, sans-serif; font-size: 12px; font-weight: 200;" fill="rgb(33, 33, 33)" stroke="none" stroke-width="1px">0.3</text><text x="0" y="118" dx="0em" dy="0.3em" style="text-anchor: end; visibility: inherit; font-family: Roboto, sans-serif; font-size: 12px; font-weight: 200;" fill="rgb(33, 33, 33)" stroke="none" stroke-width="1px">0.4</text><text x="0" y="98.33333333333334" dx="0em" dy="0.3em" style="text-anchor: end; visibility: hidden; font-family: Roboto, sans-serif; font-size: 12px; font-weight: 200;" fill="rgb(33, 33, 33)" stroke="none" stroke-width="1px">0.5</text><text x="0" y="78.66666666666666" dx="0em" dy="0.3em" style="text-anchor: end; visibility: inherit; font-family: Roboto, sans-serif; font-size: 12px; font-weight: 200;" fill="rgb(33, 33, 33)" stroke="none" stroke-width="1px">0.6</text><text x="0" y="59.00000000000001" dx="0em" dy="0.3em" style="text-anchor: end; visibility: hidden; font-family: Roboto, sans-serif; font-size: 12px; font-weight: 200;" fill="rgb(33, 33, 33)" stroke="none" stroke-width="1px">0.7</text><text x="0" y="39.33333333333333" dx="0em" dy="0.3em" style="text-anchor: end; visibility: inherit; font-family: Roboto, sans-serif; font-size: 12px; font-weight: 200;" fill="rgb(33, 33, 33)" stroke="none" stroke-width="1px">0.8</text><text x="0" y="19.666666666666657" dx="0em" dy="0.3em" style="text-anchor: end; visibility: hidden; font-family: Roboto, sans-serif; font-size: 12px; font-weight: 200;" fill="rgb(33, 33, 33)" stroke="none" stroke-width="1px">0.9</text><text x="0" y="0" dx="0em" dy="0.3em" style="text-anchor: end; visibility: hidden; font-family: Roboto, sans-serif; font-size: 12px; font-weight: 200;" fill="rgb(33, 33, 33)" stroke="none" stroke-width="1px">1</text></g><line x1="40" y1="0" x2="40" y2="177" fill="rgb(0, 0, 0)" stroke="rgb(204, 204, 204)" stroke-width="1px"></line></g></g><g transform="translate(40, 0)" clip-path="url(#clip_0)"><clipPath id="clip_0"><rect width="290" height="177"></rect></clipPath><g><g><g><line x1="0" y1="0" x2="0" y2="177" fill="rgb(0, 0, 0)" stroke="rgb(66, 66, 66)" stroke-width="1px" opacity="0.25"></line><line x1="24.166666666666664" y1="0" x2="24.166666666666664" y2="177" fill="rgb(0, 0, 0)" stroke="rgb(66, 66, 66)" stroke-width="1px" opacity="0.25"></line><line x1="48.33333333333333" y1="0" x2="48.33333333333333" y2="177" fill="rgb(0, 0, 0)" stroke="rgb(66, 66, 66)" stroke-width="1px" opacity="0.25"></line><line x1="72.5" y1="0" x2="72.5" y2="177" fill="rgb(0, 0, 0)" stroke="rgb(66, 66, 66)" stroke-width="1px" opacity="0.25"></line><line x1="96.66666666666666" y1="0" x2="96.66666666666666" y2="177" fill="rgb(0, 0, 0)" stroke="rgb(66, 66, 66)" stroke-width="1px" opacity="0.25"></line><line x1="120.83333333333334" y1="0" x2="120.83333333333334" y2="177" fill="rgb(0, 0, 0)" stroke="rgb(66, 66, 66)" stroke-width="1px" opacity="0.25"></line><line x1="145" y1="0" x2="145" y2="177" fill="rgb(0, 0, 0)" stroke="rgb(66, 66, 66)" stroke-width="1px" opacity="0.25"></line><line x1="169.16666666666669" y1="0" x2="169.16666666666669" y2="177" fill="rgb(0, 0, 0)" stroke="rgb(66, 66, 66)" stroke-width="1px" opacity="0.25"></line><line x1="193.33333333333331" y1="0" x2="193.33333333333331" y2="177" fill="rgb(0, 0, 0)" stroke="rgb(66, 66, 66)" stroke-width="1px" opacity="0.25"></line><line x1="217.5" y1="0" x2="217.5" y2="177" fill="rgb(0, 0, 0)" stroke="rgb(66, 66, 66)" stroke-width="1px" opacity="0.25"></line><line x1="241.66666666666669" y1="0" x2="241.66666666666669" y2="177" fill="rgb(0, 0, 0)" stroke="rgb(66, 66, 66)" stroke-width="1px" opacity="0.25"></line><line x1="265.8333333333333" y1="0" x2="265.8333333333333" y2="177" fill="rgb(0, 0, 0)" stroke="rgb(66, 66, 66)" stroke-width="1px" opacity="0.25"></line><line x1="290" y1="0" x2="290" y2="177" fill="rgb(0, 0, 0)" stroke="rgb(66, 66, 66)" stroke-width="1px" opacity="0.25"></line></g><g><line x1="0" y1="177" x2="290" y2="177" fill="rgb(0, 0, 0)" stroke="rgb(66, 66, 66)" stroke-width="1px" opacity="0.25"></line><line x1="0" y1="157.33333333333331" x2="290" y2="157.33333333333331" fill="rgb(0, 0, 0)" stroke="rgb(66, 66, 66)" stroke-width="1px" opacity="0.25"></line><line x1="0" y1="137.66666666666666" x2="290" y2="137.66666666666666" fill="rgb(0, 0, 0)" stroke="rgb(66, 66, 66)" stroke-width="1px" opacity="0.25"></line><line x1="0" y1="118" x2="290" y2="118" fill="rgb(0, 0, 0)" stroke="rgb(66, 66, 66)" stroke-width="1px" opacity="0.25"></line><line x1="0" y1="98.33333333333334" x2="290" y2="98.33333333333334" fill="rgb(0, 0, 0)" stroke="rgb(66, 66, 66)" stroke-width="1px" opacity="0.25"></line><line x1="0" y1="78.66666666666666" x2="290" y2="78.66666666666666" fill="rgb(0, 0, 0)" stroke="rgb(66, 66, 66)" stroke-width="1px" opacity="0.25"></line><line x1="0" y1="59.00000000000001" x2="290" y2="59.00000000000001" fill="rgb(0, 0, 0)" stroke="rgb(66, 66, 66)" stroke-width="1px" opacity="0.25"></line><line x1="0" y1="39.33333333333333" x2="290" y2="39.33333333333333" fill="rgb(0, 0, 0)" stroke="rgb(66, 66, 66)" stroke-width="1px" opacity="0.25"></line><line x1="0" y1="19.666666666666657" x2="290" y2="19.666666666666657" fill="rgb(0, 0, 0)" stroke="rgb(66, 66, 66)" stroke-width="1px" opacity="0.25"></line><line x1="0" y1="0" x2="290" y2="0" fill="rgb(0, 0, 0)" stroke="rgb(66, 66, 66)" stroke-width="1px" opacity="0.25"></line></g></g></g><g><g><line x1="0" y1="196.66666666666669" x2="290" y2="196.66666666666669" fill="rgb(0, 0, 0)" stroke="rgb(153, 153, 153)" stroke-width="1.5px"></line></g></g><g><g><line x1="24.166666666666664" y1="0" x2="24.166666666666664" y2="177" fill="rgb(0, 0, 0)" stroke="rgb(153, 153, 153)" stroke-width="1.5px"></line></g></g><g><g><g><g><g><path stroke="rgb(51, 187, 238)" stroke-width="2px" d="M25.375,173.69600092371303L26.583333333333332,122.24800040324529L27.791666666666668,70.64266681671143L29,55.066672762234994L30.208333333333336,49.71734265486399L31.416666666666668,41.37867550055187L32.625,39.49066698551179L33.833333333333336,39.33334271113079L35.041666666666664,33.66934061050415L36.25,37.91734218597413L37.458333333333336,32.882672349611916L38.666666666666664,33.35466861724854L39.875,30.83733956019083L41.083333333333336,29.26400303840638L42.29166666666667,28.949342767397564L43.5,27.218670248985298L44.708333333333336,25.960005720456433L45.916666666666664,24.386669198671978L47.125,26.589337984720874L48.33333333333333,25.80266972382864L49.541666666666664,25.645333727200825L50.75,23.757336934407558L51.958333333333336,24.229333202044163L53.166666666666664,24.701341191927586L54.375,23.285340666770928L55.583333333333336,23.600000937779743L56.791666666666664,23.757336934407558L58,23.757336934407558L59.208333333333336,22.341336409250896L60.41666666666667,23.285340666770928L61.625,21.397332151730847L62.833333333333336,21.240007877349846L64.04166666666667,21.082671880722053L65.25,21.240007877349846L66.45833333333333,19.666671355565395L67.66666666666667,19.351999362309765L68.875,18.408006827036548L70.08333333333333,19.50933535893758L71.29166666666666,19.666671355565395L72.5,20.92533588409424L73.70833333333333,21.082671880722053L74.91666666666667,19.50933535893758L76.125,20.767999887466424L77.33333333333333,19.981343348821003L78.54166666666666,17.778674562772107L79.75,18.09333483378092L80.95833333333333,18.56534282366434L82.16666666666667,19.82400735219319L83.375,18.880003094673157L84.58333333333334,16.52001003424326L85.79166666666667,16.67733430862426L87,18.722667098045342L88.20833333333333,18.408006827036548L89.41666666666667,15.890666047732044L90.625,16.99200630187989L91.83333333333333,19.194675087928765L93.04166666666667,18.408006827036548L94.25,18.722667098045342L95.45833333333333,18.250670830408733L96.66666666666666,18.56534282366434L97.875,18.56534282366434L99.08333333333333,18.408006827036548L100.29166666666667,18.250670830408733L101.5,16.99200630187989L102.70833333333334,16.52001003424326L103.91666666666667,16.67733430862426L105.125,17.935998837153125L106.33333333333333,16.362674037615466L107.54166666666667,16.834670305252075L108.75,15.418669780095415L109.95833333333333,16.20533804098765L111.16666666666667,16.67733430862426L112.375,14.946673512458808L113.58333333333333,15.57600577672323L114.79166666666666,16.834670305252075L116,15.261333783467602L117.20833333333333,16.99200630187989L118.41666666666667,16.048002044359837L119.625,16.834670305252075L120.83333333333334,16.20533804098765L122.04166666666667,17.306666572888684L123.25,14.632001519203179L124.45833333333333,16.20533804098765L125.66666666666667,16.20533804098765L126.875,15.418669780095415L128.08333333333334,16.20533804098765L129.29166666666669,16.99200630187989L130.5,16.362674037615466L131.70833333333334,16.20533804098765L132.91666666666666,15.261333783467602L134.125,15.104009509086602L135.33333333333334,16.048002044359837L136.54166666666666,16.99200630187989L137.75,15.261333783467602L138.95833333333334,15.890666047732044L140.16666666666666,14.317341248194385L141.375,14.002669254938757L142.58333333333331,16.20533804098765L143.79166666666666,16.048002044359837L145,14.632001519203179L146.20833333333334,15.733341773351025L147.41666666666666,15.57600577672323L148.625,15.890666047732044L149.83333333333334,15.104009509086602L151.04166666666669,15.418669780095415L152.25,15.104009509086602L153.45833333333334,14.632001519203179L154.66666666666666,16.048002044359837L155.875,16.52001003424326L157.08333333333331,14.946673512458808L158.29166666666666,15.733341773351025L159.5,15.733341773351025L160.70833333333334,15.57600577672323L161.91666666666666,16.67733430862426L163.125,16.048002044359837L164.33333333333334,14.317341248194385L165.54166666666666,14.632001519203179L166.75,15.104009509086602L167.95833333333334,14.317341248194385L169.16666666666669,14.002669254938757L170.375,14.160005251566572L171.58333333333334,14.789337515830994L172.79166666666666,14.946673512458808L174,14.474665522575386L175.20833333333331,14.789337515830994L176.41666666666666,14.632001519203179L177.625,14.789337515830994L178.83333333333334,14.632001519203179L180.04166666666666,15.104009509086602L181.25,16.52001003424326L182.45833333333334,14.946673512458808L183.66666666666666,14.789337515830994L184.875,15.261333783467602L186.08333333333334,15.733341773351025L187.29166666666669,14.002669254938757L188.5,15.418669780095415L189.70833333333334,14.789337515830994L190.91666666666666,15.418669780095415L192.125,14.946673512458808L193.33333333333331,15.418669780095415L194.54166666666666,16.362674037615466L195.75,15.418669780095415L196.95833333333334,15.261333783467602L198.16666666666666,14.160005251566572L199.375,15.261333783467602L200.58333333333334,15.261333783467602L201.79166666666666,15.104009509086602L203,15.890666047732044L204.20833333333334,15.261333783467602L205.41666666666669,15.104009509086602L206.625,14.946673512458808L207.83333333333334,15.261333783467602L209.04166666666666,15.261333783467602L210.25,14.789337515830994L211.45833333333331,14.474665522575386L212.66666666666666,15.418669780095415L213.875,14.946673512458808L215.08333333333334,14.632001519203179L216.29166666666666,14.002669254938757L217.5,15.261333783467602L218.70833333333334,14.317341248194385L219.91666666666666,14.474665522575386L221.125,14.317341248194385L222.33333333333334,14.317341248194385L223.54166666666669,14.160005251566572L224.75,14.474665522575386L225.95833333333334,14.317341248194385L227.16666666666666,14.789337515830994L228.375,14.317341248194385L229.58333333333331,13.530672987302149L230.79166666666666,14.789337515830994L232,14.002669254938757L233.20833333333334,14.789337515830994L234.41666666666666,14.474665522575386L235.625,13.845333258310962L236.83333333333334,14.160005251566572L238.04166666666666,14.632001519203179L239.25,13.845333258310962L240.45833333333334,13.845333258310962L241.66666666666669,13.05867671966552L242.875,14.474665522575386L244.08333333333334,13.21600099404652L245.29166666666666,14.160005251566572L246.5,13.845333258310962L247.70833333333331,13.530672987302149L248.91666666666666,13.845333258310962L250.125,13.373336990674334L251.33333333333334,14.002669254938757L252.54166666666666,14.789337515830994L253.75,15.57600577672323L254.95833333333334,14.789337515830994L256.1666666666667,13.688008983929944L257.375,14.632001519203179L258.58333333333337,14.002669254938757L259.7916666666667,13.845333258310962L261,14.317341248194385L262.2083333333333,14.317341248194385L263.4166666666667,14.317341248194385L264.625,14.632001519203179L265.8333333333333,13.688008983929944" style="fill: none;" fill="none"></path></g><g><path stroke="rgb(238, 51, 119)" stroke-width="2px" d="M33.833333333333336,181.40533434847993L35.041666666666664,175.26933451493582L36.25,161.73866738875708L37.458333333333336,161.42400125662488L38.666666666666664,168.34666788578033L39.875,174.3253331879775L41.083333333333336,167.08800042668977L42.29166666666667,153.55733330051103L43.5,157.805334875981L44.708333333333336,156.23200128475824L45.916666666666664,156.23200128475824L47.125,150.41066904862723L48.33333333333333,153.55733330051103L49.541666666666664,159.3786684672038L50.75,155.91733515262604L51.958333333333336,152.92800103624663L53.166666666666664,144.27467068036398L54.375,160.7946689923604L55.583333333333336,155.2879999577999L56.791666666666664,155.1306668917338L58,149.93866691986722L59.208333333333336,138.13866645097733L60.41666666666667,153.71466636657715L61.625,150.41066904862723L62.833333333333336,160.1653337975343L64.04166666666667,143.64533255497614L65.25,159.693334599336L66.45833333333333,157.3333356777827L67.66666666666667,148.99466852347055L68.875,149.46666772166887L70.08333333333333,149.62400078773499L71.29166666666666,146.16266747315726L72.5,147.73600106438002L73.70833333333333,153.40000023444492L74.91666666666667,131.68800195058185L76.125,153.71466636657715L77.33333333333333,144.58933681249619L78.54166666666666,144.27467068036398L79.75,161.10933512449265L80.95833333333333,152.7706679701805L82.16666666666667,157.64800180991492L83.375,149.93866691986722L84.58333333333334,149.46666772166887L85.79166666666667,158.59200020631155L87,149.15200158953667L88.20833333333333,151.19733437895775L89.41666666666667,142.2293320298195L90.625,157.17599968115488L91.83333333333333,153.71466636657715L93.04166666666667,153.71466636657715L94.25,155.445333023866L95.45833333333333,147.89333413044614L96.66666666666666,151.82666664322218L97.875,151.51200051108995L99.08333333333333,146.47733360528946L100.29166666666667,152.14133570591608L101.5,146.79199973742166L102.70833333333334,154.5013346274694L103.91666666666667,152.4560018380483L105.125,153.71466636657715L106.33333333333333,145.53333520889282L107.54166666666667,149.46666772166887L108.75,154.18666849533716L109.95833333333333,159.3786684672038L111.16666666666667,157.17599968115488L112.375,152.4560018380483L113.58333333333333,150.56800211469334L114.79166666666666,151.19733437895775L116,151.04000131289163L117.20833333333333,159.85066766540209L118.41666666666667,147.26400186618167L119.625,150.88266824682555L120.83333333333334,156.86133354902267L122.04166666666667,161.42400125662488L123.25,162.9973348478476L124.45833333333333,161.42400125662488L125.66666666666667,162.5253356496493L126.875,158.1200010081132L128.08333333333334,157.64800180991492L129.29166666666669,157.96266794204712L130.5,156.07466821869212L131.70833333333334,160.47999992966652L132.91666666666666,148.99466852347055L134.125,157.0186666150888L135.33333333333334,156.38933435082436L136.54166666666666,159.3786684672038L137.75,157.4906687438488L138.95833333333334,158.1200010081132L140.16666666666666,158.59200020631155L141.375,164.4133353730043L142.58333333333331,167.08800042668977L143.79166666666666,157.805334875981L145,149.62400078773499L146.20833333333334,157.805334875981L147.41666666666666,154.8160007596016L148.625,150.41066904862723L149.83333333333334,156.23200128475824L151.04166666666669,155.76000208655992L152.25,156.86133354902267L153.45833333333334,159.53600153326988L154.66666666666666,155.91733515262604L155.875,160.1653337975343L157.08333333333331,161.10933512449265L158.29166666666666,163.15466791391373L159.5,161.89600045482317L160.70833333333334,165.2000007033348L161.91666666666666,165.51466683546704L163.125,163.94133324424425L164.33333333333334,162.8400017817815L165.54166666666666,162.5253356496493L166.75,157.17599968115488L167.95833333333334,159.85066766540209L169.16666666666669,163.78400017817816L170.375,159.53600153326988L171.58333333333334,159.693334599336L172.79166666666666,161.42400125662488L174,163.78400017817816L175.20833333333331,165.0426676372687L176.41666666666666,163.62666711211205L177.625,164.4133353730043L178.83333333333334,160.1653337975343L180.04166666666666,163.15466791391373L181.25,159.693334599336L182.45833333333334,161.58133432269096L183.66666666666666,162.21066658695537L184.875,159.22133540113768L186.08333333333334,162.21066658695537L187.29166666666669,159.693334599336L188.5,161.26666819055876L189.70833333333334,156.54666741689047L190.91666666666666,160.47999992966652L192.125,154.8160007596016L193.33333333333331,153.40000023444492L194.54166666666666,153.08533410231271L195.75,160.0080007314682L196.95833333333334,159.3786684672038L198.16666666666666,158.59200020631155L199.375,155.91733515262604L200.58333333333334,165.82933296759924L201.79166666666666,157.17599968115488L203,157.96266794204712L204.20833333333334,161.42400125662488L205.41666666666669,161.42400125662488L206.625,161.10933512449265L207.83333333333334,165.82933296759924L209.04166666666666,164.09866631031036L210.25,159.22133540113768L211.45833333333331,157.805334875981L212.66666666666666,155.1306668917338L213.875,154.18666849533716L215.08333333333334,150.72533518075943L216.29166666666666,158.1200010081132L217.5,150.56800211469334L218.70833333333334,148.68000239133835L219.91666666666666,151.19733437895775L221.125,149.7813338538011L222.33333333333334,147.4213320016861L223.54166666666669,149.7813338538011L224.75,153.40000023444492L225.95833333333334,148.68000239133835L227.16666666666666,150.88266824682555L228.375,153.71466636657715L229.58333333333331,156.54666741689047L230.79166666666666,156.86133354902267L232,158.27733407417932L233.20833333333334,156.07466821869212L234.41666666666666,156.07466821869212L235.625,162.05333352088928L236.83333333333334,159.693334599336L238.04166666666666,160.0080007314682L239.25,161.26666819055876L240.45833333333334,160.0080007314682L241.66666666666669,159.53600153326988L242.875,160.47999992966652L244.08333333333334,161.58133432269096L245.29166666666666,162.9973348478476L246.5,159.85066766540209L247.70833333333331,160.1653337975343L248.91666666666666,159.22133540113768L250.125,161.73866738875708L251.33333333333334,163.46933404604596L252.54166666666666,161.26666819055876L253.75,160.3226668636004L254.95833333333334,158.43466714024544L256.1666666666667,162.5253356496493L257.375,162.36799965302149L258.58333333333337,162.36799965302149L259.7916666666667,161.26666819055876L261,160.95200205842653L262.2083333333333,160.3226668636004L263.4166666666667,157.4906687438488L264.625,157.64800180991492L265.8333333333333,154.9733338256677" style="fill: none;" fill="none"></path></g></g></g></g></g></g><g transform="translate(40, 177)" clip-path="url(#clip_1)"><clipPath id="clip_1"><rect width="290" height="23"></rect></clipPath><g><g><line x1="0" y1="0" x2="0" y2="5" style="visibility: inherit;" fill="rgb(0, 0, 0)" stroke="rgb(204, 204, 204)" stroke-width="1px"></line><line x1="24.166666666666664" y1="0" x2="24.166666666666664" y2="5" style="visibility: inherit;" fill="rgb(0, 0, 0)" stroke="rgb(204, 204, 204)" stroke-width="1px"></line><line x1="48.33333333333333" y1="0" x2="48.33333333333333" y2="5" style="visibility: inherit;" fill="rgb(0, 0, 0)" stroke="rgb(204, 204, 204)" stroke-width="1px"></line><line x1="72.5" y1="0" x2="72.5" y2="5" style="visibility: inherit;" fill="rgb(0, 0, 0)" stroke="rgb(204, 204, 204)" stroke-width="1px"></line><line x1="96.66666666666666" y1="0" x2="96.66666666666666" y2="5" style="visibility: inherit;" fill="rgb(0, 0, 0)" stroke="rgb(204, 204, 204)" stroke-width="1px"></line><line x1="120.83333333333334" y1="0" x2="120.83333333333334" y2="5" style="visibility: inherit;" fill="rgb(0, 0, 0)" stroke="rgb(204, 204, 204)" stroke-width="1px"></line><line x1="145" y1="0" x2="145" y2="5" style="visibility: inherit;" fill="rgb(0, 0, 0)" stroke="rgb(204, 204, 204)" stroke-width="1px"></line><line x1="169.16666666666669" y1="0" x2="169.16666666666669" y2="5" style="visibility: inherit;" fill="rgb(0, 0, 0)" stroke="rgb(204, 204, 204)" stroke-width="1px"></line><line x1="193.33333333333331" y1="0" x2="193.33333333333331" y2="5" style="visibility: inherit;" fill="rgb(0, 0, 0)" stroke="rgb(204, 204, 204)" stroke-width="1px"></line><line x1="217.5" y1="0" x2="217.5" y2="5" style="visibility: inherit;" fill="rgb(0, 0, 0)" stroke="rgb(204, 204, 204)" stroke-width="1px"></line><line x1="241.66666666666669" y1="0" x2="241.66666666666669" y2="5" style="visibility: inherit;" fill="rgb(0, 0, 0)" stroke="rgb(204, 204, 204)" stroke-width="1px"></line><line x1="265.8333333333333" y1="0" x2="265.8333333333333" y2="5" style="visibility: inherit;" fill="rgb(0, 0, 0)" stroke="rgb(204, 204, 204)" stroke-width="1px"></line><line x1="290" y1="0" x2="290" y2="5" style="visibility: inherit;" fill="rgb(0, 0, 0)" stroke="rgb(204, 204, 204)" stroke-width="1px"></line></g><g transform="translate(0, 8)"><text x="0" y="0" dx="0em" dy="0.95em" style="text-anchor: middle; visibility: hidden; font-family: Roboto, sans-serif; font-size: 12px; font-weight: 200;" fill="rgb(33, 33, 33)" stroke="none" stroke-width="1px">-20</text><text x="24.166666666666664" y="0" dx="0em" dy="0.95em" style="text-anchor: middle; visibility: inherit; font-family: Roboto, sans-serif; font-size: 12px; font-weight: 200;" fill="rgb(33, 33, 33)" stroke="none" stroke-width="1px">0</text><text x="48.33333333333333" y="0" dx="0em" dy="0.95em" style="text-anchor: middle; visibility: hidden; font-family: Roboto, sans-serif; font-size: 12px; font-weight: 200;" fill="rgb(33, 33, 33)" stroke="none" stroke-width="1px">20</text><text x="72.5" y="0" dx="0em" dy="0.95em" style="text-anchor: middle; visibility: inherit; font-family: Roboto, sans-serif; font-size: 12px; font-weight: 200;" fill="rgb(33, 33, 33)" stroke="none" stroke-width="1px">40</text><text x="96.66666666666666" y="0" dx="0em" dy="0.95em" style="text-anchor: middle; visibility: hidden; font-family: Roboto, sans-serif; font-size: 12px; font-weight: 200;" fill="rgb(33, 33, 33)" stroke="none" stroke-width="1px">60</text><text x="120.83333333333334" y="0" dx="0em" dy="0.95em" style="text-anchor: middle; visibility: inherit; font-family: Roboto, sans-serif; font-size: 12px; font-weight: 200;" fill="rgb(33, 33, 33)" stroke="none" stroke-width="1px">80</text><text x="145" y="0" dx="0em" dy="0.95em" style="text-anchor: middle; visibility: hidden; font-family: Roboto, sans-serif; font-size: 12px; font-weight: 200;" fill="rgb(33, 33, 33)" stroke="none" stroke-width="1px">100</text><text x="169.16666666666669" y="0" dx="0em" dy="0.95em" style="text-anchor: middle; visibility: inherit; font-family: Roboto, sans-serif; font-size: 12px; font-weight: 200;" fill="rgb(33, 33, 33)" stroke="none" stroke-width="1px">120</text><text x="193.33333333333331" y="0" dx="0em" dy="0.95em" style="text-anchor: middle; visibility: hidden; font-family: Roboto, sans-serif; font-size: 12px; font-weight: 200;" fill="rgb(33, 33, 33)" stroke="none" stroke-width="1px">140</text><text x="217.5" y="0" dx="0em" dy="0.95em" style="text-anchor: middle; visibility: inherit; font-family: Roboto, sans-serif; font-size: 12px; font-weight: 200;" fill="rgb(33, 33, 33)" stroke="none" stroke-width="1px">160</text><text x="241.66666666666669" y="0" dx="0em" dy="0.95em" style="text-anchor: middle; visibility: hidden; font-family: Roboto, sans-serif; font-size: 12px; font-weight: 200;" fill="rgb(33, 33, 33)" stroke="none" stroke-width="1px">180</text><text x="265.8333333333333" y="0" dx="0em" dy="0.95em" style="text-anchor: middle; visibility: inherit; font-family: Roboto, sans-serif; font-size: 12px; font-weight: 200;" fill="rgb(33, 33, 33)" stroke="none" stroke-width="1px">200</text><text x="290" y="0" dx="0em" dy="0.95em" style="text-anchor: middle; visibility: hidden; font-family: Roboto, sans-serif; font-size: 12px; font-weight: 200;" fill="rgb(33, 33, 33)" stroke="none" stroke-width="1px">220</text></g><line x1="0" y1="0" x2="290" y2="0" fill="rgb(0, 0, 0)" stroke="rgb(204, 204, 204)" stroke-width="1px"></line></g></g></g></g></svg>