<svg viewBox="0 0 330 200" xmlns="http://www.w3.org/2000/svg"><g><g><g><g><g><line x1="40" y1="177" x2="35" y2="177" style="visibility: inherit;" fill="rgb(0, 0, 0)" stroke="rgb(204, 204, 204)" stroke-width="1px"></line><line x1="40" y1="157.33333333333331" x2="35" y2="157.33333333333331" style="visibility: inherit;" fill="rgb(0, 0, 0)" stroke="rgb(204, 204, 204)" stroke-width="1px"></line><line x1="40" y1="137.66666666666666" x2="35" y2="137.66666666666666" style="visibility: inherit;" fill="rgb(0, 0, 0)" stroke="rgb(204, 204, 204)" stroke-width="1px"></line><line x1="40" y1="118.00000000000001" x2="35" y2="118.00000000000001" style="visibility: inherit;" fill="rgb(0, 0, 0)" stroke="rgb(204, 204, 204)" stroke-width="1px"></line><line x1="40" y1="98.33333333333334" x2="35" y2="98.33333333333334" style="visibility: inherit;" fill="rgb(0, 0, 0)" stroke="rgb(204, 204, 204)" stroke-width="1px"></line><line x1="40" y1="78.66666666666666" x2="35" y2="78.66666666666666" style="visibility: inherit;" fill="rgb(0, 0, 0)" stroke="rgb(204, 204, 204)" stroke-width="1px"></line><line x1="40" y1="59.00000000000001" x2="35" y2="59.00000000000001" style="visibility: inherit;" fill="rgb(0, 0, 0)" stroke="rgb(204, 204, 204)" stroke-width="1px"></line><line x1="40" y1="39.33333333333335" x2="35" y2="39.33333333333335" style="visibility: inherit;" fill="rgb(0, 0, 0)" stroke="rgb(204, 204, 204)" stroke-width="1px"></line><line x1="40" y1="19.666666666666657" x2="35" y2="19.666666666666657" style="visibility: inherit;" fill="rgb(0, 0, 0)" stroke="rgb(204, 204, 204)" stroke-width="1px"></line><line x1="40" y1="0" x2="35" y2="0" style="visibility: inherit;" fill="rgb(0, 0, 0)" stroke="rgb(204, 204, 204)" stroke-width="1px"></line></g><g transform="translate(30, 0)"><text x="0" y="177" dx="0em" dy="0.3em" style="text-anchor: end; visibility: hidden; font-family: Roboto, sans-serif; font-size: 12px; font-weight: 200;" fill="rgb(33, 33, 33)" stroke="none" stroke-width="1px">0</text><text x="0" y="157.33333333333331" dx="0em" dy="0.3em" style="text-anchor: end; visibility: inherit; font-family: Roboto, sans-serif; font-size: 12px; font-weight: 200;" fill="rgb(33, 33, 33)" stroke="none" stroke-width="1px">0.1</text><text x="0" y="137.66666666666666" dx="0em" dy="0.3em" style="text-anchor: end; visibility: hidden; font-family: Roboto, sans-serif; font-size: 12px; font-weight: 200;" fill="rgb(33, 33, 33)" stroke="none" stroke-width="1px">0.2</text><text x="0" y="118.00000000000001" dx="0em" dy="0.3em" style="text-anchor: end; visibility: inherit; font-family: Roboto, sans-serif; font-size: 12px; font-weight: 200;" fill="rgb(33, 33, 33)" stroke="none" stroke-width="1px">0.3</text><text x="0" y="98.33333333333334" dx="0em" dy="0.3em" style="text-anchor: end; visibility: hidden; font-family: Roboto, sans-serif; font-size: 12px; font-weight: 200;" fill="rgb(33, 33, 33)" stroke="none" stroke-width="1px">0.4</text><text x="0" y="78.66666666666666" dx="0em" dy="0.3em" style="text-anchor: end; visibility: inherit; font-family: Roboto, sans-serif; font-size: 12px; font-weight: 200;" fill="rgb(33, 33, 33)" stroke="none" stroke-width="1px">0.5</text><text x="0" y="59.00000000000001" dx="0em" dy="0.3em" style="text-anchor: end; visibility: hidden; font-family: Roboto, sans-serif; font-size: 12px; font-weight: 200;" fill="rgb(33, 33, 33)" stroke="none" stroke-width="1px">0.6</text><text x="0" y="39.33333333333335" dx="0em" dy="0.3em" style="text-anchor: end; visibility: inherit; font-family: Roboto, sans-serif; font-size: 12px; font-weight: 200;" fill="rgb(33, 33, 33)" stroke="none" stroke-width="1px">0.7</text><text x="0" y="19.666666666666657" dx="0em" dy="0.3em" style="text-anchor: end; visibility: hidden; font-family: Roboto, sans-serif; font-size: 12px; font-weight: 200;" fill="rgb(33, 33, 33)" stroke="none" stroke-width="1px">0.8</text><text x="0" y="0" dx="0em" dy="0.3em" style="text-anchor: end; visibility: hidden; font-family: Roboto, sans-serif; font-size: 12px; font-weight: 200;" fill="rgb(33, 33, 33)" stroke="none" stroke-width="1px">0.9</text></g><line x1="40" y1="0" x2="40" y2="177" fill="rgb(0, 0, 0)" stroke="rgb(204, 204, 204)" stroke-width="1px"></line></g></g><g transform="translate(40, 0)" clip-path="url(#clip_0)"><clipPath id="clip_0"><rect width="290" height="177"></rect></clipPath><g><g><g><line x1="0" y1="0" x2="0" y2="177" fill="rgb(0, 0, 0)" stroke="rgb(66, 66, 66)" stroke-width="1px" opacity="0.25"></line><line x1="24.166666666666664" y1="0" x2="24.166666666666664" y2="177" fill="rgb(0, 0, 0)" stroke="rgb(66, 66, 66)" stroke-width="1px" opacity="0.25"></line><line x1="48.33333333333333" y1="0" x2="48.33333333333333" y2="177" fill="rgb(0, 0, 0)" stroke="rgb(66, 66, 66)" stroke-width="1px" opacity="0.25"></line><line x1="72.5" y1="0" x2="72.5" y2="177" fill="rgb(0, 0, 0)" stroke="rgb(66, 66, 66)" stroke-width="1px" opacity="0.25"></line><line x1="96.66666666666666" y1="0" x2="96.66666666666666" y2="177" fill="rgb(0, 0, 0)" stroke="rgb(66, 66, 66)" stroke-width="1px" opacity="0.25"></line><line x1="120.83333333333334" y1="0" x2="120.83333333333334" y2="177" fill="rgb(0, 0, 0)" stroke="rgb(66, 66, 66)" stroke-width="1px" opacity="0.25"></line><line x1="145" y1="0" x2="145" y2="177" fill="rgb(0, 0, 0)" stroke="rgb(66, 66, 66)" stroke-width="1px" opacity="0.25"></line><line x1="169.16666666666669" y1="0" x2="169.16666666666669" y2="177" fill="rgb(0, 0, 0)" stroke="rgb(66, 66, 66)" stroke-width="1px" opacity="0.25"></line><line x1="193.33333333333331" y1="0" x2="193.33333333333331" y2="177" fill="rgb(0, 0, 0)" stroke="rgb(66, 66, 66)" stroke-width="1px" opacity="0.25"></line><line x1="217.5" y1="0" x2="217.5" y2="177" fill="rgb(0, 0, 0)" stroke="rgb(66, 66, 66)" stroke-width="1px" opacity="0.25"></line><line x1="241.66666666666669" y1="0" x2="241.66666666666669" y2="177" fill="rgb(0, 0, 0)" stroke="rgb(66, 66, 66)" stroke-width="1px" opacity="0.25"></line><line x1="265.8333333333333" y1="0" x2="265.8333333333333" y2="177" fill="rgb(0, 0, 0)" stroke="rgb(66, 66, 66)" stroke-width="1px" opacity="0.25"></line><line x1="290" y1="0" x2="290" y2="177" fill="rgb(0, 0, 0)" stroke="rgb(66, 66, 66)" stroke-width="1px" opacity="0.25"></line></g><g><line x1="0" y1="177" x2="290" y2="177" fill="rgb(0, 0, 0)" stroke="rgb(66, 66, 66)" stroke-width="1px" opacity="0.25"></line><line x1="0" y1="157.33333333333331" x2="290" y2="157.33333333333331" fill="rgb(0, 0, 0)" stroke="rgb(66, 66, 66)" stroke-width="1px" opacity="0.25"></line><line x1="0" y1="137.66666666666666" x2="290" y2="137.66666666666666" fill="rgb(0, 0, 0)" stroke="rgb(66, 66, 66)" stroke-width="1px" opacity="0.25"></line><line x1="0" y1="118.00000000000001" x2="290" y2="118.00000000000001" fill="rgb(0, 0, 0)" stroke="rgb(66, 66, 66)" stroke-width="1px" opacity="0.25"></line><line x1="0" y1="98.33333333333334" x2="290" y2="98.33333333333334" fill="rgb(0, 0, 0)" stroke="rgb(66, 66, 66)" stroke-width="1px" opacity="0.25"></line><line x1="0" y1="78.66666666666666" x2="290" y2="78.66666666666666" fill="rgb(0, 0, 0)" stroke="rgb(66, 66, 66)" stroke-width="1px" opacity="0.25"></line><line x1="0" y1="59.00000000000001" x2="290" y2="59.00000000000001" fill="rgb(0, 0, 0)" stroke="rgb(66, 66, 66)" stroke-width="1px" opacity="0.25"></line><line x1="0" y1="39.33333333333335" x2="290" y2="39.33333333333335" fill="rgb(0, 0, 0)" stroke="rgb(66, 66, 66)" stroke-width="1px" opacity="0.25"></line><line x1="0" y1="19.666666666666657" x2="290" y2="19.666666666666657" fill="rgb(0, 0, 0)" stroke="rgb(66, 66, 66)" stroke-width="1px" opacity="0.25"></line><line x1="0" y1="0" x2="290" y2="0" fill="rgb(0, 0, 0)" stroke="rgb(66, 66, 66)" stroke-width="1px" opacity="0.25"></line></g></g></g><g><g><line x1="0" y1="177" x2="290" y2="177" fill="rgb(0, 0, 0)" stroke="rgb(153, 153, 153)" stroke-width="1.5px"></line></g></g><g><g><line x1="24.166666666666664" y1="0" x2="24.166666666666664" y2="177" fill="rgb(0, 0, 0)" stroke="rgb(153, 153, 153)" stroke-width="1.5px"></line></g></g><g><g><g><g><g><path stroke="rgb(51, 187, 238)" stroke-width="2px" d="M25.375,156.86133384207884L26.583333333333332,90.30933700005214L27.791666666666668,57.0333305199941L29,48.2620069583257L30.208333333333336,42.71600099404653L31.416666666666668,37.28800288836161L32.625,33.531667510668434L33.833333333333336,30.365336259206146L35.041666666666664,29.264007727305096L36.25,26.766336878140766L37.458333333333336,25.822332620620735L38.666666666666664,25.271668354670208L39.875,25.291338284810383L41.083333333333336,25.251998424530036L42.29166666666667,24.34733402729035L43.5,24.209667960802708L44.708333333333336,22.498665372530613L45.916666666666664,22.380669236183167L47.125,21.20067270596822L48.33333333333333,20.944998780886333L49.541666666666664,20.217340310414638L50.75,20.27633837858836L51.958333333333336,19.64700611432394L53.166666666666664,19.784672180811558L54.375,19.784672180811558L55.583333333333336,18.388341585795093L56.791666666666664,20.63033850987752L58,20.63033850987752L59.208333333333336,18.329331795374554L60.41666666666667,18.781669855117805L61.625,19.19466805458069L62.833333333333336,18.250675519307453L64.04166666666667,18.13266766071321L65.25,18.13266766071321L66.45833333333333,16.874003132184345L67.66666666666667,17.345999399820972L68.875,17.345999399820972L70.08333333333333,17.149335265159607L71.29166666666666,17.149335265159607L72.5,16.53967293103536L73.70833333333333,16.53967293103536L74.91666666666667,16.441335002581287L76.125,15.890670736630762L77.33333333333333,15.890670736630762L78.54166666666666,15.890670736630762L79.75,15.989008665084851L80.95833333333333,15.281008402506513L82.16666666666667,15.084332545598352L83.375,15.418674468994153L84.58333333333334,15.241668542226167L85.79166666666667,15.00567626953125L87,14.435342073440552L88.20833333333333,15.104002475738525L89.41666666666667,15.477672537167878L90.625,15.320336540540064L91.83333333333333,14.337004144986482L93.04166666666667,14.80900041262309L94.25,14.867998480796814L95.45833333333333,14.612336277961743L96.66666666666666,13.727341810862232L97.875,13.609333952267969L99.08333333333333,14.160009940465288L100.29166666666667,14.160009940465288L101.5,13.668332020441694L102.70833333333334,13.707671880722058L103.91666666666667,12.940673549969995L105.125,12.940673549969995L106.33333333333333,12.822665691375732L107.54166666666667,12.822665691375732L108.75,12.704669555028284L109.95833333333333,13.019341548283892L111.16666666666667,13.09800954659781L112.375,12.763667623202009L113.58333333333333,12.449007352193194L114.79166666666666,12.763667623202009L116,12.822665691375732L117.20833333333333,13.019341548283892L118.41666666666667,13.511007746060693L119.625,12.842335621515906L120.83333333333334,12.075337290763862L122.04166666666667,12.055667360623689L123.25,12.311341285705574L124.45833333333333,12.862005551656098L125.66666666666667,13.058669686317444L126.875,12.547333558400469L128.08333333333334,12.39000928401947L129.29166666666669,12.409667491912849L130.5,11.878673156102495L131.70833333333334,13.904336015383405L132.91666666666666,12.842335621515906L134.125,12.055667360623689L135.33333333333334,11.859003225962324L136.54166666666666,12.173675219217932L137.75,12.016339222590137L138.95833333333334,12.016339222590137L140.16666666666666,12.370339353879297L141.375,12.213003357251482L142.58333333333331,11.70166722933451L143.79166666666666,11.70166722933451L145,12.901333689689649L146.20833333333334,11.387006958325715L147.41666666666666,11.603341023127234L148.625,12.075337290763862L149.83333333333334,12.39000928401947L151.04166666666669,10.914998968442292L152.25,12.055667360623689L153.45833333333334,11.83933329582215L154.66666666666666,11.387006958325715L155.875,11.760665297508252L157.08333333333331,11.662339091300977L158.29166666666666,11.662339091300977L159.5,11.859003225962324L160.70833333333334,11.465674956639612L161.91666666666666,10.679006695747375L163.125,11.642669161160784L164.33333333333334,11.249340891838074L165.54166666666666,13.176665822664893L166.75,14.415672143300378L167.95833333333334,12.822665691375732L169.16666666666669,13.275003751118982L170.375,12.567003488540662L171.58333333333334,11.505003094673164L172.79166666666666,10.87567083040874L174,11.052665034929914L175.20833333333331,10.816672762235017L176.41666666666666,11.800005157788599L177.625,11.111674825350452L178.83333333333334,9.990676363309229L180.04166666666666,10.403674562772112L181.25,11.268999099731452L182.45833333333334,11.387006958325715L183.66666666666666,10.757674694061292L184.875,11.48533316453299L186.08333333333334,11.34766709804535L187.29166666666669,10.757674694061292L188.5,10.77733290195465L189.70833333333334,10.462672630945837L190.91666666666666,10.206998705863953L192.125,9.912008364995332L193.33333333333331,10.934668898582466L194.54166666666666,10.738004763921099L195.75,10.738004763921099L196.95833333333334,10.659336765607202L198.16666666666666,10.443002700805664L199.375,10.83634269237519L200.58333333333334,10.797002832094824L201.79166666666666,10.698676625887549L203,10.266008496284492L204.20833333333334,10.266008496284492L205.41666666666669,11.072334965070086L206.625,9.971006433169055L207.83333333333334,11.210001031557727L209.04166666666666,10.600338697433479L210.25,10.993666966756189L211.45833333333331,10.659336765607202L212.66666666666666,10.03000450134278L213.875,9.498998443285632L215.08333333333334,9.79400050640107L216.29166666666666,9.990676363309229L217.5,10.206998705863953L218.70833333333334,10.344676494598389L219.91666666666666,10.364334702491767L221.125,11.111674825350452L222.33333333333334,10.285666704177869L223.54166666666669,10.285666704177869L224.75,10.502000768979388L225.95833333333334,9.735002438227344L227.16666666666666,10.600338697433479L228.375,10.12834242979685L229.58333333333331,10.895340760548914L230.79166666666666,10.639666835467029L232,10.325006564458215L233.20833333333334,9.617006301879895L234.41666666666666,9.243336240450544L235.625,9.617006301879895L236.83333333333334,9.302334308624268L238.04166666666666,10.560998837153113L239.25,9.577666441599531L240.45833333333334,9.22366631031037L241.66666666666669,10.187340497970593L242.875,10.698676625887549L244.08333333333334,10.344676494598389L245.29166666666666,9.77434229850769L246.5,9.656334439913428L247.70833333333331,10.06933263937633L248.91666666666666,9.67600437005362L250.125,11.013336896896362L251.33333333333334,10.993666966756189L252.54166666666666,11.033006827036536L253.75,10.97400875886281L254.95833333333334,11.092004895210279L256.1666666666667,9.597336371739702L257.375,9.892338434855139L258.58333333333337,9.71533250808717L259.7916666666667,10.246338566144319L261,10.305336634318042L262.2083333333333,9.813670436541242L263.4166666666667,10.954338828722639L264.625,11.249340891838074L265.8333333333333,10.266008496284492" style="fill: none;" fill="none"></path></g><g><path stroke="rgb(238, 51, 119)" stroke-width="2px" d="M25.375,85.58933329582214L26.583333333333332,175.09233346022666L27.791666666666668,172.55533355722827L29,168.79900037745634L30.208333333333336,168.79900037745634L31.416666666666668,159.49666782716912L32.625,157.215333973368L33.833333333333336,159.18200022975606L35.041666666666664,162.84000060955682L36.25,139.0629996061325L37.458333333333336,137.76500107844672L38.666666666666664,124.8636662165324L39.875,140.22333499789238L41.083333333333336,133.81200156609216L42.29166666666667,132.45500203967094L43.5,127.73500126600267L44.708333333333336,145.06133483846983L45.916666666666664,150.62700194120407L47.125,136.44733555118245L48.33333333333333,135.20833509167036L49.541666666666664,129.52466892202696L50.75,135.60166629155478L51.958333333333336,130.40966925024986L53.166666666666664,128.40366752942404L54.375,128.40366752942404L55.583333333333336,127.83333333333333L56.791666666666664,135.85733435551325L58,135.85733435551325L59.208333333333336,115.67933273315431L60.41666666666667,115.05000046888986L61.625,114.36167013645172L62.833333333333336,135.4050021568934L64.04166666666667,146.83133549491563L65.25,146.83133549491563L66.45833333333333,150.3516668776671L67.66666666666667,140.71500119566917L68.875,140.71500119566917L70.08333333333333,135.81800035635632L71.29166666666666,135.81800035635632L72.5,139.0629996061325L73.70833333333333,139.0629996061325L74.91666666666667,133.3006683687369L76.125,117.94099958737691L77.33333333333333,117.94099958737691L78.54166666666666,117.94099958737691L79.75,127.32200306653976L80.95833333333333,136.58500161767006L82.16666666666667,145.4743330379327L83.375,105.90500098466875L84.58333333333334,129.9573341210683L85.79166666666667,114.30266620715459L87,101.02766714493434L88.20833333333333,131.7863357762496L89.41666666666667,130.62600038448969L90.625,125.37500234444937L91.83333333333333,113.10299974679947L93.04166666666667,108.59933596849442L94.25,101.02766714493434L95.45833333333333,104.17433432737987L96.66666666666666,109.38600422938664L97.875,121.34333483378093L99.08333333333333,119.25866804520288L100.29166666666667,90.56500506401063L101.5,111.66733515262602L102.70833333333334,111.74600315093994L103.91666666666667,118.29499971866609L105.125,118.29499971866609L106.33333333333333,128.22666746377945L107.54166666666667,129.9573341210683L108.75,133.35966643691063L109.95833333333333,132.61233510573706L111.16666666666667,139.7906668682893L112.375,143.52733524640402L113.58333333333333,132.19933397571245L114.79166666666666,116.99700119098027L116,122.30700316031775L117.20833333333333,136.25066848595938L118.41666666666667,141.1083353261153L119.625,133.222000370423L120.83333333333334,125.11933428049089L122.04166666666667,142.76033398509026L123.25,131.58966871102652L124.45833333333333,125.984670539697L125.66666666666667,143.1143341163794L126.875,125.27667027711868L128.08333333333334,123.38866762320201L129.29166666666669,118.25566571950911L130.5,115.5023326675097L131.70833333333334,129.34766885638237L132.91666666666666,133.81200156609216L134.125,131.0980025132497L135.33333333333334,144.76633277535439L136.54166666666666,143.23233318328857L137.75,137.0373338162899L138.95833333333334,137.0373338162899L140.16666666666666,111.96233721574148L141.375,113.83066993951796L142.58333333333331,104.48900045951207L143.79166666666666,104.48900045951207L145,114.99100240071614L146.20833333333334,116.01366879542668L147.41666666666666,108.30433390537898L148.625,102.30600160360336L149.83333333333334,107.45866757631302L151.04166666666669,111.43133701880772L152.25,114.83366640408833L153.45833333333334,95.06866884231567L154.66666666666666,101.95200147231421L155.875,91.3910014629364L157.08333333333331,92.66933592160542L158.29166666666666,92.66933592160542L159.5,97.54666976133981L160.70833333333334,133.04500030477843L161.91666666666666,124.41133401791255L163.125,116.11200086275737L164.33333333333334,119.55367010831834L165.54166666666666,106.45567111174266L166.75,117.19366532564163L167.95833333333334,120.93033663431804L169.16666666666669,128.54133359591168L170.375,135.91633535424867L171.58333333333334,124.50966608524321L172.79166666666666,113.7126679420471L174,122.01200109720229L175.20833333333331,112.96533368031184L176.41666666666666,115.69900266329448L177.625,115.73833666245142L178.83333333333334,105.70833685000738L180.04166666666666,121.12700076897939L181.25,103.6630040605863L182.45833333333334,105.59033485253653L183.66666666666666,109.18933423360188L184.875,103.70233805974324L186.08333333333334,107.43900350729623L187.29166666666669,111.56900308529536L188.5,110.78233482440312L189.70833333333334,112.61133354902269L190.91666666666666,121.12700076897939L192.125,130.66533438364664L193.33333333333331,112.513001481692L194.54166666666666,127.38100113471349L195.75,127.38100113471349L196.95833333333334,143.60600031415623L198.16666666666666,125.80767047405244L199.375,124.88333614667256L200.58333333333334,133.85133556524912L201.79166666666666,139.08266660571098L203,137.39133394757906L204.20833333333334,137.39133394757906L205.41666666666669,131.05866851409277L206.625,119.9666683077812L207.83333333333334,129.3280018568039L209.04166666666666,131.39300164580345L210.25,128.2660014629364L211.45833333333331,120.30099850893019L212.66666666666666,114.75500426689784L213.875,116.13167079289754L215.08333333333334,126.43700273831685L216.29166666666666,124.13600188493729L217.5,136.38833455244702L218.70833333333334,119.57333417733511L219.91666666666666,115.5023326675097L221.125,115.2663345336914L222.33333333333334,136.01466742157936L223.54166666666669,136.01466742157936L224.75,151.04000014066696L225.95833333333334,130.92100244760513L227.16666666666666,163.84300000468892L228.375,156.6646667768558L229.58333333333331,157.29400050640106L230.79166666666666,162.76133407652378L232,157.29400050640106L233.20833333333334,156.27133411169052L234.41666666666666,164.90500039855638L235.625,169.0349999765555L236.83333333333334,169.64466670652232L238.04166666666666,165.65233392765126L239.25,156.9400003751119L240.45833333333334,156.7826673090458L241.66666666666669,164.62966680030027L242.875,162.80066661039987L244.08333333333334,161.89600074787936L245.29166666666666,159.71300042668977L246.5,151.78733440240222L247.70833333333331,125.49299848079681L248.91666666666666,133.24166737000147L250.125,150.2140008111795L251.33333333333334,163.0563332090775L252.54166666666666,149.58466854691505L253.75,146.3790003657341L254.95833333333334,139.59399980306625L256.1666666666667,138.3156682749589L257.375,146.457668364048L258.58333333333337,141.3246664603551L259.7916666666667,131.47166671355566L261,125.92566661039989L262.2083333333333,130.19333518544835L263.4166666666667,133.02533330519992L264.625,132.71066717306772L265.8333333333333,133.98900163173676" style="fill: none;" fill="none"></path></g></g></g></g></g></g><g transform="translate(40, 177)" clip-path="url(#clip_1)"><clipPath id="clip_1"><rect width="290" height="23"></rect></clipPath><g><g><line x1="0" y1="0" x2="0" y2="5" style="visibility: inherit;" fill="rgb(0, 0, 0)" stroke="rgb(204, 204, 204)" stroke-width="1px"></line><line x1="24.166666666666664" y1="0" x2="24.166666666666664" y2="5" style="visibility: inherit;" fill="rgb(0, 0, 0)" stroke="rgb(204, 204, 204)" stroke-width="1px"></line><line x1="48.33333333333333" y1="0" x2="48.33333333333333" y2="5" style="visibility: inherit;" fill="rgb(0, 0, 0)" stroke="rgb(204, 204, 204)" stroke-width="1px"></line><line x1="72.5" y1="0" x2="72.5" y2="5" style="visibility: inherit;" fill="rgb(0, 0, 0)" stroke="rgb(204, 204, 204)" stroke-width="1px"></line><line x1="96.66666666666666" y1="0" x2="96.66666666666666" y2="5" style="visibility: inherit;" fill="rgb(0, 0, 0)" stroke="rgb(204, 204, 204)" stroke-width="1px"></line><line x1="120.83333333333334" y1="0" x2="120.83333333333334" y2="5" style="visibility: inherit;" fill="rgb(0, 0, 0)" stroke="rgb(204, 204, 204)" stroke-width="1px"></line><line x1="145" y1="0" x2="145" y2="5" style="visibility: inherit;" fill="rgb(0, 0, 0)" stroke="rgb(204, 204, 204)" stroke-width="1px"></line><line x1="169.16666666666669" y1="0" x2="169.16666666666669" y2="5" style="visibility: inherit;" fill="rgb(0, 0, 0)" stroke="rgb(204, 204, 204)" stroke-width="1px"></line><line x1="193.33333333333331" y1="0" x2="193.33333333333331" y2="5" style="visibility: inherit;" fill="rgb(0, 0, 0)" stroke="rgb(204, 204, 204)" stroke-width="1px"></line><line x1="217.5" y1="0" x2="217.5" y2="5" style="visibility: inherit;" fill="rgb(0, 0, 0)" stroke="rgb(204, 204, 204)" stroke-width="1px"></line><line x1="241.66666666666669" y1="0" x2="241.66666666666669" y2="5" style="visibility: inherit;" fill="rgb(0, 0, 0)" stroke="rgb(204, 204, 204)" stroke-width="1px"></line><line x1="265.8333333333333" y1="0" x2="265.8333333333333" y2="5" style="visibility: inherit;" fill="rgb(0, 0, 0)" stroke="rgb(204, 204, 204)" stroke-width="1px"></line><line x1="290" y1="0" x2="290" y2="5" style="visibility: inherit;" fill="rgb(0, 0, 0)" stroke="rgb(204, 204, 204)" stroke-width="1px"></line></g><g transform="translate(0, 8)"><text x="0" y="0" dx="0em" dy="0.95em" style="text-anchor: middle; visibility: hidden; font-family: Roboto, sans-serif; font-size: 12px; font-weight: 200;" fill="rgb(33, 33, 33)" stroke="none" stroke-width="1px">-20</text><text x="24.166666666666664" y="0" dx="0em" dy="0.95em" style="text-anchor: middle; visibility: inherit; font-family: Roboto, sans-serif; font-size: 12px; font-weight: 200;" fill="rgb(33, 33, 33)" stroke="none" stroke-width="1px">0</text><text x="48.33333333333333" y="0" dx="0em" dy="0.95em" style="text-anchor: middle; visibility: hidden; font-family: Roboto, sans-serif; font-size: 12px; font-weight: 200;" fill="rgb(33, 33, 33)" stroke="none" stroke-width="1px">20</text><text x="72.5" y="0" dx="0em" dy="0.95em" style="text-anchor: middle; visibility: inherit; font-family: Roboto, sans-serif; font-size: 12px; font-weight: 200;" fill="rgb(33, 33, 33)" stroke="none" stroke-width="1px">40</text><text x="96.66666666666666" y="0" dx="0em" dy="0.95em" style="text-anchor: middle; visibility: hidden; font-family: Roboto, sans-serif; font-size: 12px; font-weight: 200;" fill="rgb(33, 33, 33)" stroke="none" stroke-width="1px">60</text><text x="120.83333333333334" y="0" dx="0em" dy="0.95em" style="text-anchor: middle; visibility: inherit; font-family: Roboto, sans-serif; font-size: 12px; font-weight: 200;" fill="rgb(33, 33, 33)" stroke="none" stroke-width="1px">80</text><text x="145" y="0" dx="0em" dy="0.95em" style="text-anchor: middle; visibility: hidden; font-family: Roboto, sans-serif; font-size: 12px; font-weight: 200;" fill="rgb(33, 33, 33)" stroke="none" stroke-width="1px">100</text><text x="169.16666666666669" y="0" dx="0em" dy="0.95em" style="text-anchor: middle; visibility: inherit; font-family: Roboto, sans-serif; font-size: 12px; font-weight: 200;" fill="rgb(33, 33, 33)" stroke="none" stroke-width="1px">120</text><text x="193.33333333333331" y="0" dx="0em" dy="0.95em" style="text-anchor: middle; visibility: hidden; font-family: Roboto, sans-serif; font-size: 12px; font-weight: 200;" fill="rgb(33, 33, 33)" stroke="none" stroke-width="1px">140</text><text x="217.5" y="0" dx="0em" dy="0.95em" style="text-anchor: middle; visibility: inherit; font-family: Roboto, sans-serif; font-size: 12px; font-weight: 200;" fill="rgb(33, 33, 33)" stroke="none" stroke-width="1px">160</text><text x="241.66666666666669" y="0" dx="0em" dy="0.95em" style="text-anchor: middle; visibility: hidden; font-family: Roboto, sans-serif; font-size: 12px; font-weight: 200;" fill="rgb(33, 33, 33)" stroke="none" stroke-width="1px">180</text><text x="265.8333333333333" y="0" dx="0em" dy="0.95em" style="text-anchor: middle; visibility: inherit; font-family: Roboto, sans-serif; font-size: 12px; font-weight: 200;" fill="rgb(33, 33, 33)" stroke="none" stroke-width="1px">200</text><text x="290" y="0" dx="0em" dy="0.95em" style="text-anchor: middle; visibility: hidden; font-family: Roboto, sans-serif; font-size: 12px; font-weight: 200;" fill="rgb(33, 33, 33)" stroke="none" stroke-width="1px">220</text></g><line x1="0" y1="0" x2="290" y2="0" fill="rgb(0, 0, 0)" stroke="rgb(204, 204, 204)" stroke-width="1px"></line></g></g></g></g></svg>