<svg viewBox="0 0 330 200" xmlns="http://www.w3.org/2000/svg"><g><g><g><g><g><line x1="40" y1="177" x2="35" y2="177" style="visibility: inherit;" fill="rgb(0, 0, 0)" stroke="rgb(204, 204, 204)" stroke-width="1px"></line><line x1="40" y1="159.3" x2="35" y2="159.3" style="visibility: inherit;" fill="rgb(0, 0, 0)" stroke="rgb(204, 204, 204)" stroke-width="1px"></line><line x1="40" y1="141.6" x2="35" y2="141.6" style="visibility: inherit;" fill="rgb(0, 0, 0)" stroke="rgb(204, 204, 204)" stroke-width="1px"></line><line x1="40" y1="123.89999999999999" x2="35" y2="123.89999999999999" style="visibility: inherit;" fill="rgb(0, 0, 0)" stroke="rgb(204, 204, 204)" stroke-width="1px"></line><line x1="40" y1="106.2" x2="35" y2="106.2" style="visibility: inherit;" fill="rgb(0, 0, 0)" stroke="rgb(204, 204, 204)" stroke-width="1px"></line><line x1="40" y1="88.5" x2="35" y2="88.5" style="visibility: inherit;" fill="rgb(0, 0, 0)" stroke="rgb(204, 204, 204)" stroke-width="1px"></line><line x1="40" y1="70.8" x2="35" y2="70.8" style="visibility: inherit;" fill="rgb(0, 0, 0)" stroke="rgb(204, 204, 204)" stroke-width="1px"></line><line x1="40" y1="53.10000000000001" x2="35" y2="53.10000000000001" style="visibility: inherit;" fill="rgb(0, 0, 0)" stroke="rgb(204, 204, 204)" stroke-width="1px"></line><line x1="40" y1="35.39999999999999" x2="35" y2="35.39999999999999" style="visibility: inherit;" fill="rgb(0, 0, 0)" stroke="rgb(204, 204, 204)" stroke-width="1px"></line><line x1="40" y1="17.699999999999996" x2="35" y2="17.699999999999996" style="visibility: inherit;" fill="rgb(0, 0, 0)" stroke="rgb(204, 204, 204)" stroke-width="1px"></line><line x1="40" y1="0" x2="35" y2="0" style="visibility: inherit;" fill="rgb(0, 0, 0)" stroke="rgb(204, 204, 204)" stroke-width="1px"></line></g><g transform="translate(30, 0)"><text x="0" y="177" dx="0em" dy="0.3em" style="text-anchor: end; visibility: hidden; font-family: Roboto, sans-serif; font-size: 12px; font-weight: 200;" fill="rgb(33, 33, 33)" stroke="none" stroke-width="1px">0</text><text x="0" y="159.3" dx="0em" dy="0.3em" style="text-anchor: end; visibility: inherit; font-family: Roboto, sans-serif; font-size: 12px; font-weight: 200;" fill="rgb(33, 33, 33)" stroke="none" stroke-width="1px">0.1</text><text x="0" y="141.6" dx="0em" dy="0.3em" style="text-anchor: end; visibility: hidden; font-family: Roboto, sans-serif; font-size: 12px; font-weight: 200;" fill="rgb(33, 33, 33)" stroke="none" stroke-width="1px">0.2</text><text x="0" y="123.89999999999999" dx="0em" dy="0.3em" style="text-anchor: end; visibility: inherit; font-family: Roboto, sans-serif; font-size: 12px; font-weight: 200;" fill="rgb(33, 33, 33)" stroke="none" stroke-width="1px">0.3</text><text x="0" y="106.2" dx="0em" dy="0.3em" style="text-anchor: end; visibility: hidden; font-family: Roboto, sans-serif; font-size: 12px; font-weight: 200;" fill="rgb(33, 33, 33)" stroke="none" stroke-width="1px">0.4</text><text x="0" y="88.5" dx="0em" dy="0.3em" style="text-anchor: end; visibility: inherit; font-family: Roboto, sans-serif; font-size: 12px; font-weight: 200;" fill="rgb(33, 33, 33)" stroke="none" stroke-width="1px">0.5</text><text x="0" y="70.8" dx="0em" dy="0.3em" style="text-anchor: end; visibility: hidden; font-family: Roboto, sans-serif; font-size: 12px; font-weight: 200;" fill="rgb(33, 33, 33)" stroke="none" stroke-width="1px">0.6</text><text x="0" y="53.10000000000001" dx="0em" dy="0.3em" style="text-anchor: end; visibility: inherit; font-family: Roboto, sans-serif; font-size: 12px; font-weight: 200;" fill="rgb(33, 33, 33)" stroke="none" stroke-width="1px">0.7</text><text x="0" y="35.39999999999999" dx="0em" dy="0.3em" style="text-anchor: end; visibility: hidden; font-family: Roboto, sans-serif; font-size: 12px; font-weight: 200;" fill="rgb(33, 33, 33)" stroke="none" stroke-width="1px">0.8</text><text x="0" y="17.699999999999996" dx="0em" dy="0.3em" style="text-anchor: end; visibility: inherit; font-family: Roboto, sans-serif; font-size: 12px; font-weight: 200;" fill="rgb(33, 33, 33)" stroke="none" stroke-width="1px">0.9</text><text x="0" y="0" dx="0em" dy="0.3em" style="text-anchor: end; visibility: hidden; font-family: Roboto, sans-serif; font-size: 12px; font-weight: 200;" fill="rgb(33, 33, 33)" stroke="none" stroke-width="1px">1</text></g><line x1="40" y1="0" x2="40" y2="177" fill="rgb(0, 0, 0)" stroke="rgb(204, 204, 204)" stroke-width="1px"></line></g></g><g transform="translate(40, 0)" clip-path="url(#clip_0)"><clipPath id="clip_0"><rect width="290" height="177"></rect></clipPath><g><g><g><line x1="0" y1="0" x2="0" y2="177" fill="rgb(0, 0, 0)" stroke="rgb(66, 66, 66)" stroke-width="1px" opacity="0.25"></line><line x1="24.166666666666664" y1="0" x2="24.166666666666664" y2="177" fill="rgb(0, 0, 0)" stroke="rgb(66, 66, 66)" stroke-width="1px" opacity="0.25"></line><line x1="48.33333333333333" y1="0" x2="48.33333333333333" y2="177" fill="rgb(0, 0, 0)" stroke="rgb(66, 66, 66)" stroke-width="1px" opacity="0.25"></line><line x1="72.5" y1="0" x2="72.5" y2="177" fill="rgb(0, 0, 0)" stroke="rgb(66, 66, 66)" stroke-width="1px" opacity="0.25"></line><line x1="96.66666666666666" y1="0" x2="96.66666666666666" y2="177" fill="rgb(0, 0, 0)" stroke="rgb(66, 66, 66)" stroke-width="1px" opacity="0.25"></line><line x1="120.83333333333334" y1="0" x2="120.83333333333334" y2="177" fill="rgb(0, 0, 0)" stroke="rgb(66, 66, 66)" stroke-width="1px" opacity="0.25"></line><line x1="145" y1="0" x2="145" y2="177" fill="rgb(0, 0, 0)" stroke="rgb(66, 66, 66)" stroke-width="1px" opacity="0.25"></line><line x1="169.16666666666669" y1="0" x2="169.16666666666669" y2="177" fill="rgb(0, 0, 0)" stroke="rgb(66, 66, 66)" stroke-width="1px" opacity="0.25"></line><line x1="193.33333333333331" y1="0" x2="193.33333333333331" y2="177" fill="rgb(0, 0, 0)" stroke="rgb(66, 66, 66)" stroke-width="1px" opacity="0.25"></line><line x1="217.5" y1="0" x2="217.5" y2="177" fill="rgb(0, 0, 0)" stroke="rgb(66, 66, 66)" stroke-width="1px" opacity="0.25"></line><line x1="241.66666666666669" y1="0" x2="241.66666666666669" y2="177" fill="rgb(0, 0, 0)" stroke="rgb(66, 66, 66)" stroke-width="1px" opacity="0.25"></line><line x1="265.8333333333333" y1="0" x2="265.8333333333333" y2="177" fill="rgb(0, 0, 0)" stroke="rgb(66, 66, 66)" stroke-width="1px" opacity="0.25"></line><line x1="290" y1="0" x2="290" y2="177" fill="rgb(0, 0, 0)" stroke="rgb(66, 66, 66)" stroke-width="1px" opacity="0.25"></line></g><g><line x1="0" y1="177" x2="290" y2="177" fill="rgb(0, 0, 0)" stroke="rgb(66, 66, 66)" stroke-width="1px" opacity="0.25"></line><line x1="0" y1="159.3" x2="290" y2="159.3" fill="rgb(0, 0, 0)" stroke="rgb(66, 66, 66)" stroke-width="1px" opacity="0.25"></line><line x1="0" y1="141.6" x2="290" y2="141.6" fill="rgb(0, 0, 0)" stroke="rgb(66, 66, 66)" stroke-width="1px" opacity="0.25"></line><line x1="0" y1="123.89999999999999" x2="290" y2="123.89999999999999" fill="rgb(0, 0, 0)" stroke="rgb(66, 66, 66)" stroke-width="1px" opacity="0.25"></line><line x1="0" y1="106.2" x2="290" y2="106.2" fill="rgb(0, 0, 0)" stroke="rgb(66, 66, 66)" stroke-width="1px" opacity="0.25"></line><line x1="0" y1="88.5" x2="290" y2="88.5" fill="rgb(0, 0, 0)" stroke="rgb(66, 66, 66)" stroke-width="1px" opacity="0.25"></line><line x1="0" y1="70.8" x2="290" y2="70.8" fill="rgb(0, 0, 0)" stroke="rgb(66, 66, 66)" stroke-width="1px" opacity="0.25"></line><line x1="0" y1="53.10000000000001" x2="290" y2="53.10000000000001" fill="rgb(0, 0, 0)" stroke="rgb(66, 66, 66)" stroke-width="1px" opacity="0.25"></line><line x1="0" y1="35.39999999999999" x2="290" y2="35.39999999999999" fill="rgb(0, 0, 0)" stroke="rgb(66, 66, 66)" stroke-width="1px" opacity="0.25"></line><line x1="0" y1="17.699999999999996" x2="290" y2="17.699999999999996" fill="rgb(0, 0, 0)" stroke="rgb(66, 66, 66)" stroke-width="1px" opacity="0.25"></line><line x1="0" y1="0" x2="290" y2="0" fill="rgb(0, 0, 0)" stroke="rgb(66, 66, 66)" stroke-width="1px" opacity="0.25"></line></g></g></g><g><g><line x1="0" y1="177" x2="290" y2="177" fill="rgb(0, 0, 0)" stroke="rgb(153, 153, 153)" stroke-width="1.5px"></line></g></g><g><g><line x1="24.166666666666664" y1="0" x2="24.166666666666664" y2="177" fill="rgb(0, 0, 0)" stroke="rgb(153, 153, 153)" stroke-width="1.5px"></line></g></g><g><g><g><g><g><path stroke="rgb(51, 187, 238)" stroke-width="2px" d="M25.375,156.32640083134174L26.583333333333332,109.74000084400177L27.791666666666668,58.33920639753342L29,51.825601637363434L30.208333333333336,44.60400599241257L31.416666666666668,43.04640072584152L32.625,36.674398362636566L33.833333333333336,32.284808456897736L35.041666666666664,32.85120749473572L36.25,29.736007511615753L37.458333333333336,32.85120749473572L38.666666666666664,30.868805587291718L39.875,25.20480465888977L41.083333333333336,25.91280609369278L42.29166666666667,24.780008018016815L43.5,25.346407055854797L44.708333333333336,22.939208507537842L45.916666666666664,21.806399881839752L47.125,21.381603240966797L48.33333333333333,19.824008524417877L49.541666666666664,20.673601806163788L50.75,19.68240612745285L51.958333333333336,20.248805165290833L53.166666666666664,19.824008524417877L54.375,20.815204203128815L55.583333333333336,20.815204203128815L56.791666666666664,17.133605182170868L58,19.116007089614868L59.208333333333336,18.97440469264984L60.41666666666667,19.68240612745285L61.625,18.691199898719788L62.833333333333336,18.40800565481186L64.04166666666667,19.25759893655777L65.25,18.40800565481186L66.45833333333333,17.275207579135895L67.66666666666667,16.284001350402832L68.875,16.567206144332886L70.08333333333333,17.841606616973877L71.29166666666666,17.133605182170868L72.5,17.133605182170868L73.70833333333333,15.859204709529877L74.91666666666667,16.708808541297913L76.125,16.99200278520584L77.33333333333333,16.567206144332886L78.54166666666666,15.859204709529877L79.75,16.142398953437805L80.95833333333333,16.850400388240814L82.16666666666667,15.151203274726868L83.375,16.567206144332886L84.58333333333334,15.71760231256485L85.79166666666667,15.71760231256485L87,16.000807106494904L88.20833333333333,16.42560374736786L89.41666666666667,16.000807106494904L90.625,15.859204709529877L91.83333333333333,15.151203274726868L93.04166666666667,15.292805671691895L94.25,15.00960087776184L95.45833333333333,16.000807106494904L96.66666666666666,15.71760231256485L97.875,16.567206144332886L99.08333333333333,15.434408068656921L100.29166666666667,15.859204709529877L101.5,15.292805671691895L102.70833333333334,15.71760231256485L103.91666666666667,14.301599442958832L105.125,14.86800903081894L106.33333333333333,14.86800903081894L107.54166666666667,15.434408068656921L108.75,15.151203274726868L109.95833333333333,14.443201839923859L111.16666666666667,14.16000759601593L112.375,14.584804236888885L113.58333333333333,14.86800903081894L114.79166666666666,14.726406633853912L116,13.73520040512085L117.20833333333333,11.752809047698975L118.41666666666667,13.310403764247894L119.625,12.460799932479858L120.83333333333334,13.73520040512085L122.04166666666667,14.301599442958832L123.25,14.584804236888885L124.45833333333333,14.301599442958832L125.66666666666667,14.16000759601593L126.875,13.310403764247894L128.08333333333334,13.452006161212921L129.29166666666669,14.301599442958832L130.5,13.310403764247894L131.70833333333334,14.726406633853912L132.91666666666666,14.16000759601593L134.125,13.02719897031784L135.33333333333334,13.73520040512085L136.54166666666666,14.443201839923859L137.75,14.86800903081894L138.95833333333334,14.443201839923859L140.16666666666666,13.593608558177948L141.375,14.16000759601593L142.58333333333331,13.310403764247894L143.79166666666666,14.018405199050903L145,13.168801367282867L146.20833333333334,13.73520040512085L147.41666666666666,14.16000759601593L148.625,13.310403764247894L149.83333333333334,13.168801367282867L151.04166666666669,12.036003291606903L152.25,12.319208085536957L153.45833333333334,12.319208085536957L154.66666666666666,12.885607123374939L155.875,12.885607123374939L157.08333333333331,12.319208085536957L158.29166666666666,12.885607123374939L159.5,12.885607123374939L160.70833333333334,13.310403764247894L161.91666666666666,12.744004726409912L163.125,13.168801367282867L164.33333333333334,13.73520040512085L165.54166666666666,13.73520040512085L166.75,14.16000759601593L167.95833333333334,13.593608558177948L169.16666666666669,13.168801367282867L170.375,13.593608558177948L171.58333333333334,13.02719897031784L172.79166666666666,13.876802802085876L174,12.744004726409912L175.20833333333331,13.310403764247894L176.41666666666666,13.876802802085876L177.625,13.310403764247894L178.83333333333334,12.17760568857193L180.04166666666666,12.885607123374939L181.25,13.02719897031784L182.45833333333334,13.310403764247894L183.66666666666666,12.460799932479858L184.875,11.894400894641876L186.08333333333334,14.16000759601593L187.29166666666669,13.73520040512085L188.5,13.73520040512085L189.70833333333334,13.02719897031784L190.91666666666666,12.744004726409912L192.125,13.02719897031784L193.33333333333331,12.17760568857193L194.54166666666666,13.876802802085876L195.75,13.02719897031784L196.95833333333334,14.301599442958832L198.16666666666666,13.593608558177948L199.375,13.876802802085876L200.58333333333334,13.73520040512085L201.79166666666666,14.018405199050903L203,13.168801367282867L204.20833333333334,13.02719897031784L205.41666666666669,13.168801367282867L206.625,13.02719897031784L207.83333333333334,12.602402329444885L209.04166666666666,13.452006161212921L210.25,14.018405199050903L211.45833333333331,13.593608558177948L212.66666666666666,13.452006161212921L213.875,13.02719897031784L215.08333333333334,12.319208085536957L216.29166666666666,12.885607123374939L217.5,13.876802802085876L218.70833333333334,13.168801367282867L219.91666666666666,12.744004726409912L221.125,13.310403764247894L222.33333333333334,12.602402329444885L223.54166666666669,12.460799932479858L224.75,12.319208085536957L225.95833333333334,12.319208085536957L227.16666666666666,12.602402329444885L228.375,12.17760568857193L229.58333333333331,12.602402329444885L230.79166666666666,12.744004726409912L232,12.319208085536957L233.20833333333334,12.602402329444885L234.41666666666666,13.310403764247894L235.625,13.168801367282867L236.83333333333334,12.602402329444885L238.04166666666666,12.602402329444885L239.25,13.02719897031784L240.45833333333334,12.17760568857193L241.66666666666669,12.036003291606903L242.875,12.744004726409912L244.08333333333334,12.460799932479858L245.29166666666666,12.602402329444885L246.5,12.885607123374939L247.70833333333331,12.885607123374939L248.91666666666666,12.460799932479858L250.125,12.460799932479858L251.33333333333334,13.02719897031784L252.54166666666666,12.460799932479858L253.75,12.319208085536957L254.95833333333334,13.02719897031784L256.1666666666667,12.744004726409912L257.375,12.602402329444885L258.58333333333337,12.319208085536957L259.7916666666667,12.602402329444885L261,11.894400894641876L262.2083333333333,13.02719897031784L263.4166666666667,12.460799932479858L264.625,12.319208085536957L265.8333333333333,13.73520040512085" style="fill: none;" fill="none"></path></g><g><path stroke="rgb(238, 51, 119)" stroke-width="2px" d="M25.375,177L26.583333333333332,160.8576010465622L27.791666666666668,172.8936000522226L29,168.64560034498572L30.208333333333336,167.08800035342574L31.416666666666668,164.68079982697964L32.625,164.53920006752014L33.833333333333336,166.66320041567087L35.041666666666664,163.8311999514699L36.25,161.56559984385967L37.458333333333336,156.32640083134174L38.666666666666664,157.034400947392L39.875,151.9368003755808L41.083333333333336,162.13200020045042L42.29166666666667,153.49440036714077L43.5,152.9280013293028L44.708333333333336,152.9280013293028L45.916666666666664,147.40560016036034L47.125,150.09600086510181L48.33333333333333,149.2463996708393L49.541666666666664,149.95440110564232L50.75,153.63600012660027L51.958333333333336,152.07840013504028L53.166666666666664,151.3704013377428L54.375,151.6536008566618L55.583333333333336,148.53840087354183L56.791666666666664,152.7864015698433L58,148.82160039246082L59.208333333333336,150.8039996623993L60.41666666666667,147.40560016036034L61.625,153.49440036714077L62.833333333333336,150.8039996623993L64.04166666666667,148.25520135462284L65.25,154.34400156140327L66.45833333333333,155.05200035870075L67.66666666666667,154.48560132086277L68.875,154.91040059924126L70.08333333333333,150.2376006245613L71.29166666666666,151.7952006161213L72.5,155.9016002342105L73.70833333333333,153.91919964551926L74.91666666666667,155.9016002342105L76.125,157.45920022577047L77.33333333333333,156.32640083134174L78.54166666666666,156.60960035026073L79.75,152.9280013293028L80.95833333333333,158.16720034182072L82.16666666666667,159.3000010550022L83.375,155.760000474751L84.58333333333334,149.95440110564232L85.79166666666667,154.34400156140327L87,154.20240180194378L88.20833333333333,153.91919964551926L89.41666666666667,152.07840013504028L90.625,154.91040059924126L91.83333333333333,142.7328001856804L93.04166666666667,142.3080009073019L94.25,146.83920112252235L95.45833333333333,148.82160039246082L96.66666666666666,148.25520135462284L97.875,148.68000063300133L99.08333333333333,146.83920112252235L100.29166666666667,146.41440184414387L101.5,150.3792003840208L102.70833333333334,151.7952006161213L103.91666666666667,149.3879994302988L105.125,148.68000063300133L106.33333333333333,150.09600086510181L107.54166666666667,149.3879994302988L108.75,155.05200035870075L109.95833333333333,149.3879994302988L111.16666666666667,150.09600086510181L112.375,146.98080088198185L113.58333333333333,153.63600012660027L114.79166666666666,156.32640083134174L116,148.68000063300133L117.20833333333333,147.83039943873882L118.41666666666667,154.20240180194378L119.625,152.21999989449978L120.83333333333334,149.52960182726383L122.04166666666667,150.8039996623993L123.25,155.05200035870075L124.45833333333333,158.59200093895197L125.66666666666667,154.76880083978176L126.875,156.89279986917973L128.08333333333334,158.16720034182072L129.29166666666669,156.60960035026073L130.5,159.4416008144617L131.70833333333334,156.18480107188225L132.91666666666666,158.16720034182072L134.125,155.19360011816025L135.33333333333334,158.4503998607397L136.54166666666666,157.74240106344223L137.75,159.4416008144617L138.95833333333334,160.43280044943094L140.16666666666666,154.76880083978176L141.375,157.88400082290173L142.58333333333331,158.16720034182072L143.79166666666666,161.1408005654812L145,160.43280044943094L146.20833333333334,160.43280044943094L147.41666666666666,158.4503998607397L148.625,159.3000010550022L149.83333333333334,159.15839997678995L151.04166666666669,161.70720092207193L152.25,161.1408005654812L153.45833333333334,156.18480107188225L154.66666666666666,156.18480107188225L155.875,152.6448018103838L157.08333333333331,156.04319999367L158.29166666666666,158.87520045787096L159.5,159.7248003333807L160.70833333333334,158.3088001012802L161.91666666666666,160.29120068997145L163.125,159.15839997678995L164.33333333333334,157.45920022577047L165.54166666666666,158.87520045787096L166.75,158.4503998607397L167.95833333333334,157.74240106344223L169.16666666666669,159.01680021733046L170.375,158.4503998607397L171.58333333333334,160.29120068997145L172.79166666666666,158.3088001012802L174,157.31760046631098L175.20833333333331,157.034400947392L176.41666666666666,158.87520045787096L177.625,158.16720034182072L178.83333333333334,158.59200093895197L180.04166666666666,158.59200093895197L181.25,158.02560058236122L182.45833333333334,159.01680021733046L183.66666666666666,159.5832005739212L184.875,156.32640083134174L186.08333333333334,156.46800059080124L187.29166666666669,156.89279986917973L188.5,158.73360069841146L189.70833333333334,155.6184007152915L190.91666666666666,156.04319999367L192.125,154.91040059924126L193.33333333333331,152.7864015698433L194.54166666666666,154.76880083978176L195.75,152.6448018103838L196.95833333333334,155.9016002342105L198.16666666666666,157.45920022577047L199.375,158.87520045787096L200.58333333333334,158.73360069841146L201.79166666666666,156.32640083134174L203,158.87520045787096L204.20833333333334,159.15839997678995L205.41666666666669,157.45920022577047L206.625,152.50319941341877L207.83333333333334,152.36159965395927L209.04166666666666,156.60960035026073L210.25,158.16720034182072L211.45833333333331,157.60079998522997L212.66666666666666,161.56559984385967L213.875,158.73360069841146L215.08333333333334,155.9016002342105L216.29166666666666,155.9016002342105L217.5,156.46800059080124L218.70833333333334,156.18480107188225L219.91666666666666,158.4503998607397L221.125,159.8664000928402L222.33333333333334,159.4416008144617L223.54166666666669,157.74240106344223L224.75,159.15839997678995L225.95833333333334,156.75120010972023L227.16666666666666,157.60079998522997L228.375,156.75120010972023L229.58333333333331,156.18480107188225L230.79166666666666,158.73360069841146L232,158.73360069841146L233.20833333333334,158.4503998607397L234.41666666666666,158.3088001012802L235.625,158.4503998607397L236.83333333333334,159.5832005739212L238.04166666666666,158.3088001012802L239.25,158.4503998607397L240.45833333333334,159.8664000928402L241.66666666666669,157.034400947392L242.875,156.60960035026073L244.08333333333334,157.17600070685148L245.29166666666666,158.4503998607397L246.5,158.59200093895197L247.70833333333331,157.88400082290173L248.91666666666666,158.87520045787096L250.125,158.87520045787096L251.33333333333334,159.8664000928402L252.54166666666666,158.4503998607397L253.75,159.15839997678995L254.95833333333334,158.59200093895197L256.1666666666667,159.3000010550022L257.375,157.88400082290173L258.58333333333337,156.46800059080124L259.7916666666667,157.31760046631098L261,157.17600070685148L262.2083333333333,157.17600070685148L263.4166666666667,157.60079998522997L264.625,158.3088001012802L265.8333333333333,159.8664000928402" style="fill: none;" fill="none"></path></g></g></g></g></g></g><g transform="translate(40, 177)" clip-path="url(#clip_1)"><clipPath id="clip_1"><rect width="290" height="23"></rect></clipPath><g><g><line x1="0" y1="0" x2="0" y2="5" style="visibility: inherit;" fill="rgb(0, 0, 0)" stroke="rgb(204, 204, 204)" stroke-width="1px"></line><line x1="24.166666666666664" y1="0" x2="24.166666666666664" y2="5" style="visibility: inherit;" fill="rgb(0, 0, 0)" stroke="rgb(204, 204, 204)" stroke-width="1px"></line><line x1="48.33333333333333" y1="0" x2="48.33333333333333" y2="5" style="visibility: inherit;" fill="rgb(0, 0, 0)" stroke="rgb(204, 204, 204)" stroke-width="1px"></line><line x1="72.5" y1="0" x2="72.5" y2="5" style="visibility: inherit;" fill="rgb(0, 0, 0)" stroke="rgb(204, 204, 204)" stroke-width="1px"></line><line x1="96.66666666666666" y1="0" x2="96.66666666666666" y2="5" style="visibility: inherit;" fill="rgb(0, 0, 0)" stroke="rgb(204, 204, 204)" stroke-width="1px"></line><line x1="120.83333333333334" y1="0" x2="120.83333333333334" y2="5" style="visibility: inherit;" fill="rgb(0, 0, 0)" stroke="rgb(204, 204, 204)" stroke-width="1px"></line><line x1="145" y1="0" x2="145" y2="5" style="visibility: inherit;" fill="rgb(0, 0, 0)" stroke="rgb(204, 204, 204)" stroke-width="1px"></line><line x1="169.16666666666669" y1="0" x2="169.16666666666669" y2="5" style="visibility: inherit;" fill="rgb(0, 0, 0)" stroke="rgb(204, 204, 204)" stroke-width="1px"></line><line x1="193.33333333333331" y1="0" x2="193.33333333333331" y2="5" style="visibility: inherit;" fill="rgb(0, 0, 0)" stroke="rgb(204, 204, 204)" stroke-width="1px"></line><line x1="217.5" y1="0" x2="217.5" y2="5" style="visibility: inherit;" fill="rgb(0, 0, 0)" stroke="rgb(204, 204, 204)" stroke-width="1px"></line><line x1="241.66666666666669" y1="0" x2="241.66666666666669" y2="5" style="visibility: inherit;" fill="rgb(0, 0, 0)" stroke="rgb(204, 204, 204)" stroke-width="1px"></line><line x1="265.8333333333333" y1="0" x2="265.8333333333333" y2="5" style="visibility: inherit;" fill="rgb(0, 0, 0)" stroke="rgb(204, 204, 204)" stroke-width="1px"></line><line x1="290" y1="0" x2="290" y2="5" style="visibility: inherit;" fill="rgb(0, 0, 0)" stroke="rgb(204, 204, 204)" stroke-width="1px"></line></g><g transform="translate(0, 8)"><text x="0" y="0" dx="0em" dy="0.95em" style="text-anchor: middle; visibility: hidden; font-family: Roboto, sans-serif; font-size: 12px; font-weight: 200;" fill="rgb(33, 33, 33)" stroke="none" stroke-width="1px">-20</text><text x="24.166666666666664" y="0" dx="0em" dy="0.95em" style="text-anchor: middle; visibility: inherit; font-family: Roboto, sans-serif; font-size: 12px; font-weight: 200;" fill="rgb(33, 33, 33)" stroke="none" stroke-width="1px">0</text><text x="48.33333333333333" y="0" dx="0em" dy="0.95em" style="text-anchor: middle; visibility: hidden; font-family: Roboto, sans-serif; font-size: 12px; font-weight: 200;" fill="rgb(33, 33, 33)" stroke="none" stroke-width="1px">20</text><text x="72.5" y="0" dx="0em" dy="0.95em" style="text-anchor: middle; visibility: inherit; font-family: Roboto, sans-serif; font-size: 12px; font-weight: 200;" fill="rgb(33, 33, 33)" stroke="none" stroke-width="1px">40</text><text x="96.66666666666666" y="0" dx="0em" dy="0.95em" style="text-anchor: middle; visibility: hidden; font-family: Roboto, sans-serif; font-size: 12px; font-weight: 200;" fill="rgb(33, 33, 33)" stroke="none" stroke-width="1px">60</text><text x="120.83333333333334" y="0" dx="0em" dy="0.95em" style="text-anchor: middle; visibility: inherit; font-family: Roboto, sans-serif; font-size: 12px; font-weight: 200;" fill="rgb(33, 33, 33)" stroke="none" stroke-width="1px">80</text><text x="145" y="0" dx="0em" dy="0.95em" style="text-anchor: middle; visibility: hidden; font-family: Roboto, sans-serif; font-size: 12px; font-weight: 200;" fill="rgb(33, 33, 33)" stroke="none" stroke-width="1px">100</text><text x="169.16666666666669" y="0" dx="0em" dy="0.95em" style="text-anchor: middle; visibility: inherit; font-family: Roboto, sans-serif; font-size: 12px; font-weight: 200;" fill="rgb(33, 33, 33)" stroke="none" stroke-width="1px">120</text><text x="193.33333333333331" y="0" dx="0em" dy="0.95em" style="text-anchor: middle; visibility: hidden; font-family: Roboto, sans-serif; font-size: 12px; font-weight: 200;" fill="rgb(33, 33, 33)" stroke="none" stroke-width="1px">140</text><text x="217.5" y="0" dx="0em" dy="0.95em" style="text-anchor: middle; visibility: inherit; font-family: Roboto, sans-serif; font-size: 12px; font-weight: 200;" fill="rgb(33, 33, 33)" stroke="none" stroke-width="1px">160</text><text x="241.66666666666669" y="0" dx="0em" dy="0.95em" style="text-anchor: middle; visibility: hidden; font-family: Roboto, sans-serif; font-size: 12px; font-weight: 200;" fill="rgb(33, 33, 33)" stroke="none" stroke-width="1px">180</text><text x="265.8333333333333" y="0" dx="0em" dy="0.95em" style="text-anchor: middle; visibility: inherit; font-family: Roboto, sans-serif; font-size: 12px; font-weight: 200;" fill="rgb(33, 33, 33)" stroke="none" stroke-width="1px">200</text><text x="290" y="0" dx="0em" dy="0.95em" style="text-anchor: middle; visibility: hidden; font-family: Roboto, sans-serif; font-size: 12px; font-weight: 200;" fill="rgb(33, 33, 33)" stroke="none" stroke-width="1px">220</text></g><line x1="0" y1="0" x2="290" y2="0" fill="rgb(0, 0, 0)" stroke="rgb(204, 204, 204)" stroke-width="1px"></line></g></g></g></g></svg>