<svg viewBox="0 0 330 200" xmlns="http://www.w3.org/2000/svg"><g><g><g><g><g><line x1="40" y1="177" x2="35" y2="177" style="visibility: inherit;" fill="rgb(0, 0, 0)" stroke="rgb(204, 204, 204)" stroke-width="1px"></line><line x1="40" y1="157.33333333333331" x2="35" y2="157.33333333333331" style="visibility: inherit;" fill="rgb(0, 0, 0)" stroke="rgb(204, 204, 204)" stroke-width="1px"></line><line x1="40" y1="137.66666666666666" x2="35" y2="137.66666666666666" style="visibility: inherit;" fill="rgb(0, 0, 0)" stroke="rgb(204, 204, 204)" stroke-width="1px"></line><line x1="40" y1="118" x2="35" y2="118" style="visibility: inherit;" fill="rgb(0, 0, 0)" stroke="rgb(204, 204, 204)" stroke-width="1px"></line><line x1="40" y1="98.33333333333334" x2="35" y2="98.33333333333334" style="visibility: inherit;" fill="rgb(0, 0, 0)" stroke="rgb(204, 204, 204)" stroke-width="1px"></line><line x1="40" y1="78.66666666666666" x2="35" y2="78.66666666666666" style="visibility: inherit;" fill="rgb(0, 0, 0)" stroke="rgb(204, 204, 204)" stroke-width="1px"></line><line x1="40" y1="59.00000000000001" x2="35" y2="59.00000000000001" style="visibility: inherit;" fill="rgb(0, 0, 0)" stroke="rgb(204, 204, 204)" stroke-width="1px"></line><line x1="40" y1="39.33333333333333" x2="35" y2="39.33333333333333" style="visibility: inherit;" fill="rgb(0, 0, 0)" stroke="rgb(204, 204, 204)" stroke-width="1px"></line><line x1="40" y1="19.666666666666657" x2="35" y2="19.666666666666657" style="visibility: inherit;" fill="rgb(0, 0, 0)" stroke="rgb(204, 204, 204)" stroke-width="1px"></line><line x1="40" y1="0" x2="35" y2="0" style="visibility: inherit;" fill="rgb(0, 0, 0)" stroke="rgb(204, 204, 204)" stroke-width="1px"></line></g><g transform="translate(30, 0)"><text x="0" y="177" dx="0em" dy="0.3em" style="text-anchor: end; visibility: hidden; font-family: Roboto, sans-serif; font-size: 12px; font-weight: 200;" fill="rgb(33, 33, 33)" stroke="none" stroke-width="1px">0.1</text><text x="0" y="157.33333333333331" dx="0em" dy="0.3em" style="text-anchor: end; visibility: inherit; font-family: Roboto, sans-serif; font-size: 12px; font-weight: 200;" fill="rgb(33, 33, 33)" stroke="none" stroke-width="1px">0.2</text><text x="0" y="137.66666666666666" dx="0em" dy="0.3em" style="text-anchor: end; visibility: hidden; font-family: Roboto, sans-serif; font-size: 12px; font-weight: 200;" fill="rgb(33, 33, 33)" stroke="none" stroke-width="1px">0.3</text><text x="0" y="118" dx="0em" dy="0.3em" style="text-anchor: end; visibility: inherit; font-family: Roboto, sans-serif; font-size: 12px; font-weight: 200;" fill="rgb(33, 33, 33)" stroke="none" stroke-width="1px">0.4</text><text x="0" y="98.33333333333334" dx="0em" dy="0.3em" style="text-anchor: end; visibility: hidden; font-family: Roboto, sans-serif; font-size: 12px; font-weight: 200;" fill="rgb(33, 33, 33)" stroke="none" stroke-width="1px">0.5</text><text x="0" y="78.66666666666666" dx="0em" dy="0.3em" style="text-anchor: end; visibility: inherit; font-family: Roboto, sans-serif; font-size: 12px; font-weight: 200;" fill="rgb(33, 33, 33)" stroke="none" stroke-width="1px">0.6</text><text x="0" y="59.00000000000001" dx="0em" dy="0.3em" style="text-anchor: end; visibility: hidden; font-family: Roboto, sans-serif; font-size: 12px; font-weight: 200;" fill="rgb(33, 33, 33)" stroke="none" stroke-width="1px">0.7</text><text x="0" y="39.33333333333333" dx="0em" dy="0.3em" style="text-anchor: end; visibility: inherit; font-family: Roboto, sans-serif; font-size: 12px; font-weight: 200;" fill="rgb(33, 33, 33)" stroke="none" stroke-width="1px">0.8</text><text x="0" y="19.666666666666657" dx="0em" dy="0.3em" style="text-anchor: end; visibility: hidden; font-family: Roboto, sans-serif; font-size: 12px; font-weight: 200;" fill="rgb(33, 33, 33)" stroke="none" stroke-width="1px">0.9</text><text x="0" y="0" dx="0em" dy="0.3em" style="text-anchor: end; visibility: hidden; font-family: Roboto, sans-serif; font-size: 12px; font-weight: 200;" fill="rgb(33, 33, 33)" stroke="none" stroke-width="1px">1</text></g><line x1="40" y1="0" x2="40" y2="177" fill="rgb(0, 0, 0)" stroke="rgb(204, 204, 204)" stroke-width="1px"></line></g></g><g transform="translate(40, 0)" clip-path="url(#clip_0)"><clipPath id="clip_0"><rect width="290" height="177"></rect></clipPath><g><g><g><line x1="0" y1="0" x2="0" y2="177" fill="rgb(0, 0, 0)" stroke="rgb(66, 66, 66)" stroke-width="1px" opacity="0.25"></line><line x1="24.166666666666664" y1="0" x2="24.166666666666664" y2="177" fill="rgb(0, 0, 0)" stroke="rgb(66, 66, 66)" stroke-width="1px" opacity="0.25"></line><line x1="48.33333333333333" y1="0" x2="48.33333333333333" y2="177" fill="rgb(0, 0, 0)" stroke="rgb(66, 66, 66)" stroke-width="1px" opacity="0.25"></line><line x1="72.5" y1="0" x2="72.5" y2="177" fill="rgb(0, 0, 0)" stroke="rgb(66, 66, 66)" stroke-width="1px" opacity="0.25"></line><line x1="96.66666666666666" y1="0" x2="96.66666666666666" y2="177" fill="rgb(0, 0, 0)" stroke="rgb(66, 66, 66)" stroke-width="1px" opacity="0.25"></line><line x1="120.83333333333334" y1="0" x2="120.83333333333334" y2="177" fill="rgb(0, 0, 0)" stroke="rgb(66, 66, 66)" stroke-width="1px" opacity="0.25"></line><line x1="145" y1="0" x2="145" y2="177" fill="rgb(0, 0, 0)" stroke="rgb(66, 66, 66)" stroke-width="1px" opacity="0.25"></line><line x1="169.16666666666669" y1="0" x2="169.16666666666669" y2="177" fill="rgb(0, 0, 0)" stroke="rgb(66, 66, 66)" stroke-width="1px" opacity="0.25"></line><line x1="193.33333333333331" y1="0" x2="193.33333333333331" y2="177" fill="rgb(0, 0, 0)" stroke="rgb(66, 66, 66)" stroke-width="1px" opacity="0.25"></line><line x1="217.5" y1="0" x2="217.5" y2="177" fill="rgb(0, 0, 0)" stroke="rgb(66, 66, 66)" stroke-width="1px" opacity="0.25"></line><line x1="241.66666666666669" y1="0" x2="241.66666666666669" y2="177" fill="rgb(0, 0, 0)" stroke="rgb(66, 66, 66)" stroke-width="1px" opacity="0.25"></line><line x1="265.8333333333333" y1="0" x2="265.8333333333333" y2="177" fill="rgb(0, 0, 0)" stroke="rgb(66, 66, 66)" stroke-width="1px" opacity="0.25"></line><line x1="290" y1="0" x2="290" y2="177" fill="rgb(0, 0, 0)" stroke="rgb(66, 66, 66)" stroke-width="1px" opacity="0.25"></line></g><g><line x1="0" y1="177" x2="290" y2="177" fill="rgb(0, 0, 0)" stroke="rgb(66, 66, 66)" stroke-width="1px" opacity="0.25"></line><line x1="0" y1="157.33333333333331" x2="290" y2="157.33333333333331" fill="rgb(0, 0, 0)" stroke="rgb(66, 66, 66)" stroke-width="1px" opacity="0.25"></line><line x1="0" y1="137.66666666666666" x2="290" y2="137.66666666666666" fill="rgb(0, 0, 0)" stroke="rgb(66, 66, 66)" stroke-width="1px" opacity="0.25"></line><line x1="0" y1="118" x2="290" y2="118" fill="rgb(0, 0, 0)" stroke="rgb(66, 66, 66)" stroke-width="1px" opacity="0.25"></line><line x1="0" y1="98.33333333333334" x2="290" y2="98.33333333333334" fill="rgb(0, 0, 0)" stroke="rgb(66, 66, 66)" stroke-width="1px" opacity="0.25"></line><line x1="0" y1="78.66666666666666" x2="290" y2="78.66666666666666" fill="rgb(0, 0, 0)" stroke="rgb(66, 66, 66)" stroke-width="1px" opacity="0.25"></line><line x1="0" y1="59.00000000000001" x2="290" y2="59.00000000000001" fill="rgb(0, 0, 0)" stroke="rgb(66, 66, 66)" stroke-width="1px" opacity="0.25"></line><line x1="0" y1="39.33333333333333" x2="290" y2="39.33333333333333" fill="rgb(0, 0, 0)" stroke="rgb(66, 66, 66)" stroke-width="1px" opacity="0.25"></line><line x1="0" y1="19.666666666666657" x2="290" y2="19.666666666666657" fill="rgb(0, 0, 0)" stroke="rgb(66, 66, 66)" stroke-width="1px" opacity="0.25"></line><line x1="0" y1="0" x2="290" y2="0" fill="rgb(0, 0, 0)" stroke="rgb(66, 66, 66)" stroke-width="1px" opacity="0.25"></line></g></g></g><g><g><line x1="0" y1="196.66666666666669" x2="290" y2="196.66666666666669" fill="rgb(0, 0, 0)" stroke="rgb(153, 153, 153)" stroke-width="1.5px"></line></g></g><g><g><line x1="24.166666666666664" y1="0" x2="24.166666666666664" y2="177" fill="rgb(0, 0, 0)" stroke="rgb(153, 153, 153)" stroke-width="1.5px"></line></g></g><g><g><g><g><g><path stroke="rgb(51, 187, 238)" stroke-width="2px" d="M25.375,170.23466760913533L26.583333333333332,136.09333366155624L27.791666666666668,61.20267113049824L29,54.28000450134278L30.208333333333336,54.9093367656072L31.416666666666668,44.52533682187398L32.625,41.53599977493287L33.833333333333336,40.749331514040634L35.041666666666664,40.11999924977621L36.25,36.816001931826285L37.458333333333336,34.141336878140756L38.666666666666664,31.938668092091884L39.875,30.680003563563037L41.083333333333336,31.466671824455254L42.29166666666667,30.83733956019083L43.5,27.533342242240906L44.708333333333336,25.33067345619201L45.916666666666664,26.274665991465245L47.125,25.960005720456433L48.33333333333333,26.904009977976482L49.541666666666664,25.0160014629364L50.75,24.858665466308587L51.958333333333336,23.600000937779743L53.166666666666664,24.072008927663166L54.375,23.91467293103535L55.583333333333336,21.86934014161427L56.791666666666664,21.712004144986476L58,20.610675613085423L59.208333333333336,21.082671880722053L60.41666666666667,20.767999887466424L61.625,20.610675613085423L62.833333333333336,20.138667623202L64.04166666666667,19.82400735219319L65.25,19.50933535893758L66.45833333333333,21.240007877349846L67.66666666666667,20.610675613085423L68.875,19.981343348821003L70.08333333333333,19.50933535893758L71.29166666666666,18.722667098045342L72.5,18.408006827036548L73.70833333333333,16.99200630187989L74.91666666666667,18.722667098045342L76.125,17.306666572888684L77.33333333333333,18.56534282366434L78.54166666666666,16.834670305252075L79.75,17.621338566144313L80.95833333333333,17.621338566144313L82.16666666666667,17.4640025695165L83.375,14.789337515830994L84.58333333333334,16.99200630187989L85.79166666666667,17.149342298507683L87,18.09333483378092L88.20833333333333,16.99200630187989L89.41666666666667,19.351999362309765L90.625,18.250670830408733L91.83333333333333,16.67733430862426L93.04166666666667,16.99200630187989L94.25,16.834670305252075L95.45833333333333,16.20533804098765L96.66666666666666,15.890666047732044L97.875,16.362674037615466L99.08333333333333,16.834670305252075L100.29166666666667,16.834670305252075L101.5,16.99200630187989L102.70833333333334,15.261333783467602L103.91666666666667,16.048002044359837L105.125,16.834670305252075L106.33333333333333,17.306666572888684L107.54166666666667,15.733341773351025L108.75,15.104009509086602L109.95833333333333,16.52001003424326L111.16666666666667,14.474665522575386L112.375,15.890666047732044L113.58333333333333,14.946673512458808L114.79166666666666,15.733341773351025L116,16.362674037615466L117.20833333333333,16.52001003424326L118.41666666666667,16.362674037615466L119.625,16.20533804098765L120.83333333333334,15.261333783467602L122.04166666666667,15.104009509086602L123.25,15.890666047732044L124.45833333333333,15.104009509086602L125.66666666666667,14.789337515830994L126.875,14.317341248194385L128.08333333333334,14.160005251566572L129.29166666666669,13.21600099404652L130.5,14.789337515830994L131.70833333333334,13.21600099404652L132.91666666666666,13.845333258310962L134.125,14.789337515830994L135.33333333333334,15.104009509086602L136.54166666666666,15.57600577672323L137.75,14.789337515830994L138.95833333333334,15.261333783467602L140.16666666666666,15.261333783467602L141.375,15.57600577672323L142.58333333333331,14.632001519203179L143.79166666666666,13.845333258310962L145,15.890666047732044L146.20833333333334,15.733341773351025L147.41666666666666,16.048002044359837L148.625,15.418669780095415L149.83333333333334,14.946673512458808L151.04166666666669,15.261333783467602L152.25,14.632001519203179L153.45833333333334,15.418669780095415L154.66666666666666,15.733341773351025L155.875,13.530672987302149L157.08333333333331,14.632001519203179L158.29166666666666,15.418669780095415L159.5,14.160005251566572L160.70833333333334,14.160005251566572L161.91666666666666,14.002669254938757L163.125,14.789337515830994L164.33333333333334,15.104009509086602L165.54166666666666,14.160005251566572L166.75,14.474665522575386L167.95833333333334,15.104009509086602L169.16666666666669,14.789337515830994L170.375,14.160005251566572L171.58333333333334,12.901340723037727L172.79166666666666,12.429332733154304L174,13.21600099404652L175.20833333333331,13.530672987302149L176.41666666666666,14.002669254938757L177.625,12.901340723037727L178.83333333333334,14.946673512458808L180.04166666666666,13.845333258310962L181.25,14.002669254938757L182.45833333333334,12.744004726409912L183.66666666666666,13.845333258310962L184.875,13.530672987302149L186.08333333333334,15.104009509086602L187.29166666666669,15.104009509086602L188.5,14.632001519203179L189.70833333333334,14.946673512458808L190.91666666666666,14.946673512458808L192.125,14.946673512458808L193.33333333333331,14.474665522575386L194.54166666666666,14.632001519203179L195.75,14.474665522575386L196.95833333333334,14.317341248194385L198.16666666666666,14.317341248194385L199.375,13.688008983929944L200.58333333333334,14.160005251566572L201.79166666666666,13.373336990674334L203,14.002669254938757L204.20833333333334,12.901340723037727L205.41666666666669,14.160005251566572L206.625,14.160005251566572L207.83333333333334,14.789337515830994L209.04166666666666,14.474665522575386L210.25,14.002669254938757L211.45833333333331,15.261333783467602L212.66666666666666,14.160005251566572L213.875,13.845333258310962L215.08333333333334,14.317341248194385L216.29166666666666,14.317341248194385L217.5,15.104009509086602L218.70833333333334,13.530672987302149L219.91666666666666,13.05867671966552L221.125,13.688008983929944L222.33333333333334,13.05867671966552L223.54166666666669,12.901340723037727L224.75,13.373336990674334L225.95833333333334,13.530672987302149L227.16666666666666,13.373336990674334L228.375,13.373336990674334L229.58333333333331,12.744004726409912L230.79166666666666,13.373336990674334L232,12.901340723037727L233.20833333333334,12.744004726409912L234.41666666666666,12.901340723037727L235.625,13.373336990674334L236.83333333333334,13.845333258310962L238.04166666666666,14.317341248194385L239.25,14.632001519203179L240.45833333333334,13.845333258310962L241.66666666666669,14.632001519203179L242.875,14.946673512458808L244.08333333333334,14.317341248194385L245.29166666666666,13.688008983929944L246.5,14.946673512458808L247.70833333333331,14.474665522575386L248.91666666666666,13.530672987302149L250.125,14.946673512458808L251.33333333333334,14.317341248194385L252.54166666666666,13.21600099404652L253.75,14.789337515830994L254.95833333333334,14.632001519203179L256.1666666666667,15.418669780095415L257.375,13.845333258310962L258.58333333333337,14.002669254938757L259.7916666666667,14.002669254938757L261,13.845333258310962L262.2083333333333,13.845333258310962L263.4166666666667,13.530672987302149L264.625,12.901340723037727L265.8333333333333,13.05867671966552" style="fill: none;" fill="none"></path></g><g><path stroke="rgb(238, 51, 119)" stroke-width="2px" d="M36.25,178.5733332981666L37.458333333333336,175.89866677920023L38.666666666666664,176.84266664087772L39.875,165.35733376940092L41.083333333333336,164.88533457120258L42.29166666666667,166.14400203029317L43.5,157.4906687438488L44.708333333333336,171.33600200215974L45.916666666666664,156.23200128475824L47.125,143.80266855160397L48.33333333333333,149.62400078773499L49.541666666666664,159.06400233507156L50.75,150.41066904862723L51.958333333333336,160.0080007314682L53.166666666666664,161.42400125662488L54.375,157.64800180991492L55.583333333333336,161.89600045482317L56.791666666666664,157.3333356777827L58,154.5013346274694L59.208333333333336,156.7040004829566L60.41666666666667,163.94133324424425L61.625,171.65066813429195L62.833333333333336,170.0773345430692L64.04166666666667,159.06400233507156L65.25,161.58133432269096L66.45833333333333,165.35733376940092L67.66666666666667,163.46933404604596L68.875,163.62666711211205L70.08333333333333,157.64800180991492L71.29166666666666,159.85066766540209L72.5,162.6826687157154L73.70833333333333,158.74933327237767L74.91666666666667,162.36799965302149L76.125,165.67199990153313L77.33333333333333,170.0773345430692L78.54166666666666,158.1200010081132L79.75,161.58133432269096L80.95833333333333,157.3333356777827L82.16666666666667,145.2186690767606L83.375,160.0080007314682L84.58333333333334,158.74933327237767L85.79166666666667,154.9733338256677L87,162.5253356496493L88.20833333333333,161.10933512449265L89.41666666666667,172.1226673324903L90.625,170.39200067520142L91.83333333333333,156.54666741689047L93.04166666666667,161.10933512449265L94.25,154.5013346274694L95.45833333333333,163.46933404604596L96.66666666666666,158.27733407417932L97.875,164.7280015051365L99.08333333333333,166.14400203029317L100.29166666666667,160.3226668636004L101.5,162.21066658695537L102.70833333333334,161.58133432269096L103.91666666666667,163.31200097997984L105.125,165.51466683546704L106.33333333333333,157.805334875981L107.54166666666667,156.7040004829566L108.75,167.2453334927559L109.95833333333333,158.90666633844376L111.16666666666667,165.67199990153313L112.375,158.27733407417932L113.58333333333333,167.7173326909542L114.79166666666666,160.1653337975343L116,161.42400125662488L117.20833333333333,160.95200205842653L118.41666666666667,155.60266902049383L119.625,154.8160007596016L120.83333333333334,157.805334875981L122.04166666666667,166.14400203029317L123.25,170.54933374126753L124.45833333333333,168.81866708397865L125.66666666666667,162.9973348478476L126.875,167.87466868758202L128.08333333333334,166.77333429455757L129.29166666666669,169.9200014770031L130.5,173.06666719416776L131.70833333333334,165.82933296759924L132.91666666666666,166.14400203029317L134.125,162.9973348478476L135.33333333333334,168.03200175364813L136.54166666666666,163.46933404604596L137.75,163.31200097997984L138.95833333333334,159.3786684672038L140.16666666666666,163.15466791391373L141.375,167.402666558822L142.58333333333331,160.63733299573263L143.79166666666666,168.50400095184645L145,157.4906687438488L146.20833333333334,160.95200205842653L147.41666666666666,162.8400017817815L148.625,161.89600045482317L149.83333333333334,165.35733376940092L151.04166666666669,163.15466791391373L152.25,159.06400233507156L153.45833333333334,158.90666633844376L154.66666666666666,158.74933327237767L155.875,154.34400156140327L157.08333333333331,158.1200010081132L158.29166666666666,165.0426676372687L159.5,165.35733376940092L160.70833333333334,162.9973348478476L161.91666666666666,163.78400017817816L163.125,167.402666558822L164.33333333333334,168.18933481971425L165.54166666666666,164.09866631031036L166.75,168.50400095184645L167.95833333333334,164.57066843907037L169.16666666666669,165.35733376940092L170.375,163.62666711211205L171.58333333333334,163.62666711211205L172.79166666666666,163.15466791391373L174,154.6586676935355L175.20833333333331,158.74933327237767L176.41666666666666,156.7040004829566L177.625,160.1653337975343L178.83333333333334,152.7706679701805L180.04166666666666,157.17599968115488L181.25,156.7040004829566L182.45833333333334,158.1200010081132L183.66666666666666,160.1653337975343L184.875,162.21066658695537L186.08333333333334,161.42400125662488L187.29166666666669,161.42400125662488L188.5,159.22133540113768L189.70833333333334,157.96266794204712L190.91666666666666,159.85066766540209L192.125,165.2000007033348L193.33333333333331,164.88533457120258L194.54166666666666,163.31200097997984L195.75,170.39200067520142L196.95833333333334,169.9200014770031L198.16666666666666,169.29066628217697L199.375,166.93066736062366L200.58333333333334,165.67199990153313L201.79166666666666,165.35733376940092L203,163.31200097997984L204.20833333333334,160.7946689923604L205.41666666666669,171.49333506822586L206.625,167.402666558822L207.83333333333334,165.35733376940092L209.04166666666666,163.94133324424425L210.25,161.73866738875708L211.45833333333331,162.36799965302149L212.66666666666666,161.58133432269096L213.875,160.47999992966652L215.08333333333334,161.42400125662488L216.29166666666666,162.6826687157154L217.5,166.14400203029317L218.70833333333334,169.60533534487087L219.91666666666666,165.35733376940092L221.125,166.93066736062366L222.33333333333334,166.61600122849146L223.54166666666669,166.30133509635925L224.75,164.88533457120258L225.95833333333334,166.14400203029317L227.16666666666666,164.88533457120258L228.375,163.78400017817816L229.58333333333331,163.94133324424425L230.79166666666666,163.94133324424425L232,162.21066658695537L233.20833333333334,160.63733299573263L234.41666666666666,162.8400017817815L235.625,167.2453334927559L236.83333333333334,167.7173326909542L238.04166666666666,165.67199990153313L239.25,165.2000007033348L240.45833333333334,166.45866816242537L241.66666666666669,165.0426676372687L242.875,164.4133353730043L244.08333333333334,161.89600045482317L245.29166666666666,164.25599937637645L246.5,163.15466791391373L247.70833333333331,166.77333429455757L248.91666666666666,165.82933296759924L250.125,165.0426676372687L251.33333333333334,163.94133324424425L252.54166666666666,164.4133353730043L253.75,165.0426676372687L254.95833333333334,165.35733376940092L256.1666666666667,164.25599937637645L257.375,166.77333429455757L258.58333333333337,166.61600122849146L259.7916666666667,167.7173326909542L261,166.30133509635925L262.2083333333333,165.51466683546704L263.4166666666667,166.93066736062366L264.625,166.45866816242537L265.8333333333333,164.57066843907037" style="fill: none;" fill="none"></path></g></g></g></g></g></g><g transform="translate(40, 177)" clip-path="url(#clip_1)"><clipPath id="clip_1"><rect width="290" height="23"></rect></clipPath><g><g><line x1="0" y1="0" x2="0" y2="5" style="visibility: inherit;" fill="rgb(0, 0, 0)" stroke="rgb(204, 204, 204)" stroke-width="1px"></line><line x1="24.166666666666664" y1="0" x2="24.166666666666664" y2="5" style="visibility: inherit;" fill="rgb(0, 0, 0)" stroke="rgb(204, 204, 204)" stroke-width="1px"></line><line x1="48.33333333333333" y1="0" x2="48.33333333333333" y2="5" style="visibility: inherit;" fill="rgb(0, 0, 0)" stroke="rgb(204, 204, 204)" stroke-width="1px"></line><line x1="72.5" y1="0" x2="72.5" y2="5" style="visibility: inherit;" fill="rgb(0, 0, 0)" stroke="rgb(204, 204, 204)" stroke-width="1px"></line><line x1="96.66666666666666" y1="0" x2="96.66666666666666" y2="5" style="visibility: inherit;" fill="rgb(0, 0, 0)" stroke="rgb(204, 204, 204)" stroke-width="1px"></line><line x1="120.83333333333334" y1="0" x2="120.83333333333334" y2="5" style="visibility: inherit;" fill="rgb(0, 0, 0)" stroke="rgb(204, 204, 204)" stroke-width="1px"></line><line x1="145" y1="0" x2="145" y2="5" style="visibility: inherit;" fill="rgb(0, 0, 0)" stroke="rgb(204, 204, 204)" stroke-width="1px"></line><line x1="169.16666666666669" y1="0" x2="169.16666666666669" y2="5" style="visibility: inherit;" fill="rgb(0, 0, 0)" stroke="rgb(204, 204, 204)" stroke-width="1px"></line><line x1="193.33333333333331" y1="0" x2="193.33333333333331" y2="5" style="visibility: inherit;" fill="rgb(0, 0, 0)" stroke="rgb(204, 204, 204)" stroke-width="1px"></line><line x1="217.5" y1="0" x2="217.5" y2="5" style="visibility: inherit;" fill="rgb(0, 0, 0)" stroke="rgb(204, 204, 204)" stroke-width="1px"></line><line x1="241.66666666666669" y1="0" x2="241.66666666666669" y2="5" style="visibility: inherit;" fill="rgb(0, 0, 0)" stroke="rgb(204, 204, 204)" stroke-width="1px"></line><line x1="265.8333333333333" y1="0" x2="265.8333333333333" y2="5" style="visibility: inherit;" fill="rgb(0, 0, 0)" stroke="rgb(204, 204, 204)" stroke-width="1px"></line><line x1="290" y1="0" x2="290" y2="5" style="visibility: inherit;" fill="rgb(0, 0, 0)" stroke="rgb(204, 204, 204)" stroke-width="1px"></line></g><g transform="translate(0, 8)"><text x="0" y="0" dx="0em" dy="0.95em" style="text-anchor: middle; visibility: hidden; font-family: Roboto, sans-serif; font-size: 12px; font-weight: 200;" fill="rgb(33, 33, 33)" stroke="none" stroke-width="1px">-20</text><text x="24.166666666666664" y="0" dx="0em" dy="0.95em" style="text-anchor: middle; visibility: inherit; font-family: Roboto, sans-serif; font-size: 12px; font-weight: 200;" fill="rgb(33, 33, 33)" stroke="none" stroke-width="1px">0</text><text x="48.33333333333333" y="0" dx="0em" dy="0.95em" style="text-anchor: middle; visibility: hidden; font-family: Roboto, sans-serif; font-size: 12px; font-weight: 200;" fill="rgb(33, 33, 33)" stroke="none" stroke-width="1px">20</text><text x="72.5" y="0" dx="0em" dy="0.95em" style="text-anchor: middle; visibility: inherit; font-family: Roboto, sans-serif; font-size: 12px; font-weight: 200;" fill="rgb(33, 33, 33)" stroke="none" stroke-width="1px">40</text><text x="96.66666666666666" y="0" dx="0em" dy="0.95em" style="text-anchor: middle; visibility: hidden; font-family: Roboto, sans-serif; font-size: 12px; font-weight: 200;" fill="rgb(33, 33, 33)" stroke="none" stroke-width="1px">60</text><text x="120.83333333333334" y="0" dx="0em" dy="0.95em" style="text-anchor: middle; visibility: inherit; font-family: Roboto, sans-serif; font-size: 12px; font-weight: 200;" fill="rgb(33, 33, 33)" stroke="none" stroke-width="1px">80</text><text x="145" y="0" dx="0em" dy="0.95em" style="text-anchor: middle; visibility: hidden; font-family: Roboto, sans-serif; font-size: 12px; font-weight: 200;" fill="rgb(33, 33, 33)" stroke="none" stroke-width="1px">100</text><text x="169.16666666666669" y="0" dx="0em" dy="0.95em" style="text-anchor: middle; visibility: inherit; font-family: Roboto, sans-serif; font-size: 12px; font-weight: 200;" fill="rgb(33, 33, 33)" stroke="none" stroke-width="1px">120</text><text x="193.33333333333331" y="0" dx="0em" dy="0.95em" style="text-anchor: middle; visibility: hidden; font-family: Roboto, sans-serif; font-size: 12px; font-weight: 200;" fill="rgb(33, 33, 33)" stroke="none" stroke-width="1px">140</text><text x="217.5" y="0" dx="0em" dy="0.95em" style="text-anchor: middle; visibility: inherit; font-family: Roboto, sans-serif; font-size: 12px; font-weight: 200;" fill="rgb(33, 33, 33)" stroke="none" stroke-width="1px">160</text><text x="241.66666666666669" y="0" dx="0em" dy="0.95em" style="text-anchor: middle; visibility: hidden; font-family: Roboto, sans-serif; font-size: 12px; font-weight: 200;" fill="rgb(33, 33, 33)" stroke="none" stroke-width="1px">180</text><text x="265.8333333333333" y="0" dx="0em" dy="0.95em" style="text-anchor: middle; visibility: inherit; font-family: Roboto, sans-serif; font-size: 12px; font-weight: 200;" fill="rgb(33, 33, 33)" stroke="none" stroke-width="1px">200</text><text x="290" y="0" dx="0em" dy="0.95em" style="text-anchor: middle; visibility: hidden; font-family: Roboto, sans-serif; font-size: 12px; font-weight: 200;" fill="rgb(33, 33, 33)" stroke="none" stroke-width="1px">220</text></g><line x1="0" y1="0" x2="290" y2="0" fill="rgb(0, 0, 0)" stroke="rgb(204, 204, 204)" stroke-width="1px"></line></g></g></g></g></svg>