<svg viewBox="0 0 330 200" xmlns="http://www.w3.org/2000/svg"><g><g><g><g><g><line x1="40" y1="177" x2="35" y2="177" style="visibility: inherit;" fill="rgb(0, 0, 0)" stroke="rgb(204, 204, 204)" stroke-width="1px"></line><line x1="40" y1="157.33333333333331" x2="35" y2="157.33333333333331" style="visibility: inherit;" fill="rgb(0, 0, 0)" stroke="rgb(204, 204, 204)" stroke-width="1px"></line><line x1="40" y1="137.66666666666666" x2="35" y2="137.66666666666666" style="visibility: inherit;" fill="rgb(0, 0, 0)" stroke="rgb(204, 204, 204)" stroke-width="1px"></line><line x1="40" y1="118.00000000000001" x2="35" y2="118.00000000000001" style="visibility: inherit;" fill="rgb(0, 0, 0)" stroke="rgb(204, 204, 204)" stroke-width="1px"></line><line x1="40" y1="98.33333333333334" x2="35" y2="98.33333333333334" style="visibility: inherit;" fill="rgb(0, 0, 0)" stroke="rgb(204, 204, 204)" stroke-width="1px"></line><line x1="40" y1="78.66666666666666" x2="35" y2="78.66666666666666" style="visibility: inherit;" fill="rgb(0, 0, 0)" stroke="rgb(204, 204, 204)" stroke-width="1px"></line><line x1="40" y1="59.00000000000001" x2="35" y2="59.00000000000001" style="visibility: inherit;" fill="rgb(0, 0, 0)" stroke="rgb(204, 204, 204)" stroke-width="1px"></line><line x1="40" y1="39.33333333333335" x2="35" y2="39.33333333333335" style="visibility: inherit;" fill="rgb(0, 0, 0)" stroke="rgb(204, 204, 204)" stroke-width="1px"></line><line x1="40" y1="19.666666666666657" x2="35" y2="19.666666666666657" style="visibility: inherit;" fill="rgb(0, 0, 0)" stroke="rgb(204, 204, 204)" stroke-width="1px"></line><line x1="40" y1="0" x2="35" y2="0" style="visibility: inherit;" fill="rgb(0, 0, 0)" stroke="rgb(204, 204, 204)" stroke-width="1px"></line></g><g transform="translate(30, 0)"><text x="0" y="177" dx="0em" dy="0.3em" style="text-anchor: end; visibility: hidden; font-family: Roboto, sans-serif; font-size: 12px; font-weight: 200;" fill="rgb(33, 33, 33)" stroke="none" stroke-width="1px">0</text><text x="0" y="157.33333333333331" dx="0em" dy="0.3em" style="text-anchor: end; visibility: inherit; font-family: Roboto, sans-serif; font-size: 12px; font-weight: 200;" fill="rgb(33, 33, 33)" stroke="none" stroke-width="1px">0.1</text><text x="0" y="137.66666666666666" dx="0em" dy="0.3em" style="text-anchor: end; visibility: hidden; font-family: Roboto, sans-serif; font-size: 12px; font-weight: 200;" fill="rgb(33, 33, 33)" stroke="none" stroke-width="1px">0.2</text><text x="0" y="118.00000000000001" dx="0em" dy="0.3em" style="text-anchor: end; visibility: inherit; font-family: Roboto, sans-serif; font-size: 12px; font-weight: 200;" fill="rgb(33, 33, 33)" stroke="none" stroke-width="1px">0.3</text><text x="0" y="98.33333333333334" dx="0em" dy="0.3em" style="text-anchor: end; visibility: hidden; font-family: Roboto, sans-serif; font-size: 12px; font-weight: 200;" fill="rgb(33, 33, 33)" stroke="none" stroke-width="1px">0.4</text><text x="0" y="78.66666666666666" dx="0em" dy="0.3em" style="text-anchor: end; visibility: inherit; font-family: Roboto, sans-serif; font-size: 12px; font-weight: 200;" fill="rgb(33, 33, 33)" stroke="none" stroke-width="1px">0.5</text><text x="0" y="59.00000000000001" dx="0em" dy="0.3em" style="text-anchor: end; visibility: hidden; font-family: Roboto, sans-serif; font-size: 12px; font-weight: 200;" fill="rgb(33, 33, 33)" stroke="none" stroke-width="1px">0.6</text><text x="0" y="39.33333333333335" dx="0em" dy="0.3em" style="text-anchor: end; visibility: inherit; font-family: Roboto, sans-serif; font-size: 12px; font-weight: 200;" fill="rgb(33, 33, 33)" stroke="none" stroke-width="1px">0.7</text><text x="0" y="19.666666666666657" dx="0em" dy="0.3em" style="text-anchor: end; visibility: hidden; font-family: Roboto, sans-serif; font-size: 12px; font-weight: 200;" fill="rgb(33, 33, 33)" stroke="none" stroke-width="1px">0.8</text><text x="0" y="0" dx="0em" dy="0.3em" style="text-anchor: end; visibility: hidden; font-family: Roboto, sans-serif; font-size: 12px; font-weight: 200;" fill="rgb(33, 33, 33)" stroke="none" stroke-width="1px">0.9</text></g><line x1="40" y1="0" x2="40" y2="177" fill="rgb(0, 0, 0)" stroke="rgb(204, 204, 204)" stroke-width="1px"></line></g></g><g transform="translate(40, 0)" clip-path="url(#clip_0)"><clipPath id="clip_0"><rect width="290" height="177"></rect></clipPath><g><g><g><line x1="0" y1="0" x2="0" y2="177" fill="rgb(0, 0, 0)" stroke="rgb(66, 66, 66)" stroke-width="1px" opacity="0.25"></line><line x1="24.166666666666664" y1="0" x2="24.166666666666664" y2="177" fill="rgb(0, 0, 0)" stroke="rgb(66, 66, 66)" stroke-width="1px" opacity="0.25"></line><line x1="48.33333333333333" y1="0" x2="48.33333333333333" y2="177" fill="rgb(0, 0, 0)" stroke="rgb(66, 66, 66)" stroke-width="1px" opacity="0.25"></line><line x1="72.5" y1="0" x2="72.5" y2="177" fill="rgb(0, 0, 0)" stroke="rgb(66, 66, 66)" stroke-width="1px" opacity="0.25"></line><line x1="96.66666666666666" y1="0" x2="96.66666666666666" y2="177" fill="rgb(0, 0, 0)" stroke="rgb(66, 66, 66)" stroke-width="1px" opacity="0.25"></line><line x1="120.83333333333334" y1="0" x2="120.83333333333334" y2="177" fill="rgb(0, 0, 0)" stroke="rgb(66, 66, 66)" stroke-width="1px" opacity="0.25"></line><line x1="145" y1="0" x2="145" y2="177" fill="rgb(0, 0, 0)" stroke="rgb(66, 66, 66)" stroke-width="1px" opacity="0.25"></line><line x1="169.16666666666669" y1="0" x2="169.16666666666669" y2="177" fill="rgb(0, 0, 0)" stroke="rgb(66, 66, 66)" stroke-width="1px" opacity="0.25"></line><line x1="193.33333333333331" y1="0" x2="193.33333333333331" y2="177" fill="rgb(0, 0, 0)" stroke="rgb(66, 66, 66)" stroke-width="1px" opacity="0.25"></line><line x1="217.5" y1="0" x2="217.5" y2="177" fill="rgb(0, 0, 0)" stroke="rgb(66, 66, 66)" stroke-width="1px" opacity="0.25"></line><line x1="241.66666666666669" y1="0" x2="241.66666666666669" y2="177" fill="rgb(0, 0, 0)" stroke="rgb(66, 66, 66)" stroke-width="1px" opacity="0.25"></line><line x1="265.8333333333333" y1="0" x2="265.8333333333333" y2="177" fill="rgb(0, 0, 0)" stroke="rgb(66, 66, 66)" stroke-width="1px" opacity="0.25"></line><line x1="290" y1="0" x2="290" y2="177" fill="rgb(0, 0, 0)" stroke="rgb(66, 66, 66)" stroke-width="1px" opacity="0.25"></line></g><g><line x1="0" y1="177" x2="290" y2="177" fill="rgb(0, 0, 0)" stroke="rgb(66, 66, 66)" stroke-width="1px" opacity="0.25"></line><line x1="0" y1="157.33333333333331" x2="290" y2="157.33333333333331" fill="rgb(0, 0, 0)" stroke="rgb(66, 66, 66)" stroke-width="1px" opacity="0.25"></line><line x1="0" y1="137.66666666666666" x2="290" y2="137.66666666666666" fill="rgb(0, 0, 0)" stroke="rgb(66, 66, 66)" stroke-width="1px" opacity="0.25"></line><line x1="0" y1="118.00000000000001" x2="290" y2="118.00000000000001" fill="rgb(0, 0, 0)" stroke="rgb(66, 66, 66)" stroke-width="1px" opacity="0.25"></line><line x1="0" y1="98.33333333333334" x2="290" y2="98.33333333333334" fill="rgb(0, 0, 0)" stroke="rgb(66, 66, 66)" stroke-width="1px" opacity="0.25"></line><line x1="0" y1="78.66666666666666" x2="290" y2="78.66666666666666" fill="rgb(0, 0, 0)" stroke="rgb(66, 66, 66)" stroke-width="1px" opacity="0.25"></line><line x1="0" y1="59.00000000000001" x2="290" y2="59.00000000000001" fill="rgb(0, 0, 0)" stroke="rgb(66, 66, 66)" stroke-width="1px" opacity="0.25"></line><line x1="0" y1="39.33333333333335" x2="290" y2="39.33333333333335" fill="rgb(0, 0, 0)" stroke="rgb(66, 66, 66)" stroke-width="1px" opacity="0.25"></line><line x1="0" y1="19.666666666666657" x2="290" y2="19.666666666666657" fill="rgb(0, 0, 0)" stroke="rgb(66, 66, 66)" stroke-width="1px" opacity="0.25"></line><line x1="0" y1="0" x2="290" y2="0" fill="rgb(0, 0, 0)" stroke="rgb(66, 66, 66)" stroke-width="1px" opacity="0.25"></line></g></g></g><g><g><line x1="0" y1="177" x2="290" y2="177" fill="rgb(0, 0, 0)" stroke="rgb(153, 153, 153)" stroke-width="1.5px"></line></g></g><g><g><line x1="24.166666666666664" y1="0" x2="24.166666666666664" y2="177" fill="rgb(0, 0, 0)" stroke="rgb(153, 153, 153)" stroke-width="1.5px"></line></g></g><g><g><g><g><g><path stroke="rgb(51, 187, 238)" stroke-width="2px" d="M25.375,157.333334505558L26.583333333333332,103.1713378628095L27.791666666666668,56.4630080461502L29,52.333002607027694L30.208333333333336,40.88700226942699L31.416666666666668,36.54067448774974L32.625,33.68900350729625L33.833333333333336,30.620998462041218L35.041666666666664,26.84500487645468L36.25,26.03866668542227L37.458333333333336,26.648340741793316L38.666666666666664,25.311008214950576L39.875,24.150669892628986L41.083333333333336,22.911675294240315L42.29166666666667,23.206665635108955L43.5,21.397336840629585L44.708333333333336,20.37467630704245L45.916666666666664,20.39433451493581L47.125,157.333334505558L48.33333333333333,104.54800438880922L49.541666666666664,22.911675294240315L50.75,19.135669986406963L51.958333333333336,18.801339785257976L53.166666666666664,18.46700958410899L54.375,17.345999399820972L55.583333333333336,16.874003132184345L56.791666666666664,16.874003132184345L58,16.85433320204417L59.208333333333336,16.264340798060093L60.41666666666667,15.929998874664314L61.625,16.637999137242634L62.833333333333336,16.874003132184345L64.04166666666667,16.874003132184345L65.25,17.26734312375387L66.45833333333333,17.26734312375387L67.66666666666667,15.438332676887512L68.875,15.35967640082041L70.08333333333333,14.533668279647827L71.29166666666666,14.65167613824209L72.5,16.048006733258575L73.70833333333333,15.163000543912249L74.91666666666667,15.163000543912249L76.125,14.396002213160205L77.33333333333333,14.867998480796814L78.54166666666666,13.432339747746797L79.75,14.494340141614275L80.95833333333333,15.320336540540064L82.16666666666667,13.235675613085432L83.375,15.575998743375154L84.58333333333334,12.940673549969995L85.79166666666667,13.019341548283892L87,12.901333689689649L88.20833333333333,12.803007483482373L89.41666666666667,13.019341548283892L90.625,12.547333558400469L91.83333333333333,12.803007483482373L93.04166666666667,12.606331626574194L94.25,12.960331757863374L95.45833333333333,12.370339353879297L96.66666666666666,12.626001556714387L97.875,11.741007089614875L99.08333333333333,12.2916713555654L100.29166666666667,12.704669555028284L101.5,12.704669555028284L102.70833333333334,12.704669555028284L103.91666666666667,11.268999099731452L105.125,12.665341416994734L106.33333333333333,12.39000928401947L107.54166666666667,12.272001425425207L108.75,11.97699936230977L109.95833333333333,11.780335227648425L111.16666666666667,12.370339353879297L112.375,11.092004895210279L113.58333333333333,11.859003225962324L114.79166666666666,11.19034282366435L116,11.662339091300977L117.20833333333333,11.70166722933451L118.41666666666667,11.131333033243811L119.625,11.072334965070086L120.83333333333334,11.072334965070086L122.04166666666667,11.957341154416413L123.25,11.34766709804535L124.45833333333333,11.505003094673164L125.66666666666667,11.83933329582215L126.875,11.2296709616979L128.08333333333334,10.679006695747375L129.29166666666669,11.013336896896362L130.5,10.97400875886281L131.70833333333334,10.246338566144319L132.91666666666666,11.524673024813337L134.125,11.780335227648425L135.33333333333334,11.780335227648425L136.54166666666666,12.2916713555654L137.75,11.70166722933451L138.95833333333334,11.288669029871626L140.16666666666666,11.288669029871626L141.375,10.895340760548914L142.58333333333331,10.83634269237519L143.79166666666666,10.364334702491767L145,11.367337028185522L146.20833333333334,10.639666835467029L147.41666666666666,10.914998968442292L148.625,10.738004763921099L149.83333333333334,11.465674956639612L151.04166666666669,12.134335358937586L152.25,11.268999099731452L153.45833333333334,10.87567083040874L154.66666666666666,10.108672499656677L155.875,10.443002700805664L157.08333333333331,10.443002700805664L158.29166666666666,10.757674694061292L159.5,11.465674956639612L160.70833333333334,11.465674956639612L161.91666666666666,11.859003225962324L163.125,11.151002963384004L164.33333333333334,9.951336503028882L165.54166666666666,10.934668898582466L166.75,10.580668767293306L167.95833333333334,10.639666835467029L169.16666666666669,10.14800063769023L170.375,10.42333277066549L171.58333333333334,10.639666835467029L172.79166666666666,10.639666835467029L174,10.14800063769023L175.20833333333331,10.364334702491767L176.41666666666666,10.87567083040874L177.625,10.403674562772112L178.83333333333334,10.1676705678304L180.04166666666666,10.738004763921099L181.25,10.285666704177869L182.45833333333334,10.010334571202607L183.66666666666666,9.971006433169055L184.875,10.77733290195465L186.08333333333334,10.77733290195465L187.29166666666669,12.449007352193194L188.5,10.757674694061292L189.70833333333334,9.577666441599531L190.91666666666666,9.125340104103095L192.125,10.364334702491767L193.33333333333331,11.131333033243811L194.54166666666666,11.83933329582215L195.75,11.83933329582215L196.95833333333334,10.14800063769023L198.16666666666666,12.114665428797412L199.375,12.114665428797412L200.58333333333334,10.03000450134278L201.79166666666666,9.813670436541242L203,9.341674168904634L204.20833333333334,9.735002438227344L205.41666666666669,11.505003094673164L206.625,9.617006301879895L207.83333333333334,11.544342954953509L209.04166666666666,10.443002700805664L210.25,10.049674431482954L211.45833333333331,11.052665034929914L212.66666666666666,11.052665034929914L213.875,11.052665034929914L215.08333333333334,10.77733290195465L216.29166666666666,10.364334702491767L217.5,9.79400050640107L218.70833333333334,9.79400050640107L219.91666666666666,9.735002438227344L221.125,11.111674825350452L222.33333333333334,10.03000450134278L223.54166666666669,10.325006564458215L224.75,10.206998705863953L225.95833333333334,10.226668636004126L227.16666666666666,10.010334571202607L228.375,11.210001031557727L229.58333333333331,10.364334702491767L230.79166666666666,10.364334702491767L232,9.361332376797991L233.20833333333334,9.125340104103095L234.41666666666666,12.64567148685456L235.625,11.249340891838074L236.83333333333334,11.780335227648425L238.04166666666666,11.780335227648425L239.25,11.072334965070086L240.45833333333334,10.443002700805664L241.66666666666669,11.32800889015199L242.875,10.443002700805664L244.08333333333334,10.77733290195465L245.29166666666666,10.77733290195465L246.5,10.1676705678304L247.70833333333331,9.833340366681414L248.91666666666666,9.282676100730908L250.125,9.341674168904634L251.33333333333334,10.010334571202607L252.54166666666666,10.010334571202607L253.75,9.735002438227344L254.95833333333334,9.813670436541242L256.1666666666667,9.971006433169055L257.375,10.089002569516504L258.58333333333337,11.19034282366435L259.7916666666667,10.364334702491767L261,10.364334702491767L262.2083333333333,12.449007352193194L263.4166666666667,10.560998837153113L264.625,8.437009771664949L265.8333333333333,8.496007839838672" style="fill: none;" fill="none"></path></g><g><path stroke="rgb(238, 51, 119)" stroke-width="2px" d="M25.375,-19.548658808072414L26.583333333333332,174.7973334118724L27.791666666666668,174.1286667821308L29,172.22100005919737L30.208333333333336,171.27700019751984L31.416666666666668,168.40566697965068L32.625,160.3226671566566L33.833333333333336,156.36966764430207L35.041666666666664,158.86733409762383L36.25,155.68133438130218L37.458333333333336,158.49366696675617L38.666666666666664,158.15933383504552L39.875,164.92466666549444L41.083333333333336,153.95066772401333L42.29166666666667,162.2500008791685L43.5,162.76133407652378L44.708333333333336,156.07466704646745L45.916666666666664,155.4060007830461L47.125,177L48.33333333333333,139.18100160360336L49.541666666666664,11.878673156102495L50.75,49.85500168800353L51.958333333333336,82.22633790969849L53.166666666666664,96.48466936747234L54.375,86.29733355840048L55.583333333333336,76.10999774932861L56.791666666666664,76.10999774932861L58,96.01266723871233L59.208333333333336,85.2156690955162L60.41666666666667,90.15200100342432L61.625,98.53000215689342L62.833333333333336,97.17299969991049L64.04166666666667,97.17299969991049L65.25,106.8293353120486L66.45833333333333,106.8293353120486L67.66666666666667,119.23900397618613L68.875,123.36900355418523L70.08333333333333,117.82300345102946L71.29166666666666,114.55833427111308L72.5,126.39766873915991L73.70833333333333,115.48266859849295L74.91666666666667,97.6450018286705L76.125,102.8566658695539L77.33333333333333,102.0306694706281L78.54166666666666,88.10666821400324L79.75,78.48967246214549L80.95833333333333,86.76933568716049L82.16666666666667,108.52066797018053L83.375,120.39933643738428L84.58333333333334,107.61600357294084L85.79166666666667,93.12166812022527L87,94.51800457636516L88.20833333333333,89.18833267688753L89.41666666666667,93.5150022506714L90.625,112.86700161298117L91.83333333333333,128.20700046420097L93.04166666666667,125.49299848079681L94.25,139.90866886576015L95.45833333333333,140.71500119566917L96.66666666666666,147.89333295822144L97.875,146.53633343180022L99.08333333333333,112.23766934871672L100.29166666666667,128.16766646504402L101.5,128.16766646504402L102.70833333333334,128.16766646504402L103.91666666666667,131.60933571060497L105.125,118.5113337834676L106.33333333333333,129.9573341210683L107.54166666666667,124.01799988746643L108.75,122.91666549444197L109.95833333333333,122.50366729497911L111.16666666666667,110.93967082103094L112.375,102.64033766587576L113.58333333333333,128.62000159422556L114.79166666666666,112.76866954565048L116,114.2240040699641L117.20833333333333,110.01533649365108L118.41666666666667,112.2770033478737L119.625,117.74433545271556L120.83333333333334,128.0103333989779L122.04166666666667,132.3370000422001L123.25,139.1416676044464L124.45833333333333,145.98566623528797L125.66666666666667,161.03066741923493L126.875,142.5636669198672L128.08333333333334,148.07033302386603L129.29166666666669,155.8779999812444L130.5,153.41966752707958L131.70833333333334,138.39433334271112L132.91666666666666,127.99066932996115L134.125,132.51400010784465L135.33333333333334,132.51400010784465L136.54166666666666,135.20833509167036L137.75,138.49266834060353L138.95833333333334,133.08433430393535L140.16666666666666,133.08433430393535L141.375,152.57400119801363L142.58333333333331,133.61533450086912L143.79166666666666,136.76200168331465L145,150.7843350072702L146.20833333333334,127.32200306653976L147.41666666666666,135.56233522295952L148.625,136.97833574811617L149.83333333333334,120.18300237258275L151.04166666666669,106.12133504947026L152.25,125.84699861208597L153.45833333333334,132.80900217096013L154.66666666666666,139.65300080180168L155.875,152.25933360060057L157.08333333333331,152.25933360060057L158.29166666666666,156.95966737469035L159.5,147.5983338256677L160.70833333333334,147.5983338256677L161.91666666666666,143.07500011722246L163.125,137.25366788109145L164.33333333333334,117.40999939044318L165.54166666666666,126.1616706053416L166.75,134.61833389600116L167.95833333333334,118.49166971445082L169.16666666666669,96.74033743143082L170.375,113.75200194120409L171.58333333333334,108.42233590284984L172.79166666666666,108.42233590284984L174,120.98933470249175L175.20833333333331,105.15766672293344L176.41666666666666,118.78666591644287L177.625,136.8800007502238L178.83333333333334,147.9129999577999L180.04166666666666,144.8253337740898L181.25,151.80700140198073L182.45833333333334,148.7193352182706L183.66666666666666,148.4046661555767L184.875,125.78800054391225L186.08333333333334,125.78800054391225L187.29166666666669,152.86900033056736L188.5,154.08833379050094L189.70833333333334,155.03233365217847L190.91666666666666,159.90966749191284L192.125,166.51766725629568L193.33333333333331,158.7493335654338L194.54166666666666,143.3896662493547L195.75,143.3896662493547L196.95833333333334,145.59233503540355L198.16666666666666,143.19300211469331L199.375,143.19300211469331L200.58333333333334,148.8373342851798L201.79166666666666,147.32300169269243L203,148.38500208655995L204.20833333333334,148.95533335208893L205.41666666666669,144.21566850940386L206.625,134.46100082993507L207.83333333333334,122.62166929244997L209.04166666666666,120.59600057204565L210.25,113.29966974258424L211.45833333333331,129.58366699020067L212.66666666666666,129.58366699020067L213.875,129.58366699020067L215.08333333333334,123.8803338209788L216.29166666666666,128.04966739813486L217.5,144.2746665775776L218.70833333333334,144.25499957799911L219.91666666666666,132.80900217096013L221.125,128.32500246167183L222.33333333333334,103.5646661321322L223.54166666666669,130.01633511980373L224.75,138.5910004079342L225.95833333333334,156.03533451259136L227.16666666666666,147.42133376002312L228.375,157.64800063769025L229.58333333333331,149.58466854691505L230.79166666666666,149.58466854691505L232,157.68733317156634L233.20833333333334,140.32166706522307L234.41666666666666,151.6496683359146L235.625,149.07333534955978L236.83333333333334,151.8266684015592L238.04166666666666,151.8266684015592L239.25,141.40333445866904L240.45833333333334,129.20999985933304L241.66666666666669,131.60933571060497L242.875,135.0903330941995L244.08333333333334,121.59900289773942L245.29166666666666,121.59900289773942L246.5,126.04366860787074L247.70833333333331,141.1870003938675L248.91666666666666,146.65433542927107L250.125,144.17633451024693L251.33333333333334,130.76366645097733L252.54166666666666,130.76366645097733L253.75,144.74666870633763L254.95833333333334,140.75433519482613L256.1666666666667,127.69566726684569L257.375,137.31266887982687L258.58333333333337,159.2016672293345L259.7916666666667,145.33666697144508L261,145.33666697144508L262.2083333333333,106.80967124303181L263.4166666666667,134.97233402729034L264.625,127.75466533501944L265.8333333333333,137.80433507760364" style="fill: none;" fill="none"></path></g></g></g></g></g></g><g transform="translate(40, 177)" clip-path="url(#clip_1)"><clipPath id="clip_1"><rect width="290" height="23"></rect></clipPath><g><g><line x1="0" y1="0" x2="0" y2="5" style="visibility: inherit;" fill="rgb(0, 0, 0)" stroke="rgb(204, 204, 204)" stroke-width="1px"></line><line x1="24.166666666666664" y1="0" x2="24.166666666666664" y2="5" style="visibility: inherit;" fill="rgb(0, 0, 0)" stroke="rgb(204, 204, 204)" stroke-width="1px"></line><line x1="48.33333333333333" y1="0" x2="48.33333333333333" y2="5" style="visibility: inherit;" fill="rgb(0, 0, 0)" stroke="rgb(204, 204, 204)" stroke-width="1px"></line><line x1="72.5" y1="0" x2="72.5" y2="5" style="visibility: inherit;" fill="rgb(0, 0, 0)" stroke="rgb(204, 204, 204)" stroke-width="1px"></line><line x1="96.66666666666666" y1="0" x2="96.66666666666666" y2="5" style="visibility: inherit;" fill="rgb(0, 0, 0)" stroke="rgb(204, 204, 204)" stroke-width="1px"></line><line x1="120.83333333333334" y1="0" x2="120.83333333333334" y2="5" style="visibility: inherit;" fill="rgb(0, 0, 0)" stroke="rgb(204, 204, 204)" stroke-width="1px"></line><line x1="145" y1="0" x2="145" y2="5" style="visibility: inherit;" fill="rgb(0, 0, 0)" stroke="rgb(204, 204, 204)" stroke-width="1px"></line><line x1="169.16666666666669" y1="0" x2="169.16666666666669" y2="5" style="visibility: inherit;" fill="rgb(0, 0, 0)" stroke="rgb(204, 204, 204)" stroke-width="1px"></line><line x1="193.33333333333331" y1="0" x2="193.33333333333331" y2="5" style="visibility: inherit;" fill="rgb(0, 0, 0)" stroke="rgb(204, 204, 204)" stroke-width="1px"></line><line x1="217.5" y1="0" x2="217.5" y2="5" style="visibility: inherit;" fill="rgb(0, 0, 0)" stroke="rgb(204, 204, 204)" stroke-width="1px"></line><line x1="241.66666666666669" y1="0" x2="241.66666666666669" y2="5" style="visibility: inherit;" fill="rgb(0, 0, 0)" stroke="rgb(204, 204, 204)" stroke-width="1px"></line><line x1="265.8333333333333" y1="0" x2="265.8333333333333" y2="5" style="visibility: inherit;" fill="rgb(0, 0, 0)" stroke="rgb(204, 204, 204)" stroke-width="1px"></line><line x1="290" y1="0" x2="290" y2="5" style="visibility: inherit;" fill="rgb(0, 0, 0)" stroke="rgb(204, 204, 204)" stroke-width="1px"></line></g><g transform="translate(0, 8)"><text x="0" y="0" dx="0em" dy="0.95em" style="text-anchor: middle; visibility: hidden; font-family: Roboto, sans-serif; font-size: 12px; font-weight: 200;" fill="rgb(33, 33, 33)" stroke="none" stroke-width="1px">-20</text><text x="24.166666666666664" y="0" dx="0em" dy="0.95em" style="text-anchor: middle; visibility: inherit; font-family: Roboto, sans-serif; font-size: 12px; font-weight: 200;" fill="rgb(33, 33, 33)" stroke="none" stroke-width="1px">0</text><text x="48.33333333333333" y="0" dx="0em" dy="0.95em" style="text-anchor: middle; visibility: hidden; font-family: Roboto, sans-serif; font-size: 12px; font-weight: 200;" fill="rgb(33, 33, 33)" stroke="none" stroke-width="1px">20</text><text x="72.5" y="0" dx="0em" dy="0.95em" style="text-anchor: middle; visibility: inherit; font-family: Roboto, sans-serif; font-size: 12px; font-weight: 200;" fill="rgb(33, 33, 33)" stroke="none" stroke-width="1px">40</text><text x="96.66666666666666" y="0" dx="0em" dy="0.95em" style="text-anchor: middle; visibility: hidden; font-family: Roboto, sans-serif; font-size: 12px; font-weight: 200;" fill="rgb(33, 33, 33)" stroke="none" stroke-width="1px">60</text><text x="120.83333333333334" y="0" dx="0em" dy="0.95em" style="text-anchor: middle; visibility: inherit; font-family: Roboto, sans-serif; font-size: 12px; font-weight: 200;" fill="rgb(33, 33, 33)" stroke="none" stroke-width="1px">80</text><text x="145" y="0" dx="0em" dy="0.95em" style="text-anchor: middle; visibility: hidden; font-family: Roboto, sans-serif; font-size: 12px; font-weight: 200;" fill="rgb(33, 33, 33)" stroke="none" stroke-width="1px">100</text><text x="169.16666666666669" y="0" dx="0em" dy="0.95em" style="text-anchor: middle; visibility: inherit; font-family: Roboto, sans-serif; font-size: 12px; font-weight: 200;" fill="rgb(33, 33, 33)" stroke="none" stroke-width="1px">120</text><text x="193.33333333333331" y="0" dx="0em" dy="0.95em" style="text-anchor: middle; visibility: hidden; font-family: Roboto, sans-serif; font-size: 12px; font-weight: 200;" fill="rgb(33, 33, 33)" stroke="none" stroke-width="1px">140</text><text x="217.5" y="0" dx="0em" dy="0.95em" style="text-anchor: middle; visibility: inherit; font-family: Roboto, sans-serif; font-size: 12px; font-weight: 200;" fill="rgb(33, 33, 33)" stroke="none" stroke-width="1px">160</text><text x="241.66666666666669" y="0" dx="0em" dy="0.95em" style="text-anchor: middle; visibility: hidden; font-family: Roboto, sans-serif; font-size: 12px; font-weight: 200;" fill="rgb(33, 33, 33)" stroke="none" stroke-width="1px">180</text><text x="265.8333333333333" y="0" dx="0em" dy="0.95em" style="text-anchor: middle; visibility: inherit; font-family: Roboto, sans-serif; font-size: 12px; font-weight: 200;" fill="rgb(33, 33, 33)" stroke="none" stroke-width="1px">200</text><text x="290" y="0" dx="0em" dy="0.95em" style="text-anchor: middle; visibility: hidden; font-family: Roboto, sans-serif; font-size: 12px; font-weight: 200;" fill="rgb(33, 33, 33)" stroke="none" stroke-width="1px">220</text></g><line x1="0" y1="0" x2="290" y2="0" fill="rgb(0, 0, 0)" stroke="rgb(204, 204, 204)" stroke-width="1px"></line></g></g></g></g></svg>