<svg viewBox="0 0 330 200" xmlns="http://www.w3.org/2000/svg"><g><g><g><g><g><line x1="40" y1="177" x2="35" y2="177" style="visibility: inherit;" fill="rgb(0, 0, 0)" stroke="rgb(204, 204, 204)" stroke-width="1px"></line><line x1="40" y1="157.33333333333331" x2="35" y2="157.33333333333331" style="visibility: inherit;" fill="rgb(0, 0, 0)" stroke="rgb(204, 204, 204)" stroke-width="1px"></line><line x1="40" y1="137.66666666666666" x2="35" y2="137.66666666666666" style="visibility: inherit;" fill="rgb(0, 0, 0)" stroke="rgb(204, 204, 204)" stroke-width="1px"></line><line x1="40" y1="118" x2="35" y2="118" style="visibility: inherit;" fill="rgb(0, 0, 0)" stroke="rgb(204, 204, 204)" stroke-width="1px"></line><line x1="40" y1="98.33333333333334" x2="35" y2="98.33333333333334" style="visibility: inherit;" fill="rgb(0, 0, 0)" stroke="rgb(204, 204, 204)" stroke-width="1px"></line><line x1="40" y1="78.66666666666666" x2="35" y2="78.66666666666666" style="visibility: inherit;" fill="rgb(0, 0, 0)" stroke="rgb(204, 204, 204)" stroke-width="1px"></line><line x1="40" y1="59.00000000000001" x2="35" y2="59.00000000000001" style="visibility: inherit;" fill="rgb(0, 0, 0)" stroke="rgb(204, 204, 204)" stroke-width="1px"></line><line x1="40" y1="39.33333333333333" x2="35" y2="39.33333333333333" style="visibility: inherit;" fill="rgb(0, 0, 0)" stroke="rgb(204, 204, 204)" stroke-width="1px"></line><line x1="40" y1="19.666666666666657" x2="35" y2="19.666666666666657" style="visibility: inherit;" fill="rgb(0, 0, 0)" stroke="rgb(204, 204, 204)" stroke-width="1px"></line><line x1="40" y1="0" x2="35" y2="0" style="visibility: inherit;" fill="rgb(0, 0, 0)" stroke="rgb(204, 204, 204)" stroke-width="1px"></line></g><g transform="translate(30, 0)"><text x="0" y="177" dx="0em" dy="0.3em" style="text-anchor: end; visibility: hidden; font-family: Roboto, sans-serif; font-size: 12px; font-weight: 200;" fill="rgb(33, 33, 33)" stroke="none" stroke-width="1px">0.1</text><text x="0" y="157.33333333333331" dx="0em" dy="0.3em" style="text-anchor: end; visibility: inherit; font-family: Roboto, sans-serif; font-size: 12px; font-weight: 200;" fill="rgb(33, 33, 33)" stroke="none" stroke-width="1px">0.2</text><text x="0" y="137.66666666666666" dx="0em" dy="0.3em" style="text-anchor: end; visibility: hidden; font-family: Roboto, sans-serif; font-size: 12px; font-weight: 200;" fill="rgb(33, 33, 33)" stroke="none" stroke-width="1px">0.3</text><text x="0" y="118" dx="0em" dy="0.3em" style="text-anchor: end; visibility: inherit; font-family: Roboto, sans-serif; font-size: 12px; font-weight: 200;" fill="rgb(33, 33, 33)" stroke="none" stroke-width="1px">0.4</text><text x="0" y="98.33333333333334" dx="0em" dy="0.3em" style="text-anchor: end; visibility: hidden; font-family: Roboto, sans-serif; font-size: 12px; font-weight: 200;" fill="rgb(33, 33, 33)" stroke="none" stroke-width="1px">0.5</text><text x="0" y="78.66666666666666" dx="0em" dy="0.3em" style="text-anchor: end; visibility: inherit; font-family: Roboto, sans-serif; font-size: 12px; font-weight: 200;" fill="rgb(33, 33, 33)" stroke="none" stroke-width="1px">0.6</text><text x="0" y="59.00000000000001" dx="0em" dy="0.3em" style="text-anchor: end; visibility: hidden; font-family: Roboto, sans-serif; font-size: 12px; font-weight: 200;" fill="rgb(33, 33, 33)" stroke="none" stroke-width="1px">0.7</text><text x="0" y="39.33333333333333" dx="0em" dy="0.3em" style="text-anchor: end; visibility: inherit; font-family: Roboto, sans-serif; font-size: 12px; font-weight: 200;" fill="rgb(33, 33, 33)" stroke="none" stroke-width="1px">0.8</text><text x="0" y="19.666666666666657" dx="0em" dy="0.3em" style="text-anchor: end; visibility: hidden; font-family: Roboto, sans-serif; font-size: 12px; font-weight: 200;" fill="rgb(33, 33, 33)" stroke="none" stroke-width="1px">0.9</text><text x="0" y="0" dx="0em" dy="0.3em" style="text-anchor: end; visibility: hidden; font-family: Roboto, sans-serif; font-size: 12px; font-weight: 200;" fill="rgb(33, 33, 33)" stroke="none" stroke-width="1px">1</text></g><line x1="40" y1="0" x2="40" y2="177" fill="rgb(0, 0, 0)" stroke="rgb(204, 204, 204)" stroke-width="1px"></line></g></g><g transform="translate(40, 0)" clip-path="url(#clip_0)"><clipPath id="clip_0"><rect width="290" height="177"></rect></clipPath><g><g><g><line x1="0" y1="0" x2="0" y2="177" fill="rgb(0, 0, 0)" stroke="rgb(66, 66, 66)" stroke-width="1px" opacity="0.25"></line><line x1="24.166666666666664" y1="0" x2="24.166666666666664" y2="177" fill="rgb(0, 0, 0)" stroke="rgb(66, 66, 66)" stroke-width="1px" opacity="0.25"></line><line x1="48.33333333333333" y1="0" x2="48.33333333333333" y2="177" fill="rgb(0, 0, 0)" stroke="rgb(66, 66, 66)" stroke-width="1px" opacity="0.25"></line><line x1="72.5" y1="0" x2="72.5" y2="177" fill="rgb(0, 0, 0)" stroke="rgb(66, 66, 66)" stroke-width="1px" opacity="0.25"></line><line x1="96.66666666666666" y1="0" x2="96.66666666666666" y2="177" fill="rgb(0, 0, 0)" stroke="rgb(66, 66, 66)" stroke-width="1px" opacity="0.25"></line><line x1="120.83333333333334" y1="0" x2="120.83333333333334" y2="177" fill="rgb(0, 0, 0)" stroke="rgb(66, 66, 66)" stroke-width="1px" opacity="0.25"></line><line x1="145" y1="0" x2="145" y2="177" fill="rgb(0, 0, 0)" stroke="rgb(66, 66, 66)" stroke-width="1px" opacity="0.25"></line><line x1="169.16666666666669" y1="0" x2="169.16666666666669" y2="177" fill="rgb(0, 0, 0)" stroke="rgb(66, 66, 66)" stroke-width="1px" opacity="0.25"></line><line x1="193.33333333333331" y1="0" x2="193.33333333333331" y2="177" fill="rgb(0, 0, 0)" stroke="rgb(66, 66, 66)" stroke-width="1px" opacity="0.25"></line><line x1="217.5" y1="0" x2="217.5" y2="177" fill="rgb(0, 0, 0)" stroke="rgb(66, 66, 66)" stroke-width="1px" opacity="0.25"></line><line x1="241.66666666666669" y1="0" x2="241.66666666666669" y2="177" fill="rgb(0, 0, 0)" stroke="rgb(66, 66, 66)" stroke-width="1px" opacity="0.25"></line><line x1="265.8333333333333" y1="0" x2="265.8333333333333" y2="177" fill="rgb(0, 0, 0)" stroke="rgb(66, 66, 66)" stroke-width="1px" opacity="0.25"></line><line x1="290" y1="0" x2="290" y2="177" fill="rgb(0, 0, 0)" stroke="rgb(66, 66, 66)" stroke-width="1px" opacity="0.25"></line></g><g><line x1="0" y1="177" x2="290" y2="177" fill="rgb(0, 0, 0)" stroke="rgb(66, 66, 66)" stroke-width="1px" opacity="0.25"></line><line x1="0" y1="157.33333333333331" x2="290" y2="157.33333333333331" fill="rgb(0, 0, 0)" stroke="rgb(66, 66, 66)" stroke-width="1px" opacity="0.25"></line><line x1="0" y1="137.66666666666666" x2="290" y2="137.66666666666666" fill="rgb(0, 0, 0)" stroke="rgb(66, 66, 66)" stroke-width="1px" opacity="0.25"></line><line x1="0" y1="118" x2="290" y2="118" fill="rgb(0, 0, 0)" stroke="rgb(66, 66, 66)" stroke-width="1px" opacity="0.25"></line><line x1="0" y1="98.33333333333334" x2="290" y2="98.33333333333334" fill="rgb(0, 0, 0)" stroke="rgb(66, 66, 66)" stroke-width="1px" opacity="0.25"></line><line x1="0" y1="78.66666666666666" x2="290" y2="78.66666666666666" fill="rgb(0, 0, 0)" stroke="rgb(66, 66, 66)" stroke-width="1px" opacity="0.25"></line><line x1="0" y1="59.00000000000001" x2="290" y2="59.00000000000001" fill="rgb(0, 0, 0)" stroke="rgb(66, 66, 66)" stroke-width="1px" opacity="0.25"></line><line x1="0" y1="39.33333333333333" x2="290" y2="39.33333333333333" fill="rgb(0, 0, 0)" stroke="rgb(66, 66, 66)" stroke-width="1px" opacity="0.25"></line><line x1="0" y1="19.666666666666657" x2="290" y2="19.666666666666657" fill="rgb(0, 0, 0)" stroke="rgb(66, 66, 66)" stroke-width="1px" opacity="0.25"></line><line x1="0" y1="0" x2="290" y2="0" fill="rgb(0, 0, 0)" stroke="rgb(66, 66, 66)" stroke-width="1px" opacity="0.25"></line></g></g></g><g><g><line x1="0" y1="196.66666666666669" x2="290" y2="196.66666666666669" fill="rgb(0, 0, 0)" stroke="rgb(153, 153, 153)" stroke-width="1.5px"></line></g></g><g><g><line x1="24.166666666666664" y1="0" x2="24.166666666666664" y2="177" fill="rgb(0, 0, 0)" stroke="rgb(153, 153, 153)" stroke-width="1.5px"></line></g></g><g><g><g><g><g><path stroke="rgb(51, 187, 238)" stroke-width="2px" d="M25.375,177.472000370423L26.583333333333332,136.40799979368848L27.791666666666668,62.46133565902711L29,57.112005551656075L30.208333333333336,45.94133734703064L31.416666666666668,41.69333577156066L32.625,39.33334271113079L33.833333333333336,37.28799819946289L35.041666666666664,37.76000618934631L36.25,36.34400566418965L37.458333333333336,30.994675556818645L38.666666666666664,30.365343292554225L39.875,28.47733477751414L41.083333333333336,29.735999306042988L42.29166666666667,28.16267450650533L43.5,26.274665991465245L44.708333333333336,25.173337459564216L45.916666666666664,24.858665466308587L47.125,23.91467293103535L48.33333333333333,27.37600624561309L49.541666666666664,23.285340666770928L50.75,23.442676663398743L51.958333333333336,22.341336409250896L53.166666666666664,20.92533588409424L54.375,21.082671880722053L55.583333333333336,20.45333961645763L56.791666666666664,18.880003094673157L58,19.981343348821003L59.208333333333336,18.880003094673157L60.41666666666667,19.50933535893758L61.625,17.935998837153125L62.833333333333336,18.408006827036548L64.04166666666667,18.722667098045342L65.25,19.82400735219319L66.45833333333333,18.880003094673157L67.66666666666667,16.99200630187989L68.875,17.4640025695165L70.08333333333333,18.56534282366434L71.29166666666666,18.880003094673157L72.5,16.52001003424326L73.70833333333333,19.351999362309765L74.91666666666667,18.56534282366434L76.125,17.935998837153125L77.33333333333333,15.104009509086602L78.54166666666666,16.048002044359837L79.75,14.317341248194385L80.95833333333333,16.52001003424326L82.16666666666667,16.834670305252075L83.375,16.048002044359837L84.58333333333334,16.20533804098765L85.79166666666667,16.67733430862426L87,16.362674037615466L88.20833333333333,14.946673512458808L89.41666666666667,16.048002044359837L90.625,15.733341773351025L91.83333333333333,17.4640025695165L93.04166666666667,15.890666047732044L94.25,14.946673512458808L95.45833333333333,16.52001003424326L96.66666666666666,16.362674037615466L97.875,16.362674037615466L99.08333333333333,14.946673512458808L100.29166666666667,15.261333783467602L101.5,14.632001519203179L102.70833333333334,14.789337515830994L103.91666666666667,14.632001519203179L105.125,14.317341248194385L106.33333333333333,15.890666047732044L107.54166666666667,15.418669780095415L108.75,14.789337515830994L109.95833333333333,15.890666047732044L111.16666666666667,15.57600577672323L112.375,15.261333783467602L113.58333333333333,15.261333783467602L114.79166666666666,14.946673512458808L116,15.261333783467602L117.20833333333333,15.890666047732044L118.41666666666667,16.048002044359837L119.625,14.789337515830994L120.83333333333334,16.048002044359837L122.04166666666667,14.632001519203179L123.25,16.67733430862426L124.45833333333333,15.890666047732044L125.66666666666667,14.632001519203179L126.875,14.160005251566572L128.08333333333334,14.632001519203179L129.29166666666669,14.474665522575386L130.5,14.317341248194385L131.70833333333334,14.002669254938757L132.91666666666666,13.373336990674334L134.125,14.317341248194385L135.33333333333334,14.317341248194385L136.54166666666666,14.160005251566572L137.75,14.002669254938757L138.95833333333334,13.845333258310962L140.16666666666666,14.002669254938757L141.375,13.21600099404652L142.58333333333331,14.317341248194385L143.79166666666666,15.261333783467602L145,14.317341248194385L146.20833333333334,15.261333783467602L147.41666666666666,14.789337515830994L148.625,14.317341248194385L149.83333333333334,13.530672987302149L151.04166666666669,14.160005251566572L152.25,14.474665522575386L153.45833333333334,13.05867671966552L154.66666666666666,13.05867671966552L155.875,14.002669254938757L157.08333333333331,14.160005251566572L158.29166666666666,13.688008983929944L159.5,13.845333258310962L160.70833333333334,14.946673512458808L161.91666666666666,14.789337515830994L163.125,14.002669254938757L164.33333333333334,13.530672987302149L165.54166666666666,14.160005251566572L166.75,13.688008983929944L167.95833333333334,13.845333258310962L169.16666666666669,14.632001519203179L170.375,14.317341248194385L171.58333333333334,14.632001519203179L172.79166666666666,14.946673512458808L174,14.789337515830994L175.20833333333331,15.261333783467602L176.41666666666666,15.733341773351025L177.625,14.317341248194385L178.83333333333334,13.845333258310962L180.04166666666666,15.890666047732044L181.25,13.688008983929944L182.45833333333334,15.104009509086602L183.66666666666666,13.688008983929944L184.875,14.317341248194385L186.08333333333334,15.418669780095415L187.29166666666669,14.789337515830994L188.5,14.474665522575386L189.70833333333334,14.317341248194385L190.91666666666666,14.317341248194385L192.125,14.946673512458808L193.33333333333331,15.57600577672323L194.54166666666666,15.418669780095415L195.75,15.890666047732044L196.95833333333334,14.946673512458808L198.16666666666666,15.733341773351025L199.375,15.418669780095415L200.58333333333334,15.104009509086602L201.79166666666666,14.946673512458808L203,15.418669780095415L204.20833333333334,14.317341248194385L205.41666666666669,14.160005251566572L206.625,16.20533804098765L207.83333333333334,14.474665522575386L209.04166666666666,14.474665522575386L210.25,14.632001519203179L211.45833333333331,14.160005251566572L212.66666666666666,14.632001519203179L213.875,14.317341248194385L215.08333333333334,14.160005251566572L216.29166666666666,14.002669254938757L217.5,14.789337515830994L218.70833333333334,15.57600577672323L219.91666666666666,14.632001519203179L221.125,14.474665522575386L222.33333333333334,14.317341248194385L223.54166666666669,14.317341248194385L224.75,14.160005251566572L225.95833333333334,14.632001519203179L227.16666666666666,13.845333258310962L228.375,14.632001519203179L229.58333333333331,13.688008983929944L230.79166666666666,13.688008983929944L232,13.845333258310962L233.20833333333334,15.261333783467602L234.41666666666666,14.632001519203179L235.625,14.632001519203179L236.83333333333334,14.946673512458808L238.04166666666666,14.789337515830994L239.25,13.688008983929944L240.45833333333334,13.688008983929944L241.66666666666669,13.845333258310962L242.875,13.530672987302149L244.08333333333334,13.845333258310962L245.29166666666666,13.845333258310962L246.5,13.05867671966552L247.70833333333331,13.688008983929944L248.91666666666666,13.21600099404652L250.125,13.21600099404652L251.33333333333334,13.21600099404652L252.54166666666666,13.845333258310962L253.75,13.530672987302149L254.95833333333334,12.901340723037727L256.1666666666667,13.373336990674334L257.375,12.744004726409912L258.58333333333337,13.530672987302149L259.7916666666667,13.05867671966552L261,13.845333258310962L262.2083333333333,14.317341248194385L263.4166666666667,13.373336990674334L264.625,14.317341248194385L265.8333333333333,14.946673512458808" style="fill: none;" fill="none"></path></g><g><path stroke="rgb(238, 51, 119)" stroke-width="2px" d="M25.375,175.89866677920023L26.583333333333332,178.73066782951355L32.625,177.472000370423L33.833333333333336,174.48266771932444L35.041666666666664,167.2453334927559L36.25,168.03200175364813L37.458333333333336,173.69600092371303L38.666666666666664,173.69600092371303L39.875,170.54933374126753L41.083333333333336,171.02133293946582L42.29166666666667,164.7280015051365L43.5,146.00533733765283L44.708333333333336,150.25333305199942L45.916666666666664,158.1200010081132L47.125,151.9839997092883L48.33333333333333,165.51466683546704L49.541666666666664,163.78400017817816L50.75,157.64800180991492L51.958333333333336,160.63733299573263L53.166666666666664,164.88533457120258L54.375,162.36799965302149L55.583333333333336,157.4906687438488L56.791666666666664,148.52266932527226L58,167.2453334927559L59.208333333333336,157.96266794204712L60.41666666666667,161.26666819055876L61.625,156.23200128475824L62.833333333333336,154.6586676935355L64.04166666666667,160.95200205842653L65.25,157.3333356777827L66.45833333333333,168.18933481971425L67.66666666666667,166.77333429455757L68.875,156.38933435082436L70.08333333333333,158.74933327237767L71.29166666666666,143.80266855160397L72.5,156.38933435082436L73.70833333333333,157.3333356777827L74.91666666666667,146.00533733765283L76.125,148.36533332864443L77.33333333333333,157.805334875981L78.54166666666666,158.27733407417932L79.75,162.8400017817815L80.95833333333333,146.94933573404947L82.16666666666667,141.12800349791843L83.375,146.94933573404947L84.58333333333334,154.18666849533716L85.79166666666667,137.3520040512085L87,144.27467068036398L88.20833333333333,151.04000131289163L89.41666666666667,157.0186666150888L90.625,145.0613330801328L91.83333333333333,155.2879999577999L93.04166666666667,154.18666849533716L94.25,149.15200158953667L95.45833333333333,153.24266716837883L96.66666666666666,157.0186666150888L97.875,148.05066719651222L99.08333333333333,148.99466852347055L100.29166666666667,147.5786679983139L101.5,142.5440040230751L102.70833333333334,146.79199973742166L103.91666666666667,153.55733330051103L105.125,144.43200081586838L106.33333333333333,156.38933435082436L107.54166666666667,153.08533410231271L108.75,155.1306668917338L109.95833333333333,151.04000131289163L111.16666666666667,142.3866680264473L112.375,148.20800026257834L113.58333333333333,140.026669104894L114.79166666666666,151.19733437895775L116,147.89333413044614L117.20833333333333,142.7013341585795L118.41666666666667,152.7706679701805L119.625,147.89333413044614L120.83333333333334,141.91466589768726L122.04166666666667,142.7013341585795L123.25,153.08533410231271L124.45833333333333,150.41066904862723L125.66666666666667,153.87200236320496L126.875,155.445333023866L128.08333333333334,148.99466852347055L129.29166666666669,150.41066904862723L130.5,154.34400156140327L131.70833333333334,152.4560018380483L132.91666666666666,152.7706679701805L134.125,154.6586676935355L135.33333333333334,156.38933435082436L136.54166666666666,154.18666849533716L137.75,158.43466714024544L138.95833333333334,160.0080007314682L140.16666666666666,163.46933404604596L141.375,157.64800180991492L142.58333333333331,157.64800180991492L143.79166666666666,155.445333023866L145,157.17599968115488L146.20833333333334,160.95200205842653L147.41666666666666,163.94133324424425L148.625,158.90666633844376L149.83333333333334,160.7946689923604L151.04166666666669,163.46933404604596L152.25,164.4133353730043L153.45833333333334,167.55999962488812L154.66666666666666,168.66133401791254L155.875,163.62666711211205L157.08333333333331,162.8400017817815L158.29166666666666,164.4133353730043L159.5,165.82933296759924L160.70833333333334,167.2453334927559L161.91666666666666,153.71466636657715L163.125,156.86133354902267L164.33333333333334,160.7946689923604L165.54166666666666,160.47999992966652L166.75,155.2879999577999L167.95833333333334,163.46933404604596L169.16666666666669,166.45866816242537L170.375,168.97600015004474L171.58333333333334,164.09866631031036L172.79166666666666,165.51466683546704L174,167.87466868758202L175.20833333333331,164.4133353730043L176.41666666666666,160.3226668636004L177.625,160.0080007314682L178.83333333333334,166.77333429455757L180.04166666666666,164.7280015051365L181.25,164.88533457120258L182.45833333333334,160.7946689923604L183.66666666666666,162.8400017817815L184.875,163.31200097997984L186.08333333333334,162.5253356496493L187.29166666666669,164.57066843907037L188.5,162.05333352088928L189.70833333333334,159.22133540113768L190.91666666666666,164.25599937637645L192.125,166.61600122849146L193.33333333333331,169.60533534487087L194.54166666666666,165.0426676372687L195.75,161.42400125662488L196.95833333333334,164.09866631031036L198.16666666666666,165.2000007033348L199.375,166.61600122849146L200.58333333333334,170.0773345430692L201.79166666666666,166.30133509635925L203,166.61600122849146L204.20833333333334,163.15466791391373L205.41666666666669,162.8400017817815L206.625,163.46933404604596L207.83333333333334,161.42400125662488L209.04166666666666,162.8400017817815L210.25,168.66133401791254L211.45833333333331,166.77333429455757L212.66666666666666,166.61600122849146L213.875,166.30133509635925L215.08333333333334,165.51466683546704L216.29166666666666,169.76266841093698L217.5,166.14400203029317L218.70833333333334,163.31200097997984L219.91666666666666,164.7280015051365L221.125,164.57066843907037L222.33333333333334,167.402666558822L223.54166666666669,168.03200175364813L224.75,165.35733376940092L225.95833333333334,165.2000007033348L227.16666666666666,164.4133353730043L228.375,161.58133432269096L229.58333333333331,163.62666711211205L230.79166666666666,163.94133324424425L232,163.31200097997984L233.20833333333334,162.36799965302149L234.41666666666666,162.21066658695537L235.625,160.3226668636004L236.83333333333334,161.10933512449265L238.04166666666666,160.3226668636004L239.25,160.3226668636004L240.45833333333334,157.96266794204712L241.66666666666669,156.86133354902267L242.875,162.8400017817815L244.08333333333334,164.4133353730043L245.29166666666666,162.8400017817815L246.5,162.36799965302149L247.70833333333331,163.78400017817816L248.91666666666666,161.10933512449265L250.125,160.63733299573263L251.33333333333334,156.23200128475824L252.54166666666666,160.95200205842653L253.75,160.47999992966652L254.95833333333334,159.53600153326988L256.1666666666667,158.1200010081132L257.375,161.26666819055876L258.58333333333337,161.89600045482317L259.7916666666667,162.9973348478476L261,161.58133432269096L262.2083333333333,163.62666711211205L263.4166666666667,163.31200097997984L264.625,162.05333352088928L265.8333333333333,165.67199990153313" style="fill: none;" fill="none"></path></g></g></g></g></g></g><g transform="translate(40, 177)" clip-path="url(#clip_1)"><clipPath id="clip_1"><rect width="290" height="23"></rect></clipPath><g><g><line x1="0" y1="0" x2="0" y2="5" style="visibility: inherit;" fill="rgb(0, 0, 0)" stroke="rgb(204, 204, 204)" stroke-width="1px"></line><line x1="24.166666666666664" y1="0" x2="24.166666666666664" y2="5" style="visibility: inherit;" fill="rgb(0, 0, 0)" stroke="rgb(204, 204, 204)" stroke-width="1px"></line><line x1="48.33333333333333" y1="0" x2="48.33333333333333" y2="5" style="visibility: inherit;" fill="rgb(0, 0, 0)" stroke="rgb(204, 204, 204)" stroke-width="1px"></line><line x1="72.5" y1="0" x2="72.5" y2="5" style="visibility: inherit;" fill="rgb(0, 0, 0)" stroke="rgb(204, 204, 204)" stroke-width="1px"></line><line x1="96.66666666666666" y1="0" x2="96.66666666666666" y2="5" style="visibility: inherit;" fill="rgb(0, 0, 0)" stroke="rgb(204, 204, 204)" stroke-width="1px"></line><line x1="120.83333333333334" y1="0" x2="120.83333333333334" y2="5" style="visibility: inherit;" fill="rgb(0, 0, 0)" stroke="rgb(204, 204, 204)" stroke-width="1px"></line><line x1="145" y1="0" x2="145" y2="5" style="visibility: inherit;" fill="rgb(0, 0, 0)" stroke="rgb(204, 204, 204)" stroke-width="1px"></line><line x1="169.16666666666669" y1="0" x2="169.16666666666669" y2="5" style="visibility: inherit;" fill="rgb(0, 0, 0)" stroke="rgb(204, 204, 204)" stroke-width="1px"></line><line x1="193.33333333333331" y1="0" x2="193.33333333333331" y2="5" style="visibility: inherit;" fill="rgb(0, 0, 0)" stroke="rgb(204, 204, 204)" stroke-width="1px"></line><line x1="217.5" y1="0" x2="217.5" y2="5" style="visibility: inherit;" fill="rgb(0, 0, 0)" stroke="rgb(204, 204, 204)" stroke-width="1px"></line><line x1="241.66666666666669" y1="0" x2="241.66666666666669" y2="5" style="visibility: inherit;" fill="rgb(0, 0, 0)" stroke="rgb(204, 204, 204)" stroke-width="1px"></line><line x1="265.8333333333333" y1="0" x2="265.8333333333333" y2="5" style="visibility: inherit;" fill="rgb(0, 0, 0)" stroke="rgb(204, 204, 204)" stroke-width="1px"></line><line x1="290" y1="0" x2="290" y2="5" style="visibility: inherit;" fill="rgb(0, 0, 0)" stroke="rgb(204, 204, 204)" stroke-width="1px"></line></g><g transform="translate(0, 8)"><text x="0" y="0" dx="0em" dy="0.95em" style="text-anchor: middle; visibility: hidden; font-family: Roboto, sans-serif; font-size: 12px; font-weight: 200;" fill="rgb(33, 33, 33)" stroke="none" stroke-width="1px">-20</text><text x="24.166666666666664" y="0" dx="0em" dy="0.95em" style="text-anchor: middle; visibility: inherit; font-family: Roboto, sans-serif; font-size: 12px; font-weight: 200;" fill="rgb(33, 33, 33)" stroke="none" stroke-width="1px">0</text><text x="48.33333333333333" y="0" dx="0em" dy="0.95em" style="text-anchor: middle; visibility: hidden; font-family: Roboto, sans-serif; font-size: 12px; font-weight: 200;" fill="rgb(33, 33, 33)" stroke="none" stroke-width="1px">20</text><text x="72.5" y="0" dx="0em" dy="0.95em" style="text-anchor: middle; visibility: inherit; font-family: Roboto, sans-serif; font-size: 12px; font-weight: 200;" fill="rgb(33, 33, 33)" stroke="none" stroke-width="1px">40</text><text x="96.66666666666666" y="0" dx="0em" dy="0.95em" style="text-anchor: middle; visibility: hidden; font-family: Roboto, sans-serif; font-size: 12px; font-weight: 200;" fill="rgb(33, 33, 33)" stroke="none" stroke-width="1px">60</text><text x="120.83333333333334" y="0" dx="0em" dy="0.95em" style="text-anchor: middle; visibility: inherit; font-family: Roboto, sans-serif; font-size: 12px; font-weight: 200;" fill="rgb(33, 33, 33)" stroke="none" stroke-width="1px">80</text><text x="145" y="0" dx="0em" dy="0.95em" style="text-anchor: middle; visibility: hidden; font-family: Roboto, sans-serif; font-size: 12px; font-weight: 200;" fill="rgb(33, 33, 33)" stroke="none" stroke-width="1px">100</text><text x="169.16666666666669" y="0" dx="0em" dy="0.95em" style="text-anchor: middle; visibility: inherit; font-family: Roboto, sans-serif; font-size: 12px; font-weight: 200;" fill="rgb(33, 33, 33)" stroke="none" stroke-width="1px">120</text><text x="193.33333333333331" y="0" dx="0em" dy="0.95em" style="text-anchor: middle; visibility: hidden; font-family: Roboto, sans-serif; font-size: 12px; font-weight: 200;" fill="rgb(33, 33, 33)" stroke="none" stroke-width="1px">140</text><text x="217.5" y="0" dx="0em" dy="0.95em" style="text-anchor: middle; visibility: inherit; font-family: Roboto, sans-serif; font-size: 12px; font-weight: 200;" fill="rgb(33, 33, 33)" stroke="none" stroke-width="1px">160</text><text x="241.66666666666669" y="0" dx="0em" dy="0.95em" style="text-anchor: middle; visibility: hidden; font-family: Roboto, sans-serif; font-size: 12px; font-weight: 200;" fill="rgb(33, 33, 33)" stroke="none" stroke-width="1px">180</text><text x="265.8333333333333" y="0" dx="0em" dy="0.95em" style="text-anchor: middle; visibility: inherit; font-family: Roboto, sans-serif; font-size: 12px; font-weight: 200;" fill="rgb(33, 33, 33)" stroke="none" stroke-width="1px">200</text><text x="290" y="0" dx="0em" dy="0.95em" style="text-anchor: middle; visibility: hidden; font-family: Roboto, sans-serif; font-size: 12px; font-weight: 200;" fill="rgb(33, 33, 33)" stroke="none" stroke-width="1px">220</text></g><line x1="0" y1="0" x2="290" y2="0" fill="rgb(0, 0, 0)" stroke="rgb(204, 204, 204)" stroke-width="1px"></line></g></g></g></g></svg>