<svg viewBox="0 0 330 200" xmlns="http://www.w3.org/2000/svg"><g><g><g><g><g><line x1="50" y1="177" x2="45" y2="177" style="visibility: inherit;" fill="rgb(0, 0, 0)" stroke="rgb(204, 204, 204)" stroke-width="1px"></line><line x1="50" y1="159.3" x2="45" y2="159.3" style="visibility: inherit;" fill="rgb(0, 0, 0)" stroke="rgb(204, 204, 204)" stroke-width="1px"></line><line x1="50" y1="141.6" x2="45" y2="141.6" style="visibility: inherit;" fill="rgb(0, 0, 0)" stroke="rgb(204, 204, 204)" stroke-width="1px"></line><line x1="50" y1="123.89999999999999" x2="45" y2="123.89999999999999" style="visibility: inherit;" fill="rgb(0, 0, 0)" stroke="rgb(204, 204, 204)" stroke-width="1px"></line><line x1="50" y1="106.2" x2="45" y2="106.2" style="visibility: inherit;" fill="rgb(0, 0, 0)" stroke="rgb(204, 204, 204)" stroke-width="1px"></line><line x1="50" y1="88.5" x2="45" y2="88.5" style="visibility: inherit;" fill="rgb(0, 0, 0)" stroke="rgb(204, 204, 204)" stroke-width="1px"></line><line x1="50" y1="70.8" x2="45" y2="70.8" style="visibility: inherit;" fill="rgb(0, 0, 0)" stroke="rgb(204, 204, 204)" stroke-width="1px"></line><line x1="50" y1="53.10000000000001" x2="45" y2="53.10000000000001" style="visibility: inherit;" fill="rgb(0, 0, 0)" stroke="rgb(204, 204, 204)" stroke-width="1px"></line><line x1="50" y1="35.40000000000001" x2="45" y2="35.40000000000001" style="visibility: inherit;" fill="rgb(0, 0, 0)" stroke="rgb(204, 204, 204)" stroke-width="1px"></line><line x1="50" y1="17.699999999999996" x2="45" y2="17.699999999999996" style="visibility: inherit;" fill="rgb(0, 0, 0)" stroke="rgb(204, 204, 204)" stroke-width="1px"></line><line x1="50" y1="0" x2="45" y2="0" style="visibility: inherit;" fill="rgb(0, 0, 0)" stroke="rgb(204, 204, 204)" stroke-width="1px"></line></g><g transform="translate(40, 0)"><text x="0" y="177" dx="0em" dy="0.3em" style="text-anchor: end; visibility: hidden; font-family: Roboto, sans-serif; font-size: 12px; font-weight: 200;" fill="rgb(33, 33, 33)" stroke="none" stroke-width="1px">-0.1</text><text x="0" y="159.3" dx="0em" dy="0.3em" style="text-anchor: end; visibility: inherit; font-family: Roboto, sans-serif; font-size: 12px; font-weight: 200;" fill="rgb(33, 33, 33)" stroke="none" stroke-width="1px">0</text><text x="0" y="141.6" dx="0em" dy="0.3em" style="text-anchor: end; visibility: hidden; font-family: Roboto, sans-serif; font-size: 12px; font-weight: 200;" fill="rgb(33, 33, 33)" stroke="none" stroke-width="1px">0.1</text><text x="0" y="123.89999999999999" dx="0em" dy="0.3em" style="text-anchor: end; visibility: inherit; font-family: Roboto, sans-serif; font-size: 12px; font-weight: 200;" fill="rgb(33, 33, 33)" stroke="none" stroke-width="1px">0.2</text><text x="0" y="106.2" dx="0em" dy="0.3em" style="text-anchor: end; visibility: hidden; font-family: Roboto, sans-serif; font-size: 12px; font-weight: 200;" fill="rgb(33, 33, 33)" stroke="none" stroke-width="1px">0.3</text><text x="0" y="88.5" dx="0em" dy="0.3em" style="text-anchor: end; visibility: inherit; font-family: Roboto, sans-serif; font-size: 12px; font-weight: 200;" fill="rgb(33, 33, 33)" stroke="none" stroke-width="1px">0.4</text><text x="0" y="70.8" dx="0em" dy="0.3em" style="text-anchor: end; visibility: hidden; font-family: Roboto, sans-serif; font-size: 12px; font-weight: 200;" fill="rgb(33, 33, 33)" stroke="none" stroke-width="1px">0.5</text><text x="0" y="53.10000000000001" dx="0em" dy="0.3em" style="text-anchor: end; visibility: inherit; font-family: Roboto, sans-serif; font-size: 12px; font-weight: 200;" fill="rgb(33, 33, 33)" stroke="none" stroke-width="1px">0.6</text><text x="0" y="35.40000000000001" dx="0em" dy="0.3em" style="text-anchor: end; visibility: hidden; font-family: Roboto, sans-serif; font-size: 12px; font-weight: 200;" fill="rgb(33, 33, 33)" stroke="none" stroke-width="1px">0.7</text><text x="0" y="17.699999999999996" dx="0em" dy="0.3em" style="text-anchor: end; visibility: inherit; font-family: Roboto, sans-serif; font-size: 12px; font-weight: 200;" fill="rgb(33, 33, 33)" stroke="none" stroke-width="1px">0.8</text><text x="0" y="0" dx="0em" dy="0.3em" style="text-anchor: end; visibility: hidden; font-family: Roboto, sans-serif; font-size: 12px; font-weight: 200;" fill="rgb(33, 33, 33)" stroke="none" stroke-width="1px">0.9</text></g><line x1="50" y1="0" x2="50" y2="177" fill="rgb(0, 0, 0)" stroke="rgb(204, 204, 204)" stroke-width="1px"></line></g></g><g transform="translate(50, 0)" clip-path="url(#clip_0)"><clipPath id="clip_0"><rect width="280" height="177"></rect></clipPath><g><g><g><line x1="0" y1="0" x2="0" y2="177" fill="rgb(0, 0, 0)" stroke="rgb(66, 66, 66)" stroke-width="1px" opacity="0.25"></line><line x1="23.333333333333332" y1="0" x2="23.333333333333332" y2="177" fill="rgb(0, 0, 0)" stroke="rgb(66, 66, 66)" stroke-width="1px" opacity="0.25"></line><line x1="46.666666666666664" y1="0" x2="46.666666666666664" y2="177" fill="rgb(0, 0, 0)" stroke="rgb(66, 66, 66)" stroke-width="1px" opacity="0.25"></line><line x1="70" y1="0" x2="70" y2="177" fill="rgb(0, 0, 0)" stroke="rgb(66, 66, 66)" stroke-width="1px" opacity="0.25"></line><line x1="93.33333333333333" y1="0" x2="93.33333333333333" y2="177" fill="rgb(0, 0, 0)" stroke="rgb(66, 66, 66)" stroke-width="1px" opacity="0.25"></line><line x1="116.66666666666667" y1="0" x2="116.66666666666667" y2="177" fill="rgb(0, 0, 0)" stroke="rgb(66, 66, 66)" stroke-width="1px" opacity="0.25"></line><line x1="140" y1="0" x2="140" y2="177" fill="rgb(0, 0, 0)" stroke="rgb(66, 66, 66)" stroke-width="1px" opacity="0.25"></line><line x1="163.33333333333334" y1="0" x2="163.33333333333334" y2="177" fill="rgb(0, 0, 0)" stroke="rgb(66, 66, 66)" stroke-width="1px" opacity="0.25"></line><line x1="186.66666666666666" y1="0" x2="186.66666666666666" y2="177" fill="rgb(0, 0, 0)" stroke="rgb(66, 66, 66)" stroke-width="1px" opacity="0.25"></line><line x1="210" y1="0" x2="210" y2="177" fill="rgb(0, 0, 0)" stroke="rgb(66, 66, 66)" stroke-width="1px" opacity="0.25"></line><line x1="233.33333333333334" y1="0" x2="233.33333333333334" y2="177" fill="rgb(0, 0, 0)" stroke="rgb(66, 66, 66)" stroke-width="1px" opacity="0.25"></line><line x1="256.66666666666663" y1="0" x2="256.66666666666663" y2="177" fill="rgb(0, 0, 0)" stroke="rgb(66, 66, 66)" stroke-width="1px" opacity="0.25"></line><line x1="280" y1="0" x2="280" y2="177" fill="rgb(0, 0, 0)" stroke="rgb(66, 66, 66)" stroke-width="1px" opacity="0.25"></line></g><g><line x1="0" y1="177" x2="280" y2="177" fill="rgb(0, 0, 0)" stroke="rgb(66, 66, 66)" stroke-width="1px" opacity="0.25"></line><line x1="0" y1="159.3" x2="280" y2="159.3" fill="rgb(0, 0, 0)" stroke="rgb(66, 66, 66)" stroke-width="1px" opacity="0.25"></line><line x1="0" y1="141.6" x2="280" y2="141.6" fill="rgb(0, 0, 0)" stroke="rgb(66, 66, 66)" stroke-width="1px" opacity="0.25"></line><line x1="0" y1="123.89999999999999" x2="280" y2="123.89999999999999" fill="rgb(0, 0, 0)" stroke="rgb(66, 66, 66)" stroke-width="1px" opacity="0.25"></line><line x1="0" y1="106.2" x2="280" y2="106.2" fill="rgb(0, 0, 0)" stroke="rgb(66, 66, 66)" stroke-width="1px" opacity="0.25"></line><line x1="0" y1="88.5" x2="280" y2="88.5" fill="rgb(0, 0, 0)" stroke="rgb(66, 66, 66)" stroke-width="1px" opacity="0.25"></line><line x1="0" y1="70.8" x2="280" y2="70.8" fill="rgb(0, 0, 0)" stroke="rgb(66, 66, 66)" stroke-width="1px" opacity="0.25"></line><line x1="0" y1="53.10000000000001" x2="280" y2="53.10000000000001" fill="rgb(0, 0, 0)" stroke="rgb(66, 66, 66)" stroke-width="1px" opacity="0.25"></line><line x1="0" y1="35.40000000000001" x2="280" y2="35.40000000000001" fill="rgb(0, 0, 0)" stroke="rgb(66, 66, 66)" stroke-width="1px" opacity="0.25"></line><line x1="0" y1="17.699999999999996" x2="280" y2="17.699999999999996" fill="rgb(0, 0, 0)" stroke="rgb(66, 66, 66)" stroke-width="1px" opacity="0.25"></line><line x1="0" y1="0" x2="280" y2="0" fill="rgb(0, 0, 0)" stroke="rgb(66, 66, 66)" stroke-width="1px" opacity="0.25"></line></g></g></g><g><g><line x1="0" y1="159.3" x2="280" y2="159.3" fill="rgb(0, 0, 0)" stroke="rgb(153, 153, 153)" stroke-width="1.5px"></line></g></g><g><g><line x1="23.333333333333332" y1="0" x2="23.333333333333332" y2="177" fill="rgb(0, 0, 0)" stroke="rgb(153, 153, 153)" stroke-width="1.5px"></line></g></g><g><g><g><g><g><path stroke="rgb(51, 187, 238)" stroke-width="2px" d="M24.5,141.60000105500222L25.666666666666664,94.18170281052589L26.833333333333336,43.45349864959717L28,34.745098936557774L29.166666666666668,31.081202852725987L30.333333333333336,28.603203105926518L31.5,25.346400725841526L32.666666666666664,25.45260779857636L33.833333333333336,23.16930871009827L35,22.709106194972996L36.16666666666667,21.753305840492253L37.333333333333336,22.018807697296147L38.5,21.558605182170872L39.666666666666664,21.204599189758305L40.833333333333336,20.95680027008057L42,20.97450320720673L43.16666666666667,20.903702008724217L44.33333333333333,20.77980254888535L45.5,20.355005908012394L46.666666666666664,20.355005908012394L47.833333333333336,20.355005908012394L49,20.054108726978306L50.166666666666664,20.054108726978306L51.33333333333333,20.054108726978306L52.5,20.37269829511643L53.66666666666667,19.328404355049138L54.833333333333336,18.567304658889775L56,18.83280651569367L57.166666666666664,19.470006752014164L58.333333333333336,19.29299848079682L59.5,19.045199561119084L60.66666666666667,18.939003038406376L61.83333333333333,19.275306093692784L63,18.850498902797703L64.16666666666666,18.850498902797703L65.33333333333333,18.779708254337315L66.5,18.903607714176182L67.66666666666667,18.425702261924748L68.83333333333333,19.045199561119084L70,19.02750717401505L71.16666666666666,18.99210129976273L72.33333333333334,19.523105013370518L73.5,19.523105013370518L74.66666666666667,19.310701417922978L75.83333333333333,19.310701417922978L77,18.231001603603367L78.16666666666667,18.1071021437645L79.33333333333333,18.549601721763615L80.5,18.31950573921204L81.66666666666667,18.655808794498448L82.83333333333333,17.983202683925633L84,18.30180280208588L85.16666666666666,18.231001603603367L86.33333333333334,18.638105857372288L87.5,18.443405199050908L88.66666666666666,17.52300016880036L89.83333333333334,17.82390789985657L91,18.4788005232811L92.16666666666667,18.14250801801682L93.33333333333333,17.41680364608765L94.5,17.41680364608765L95.66666666666667,17.94780735969544L96.83333333333333,18.567304658889775L98,18.49650346040726L99.16666666666667,18.49650346040726L100.33333333333333,18.425702261924748L101.5,17.381408321857457L102.66666666666666,17.82390789985657L103.83333333333334,17.965499746799473L105,17.91240148544312L106.16666666666666,17.94780735969544L107.33333333333334,18.425702261924748L108.5,17.452198970317845L109.66666666666667,17.487604844570164L110.83333333333333,18.195606279373173L112,18.195606279373173L113.16666666666667,17.346002447605137L114.33333333333333,17.770799088478093L115.5,17.469901907444005L116.66666666666667,18.60269998311997L117.83333333333333,18.638105857372288L119,18.425702261924748L120.16666666666666,18.97439836263657L121.33333333333334,17.93010442256928L122.5,17.540703105926518L123.66666666666666,17.664602565765385L124.83333333333334,18.354901063442234L126,17.43450658321381L127.16666666666667,16.86810754537583L128.33333333333331,16.93890874385834L129.5,17.275201249122624L130.66666666666666,17.275201249122624L131.83333333333334,17.487604844570164L133,17.965499746799473L134.16666666666669,17.7354037642479L135.33333333333334,18.51420639753342L136.5,18.372604000568394L137.66666666666666,18.51420639753342L138.83333333333334,18.12480508089066L140,18.585007596015934L141.16666666666666,18.40799932479859L142.33333333333331,17.62920724153519L143.5,17.859303224086766L144.66666666666669,17.7354037642479L145.83333333333334,17.328299510478978L147,16.85040460824967L148.16666666666666,17.22210298776627L149.33333333333334,17.61150430440903L150.5,17.646899628639225L151.66666666666666,17.682305502891545L152.83333333333331,17.646899628639225L154,18.443405199050908L155.16666666666669,17.82390789985657L156.33333333333334,17.22210298776627L157.5,16.974304068088536L158.66666666666666,16.974304068088536L159.83333333333331,17.20440005064011L161,17.43450658321381L162.16666666666669,17.770799088478093L163.33333333333334,17.859303224086766L164.5,17.770799088478093L165.66666666666666,17.93010442256928L166.83333333333334,17.52300016880036L168,17.363705384731297L169.16666666666666,17.452198970317845L170.33333333333331,17.151301789283757L171.5,17.558406043052678L172.66666666666669,17.576098430156712L173.83333333333334,17.275201249122624L175,17.700008440017704L176.16666666666666,17.452198970317845L177.33333333333331,17.169004726409916L178.5,17.700008440017704L179.66666666666669,17.59380136728287L180.83333333333334,17.469901907444005L182,17.93010442256928L183.16666666666666,17.806204962730412L184.33333333333334,17.381408321857457L185.5,17.700008440017704L186.66666666666666,18.000905621051793L187.83333333333331,17.25750886201859L189,17.080500590801243L190.16666666666669,17.080500590801243L191.33333333333334,17.753106701374058L192.5,17.292904186248784L193.66666666666666,17.25750886201859L194.83333333333331,17.41680364608765L196,17.91240148544312L197.16666666666669,18.12480508089066L198.33333333333334,18.12480508089066L199.5,17.275201249122624L200.66666666666666,17.469901907444005L201.83333333333334,17.469901907444005L203,17.576098430156712L204.16666666666666,18.213298666477208L205.33333333333331,17.452198970317845L206.5,17.39910070896149L207.66666666666669,17.169004726409916L208.83333333333334,18.14250801801682L210,18.14250801801682L211.16666666666666,18.14250801801682L212.33333333333331,17.540703105926518L213.5,18.31950573921204L214.66666666666669,17.91240148544312L215.83333333333334,17.841600286960606L217,17.753106701374058L218.16666666666666,17.859303224086766L219.33333333333334,17.576098430156712L220.5,17.71770082712174L221.66666666666666,18.054003882408146L222.83333333333331,18.054003882408146L224,17.292904186248784L225.16666666666669,17.23980592489243L226.33333333333334,18.266407477855687L227.5,18.655808794498448L228.66666666666666,18.850498902797703L229.83333333333331,18.49650346040726L231,17.753106701374058L232.16666666666669,17.487604844570164L233.33333333333334,18.018608558177952L234.5,17.469901907444005L235.66666666666666,17.505307781696324L236.83333333333334,17.93010442256928L238,17.62920724153519L239.16666666666666,18.08939920663834L240.33333333333331,18.425702261924748L241.5,17.52300016880036L242.66666666666669,18.036300945281987L243.83333333333334,18.036300945281987L245,17.770799088478093L246.16666666666666,18.390306937694554L247.33333333333331,17.859303224086766L248.5,18.673501181602482L249.66666666666669,18.673501181602482L250.83333333333334,17.93010442256928L252,18.354901063442234L253.16666666666666,18.49650346040726L254.33333333333334,18.40799932479859L255.5,18.443405199050908L256.66666666666663,17.93010442256928" style="fill: none;" fill="none"></path></g><g><path stroke="rgb(238, 51, 119)" stroke-width="2px" d="M24.5,159.3L25.666666666666664,159.3L26.833333333333336,157.193700116314L28,156.52110010497273L29.166666666666668,154.5918000854552L30.333333333333336,155.45910026058556L31.5,152.66250039562584L32.666666666666664,153.90150026902558L33.833333333333336,151.93679997995497L35,151.6182005211711L36.16666666666667,154.73340017460288L37.333333333333336,156.07860019728543L38.5,150.20220028907062L39.666666666666664,147.24630036503078L40.833333333333336,141.70620021522046L42,150.9810002848506L43.16666666666667,154.73340017460288L44.33333333333333,150.60929992720486L45.5,147.61800006330014L46.666666666666664,147.61800006330014L47.833333333333336,144.20190026164056L49,144.73290001899005L50.166666666666664,144.73290001899005L51.33333333333333,144.73290001899005L52.5,142.59120068997146L53.66666666666667,148.85699993669988L54.833333333333336,152.99880015403033L56,153.52979991137983L57.166666666666664,152.02530015930535L58.333333333333336,148.538400477916L59.5,152.9810998544097L60.66666666666667,151.77749992087485L61.83333333333333,148.6800002373755L63,152.07840039879085L64.16666666666666,152.07840039879085L65.33333333333333,148.2375L66.5,144.7683006182313L67.66666666666667,151.2288005232811L68.83333333333333,150.36150034815074L70,152.94569991454483L71.16666666666666,151.60050022155048L72.33333333333334,148.6800002373755L73.5,148.6800002373755L74.66666666666667,148.36140011921526L75.83333333333333,148.36140011921526L77,152.6802000358701L78.16666666666667,151.9545002795756L79.33333333333333,148.2906002394855L80.5,149.97210035026075L81.66666666666667,151.4235005222261L82.83333333333333,154.68030026480557L84,150.7332000464201L85.16666666666666,153.51210027113558L86.33333333333334,153.6714003302157L87.5,156.6981001339853L88.66666666666666,152.37930021733047L89.83333333333334,154.82190002426506L91,154.503300235793L92.16666666666667,154.29090026691557L93.33333333333333,153.79530011974276L94.5,153.79530011974276L95.66666666666667,156.04319992773236L96.83333333333333,155.19360005222262L98,152.00759985968472L99.16666666666667,152.00759985968472L100.33333333333333,150.25530052855612L101.5,153.93690020889045L102.66666666666666,150.52080040723087L103.83333333333334,149.61810029223562L105,144.0780008018017L106.16666666666666,152.13149997889997L107.33333333333334,153.90150026902558L108.5,155.1405001424253L109.66666666666667,154.6448999952525L110.83333333333333,154.13160020783545L112,154.13160020783545L113.16666666666667,154.73340017460288L114.33333333333333,154.73340017460288L115.5,152.87490003481508L116.66666666666667,153.0342000938952L117.83333333333333,153.40590045154096L119,151.86600010022522L120.16666666666666,154.13160020783545L121.33333333333334,157.26449999604375L122.5,156.255600226298L123.66666666666666,155.671500229463L124.83333333333334,155.15820011235775L126,155.31750017143787L127.16666666666667,155.7246001392603L128.33333333333331,156.6450000593439L129.5,156.5034001350403L130.66666666666666,157.0875001318753L131.83333333333334,155.38830005116762L133,155.99010001793505L134.16666666666669,155.83079995885493L135.33333333333334,156.83970005828888L136.5,156.37950001582504L137.66666666666666,156.1140001371503L138.83333333333334,153.05190039351584L140,152.02530015930535L141.16666666666666,152.0961000390351L142.33333333333331,152.60940015614034L143.5,151.77749992087485L144.66666666666669,151.77749992087485L145.83333333333334,156.255600226298L147,153.60060045048596L148.16666666666666,154.99890005327762L149.33333333333334,157.01670008730144L150.5,155.99010001793505L151.66666666666666,155.76000007912518L152.83333333333331,153.1757998533547L154,154.698000234738L155.16666666666669,154.2024000875652L156.33333333333334,153.0342000938952L157.5,152.1492002785206L158.66666666666666,152.1492002785206L159.83333333333331,153.84840002954007L161,154.32630020678045L162.16666666666669,154.16700014770032L163.33333333333334,153.45900003165008L164.5,153.12270027324558L165.66666666666666,154.8395999941975L166.83333333333334,153.4767003312707L168,154.32630020678045L169.16666666666666,151.9545002795756L170.33333333333331,155.76000007912518L171.5,155.17590008229018L172.66666666666669,154.09620026797057L173.83333333333334,154.96350011341275L175,152.87490003481508L176.16666666666666,153.65370003059508L177.33333333333331,153.0873003333807L178.5,154.66259996518494L179.66666666666669,153.93690020889045L180.83333333333334,153.8130000896752L182,154.36170014664532L183.16666666666666,152.07840039879085L184.33333333333334,153.3704998522997L185.5,154.09620026797057L186.66666666666666,156.5034001350403L187.83333333333331,155.17590008229018L189,155.01660002321006L190.16666666666669,155.01660002321006L191.33333333333334,154.53870017565788L192.5,154.9458001434803L193.66666666666666,156.255600226298L194.83333333333331,154.2024000875652L196,155.44139996096493L197.16666666666669,155.3352001413703L198.33333333333334,155.3352001413703L199.5,153.0873003333807L200.66666666666666,153.4767003312707L201.83333333333334,153.4767003312707L203,153.60060045048596L204.16666666666666,152.7863998554647L205.33333333333331,153.63600039035083L206.5,154.52100020572544L207.66666666666669,152.37930021733047L208.83333333333334,155.8130999889225L210,155.8130999889225L211.16666666666666,155.8130999889225L212.33333333333331,155.40600002110006L213.5,154.6448999952525L214.66666666666669,154.41480005644263L215.83333333333334,153.79530011974276L217,153.24660039246083L218.16666666666666,153.8130000896752L219.33333333333334,154.73340017460288L220.5,154.66259996518494L221.66666666666666,151.28190010339023L222.83333333333331,151.28190010339023L224,154.34400017671288L225.16666666666669,154.07849996834994L226.33333333333334,153.35280021205546L227.5,154.503300235793L228.66666666666666,155.7246001392603L229.83333333333331,155.01660002321006L231,156.53880007490517L232.16666666666669,157.29990010075272L233.33333333333334,157.4768999649212L234.5,155.866200228408L235.66666666666666,154.698000234738L236.83333333333334,155.83079995885493L238,154.92810017354788L239.16666666666666,156.76890001371504L240.33333333333331,157.4415000250563L241.5,156.255600226298L242.66666666666669,154.75110014453531L243.83333333333334,154.75110014453531L245,154.82190002426506L246.16666666666666,154.113900237903L247.33333333333331,153.65370003059508L248.5,152.1492002785206L249.66666666666669,152.1492002785206L250.83333333333334,152.36159991770984L252,154.16700014770032L253.16666666666666,154.0077000886202L254.33333333333334,156.0077999878675L255.5,155.8130999889225L256.66666666666663,154.2024000875652" style="fill: none;" fill="none"></path></g></g></g></g></g></g><g transform="translate(50, 177)" clip-path="url(#clip_1)"><clipPath id="clip_1"><rect width="280" height="23"></rect></clipPath><g><g><line x1="0" y1="0" x2="0" y2="5" style="visibility: inherit;" fill="rgb(0, 0, 0)" stroke="rgb(204, 204, 204)" stroke-width="1px"></line><line x1="23.333333333333332" y1="0" x2="23.333333333333332" y2="5" style="visibility: inherit;" fill="rgb(0, 0, 0)" stroke="rgb(204, 204, 204)" stroke-width="1px"></line><line x1="46.666666666666664" y1="0" x2="46.666666666666664" y2="5" style="visibility: inherit;" fill="rgb(0, 0, 0)" stroke="rgb(204, 204, 204)" stroke-width="1px"></line><line x1="70" y1="0" x2="70" y2="5" style="visibility: inherit;" fill="rgb(0, 0, 0)" stroke="rgb(204, 204, 204)" stroke-width="1px"></line><line x1="93.33333333333333" y1="0" x2="93.33333333333333" y2="5" style="visibility: inherit;" fill="rgb(0, 0, 0)" stroke="rgb(204, 204, 204)" stroke-width="1px"></line><line x1="116.66666666666667" y1="0" x2="116.66666666666667" y2="5" style="visibility: inherit;" fill="rgb(0, 0, 0)" stroke="rgb(204, 204, 204)" stroke-width="1px"></line><line x1="140" y1="0" x2="140" y2="5" style="visibility: inherit;" fill="rgb(0, 0, 0)" stroke="rgb(204, 204, 204)" stroke-width="1px"></line><line x1="163.33333333333334" y1="0" x2="163.33333333333334" y2="5" style="visibility: inherit;" fill="rgb(0, 0, 0)" stroke="rgb(204, 204, 204)" stroke-width="1px"></line><line x1="186.66666666666666" y1="0" x2="186.66666666666666" y2="5" style="visibility: inherit;" fill="rgb(0, 0, 0)" stroke="rgb(204, 204, 204)" stroke-width="1px"></line><line x1="210" y1="0" x2="210" y2="5" style="visibility: inherit;" fill="rgb(0, 0, 0)" stroke="rgb(204, 204, 204)" stroke-width="1px"></line><line x1="233.33333333333334" y1="0" x2="233.33333333333334" y2="5" style="visibility: inherit;" fill="rgb(0, 0, 0)" stroke="rgb(204, 204, 204)" stroke-width="1px"></line><line x1="256.66666666666663" y1="0" x2="256.66666666666663" y2="5" style="visibility: inherit;" fill="rgb(0, 0, 0)" stroke="rgb(204, 204, 204)" stroke-width="1px"></line><line x1="280" y1="0" x2="280" y2="5" style="visibility: inherit;" fill="rgb(0, 0, 0)" stroke="rgb(204, 204, 204)" stroke-width="1px"></line></g><g transform="translate(0, 8)"><text x="0" y="0" dx="0em" dy="0.95em" style="text-anchor: middle; visibility: hidden; font-family: Roboto, sans-serif; font-size: 12px; font-weight: 200;" fill="rgb(33, 33, 33)" stroke="none" stroke-width="1px">-20</text><text x="23.333333333333332" y="0" dx="0em" dy="0.95em" style="text-anchor: middle; visibility: inherit; font-family: Roboto, sans-serif; font-size: 12px; font-weight: 200;" fill="rgb(33, 33, 33)" stroke="none" stroke-width="1px">0</text><text x="46.666666666666664" y="0" dx="0em" dy="0.95em" style="text-anchor: middle; visibility: hidden; font-family: Roboto, sans-serif; font-size: 12px; font-weight: 200;" fill="rgb(33, 33, 33)" stroke="none" stroke-width="1px">20</text><text x="70" y="0" dx="0em" dy="0.95em" style="text-anchor: middle; visibility: inherit; font-family: Roboto, sans-serif; font-size: 12px; font-weight: 200;" fill="rgb(33, 33, 33)" stroke="none" stroke-width="1px">40</text><text x="93.33333333333333" y="0" dx="0em" dy="0.95em" style="text-anchor: middle; visibility: hidden; font-family: Roboto, sans-serif; font-size: 12px; font-weight: 200;" fill="rgb(33, 33, 33)" stroke="none" stroke-width="1px">60</text><text x="116.66666666666667" y="0" dx="0em" dy="0.95em" style="text-anchor: middle; visibility: inherit; font-family: Roboto, sans-serif; font-size: 12px; font-weight: 200;" fill="rgb(33, 33, 33)" stroke="none" stroke-width="1px">80</text><text x="140" y="0" dx="0em" dy="0.95em" style="text-anchor: middle; visibility: hidden; font-family: Roboto, sans-serif; font-size: 12px; font-weight: 200;" fill="rgb(33, 33, 33)" stroke="none" stroke-width="1px">100</text><text x="163.33333333333334" y="0" dx="0em" dy="0.95em" style="text-anchor: middle; visibility: inherit; font-family: Roboto, sans-serif; font-size: 12px; font-weight: 200;" fill="rgb(33, 33, 33)" stroke="none" stroke-width="1px">120</text><text x="186.66666666666666" y="0" dx="0em" dy="0.95em" style="text-anchor: middle; visibility: hidden; font-family: Roboto, sans-serif; font-size: 12px; font-weight: 200;" fill="rgb(33, 33, 33)" stroke="none" stroke-width="1px">140</text><text x="210" y="0" dx="0em" dy="0.95em" style="text-anchor: middle; visibility: inherit; font-family: Roboto, sans-serif; font-size: 12px; font-weight: 200;" fill="rgb(33, 33, 33)" stroke="none" stroke-width="1px">160</text><text x="233.33333333333334" y="0" dx="0em" dy="0.95em" style="text-anchor: middle; visibility: hidden; font-family: Roboto, sans-serif; font-size: 12px; font-weight: 200;" fill="rgb(33, 33, 33)" stroke="none" stroke-width="1px">180</text><text x="256.66666666666663" y="0" dx="0em" dy="0.95em" style="text-anchor: middle; visibility: inherit; font-family: Roboto, sans-serif; font-size: 12px; font-weight: 200;" fill="rgb(33, 33, 33)" stroke="none" stroke-width="1px">200</text><text x="280" y="0" dx="0em" dy="0.95em" style="text-anchor: middle; visibility: hidden; font-family: Roboto, sans-serif; font-size: 12px; font-weight: 200;" fill="rgb(33, 33, 33)" stroke="none" stroke-width="1px">220</text></g><line x1="0" y1="0" x2="280" y2="0" fill="rgb(0, 0, 0)" stroke="rgb(204, 204, 204)" stroke-width="1px"></line></g></g></g></g></svg>