<svg viewBox="0 0 330 200" xmlns="http://www.w3.org/2000/svg"><g><g><g><g><g><line x1="40" y1="177" x2="35" y2="177" style="visibility: inherit;" fill="rgb(0, 0, 0)" stroke="rgb(204, 204, 204)" stroke-width="1px"></line><line x1="40" y1="157.33333333333331" x2="35" y2="157.33333333333331" style="visibility: inherit;" fill="rgb(0, 0, 0)" stroke="rgb(204, 204, 204)" stroke-width="1px"></line><line x1="40" y1="137.66666666666666" x2="35" y2="137.66666666666666" style="visibility: inherit;" fill="rgb(0, 0, 0)" stroke="rgb(204, 204, 204)" stroke-width="1px"></line><line x1="40" y1="118" x2="35" y2="118" style="visibility: inherit;" fill="rgb(0, 0, 0)" stroke="rgb(204, 204, 204)" stroke-width="1px"></line><line x1="40" y1="98.33333333333334" x2="35" y2="98.33333333333334" style="visibility: inherit;" fill="rgb(0, 0, 0)" stroke="rgb(204, 204, 204)" stroke-width="1px"></line><line x1="40" y1="78.66666666666666" x2="35" y2="78.66666666666666" style="visibility: inherit;" fill="rgb(0, 0, 0)" stroke="rgb(204, 204, 204)" stroke-width="1px"></line><line x1="40" y1="59.00000000000001" x2="35" y2="59.00000000000001" style="visibility: inherit;" fill="rgb(0, 0, 0)" stroke="rgb(204, 204, 204)" stroke-width="1px"></line><line x1="40" y1="39.33333333333333" x2="35" y2="39.33333333333333" style="visibility: inherit;" fill="rgb(0, 0, 0)" stroke="rgb(204, 204, 204)" stroke-width="1px"></line><line x1="40" y1="19.666666666666657" x2="35" y2="19.666666666666657" style="visibility: inherit;" fill="rgb(0, 0, 0)" stroke="rgb(204, 204, 204)" stroke-width="1px"></line><line x1="40" y1="0" x2="35" y2="0" style="visibility: inherit;" fill="rgb(0, 0, 0)" stroke="rgb(204, 204, 204)" stroke-width="1px"></line></g><g transform="translate(30, 0)"><text x="0" y="177" dx="0em" dy="0.3em" style="text-anchor: end; visibility: hidden; font-family: Roboto, sans-serif; font-size: 12px; font-weight: 200;" fill="rgb(33, 33, 33)" stroke="none" stroke-width="1px">0.1</text><text x="0" y="157.33333333333331" dx="0em" dy="0.3em" style="text-anchor: end; visibility: inherit; font-family: Roboto, sans-serif; font-size: 12px; font-weight: 200;" fill="rgb(33, 33, 33)" stroke="none" stroke-width="1px">0.2</text><text x="0" y="137.66666666666666" dx="0em" dy="0.3em" style="text-anchor: end; visibility: hidden; font-family: Roboto, sans-serif; font-size: 12px; font-weight: 200;" fill="rgb(33, 33, 33)" stroke="none" stroke-width="1px">0.3</text><text x="0" y="118" dx="0em" dy="0.3em" style="text-anchor: end; visibility: inherit; font-family: Roboto, sans-serif; font-size: 12px; font-weight: 200;" fill="rgb(33, 33, 33)" stroke="none" stroke-width="1px">0.4</text><text x="0" y="98.33333333333334" dx="0em" dy="0.3em" style="text-anchor: end; visibility: hidden; font-family: Roboto, sans-serif; font-size: 12px; font-weight: 200;" fill="rgb(33, 33, 33)" stroke="none" stroke-width="1px">0.5</text><text x="0" y="78.66666666666666" dx="0em" dy="0.3em" style="text-anchor: end; visibility: inherit; font-family: Roboto, sans-serif; font-size: 12px; font-weight: 200;" fill="rgb(33, 33, 33)" stroke="none" stroke-width="1px">0.6</text><text x="0" y="59.00000000000001" dx="0em" dy="0.3em" style="text-anchor: end; visibility: hidden; font-family: Roboto, sans-serif; font-size: 12px; font-weight: 200;" fill="rgb(33, 33, 33)" stroke="none" stroke-width="1px">0.7</text><text x="0" y="39.33333333333333" dx="0em" dy="0.3em" style="text-anchor: end; visibility: inherit; font-family: Roboto, sans-serif; font-size: 12px; font-weight: 200;" fill="rgb(33, 33, 33)" stroke="none" stroke-width="1px">0.8</text><text x="0" y="19.666666666666657" dx="0em" dy="0.3em" style="text-anchor: end; visibility: hidden; font-family: Roboto, sans-serif; font-size: 12px; font-weight: 200;" fill="rgb(33, 33, 33)" stroke="none" stroke-width="1px">0.9</text><text x="0" y="0" dx="0em" dy="0.3em" style="text-anchor: end; visibility: hidden; font-family: Roboto, sans-serif; font-size: 12px; font-weight: 200;" fill="rgb(33, 33, 33)" stroke="none" stroke-width="1px">1</text></g><line x1="40" y1="0" x2="40" y2="177" fill="rgb(0, 0, 0)" stroke="rgb(204, 204, 204)" stroke-width="1px"></line></g></g><g transform="translate(40, 0)" clip-path="url(#clip_0)"><clipPath id="clip_0"><rect width="290" height="177"></rect></clipPath><g><g><g><line x1="0" y1="0" x2="0" y2="177" fill="rgb(0, 0, 0)" stroke="rgb(66, 66, 66)" stroke-width="1px" opacity="0.25"></line><line x1="24.166666666666664" y1="0" x2="24.166666666666664" y2="177" fill="rgb(0, 0, 0)" stroke="rgb(66, 66, 66)" stroke-width="1px" opacity="0.25"></line><line x1="48.33333333333333" y1="0" x2="48.33333333333333" y2="177" fill="rgb(0, 0, 0)" stroke="rgb(66, 66, 66)" stroke-width="1px" opacity="0.25"></line><line x1="72.5" y1="0" x2="72.5" y2="177" fill="rgb(0, 0, 0)" stroke="rgb(66, 66, 66)" stroke-width="1px" opacity="0.25"></line><line x1="96.66666666666666" y1="0" x2="96.66666666666666" y2="177" fill="rgb(0, 0, 0)" stroke="rgb(66, 66, 66)" stroke-width="1px" opacity="0.25"></line><line x1="120.83333333333334" y1="0" x2="120.83333333333334" y2="177" fill="rgb(0, 0, 0)" stroke="rgb(66, 66, 66)" stroke-width="1px" opacity="0.25"></line><line x1="145" y1="0" x2="145" y2="177" fill="rgb(0, 0, 0)" stroke="rgb(66, 66, 66)" stroke-width="1px" opacity="0.25"></line><line x1="169.16666666666669" y1="0" x2="169.16666666666669" y2="177" fill="rgb(0, 0, 0)" stroke="rgb(66, 66, 66)" stroke-width="1px" opacity="0.25"></line><line x1="193.33333333333331" y1="0" x2="193.33333333333331" y2="177" fill="rgb(0, 0, 0)" stroke="rgb(66, 66, 66)" stroke-width="1px" opacity="0.25"></line><line x1="217.5" y1="0" x2="217.5" y2="177" fill="rgb(0, 0, 0)" stroke="rgb(66, 66, 66)" stroke-width="1px" opacity="0.25"></line><line x1="241.66666666666669" y1="0" x2="241.66666666666669" y2="177" fill="rgb(0, 0, 0)" stroke="rgb(66, 66, 66)" stroke-width="1px" opacity="0.25"></line><line x1="265.8333333333333" y1="0" x2="265.8333333333333" y2="177" fill="rgb(0, 0, 0)" stroke="rgb(66, 66, 66)" stroke-width="1px" opacity="0.25"></line><line x1="290" y1="0" x2="290" y2="177" fill="rgb(0, 0, 0)" stroke="rgb(66, 66, 66)" stroke-width="1px" opacity="0.25"></line></g><g><line x1="0" y1="177" x2="290" y2="177" fill="rgb(0, 0, 0)" stroke="rgb(66, 66, 66)" stroke-width="1px" opacity="0.25"></line><line x1="0" y1="157.33333333333331" x2="290" y2="157.33333333333331" fill="rgb(0, 0, 0)" stroke="rgb(66, 66, 66)" stroke-width="1px" opacity="0.25"></line><line x1="0" y1="137.66666666666666" x2="290" y2="137.66666666666666" fill="rgb(0, 0, 0)" stroke="rgb(66, 66, 66)" stroke-width="1px" opacity="0.25"></line><line x1="0" y1="118" x2="290" y2="118" fill="rgb(0, 0, 0)" stroke="rgb(66, 66, 66)" stroke-width="1px" opacity="0.25"></line><line x1="0" y1="98.33333333333334" x2="290" y2="98.33333333333334" fill="rgb(0, 0, 0)" stroke="rgb(66, 66, 66)" stroke-width="1px" opacity="0.25"></line><line x1="0" y1="78.66666666666666" x2="290" y2="78.66666666666666" fill="rgb(0, 0, 0)" stroke="rgb(66, 66, 66)" stroke-width="1px" opacity="0.25"></line><line x1="0" y1="59.00000000000001" x2="290" y2="59.00000000000001" fill="rgb(0, 0, 0)" stroke="rgb(66, 66, 66)" stroke-width="1px" opacity="0.25"></line><line x1="0" y1="39.33333333333333" x2="290" y2="39.33333333333333" fill="rgb(0, 0, 0)" stroke="rgb(66, 66, 66)" stroke-width="1px" opacity="0.25"></line><line x1="0" y1="19.666666666666657" x2="290" y2="19.666666666666657" fill="rgb(0, 0, 0)" stroke="rgb(66, 66, 66)" stroke-width="1px" opacity="0.25"></line><line x1="0" y1="0" x2="290" y2="0" fill="rgb(0, 0, 0)" stroke="rgb(66, 66, 66)" stroke-width="1px" opacity="0.25"></line></g></g></g><g><g><line x1="0" y1="196.66666666666669" x2="290" y2="196.66666666666669" fill="rgb(0, 0, 0)" stroke="rgb(153, 153, 153)" stroke-width="1.5px"></line></g></g><g><g><line x1="24.166666666666664" y1="0" x2="24.166666666666664" y2="177" fill="rgb(0, 0, 0)" stroke="rgb(153, 153, 153)" stroke-width="1.5px"></line></g></g><g><g><g><g><g><path stroke="rgb(51, 187, 238)" stroke-width="2px" d="M25.375,173.69600092371303L26.583333333333332,134.6773331363996L27.791666666666668,75.0480043888092L29,54.59466477235157L30.208333333333336,49.40267066160838L31.416666666666668,45.154669086138405L32.625,39.176006714502975L33.833333333333336,38.074666460355125L35.041666666666664,35.71467339992523L36.25,33.512004613876336L37.458333333333336,29.421339035034173L38.666666666666664,31.30933582782746L39.875,29.421339035034173L41.083333333333336,26.904009977976482L42.29166666666667,26.746673981348668L43.5,25.645333727200825L44.708333333333336,27.061334252357483L45.916666666666664,24.701341191927586L47.125,25.645333727200825L48.33333333333333,26.43200198809306L49.541666666666664,25.0160014629364L50.75,22.813332676887505L51.958333333333336,22.341336409250896L53.166666666666664,22.026676138242085L54.375,21.397332151730847L55.583333333333336,22.026676138242085L56.791666666666664,19.194675087928765L58,20.92533588409424L59.208333333333336,21.55466814835866L60.41666666666667,20.138667623202L61.625,20.610675613085423L62.833333333333336,19.03733909130097L64.04166666666667,19.666671355565395L65.25,19.666671355565395L66.45833333333333,19.50933535893758L67.66666666666667,19.194675087928765L68.875,19.82400735219319L70.08333333333333,17.149342298507683L71.29166666666666,18.250670830408733L72.5,19.666671355565395L73.70833333333333,19.981343348821003L74.91666666666667,19.03733909130097L76.125,17.621338566144313L77.33333333333333,18.250670830408733L78.54166666666666,18.56534282366434L79.75,17.935998837153125L80.95833333333333,17.4640025695165L82.16666666666667,18.408006827036548L83.375,18.56534282366434L84.58333333333334,18.56534282366434L85.79166666666667,17.935998837153125L87,16.362674037615466L88.20833333333333,16.048002044359837L89.41666666666667,18.56534282366434L90.625,19.981343348821003L91.83333333333333,17.4640025695165L93.04166666666667,16.048002044359837L94.25,19.351999362309765L95.45833333333333,16.99200630187989L96.66666666666666,17.306666572888684L97.875,16.67733430862426L99.08333333333333,16.048002044359837L100.29166666666667,16.67733430862426L101.5,16.362674037615466L102.70833333333334,15.261333783467602L103.91666666666667,15.890666047732044L105.125,16.67733430862426L106.33333333333333,16.048002044359837L107.54166666666667,15.104009509086602L108.75,15.733341773351025L109.95833333333333,15.418669780095415L111.16666666666667,14.946673512458808L112.375,14.946673512458808L113.58333333333333,15.57600577672323L114.79166666666666,16.362674037615466L116,14.317341248194385L117.20833333333333,15.261333783467602L118.41666666666667,15.733341773351025L119.625,14.002669254938757L120.83333333333334,15.261333783467602L122.04166666666667,15.104009509086602L123.25,14.474665522575386L124.45833333333333,15.890666047732044L125.66666666666667,15.418669780095415L126.875,15.418669780095415L128.08333333333334,15.104009509086602L129.29166666666669,14.789337515830994L130.5,15.890666047732044L131.70833333333334,14.946673512458808L132.91666666666666,15.733341773351025L134.125,14.789337515830994L135.33333333333334,16.20533804098765L136.54166666666666,15.418669780095415L137.75,15.733341773351025L138.95833333333334,15.418669780095415L140.16666666666666,16.20533804098765L141.375,15.261333783467602L142.58333333333331,14.946673512458808L143.79166666666666,15.104009509086602L145,15.890666047732044L146.20833333333334,15.890666047732044L147.41666666666666,15.733341773351025L148.625,16.048002044359837L149.83333333333334,15.261333783467602L151.04166666666669,15.418669780095415L152.25,14.317341248194385L153.45833333333334,14.789337515830994L154.66666666666666,14.474665522575386L155.875,15.418669780095415L157.08333333333331,14.317341248194385L158.29166666666666,14.789337515830994L159.5,14.632001519203179L160.70833333333334,14.474665522575386L161.91666666666666,15.261333783467602L163.125,14.317341248194385L164.33333333333334,14.002669254938757L165.54166666666666,13.373336990674334L166.75,14.632001519203179L167.95833333333334,14.002669254938757L169.16666666666669,14.317341248194385L170.375,14.160005251566572L171.58333333333334,14.317341248194385L172.79166666666666,14.474665522575386L174,14.160005251566572L175.20833333333331,13.688008983929944L176.41666666666666,13.05867671966552L177.625,12.744004726409912L178.83333333333334,13.21600099404652L180.04166666666666,14.474665522575386L181.25,14.002669254938757L182.45833333333334,14.474665522575386L183.66666666666666,13.530672987302149L184.875,13.845333258310962L186.08333333333334,13.688008983929944L187.29166666666669,13.688008983929944L188.5,13.688008983929944L189.70833333333334,14.946673512458808L190.91666666666666,14.474665522575386L192.125,15.57600577672323L193.33333333333331,14.632001519203179L194.54166666666666,14.789337515830994L195.75,14.789337515830994L196.95833333333334,14.160005251566572L198.16666666666666,15.57600577672323L199.375,15.104009509086602L200.58333333333334,15.890666047732044L201.79166666666666,13.373336990674334L203,14.160005251566572L204.20833333333334,13.845333258310962L205.41666666666669,14.632001519203179L206.625,13.688008983929944L207.83333333333334,15.104009509086602L209.04166666666666,13.688008983929944L210.25,13.845333258310962L211.45833333333331,14.789337515830994L212.66666666666666,15.104009509086602L213.875,14.160005251566572L215.08333333333334,13.688008983929944L216.29166666666666,14.632001519203179L217.5,14.160005251566572L218.70833333333334,14.946673512458808L219.91666666666666,14.160005251566572L221.125,15.261333783467602L222.33333333333334,14.946673512458808L223.54166666666669,14.160005251566572L224.75,14.789337515830994L225.95833333333334,15.104009509086602L227.16666666666666,15.418669780095415L228.375,15.733341773351025L229.58333333333331,15.261333783467602L230.79166666666666,14.474665522575386L232,14.789337515830994L233.20833333333334,14.317341248194385L234.41666666666666,14.002669254938757L235.625,14.317341248194385L236.83333333333334,14.474665522575386L238.04166666666666,14.160005251566572L239.25,14.317341248194385L240.45833333333334,14.789337515830994L241.66666666666669,15.104009509086602L242.875,13.688008983929944L244.08333333333334,13.530672987302149L245.29166666666666,13.845333258310962L246.5,13.21600099404652L247.70833333333331,14.474665522575386L248.91666666666666,14.002669254938757L250.125,14.474665522575386L251.33333333333334,14.002669254938757L252.54166666666666,14.632001519203179L253.75,13.688008983929944L254.95833333333334,14.002669254938757L256.1666666666667,14.789337515830994L257.375,14.632001519203179L258.58333333333337,13.845333258310962L259.7916666666667,13.373336990674334L261,13.21600099404652L262.2083333333333,13.688008983929944L263.4166666666667,13.688008983929944L264.625,13.530672987302149L265.8333333333333,13.688008983929944" style="fill: none;" fill="none"></path></g><g><path stroke="rgb(238, 51, 119)" stroke-width="2px" d="M35.041666666666664,180.93333368500075L36.25,176.05599984526634L37.458333333333336,176.05599984526634L38.666666666666664,174.3253331879775L39.875,172.59466799596947L41.083333333333336,172.75200106203556L42.29166666666667,170.23466760913533L43.5,163.15466791391373L44.708333333333336,159.22133540113768L45.916666666666664,161.73866738875708L47.125,162.21066658695537L48.33333333333333,150.41066904862723L49.541666666666664,155.60266902049383L50.75,162.8400017817815L51.958333333333336,168.81866708397865L53.166666666666664,159.85066766540209L54.375,158.43466714024544L55.583333333333336,161.42400125662488L56.791666666666664,166.30133509635925L58,159.06400233507156L59.208333333333336,162.5253356496493L60.41666666666667,168.66133401791254L61.625,161.26666819055876L62.833333333333336,162.9973348478476L64.04166666666667,153.24266716837883L65.25,159.22133540113768L66.45833333333333,159.693334599336L67.66666666666667,163.31200097997984L68.875,151.35466744502384L70.08333333333333,150.41066904862723L71.29166666666666,162.05333352088928L72.5,154.34400156140327L73.70833333333333,156.7040004829566L74.91666666666667,161.26666819055876L76.125,151.04000131289163L77.33333333333333,149.30933465560275L78.54166666666666,146.63466960191727L79.75,148.20800026257834L80.95833333333333,154.5013346274694L82.16666666666667,158.27733407417932L83.375,151.82666664322218L84.58333333333334,147.26400186618167L85.79166666666667,144.58933681249619L87,145.2186690767606L88.20833333333333,145.69066534439722L89.41666666666667,150.0959999859333L90.625,159.85066766540209L91.83333333333333,152.7706679701805L93.04166666666667,150.56800211469334L94.25,153.08533410231271L95.45833333333333,155.445333023866L96.66666666666666,149.30933465560275L97.875,146.32000346978506L99.08333333333333,145.53333520889282L100.29166666666667,149.15200158953667L101.5,138.45333258310956L102.70833333333334,146.00533733765283L103.91666666666667,151.82666664322218L105.125,142.5440040230751L106.33333333333333,141.91466589768726L107.54166666666667,138.61066857973734L108.75,136.88000192244849L109.95833333333333,135.93600352605185L111.16666666666667,144.11733468373617L112.375,145.2186690767606L113.58333333333333,151.66933357715607L114.79166666666666,152.2986687719822L116,149.62400078773499L117.20833333333333,143.33066642284393L118.41666666666667,142.3866680264473L119.625,146.63466960191727L120.83333333333334,151.82666664322218L122.04166666666667,144.58933681249619L123.25,147.26400186618167L124.45833333333333,145.69066534439722L125.66666666666667,150.41066904862723L126.875,146.79199973742166L128.08333333333334,142.5440040230751L129.29166666666669,143.64533255497614L130.5,133.57599874337515L131.70833333333334,143.01600029071173L132.91666666666666,146.94933573404947L134.125,148.20800026257834L135.33333333333334,145.53333520889282L136.54166666666666,150.0959999859333L137.75,149.7813338538011L138.95833333333334,157.96266794204712L140.16666666666666,134.6773331363996L141.375,133.89067073663077L142.58333333333331,144.43200081586838L143.79166666666666,154.02933542927104L145,149.7813338538011L146.20833333333334,150.0959999859333L147.41666666666666,148.99466852347055L148.625,151.66933357715607L149.83333333333334,154.8160007596016L151.04166666666669,154.34400156140327L152.25,155.2879999577999L153.45833333333334,149.62400078773499L154.66666666666666,148.52266932527226L155.875,145.84800134102505L157.08333333333331,157.4906687438488L158.29166666666666,151.35466744502384L159.5,150.25333305199942L160.70833333333334,147.1066658695539L161.91666666666666,146.47733360528946L163.125,151.82666664322218L164.33333333333334,150.56800211469334L165.54166666666666,152.4560018380483L166.75,149.7813338538011L167.95833333333334,149.93866691986722L169.16666666666669,150.56800211469334L170.375,155.2879999577999L171.58333333333334,153.55733330051103L172.79166666666666,155.1306668917338L174,157.17599968115488L175.20833333333331,158.74933327237767L176.41666666666666,154.5013346274694L177.625,151.19733437895775L178.83333333333334,152.14133570591608L180.04166666666666,150.88266824682555L181.25,149.15200158953667L182.45833333333334,147.73600106438002L183.66666666666666,150.41066904862723L184.875,152.92800103624663L186.08333333333334,153.55733330051103L187.29166666666669,156.23200128475824L188.5,148.36533332864443L189.70833333333334,151.82666664322218L190.91666666666666,151.82666664322218L192.125,148.36533332864443L193.33333333333331,150.25333305199942L194.54166666666666,154.8160007596016L195.75,163.31200097997984L196.95833333333334,150.88266824682555L198.16666666666666,149.62400078773499L199.375,150.56800211469334L200.58333333333334,150.72533518075943L201.79166666666666,149.62400078773499L203,148.68000239133835L204.20833333333334,141.7573357621829L205.41666666666669,144.74666694800058L206.625,149.15200158953667L207.83333333333334,151.66933357715607L209.04166666666666,146.32000346978506L210.25,148.68000239133835L211.45833333333331,150.41066904862723L212.66666666666666,139.7120029727618L213.875,146.47733360528946L215.08333333333334,146.63466960191727L216.29166666666666,141.91466589768726L217.5,138.61066857973734L218.70833333333334,144.11733468373617L219.91666666666666,145.53333520889282L221.125,144.9040029446284L222.33333333333334,141.28533363342285L223.54166666666669,144.43200081586838L224.75,143.95999868710834L225.95833333333334,141.59999976555505L227.16666666666666,147.4213320016861L228.375,145.37599921226501L229.58333333333331,140.65600136915842L230.79166666666666,142.2293320298195L232,141.91466589768726L233.20833333333334,141.44266963005066L234.41666666666666,139.7120029727618L235.625,144.27467068036398L236.83333333333334,149.46666772166887L238.04166666666666,140.1839992403984L239.25,142.0720018943151L240.45833333333334,143.33066642284393L241.66666666666669,145.0613330801328L242.875,143.01600029071173L244.08333333333334,144.74666694800058L245.29166666666666,142.0720018943151L246.5,145.2186690767606L247.70833333333331,139.24000084400177L248.91666666666666,139.86933310826618L250.125,143.33066642284393L251.33333333333334,142.2293320298195L252.54166666666666,143.95999868710834L253.75,137.98133631547293L254.95833333333334,140.81333736578623L256.1666666666667,140.81333736578623L257.375,139.55466697613397L258.58333333333337,141.44266963005066L259.7916666666667,146.32000346978506L261,146.16266747315726L262.2083333333333,148.83733545740446L263.4166666666667,146.63466960191727L264.625,143.64533255497614L265.8333333333333,140.97066750129065" style="fill: none;" fill="none"></path></g></g></g></g></g></g><g transform="translate(40, 177)" clip-path="url(#clip_1)"><clipPath id="clip_1"><rect width="290" height="23"></rect></clipPath><g><g><line x1="0" y1="0" x2="0" y2="5" style="visibility: inherit;" fill="rgb(0, 0, 0)" stroke="rgb(204, 204, 204)" stroke-width="1px"></line><line x1="24.166666666666664" y1="0" x2="24.166666666666664" y2="5" style="visibility: inherit;" fill="rgb(0, 0, 0)" stroke="rgb(204, 204, 204)" stroke-width="1px"></line><line x1="48.33333333333333" y1="0" x2="48.33333333333333" y2="5" style="visibility: inherit;" fill="rgb(0, 0, 0)" stroke="rgb(204, 204, 204)" stroke-width="1px"></line><line x1="72.5" y1="0" x2="72.5" y2="5" style="visibility: inherit;" fill="rgb(0, 0, 0)" stroke="rgb(204, 204, 204)" stroke-width="1px"></line><line x1="96.66666666666666" y1="0" x2="96.66666666666666" y2="5" style="visibility: inherit;" fill="rgb(0, 0, 0)" stroke="rgb(204, 204, 204)" stroke-width="1px"></line><line x1="120.83333333333334" y1="0" x2="120.83333333333334" y2="5" style="visibility: inherit;" fill="rgb(0, 0, 0)" stroke="rgb(204, 204, 204)" stroke-width="1px"></line><line x1="145" y1="0" x2="145" y2="5" style="visibility: inherit;" fill="rgb(0, 0, 0)" stroke="rgb(204, 204, 204)" stroke-width="1px"></line><line x1="169.16666666666669" y1="0" x2="169.16666666666669" y2="5" style="visibility: inherit;" fill="rgb(0, 0, 0)" stroke="rgb(204, 204, 204)" stroke-width="1px"></line><line x1="193.33333333333331" y1="0" x2="193.33333333333331" y2="5" style="visibility: inherit;" fill="rgb(0, 0, 0)" stroke="rgb(204, 204, 204)" stroke-width="1px"></line><line x1="217.5" y1="0" x2="217.5" y2="5" style="visibility: inherit;" fill="rgb(0, 0, 0)" stroke="rgb(204, 204, 204)" stroke-width="1px"></line><line x1="241.66666666666669" y1="0" x2="241.66666666666669" y2="5" style="visibility: inherit;" fill="rgb(0, 0, 0)" stroke="rgb(204, 204, 204)" stroke-width="1px"></line><line x1="265.8333333333333" y1="0" x2="265.8333333333333" y2="5" style="visibility: inherit;" fill="rgb(0, 0, 0)" stroke="rgb(204, 204, 204)" stroke-width="1px"></line><line x1="290" y1="0" x2="290" y2="5" style="visibility: inherit;" fill="rgb(0, 0, 0)" stroke="rgb(204, 204, 204)" stroke-width="1px"></line></g><g transform="translate(0, 8)"><text x="0" y="0" dx="0em" dy="0.95em" style="text-anchor: middle; visibility: hidden; font-family: Roboto, sans-serif; font-size: 12px; font-weight: 200;" fill="rgb(33, 33, 33)" stroke="none" stroke-width="1px">-20</text><text x="24.166666666666664" y="0" dx="0em" dy="0.95em" style="text-anchor: middle; visibility: inherit; font-family: Roboto, sans-serif; font-size: 12px; font-weight: 200;" fill="rgb(33, 33, 33)" stroke="none" stroke-width="1px">0</text><text x="48.33333333333333" y="0" dx="0em" dy="0.95em" style="text-anchor: middle; visibility: hidden; font-family: Roboto, sans-serif; font-size: 12px; font-weight: 200;" fill="rgb(33, 33, 33)" stroke="none" stroke-width="1px">20</text><text x="72.5" y="0" dx="0em" dy="0.95em" style="text-anchor: middle; visibility: inherit; font-family: Roboto, sans-serif; font-size: 12px; font-weight: 200;" fill="rgb(33, 33, 33)" stroke="none" stroke-width="1px">40</text><text x="96.66666666666666" y="0" dx="0em" dy="0.95em" style="text-anchor: middle; visibility: hidden; font-family: Roboto, sans-serif; font-size: 12px; font-weight: 200;" fill="rgb(33, 33, 33)" stroke="none" stroke-width="1px">60</text><text x="120.83333333333334" y="0" dx="0em" dy="0.95em" style="text-anchor: middle; visibility: inherit; font-family: Roboto, sans-serif; font-size: 12px; font-weight: 200;" fill="rgb(33, 33, 33)" stroke="none" stroke-width="1px">80</text><text x="145" y="0" dx="0em" dy="0.95em" style="text-anchor: middle; visibility: hidden; font-family: Roboto, sans-serif; font-size: 12px; font-weight: 200;" fill="rgb(33, 33, 33)" stroke="none" stroke-width="1px">100</text><text x="169.16666666666669" y="0" dx="0em" dy="0.95em" style="text-anchor: middle; visibility: inherit; font-family: Roboto, sans-serif; font-size: 12px; font-weight: 200;" fill="rgb(33, 33, 33)" stroke="none" stroke-width="1px">120</text><text x="193.33333333333331" y="0" dx="0em" dy="0.95em" style="text-anchor: middle; visibility: hidden; font-family: Roboto, sans-serif; font-size: 12px; font-weight: 200;" fill="rgb(33, 33, 33)" stroke="none" stroke-width="1px">140</text><text x="217.5" y="0" dx="0em" dy="0.95em" style="text-anchor: middle; visibility: inherit; font-family: Roboto, sans-serif; font-size: 12px; font-weight: 200;" fill="rgb(33, 33, 33)" stroke="none" stroke-width="1px">160</text><text x="241.66666666666669" y="0" dx="0em" dy="0.95em" style="text-anchor: middle; visibility: hidden; font-family: Roboto, sans-serif; font-size: 12px; font-weight: 200;" fill="rgb(33, 33, 33)" stroke="none" stroke-width="1px">180</text><text x="265.8333333333333" y="0" dx="0em" dy="0.95em" style="text-anchor: middle; visibility: inherit; font-family: Roboto, sans-serif; font-size: 12px; font-weight: 200;" fill="rgb(33, 33, 33)" stroke="none" stroke-width="1px">200</text><text x="290" y="0" dx="0em" dy="0.95em" style="text-anchor: middle; visibility: hidden; font-family: Roboto, sans-serif; font-size: 12px; font-weight: 200;" fill="rgb(33, 33, 33)" stroke="none" stroke-width="1px">220</text></g><line x1="0" y1="0" x2="290" y2="0" fill="rgb(0, 0, 0)" stroke="rgb(204, 204, 204)" stroke-width="1px"></line></g></g></g></g></svg>