<svg viewBox="0 0 330 200" xmlns="http://www.w3.org/2000/svg"><g><g><g><g><g><line x1="40" y1="177" x2="35" y2="177" style="visibility: inherit;" fill="rgb(0, 0, 0)" stroke="rgb(204, 204, 204)" stroke-width="1px"></line><line x1="40" y1="157.33333333333331" x2="35" y2="157.33333333333331" style="visibility: inherit;" fill="rgb(0, 0, 0)" stroke="rgb(204, 204, 204)" stroke-width="1px"></line><line x1="40" y1="137.66666666666666" x2="35" y2="137.66666666666666" style="visibility: inherit;" fill="rgb(0, 0, 0)" stroke="rgb(204, 204, 204)" stroke-width="1px"></line><line x1="40" y1="118.00000000000001" x2="35" y2="118.00000000000001" style="visibility: inherit;" fill="rgb(0, 0, 0)" stroke="rgb(204, 204, 204)" stroke-width="1px"></line><line x1="40" y1="98.33333333333334" x2="35" y2="98.33333333333334" style="visibility: inherit;" fill="rgb(0, 0, 0)" stroke="rgb(204, 204, 204)" stroke-width="1px"></line><line x1="40" y1="78.66666666666666" x2="35" y2="78.66666666666666" style="visibility: inherit;" fill="rgb(0, 0, 0)" stroke="rgb(204, 204, 204)" stroke-width="1px"></line><line x1="40" y1="59.00000000000001" x2="35" y2="59.00000000000001" style="visibility: inherit;" fill="rgb(0, 0, 0)" stroke="rgb(204, 204, 204)" stroke-width="1px"></line><line x1="40" y1="39.33333333333335" x2="35" y2="39.33333333333335" style="visibility: inherit;" fill="rgb(0, 0, 0)" stroke="rgb(204, 204, 204)" stroke-width="1px"></line><line x1="40" y1="19.666666666666657" x2="35" y2="19.666666666666657" style="visibility: inherit;" fill="rgb(0, 0, 0)" stroke="rgb(204, 204, 204)" stroke-width="1px"></line><line x1="40" y1="0" x2="35" y2="0" style="visibility: inherit;" fill="rgb(0, 0, 0)" stroke="rgb(204, 204, 204)" stroke-width="1px"></line></g><g transform="translate(30, 0)"><text x="0" y="177" dx="0em" dy="0.3em" style="text-anchor: end; visibility: hidden; font-family: Roboto, sans-serif; font-size: 12px; font-weight: 200;" fill="rgb(33, 33, 33)" stroke="none" stroke-width="1px">0</text><text x="0" y="157.33333333333331" dx="0em" dy="0.3em" style="text-anchor: end; visibility: inherit; font-family: Roboto, sans-serif; font-size: 12px; font-weight: 200;" fill="rgb(33, 33, 33)" stroke="none" stroke-width="1px">0.1</text><text x="0" y="137.66666666666666" dx="0em" dy="0.3em" style="text-anchor: end; visibility: hidden; font-family: Roboto, sans-serif; font-size: 12px; font-weight: 200;" fill="rgb(33, 33, 33)" stroke="none" stroke-width="1px">0.2</text><text x="0" y="118.00000000000001" dx="0em" dy="0.3em" style="text-anchor: end; visibility: inherit; font-family: Roboto, sans-serif; font-size: 12px; font-weight: 200;" fill="rgb(33, 33, 33)" stroke="none" stroke-width="1px">0.3</text><text x="0" y="98.33333333333334" dx="0em" dy="0.3em" style="text-anchor: end; visibility: hidden; font-family: Roboto, sans-serif; font-size: 12px; font-weight: 200;" fill="rgb(33, 33, 33)" stroke="none" stroke-width="1px">0.4</text><text x="0" y="78.66666666666666" dx="0em" dy="0.3em" style="text-anchor: end; visibility: inherit; font-family: Roboto, sans-serif; font-size: 12px; font-weight: 200;" fill="rgb(33, 33, 33)" stroke="none" stroke-width="1px">0.5</text><text x="0" y="59.00000000000001" dx="0em" dy="0.3em" style="text-anchor: end; visibility: hidden; font-family: Roboto, sans-serif; font-size: 12px; font-weight: 200;" fill="rgb(33, 33, 33)" stroke="none" stroke-width="1px">0.6</text><text x="0" y="39.33333333333335" dx="0em" dy="0.3em" style="text-anchor: end; visibility: inherit; font-family: Roboto, sans-serif; font-size: 12px; font-weight: 200;" fill="rgb(33, 33, 33)" stroke="none" stroke-width="1px">0.7</text><text x="0" y="19.666666666666657" dx="0em" dy="0.3em" style="text-anchor: end; visibility: hidden; font-family: Roboto, sans-serif; font-size: 12px; font-weight: 200;" fill="rgb(33, 33, 33)" stroke="none" stroke-width="1px">0.8</text><text x="0" y="0" dx="0em" dy="0.3em" style="text-anchor: end; visibility: hidden; font-family: Roboto, sans-serif; font-size: 12px; font-weight: 200;" fill="rgb(33, 33, 33)" stroke="none" stroke-width="1px">0.9</text></g><line x1="40" y1="0" x2="40" y2="177" fill="rgb(0, 0, 0)" stroke="rgb(204, 204, 204)" stroke-width="1px"></line></g></g><g transform="translate(40, 0)" clip-path="url(#clip_0)"><clipPath id="clip_0"><rect width="290" height="177"></rect></clipPath><g><g><g><line x1="0" y1="0" x2="0" y2="177" fill="rgb(0, 0, 0)" stroke="rgb(66, 66, 66)" stroke-width="1px" opacity="0.25"></line><line x1="24.166666666666664" y1="0" x2="24.166666666666664" y2="177" fill="rgb(0, 0, 0)" stroke="rgb(66, 66, 66)" stroke-width="1px" opacity="0.25"></line><line x1="48.33333333333333" y1="0" x2="48.33333333333333" y2="177" fill="rgb(0, 0, 0)" stroke="rgb(66, 66, 66)" stroke-width="1px" opacity="0.25"></line><line x1="72.5" y1="0" x2="72.5" y2="177" fill="rgb(0, 0, 0)" stroke="rgb(66, 66, 66)" stroke-width="1px" opacity="0.25"></line><line x1="96.66666666666666" y1="0" x2="96.66666666666666" y2="177" fill="rgb(0, 0, 0)" stroke="rgb(66, 66, 66)" stroke-width="1px" opacity="0.25"></line><line x1="120.83333333333334" y1="0" x2="120.83333333333334" y2="177" fill="rgb(0, 0, 0)" stroke="rgb(66, 66, 66)" stroke-width="1px" opacity="0.25"></line><line x1="145" y1="0" x2="145" y2="177" fill="rgb(0, 0, 0)" stroke="rgb(66, 66, 66)" stroke-width="1px" opacity="0.25"></line><line x1="169.16666666666669" y1="0" x2="169.16666666666669" y2="177" fill="rgb(0, 0, 0)" stroke="rgb(66, 66, 66)" stroke-width="1px" opacity="0.25"></line><line x1="193.33333333333331" y1="0" x2="193.33333333333331" y2="177" fill="rgb(0, 0, 0)" stroke="rgb(66, 66, 66)" stroke-width="1px" opacity="0.25"></line><line x1="217.5" y1="0" x2="217.5" y2="177" fill="rgb(0, 0, 0)" stroke="rgb(66, 66, 66)" stroke-width="1px" opacity="0.25"></line><line x1="241.66666666666669" y1="0" x2="241.66666666666669" y2="177" fill="rgb(0, 0, 0)" stroke="rgb(66, 66, 66)" stroke-width="1px" opacity="0.25"></line><line x1="265.8333333333333" y1="0" x2="265.8333333333333" y2="177" fill="rgb(0, 0, 0)" stroke="rgb(66, 66, 66)" stroke-width="1px" opacity="0.25"></line><line x1="290" y1="0" x2="290" y2="177" fill="rgb(0, 0, 0)" stroke="rgb(66, 66, 66)" stroke-width="1px" opacity="0.25"></line></g><g><line x1="0" y1="177" x2="290" y2="177" fill="rgb(0, 0, 0)" stroke="rgb(66, 66, 66)" stroke-width="1px" opacity="0.25"></line><line x1="0" y1="157.33333333333331" x2="290" y2="157.33333333333331" fill="rgb(0, 0, 0)" stroke="rgb(66, 66, 66)" stroke-width="1px" opacity="0.25"></line><line x1="0" y1="137.66666666666666" x2="290" y2="137.66666666666666" fill="rgb(0, 0, 0)" stroke="rgb(66, 66, 66)" stroke-width="1px" opacity="0.25"></line><line x1="0" y1="118.00000000000001" x2="290" y2="118.00000000000001" fill="rgb(0, 0, 0)" stroke="rgb(66, 66, 66)" stroke-width="1px" opacity="0.25"></line><line x1="0" y1="98.33333333333334" x2="290" y2="98.33333333333334" fill="rgb(0, 0, 0)" stroke="rgb(66, 66, 66)" stroke-width="1px" opacity="0.25"></line><line x1="0" y1="78.66666666666666" x2="290" y2="78.66666666666666" fill="rgb(0, 0, 0)" stroke="rgb(66, 66, 66)" stroke-width="1px" opacity="0.25"></line><line x1="0" y1="59.00000000000001" x2="290" y2="59.00000000000001" fill="rgb(0, 0, 0)" stroke="rgb(66, 66, 66)" stroke-width="1px" opacity="0.25"></line><line x1="0" y1="39.33333333333335" x2="290" y2="39.33333333333335" fill="rgb(0, 0, 0)" stroke="rgb(66, 66, 66)" stroke-width="1px" opacity="0.25"></line><line x1="0" y1="19.666666666666657" x2="290" y2="19.666666666666657" fill="rgb(0, 0, 0)" stroke="rgb(66, 66, 66)" stroke-width="1px" opacity="0.25"></line><line x1="0" y1="0" x2="290" y2="0" fill="rgb(0, 0, 0)" stroke="rgb(66, 66, 66)" stroke-width="1px" opacity="0.25"></line></g></g></g><g><g><line x1="0" y1="177" x2="290" y2="177" fill="rgb(0, 0, 0)" stroke="rgb(153, 153, 153)" stroke-width="1.5px"></line></g></g><g><g><line x1="24.166666666666664" y1="0" x2="24.166666666666664" y2="177" fill="rgb(0, 0, 0)" stroke="rgb(153, 153, 153)" stroke-width="1.5px"></line></g></g><g><g><g><g><g><path stroke="rgb(51, 187, 238)" stroke-width="2px" d="M25.375,138.25666727622348L26.583333333333332,99.04133242368698L27.791666666666668,44.427003582318626L29,38.17300907770794L30.208333333333336,33.02033138275148L31.416666666666668,29.165669798851027L32.625,27.926675200462356L33.833333333333336,25.586340347925816L35.041666666666664,25.605998555819195L36.25,23.619675556818652L37.458333333333336,22.754339297612518L38.666666666666664,23.442669630050666L39.875,22.360999306042995L41.083333333333336,23.01000150044759L42.29166666666667,21.02366677920023L43.5,20.9843386411667L44.708333333333336,21.45633490880331L45.916666666666664,21.535002907117207L47.125,22.08566717306773L48.33333333333333,21.61367090543112L49.541666666666664,20.610668579737347L50.75,20.4926724433899L51.958333333333336,20.453332583109532L53.166666666666664,20.650008440017714L54.375,20.76800457636516L55.583333333333336,20.827002644538886L56.791666666666664,20.551670511563625L58,20.315666516621913L59.208333333333336,20.37467630704245L60.41666666666667,20.610668579737347L61.625,20.158342242240913L62.833333333333336,20.236998518308013L64.04166666666667,20.571340441703796L65.25,20.53200058142345L66.45833333333333,20.80733271439871L67.66666666666667,19.70600418249766L68.875,19.70600418249766L70.08333333333333,19.70600418249766L71.29166666666666,19.607666254043593L72.5,18.250675519307453L73.70833333333333,18.014671524365742L74.91666666666667,18.014671524365742L76.125,18.683331926663715L77.33333333333333,19.17500984668733L78.54166666666666,18.76199992497763L79.75,18.604675650596633L80.95833333333333,19.548668185869847L82.16666666666667,18.899665991465252L83.375,18.64400378863016L84.58333333333334,18.526007652282715L85.79166666666667,19.11600005626679L87,19.843670248985305L88.20833333333333,19.371673981348675L89.41666666666667,19.509340047836318L90.625,19.588008046150215L91.83333333333333,19.607666254043593L93.04166666666667,18.742341717084255L94.25,19.234007914861053L95.45833333333333,19.234007914861053L96.66666666666666,19.234007914861053L97.875,18.781669855117805L99.08333333333333,18.70300185680391L100.29166666666667,18.545665860176094L101.5,17.798337459564223L102.70833333333334,17.77866752942403L103.91666666666667,18.329331795374554L105.125,18.13266766071321L106.33333333333333,17.739339391390477L107.54166666666667,19.11600005626679L108.75,18.84066792329153L109.95833333333333,18.97833398977915L111.16666666666667,18.93900585174562L112.375,19.253666122754414L113.58333333333333,20.17800045013429L114.79166666666666,19.588008046150215L116,19.057001988093067L117.20833333333333,18.99800391991934L118.41666666666667,19.037332057952895L119.625,19.07667191823324L120.83333333333334,19.41100211938223L122.04166666666667,18.64400378863016L123.25,18.95867578188579L124.45833333333333,18.48666779200237L125.66666666666667,18.683331926663715L126.875,18.58500572045644L128.08333333333334,18.388341585795093L129.29166666666669,18.388341585795093L130.5,18.15233759085338L131.70833333333334,18.447339653968818L132.91666666666666,18.15233759085338L134.125,17.955673456192017L135.33333333333334,18.62433385848999L136.54166666666666,18.70300185680391L137.75,18.565335790316265L138.95833333333334,18.8603378534317L140.16666666666666,19.11600005626679L141.375,18.801339785257976L142.58333333333331,18.99800391991934L143.79166666666666,18.880007783571873L145,18.880007783571873L146.20833333333334,18.526007652282715L147.41666666666666,19.312675913174953L148.625,19.21433798472086L149.83333333333334,18.93900585174562L151.04166666666669,18.663673718770355L152.25,18.427669723828643L153.45833333333334,19.352004051208503L154.66666666666666,18.388341585795093L155.875,17.936003526051845L157.08333333333331,17.680341323216755L158.29166666666666,17.798337459564223L159.5,18.211335659027107L160.70833333333334,18.506337722142543L161.91666666666666,18.801339785257976L163.125,18.447339653968818L164.33333333333334,18.447339653968818L165.54166666666666,18.329331795374554L166.75,18.250675519307453L167.95833333333334,18.565335790316265L169.16666666666669,18.565335790316265L170.375,18.34900172551473L171.58333333333334,18.15233759085338L172.79166666666666,18.58500572045644L174,18.62433385848999L175.20833333333331,18.919335921605427L176.41666666666666,18.919335921605427L177.625,18.919335921605427L178.83333333333334,18.919335921605427L180.04166666666666,18.58500572045644L181.25,19.68633425235749L182.45833333333334,19.863340179125476L183.66666666666666,19.096341848373413L184.875,18.84066792329153L186.08333333333334,18.72267178694408L187.29166666666669,18.683331926663715L188.5,18.683331926663715L189.70833333333334,18.683331926663715L190.91666666666666,18.663673718770355L192.125,19.19466805458069L193.33333333333331,19.64700611432394L194.54166666666666,19.489670117696125L195.75,19.843670248985305L196.95833333333334,20.51234237353007L198.16666666666666,19.11600005626679L199.375,18.99800391991934L200.58333333333334,19.057001988093067L201.79166666666666,18.97833398977915L203,18.880007783571873L204.20833333333334,19.17500984668733L205.41666666666669,19.17500984668733L206.625,18.270333727200832L207.83333333333334,18.781669855117805L209.04166666666666,18.8603378534317L210.25,19.80434211095175L211.45833333333331,19.80434211095175L212.66666666666666,19.273336052894606L213.875,18.84066792329153L215.08333333333334,18.64400378863016L216.29166666666666,18.76199992497763L217.5,18.526007652282715L218.70833333333334,19.19466805458069L219.91666666666666,18.93900585174562L221.125,18.427669723828643L222.33333333333334,18.82100971539815L223.54166666666669,18.97833398977915L224.75,19.47000018755595L225.95833333333334,19.135669986406963L227.16666666666666,18.506337722142543L228.375,19.135669986406963L229.58333333333331,17.975331664085395L230.79166666666666,18.526007652282715L232,18.526007652282715L233.20833333333334,18.62433385848999L234.41666666666666,18.40799979368845L235.625,18.34900172551473L236.83333333333334,18.70300185680391L238.04166666666666,18.70300185680391L239.25,19.135669986406963L240.45833333333334,18.506337722142543L241.66666666666669,18.34900172551473L242.875,18.565335790316265L244.08333333333334,19.17500984668733L245.29166666666666,18.70300185680391L246.5,19.273336052894606L247.70833333333331,18.93900585174562L248.91666666666666,18.545665860176094L250.125,18.82100971539815L251.33333333333334,19.096341848373413L252.54166666666666,18.388341585795093L253.75,18.34900172551473L254.95833333333334,18.82100971539815L256.1666666666667,18.683331926663715L257.375,18.683331926663715L258.58333333333337,19.057001988093067L259.7916666666667,19.312675913174953L261,19.07667191823324L262.2083333333333,19.07667191823324L263.4166666666667,19.037332057952895L264.625,19.037332057952895L265.8333333333333,19.017673850059516" style="fill: none;" fill="none"></path></g><g><path stroke="rgb(238, 51, 119)" stroke-width="2px" d="M25.375,177L26.583333333333332,176.96066666766032L27.791666666666668,175.03333337729177L29,173.28300008674464L30.208333333333336,167.69766671707234L31.416666666666668,170.15599990387759L32.625,168.28766718010107L33.833333333333336,164.90500039855638L35.041666666666664,158.19866783420244L36.25,166.38000045716763L37.458333333333336,158.41500043372315L38.666666666666664,153.47866706053415L39.875,140.32166706522307L41.083333333333336,149.09299941857657L42.29166666666667,144.13700051108995L43.5,136.44733555118245L44.708333333333336,139.4760007361571L45.916666666666664,143.7830003798008L47.125,138.9056665400664L48.33333333333333,155.15033418436846L49.541666666666664,149.56500154733658L50.75,144.64833370844522L51.958333333333336,149.91900167862576L53.166666666666664,155.74033391475677L54.375,160.61766775449118L55.583333333333336,160.67666728794575L56.791666666666664,153.91133372485638L58,143.31100118160248L59.208333333333336,142.8980000515779L60.41666666666667,132.53366710742316L61.625,158.4346674333016L62.833333333333336,139.25966667135557L64.04166666666667,155.50433431565762L65.25,153.8523341914018L66.45833333333333,152.9476668636004L67.66666666666667,149.66333361466727L68.875,149.66333361466727L70.08333333333333,149.66333361466727L71.29166666666666,153.34100099404654L72.5,153.59666759272417L73.70833333333333,143.76333338022232L74.91666666666667,143.76333338022232L76.125,148.12933402260145L77.33333333333333,143.1536681155364L78.54166666666666,145.08100183804828L79.75,141.38366745909053L80.95833333333333,154.89466758569083L82.16666666666667,158.23800036807853L83.375,153.7146666596333L84.58333333333334,147.3623327612877L85.79166666666667,143.9993344446023L87,143.9993344446023L88.20833333333333,143.1536681155364L89.41666666666667,141.63933552304903L90.625,124.88333614667256L91.83333333333333,130.88166844844818L93.04166666666667,138.63033440709114L94.25,148.22766608993211L95.45833333333333,148.22766608993211L96.66666666666666,148.22766608993211L97.875,137.29300188024837L99.08333333333333,139.7906668682893L100.29166666666667,141.30499946077666L101.5,145.98566623528797L102.70833333333334,119.652002175649L103.91666666666667,115.32533260186513L105.125,109.64166643222173L106.33333333333333,118.5310037136078L107.54166666666667,141.97366865475973L108.75,152.49533466498056L109.95833333333333,144.4319996436437L111.16666666666667,144.4319996436437L112.375,148.89633528391522L113.58333333333333,144.78599977493286L114.79166666666666,142.36699985464415L116,135.70000128944713L117.20833333333333,141.1083353261153L118.41666666666667,153.53766659398875L119.625,149.17166741689044L120.83333333333334,151.29566820462546L122.04166666666667,159.12300069630146L123.25,157.7070001711448L124.45833333333333,165.25900052984554L125.66666666666667,157.60866663853326L126.875,155.8583344469468L128.08333333333334,148.91599935293198L129.29166666666669,148.91599935293198L130.5,138.0993342101574L131.70833333333334,138.51233534018198L132.91666666666666,135.56233522295952L134.125,137.27333488066992L135.33333333333334,118.39333764712016L136.54166666666666,117.90166558821996L137.75,103.5646661321322L138.95833333333334,126.24033274253209L140.16666666666666,124.27366795142491L141.375,126.90899900595348L142.58333333333331,131.5306677122911L143.79166666666666,141.6786665916443L145,141.6786665916443L146.20833333333334,135.54266822338104L147.41666666666666,133.59566750129062L148.625,145.2383349041144L149.83333333333334,139.0040015379588L151.04166666666669,148.54233515262604L152.25,137.5290000140667L153.45833333333334,135.8966683546702L154.66666666666666,124.94233421484628L155.875,131.68800077835718L157.08333333333331,133.14333530267078L158.29166666666666,126.14200067520143L159.5,131.29466664791107L160.70833333333334,123.76233182350795L161.91666666666666,139.04333553711572L163.125,132.29766897360486L164.33333333333334,132.29766897360486L165.54166666666666,135.83766735593477L166.75,137.8633331457774L167.95833333333334,136.44733555118245L169.16666666666669,136.44733555118245L170.375,126.90899900595348L171.58333333333334,123.58533175786336L172.79166666666666,133.59566750129062L174,134.65766789515814L175.20833333333331,113.83066993951796L176.41666666666666,113.83066993951796L177.625,113.83066993951796L178.83333333333334,113.83066993951796L180.04166666666666,122.30700316031775L181.25,120.16333244244257L182.45833333333334,108.71733796596527L183.66666666666666,111.41166708866754L184.875,108.8550040324529L186.08333333333334,103.87933226426443L187.29166666666669,107.12433737516403L188.5,107.12433737516403L189.70833333333334,107.12433737516403L190.91666666666666,115.12866846720378L192.125,119.75033424297969L193.33333333333331,112.90633561213811L194.54166666666666,111.62800115346909L195.75,96.60267136494319L196.95833333333334,133.04500030477843L198.16666666666666,131.57000171144804L199.375,129.0723337928454L200.58333333333334,132.82866917053857L201.79166666666666,131.96333584189415L203,127.04666507244112L204.20833333333334,122.40533522764842L205.41666666666669,122.40533522764842L206.625,115.91533672809602L207.83333333333334,127.00733693440755L209.04166666666666,137.35199994842213L210.25,136.48666661977768L211.45833333333331,136.48666661977768L212.66666666666666,123.36900355418523L213.875,133.51700243353844L215.08333333333334,135.87700135509175L216.29166666666666,129.46566792329153L217.5,127.81366926431654L218.70833333333334,129.4066669245561L219.91666666666666,131.86500084400177L221.125,130.92100244760513L222.33333333333334,114.67633626858394L223.54166666666669,112.90633561213811L224.75,120.39933643738428L225.95833333333334,144.31400057673454L227.16666666666666,130.84233444929123L228.375,127.51866720120113L229.58333333333331,144.1173335115115L230.79166666666666,139.29900067051253L232,139.29900067051253L233.20833333333334,142.91766705115634L234.41666666666666,135.9753334224224L235.625,144.78599977493286L236.83333333333334,150.48933294415474L238.04166666666666,150.48933294415474L239.25,146.33966636657715L240.45833333333334,132.415668040514L241.66666666666669,129.87866905331612L242.875,125.57166647911073L244.08333333333334,135.68033428986868L245.29166666666666,127.79399933417638L246.5,133.47766843438148L247.70833333333331,124.96200414498647L248.91666666666666,118.5310037136078L250.125,112.33600141604741L251.33333333333334,117.64600338538489L252.54166666666666,125.39466641346613L253.75,143.80266737937927L254.95833333333334,121.1073366999626L256.1666666666667,118.5310037136078L257.375,118.5310037136078L258.58333333333337,106.43600118160248L259.7916666666667,116.83967105547588L261,126.53533480564752L262.2083333333333,126.53533480564752L263.4166666666667,126.14200067520143L264.625,126.14200067520143L265.8333333333333,115.77767066160838" style="fill: none;" fill="none"></path></g></g></g></g></g></g><g transform="translate(40, 177)" clip-path="url(#clip_1)"><clipPath id="clip_1"><rect width="290" height="23"></rect></clipPath><g><g><line x1="0" y1="0" x2="0" y2="5" style="visibility: inherit;" fill="rgb(0, 0, 0)" stroke="rgb(204, 204, 204)" stroke-width="1px"></line><line x1="24.166666666666664" y1="0" x2="24.166666666666664" y2="5" style="visibility: inherit;" fill="rgb(0, 0, 0)" stroke="rgb(204, 204, 204)" stroke-width="1px"></line><line x1="48.33333333333333" y1="0" x2="48.33333333333333" y2="5" style="visibility: inherit;" fill="rgb(0, 0, 0)" stroke="rgb(204, 204, 204)" stroke-width="1px"></line><line x1="72.5" y1="0" x2="72.5" y2="5" style="visibility: inherit;" fill="rgb(0, 0, 0)" stroke="rgb(204, 204, 204)" stroke-width="1px"></line><line x1="96.66666666666666" y1="0" x2="96.66666666666666" y2="5" style="visibility: inherit;" fill="rgb(0, 0, 0)" stroke="rgb(204, 204, 204)" stroke-width="1px"></line><line x1="120.83333333333334" y1="0" x2="120.83333333333334" y2="5" style="visibility: inherit;" fill="rgb(0, 0, 0)" stroke="rgb(204, 204, 204)" stroke-width="1px"></line><line x1="145" y1="0" x2="145" y2="5" style="visibility: inherit;" fill="rgb(0, 0, 0)" stroke="rgb(204, 204, 204)" stroke-width="1px"></line><line x1="169.16666666666669" y1="0" x2="169.16666666666669" y2="5" style="visibility: inherit;" fill="rgb(0, 0, 0)" stroke="rgb(204, 204, 204)" stroke-width="1px"></line><line x1="193.33333333333331" y1="0" x2="193.33333333333331" y2="5" style="visibility: inherit;" fill="rgb(0, 0, 0)" stroke="rgb(204, 204, 204)" stroke-width="1px"></line><line x1="217.5" y1="0" x2="217.5" y2="5" style="visibility: inherit;" fill="rgb(0, 0, 0)" stroke="rgb(204, 204, 204)" stroke-width="1px"></line><line x1="241.66666666666669" y1="0" x2="241.66666666666669" y2="5" style="visibility: inherit;" fill="rgb(0, 0, 0)" stroke="rgb(204, 204, 204)" stroke-width="1px"></line><line x1="265.8333333333333" y1="0" x2="265.8333333333333" y2="5" style="visibility: inherit;" fill="rgb(0, 0, 0)" stroke="rgb(204, 204, 204)" stroke-width="1px"></line><line x1="290" y1="0" x2="290" y2="5" style="visibility: inherit;" fill="rgb(0, 0, 0)" stroke="rgb(204, 204, 204)" stroke-width="1px"></line></g><g transform="translate(0, 8)"><text x="0" y="0" dx="0em" dy="0.95em" style="text-anchor: middle; visibility: hidden; font-family: Roboto, sans-serif; font-size: 12px; font-weight: 200;" fill="rgb(33, 33, 33)" stroke="none" stroke-width="1px">-20</text><text x="24.166666666666664" y="0" dx="0em" dy="0.95em" style="text-anchor: middle; visibility: inherit; font-family: Roboto, sans-serif; font-size: 12px; font-weight: 200;" fill="rgb(33, 33, 33)" stroke="none" stroke-width="1px">0</text><text x="48.33333333333333" y="0" dx="0em" dy="0.95em" style="text-anchor: middle; visibility: hidden; font-family: Roboto, sans-serif; font-size: 12px; font-weight: 200;" fill="rgb(33, 33, 33)" stroke="none" stroke-width="1px">20</text><text x="72.5" y="0" dx="0em" dy="0.95em" style="text-anchor: middle; visibility: inherit; font-family: Roboto, sans-serif; font-size: 12px; font-weight: 200;" fill="rgb(33, 33, 33)" stroke="none" stroke-width="1px">40</text><text x="96.66666666666666" y="0" dx="0em" dy="0.95em" style="text-anchor: middle; visibility: hidden; font-family: Roboto, sans-serif; font-size: 12px; font-weight: 200;" fill="rgb(33, 33, 33)" stroke="none" stroke-width="1px">60</text><text x="120.83333333333334" y="0" dx="0em" dy="0.95em" style="text-anchor: middle; visibility: inherit; font-family: Roboto, sans-serif; font-size: 12px; font-weight: 200;" fill="rgb(33, 33, 33)" stroke="none" stroke-width="1px">80</text><text x="145" y="0" dx="0em" dy="0.95em" style="text-anchor: middle; visibility: hidden; font-family: Roboto, sans-serif; font-size: 12px; font-weight: 200;" fill="rgb(33, 33, 33)" stroke="none" stroke-width="1px">100</text><text x="169.16666666666669" y="0" dx="0em" dy="0.95em" style="text-anchor: middle; visibility: inherit; font-family: Roboto, sans-serif; font-size: 12px; font-weight: 200;" fill="rgb(33, 33, 33)" stroke="none" stroke-width="1px">120</text><text x="193.33333333333331" y="0" dx="0em" dy="0.95em" style="text-anchor: middle; visibility: hidden; font-family: Roboto, sans-serif; font-size: 12px; font-weight: 200;" fill="rgb(33, 33, 33)" stroke="none" stroke-width="1px">140</text><text x="217.5" y="0" dx="0em" dy="0.95em" style="text-anchor: middle; visibility: inherit; font-family: Roboto, sans-serif; font-size: 12px; font-weight: 200;" fill="rgb(33, 33, 33)" stroke="none" stroke-width="1px">160</text><text x="241.66666666666669" y="0" dx="0em" dy="0.95em" style="text-anchor: middle; visibility: hidden; font-family: Roboto, sans-serif; font-size: 12px; font-weight: 200;" fill="rgb(33, 33, 33)" stroke="none" stroke-width="1px">180</text><text x="265.8333333333333" y="0" dx="0em" dy="0.95em" style="text-anchor: middle; visibility: inherit; font-family: Roboto, sans-serif; font-size: 12px; font-weight: 200;" fill="rgb(33, 33, 33)" stroke="none" stroke-width="1px">200</text><text x="290" y="0" dx="0em" dy="0.95em" style="text-anchor: middle; visibility: hidden; font-family: Roboto, sans-serif; font-size: 12px; font-weight: 200;" fill="rgb(33, 33, 33)" stroke="none" stroke-width="1px">220</text></g><line x1="0" y1="0" x2="290" y2="0" fill="rgb(0, 0, 0)" stroke="rgb(204, 204, 204)" stroke-width="1px"></line></g></g></g></g></svg>