<svg viewBox="0 0 330 200" xmlns="http://www.w3.org/2000/svg"><g><g><g><g><g><line x1="40" y1="177" x2="35" y2="177" style="visibility: inherit;" fill="rgb(0, 0, 0)" stroke="rgb(204, 204, 204)" stroke-width="1px"></line><line x1="40" y1="159.3" x2="35" y2="159.3" style="visibility: inherit;" fill="rgb(0, 0, 0)" stroke="rgb(204, 204, 204)" stroke-width="1px"></line><line x1="40" y1="141.6" x2="35" y2="141.6" style="visibility: inherit;" fill="rgb(0, 0, 0)" stroke="rgb(204, 204, 204)" stroke-width="1px"></line><line x1="40" y1="123.89999999999999" x2="35" y2="123.89999999999999" style="visibility: inherit;" fill="rgb(0, 0, 0)" stroke="rgb(204, 204, 204)" stroke-width="1px"></line><line x1="40" y1="106.2" x2="35" y2="106.2" style="visibility: inherit;" fill="rgb(0, 0, 0)" stroke="rgb(204, 204, 204)" stroke-width="1px"></line><line x1="40" y1="88.5" x2="35" y2="88.5" style="visibility: inherit;" fill="rgb(0, 0, 0)" stroke="rgb(204, 204, 204)" stroke-width="1px"></line><line x1="40" y1="70.8" x2="35" y2="70.8" style="visibility: inherit;" fill="rgb(0, 0, 0)" stroke="rgb(204, 204, 204)" stroke-width="1px"></line><line x1="40" y1="53.10000000000001" x2="35" y2="53.10000000000001" style="visibility: inherit;" fill="rgb(0, 0, 0)" stroke="rgb(204, 204, 204)" stroke-width="1px"></line><line x1="40" y1="35.39999999999999" x2="35" y2="35.39999999999999" style="visibility: inherit;" fill="rgb(0, 0, 0)" stroke="rgb(204, 204, 204)" stroke-width="1px"></line><line x1="40" y1="17.699999999999996" x2="35" y2="17.699999999999996" style="visibility: inherit;" fill="rgb(0, 0, 0)" stroke="rgb(204, 204, 204)" stroke-width="1px"></line><line x1="40" y1="0" x2="35" y2="0" style="visibility: inherit;" fill="rgb(0, 0, 0)" stroke="rgb(204, 204, 204)" stroke-width="1px"></line></g><g transform="translate(30, 0)"><text x="0" y="177" dx="0em" dy="0.3em" style="text-anchor: end; visibility: hidden; font-family: Roboto, sans-serif; font-size: 12px; font-weight: 200;" fill="rgb(33, 33, 33)" stroke="none" stroke-width="1px">0</text><text x="0" y="159.3" dx="0em" dy="0.3em" style="text-anchor: end; visibility: inherit; font-family: Roboto, sans-serif; font-size: 12px; font-weight: 200;" fill="rgb(33, 33, 33)" stroke="none" stroke-width="1px">0.1</text><text x="0" y="141.6" dx="0em" dy="0.3em" style="text-anchor: end; visibility: hidden; font-family: Roboto, sans-serif; font-size: 12px; font-weight: 200;" fill="rgb(33, 33, 33)" stroke="none" stroke-width="1px">0.2</text><text x="0" y="123.89999999999999" dx="0em" dy="0.3em" style="text-anchor: end; visibility: inherit; font-family: Roboto, sans-serif; font-size: 12px; font-weight: 200;" fill="rgb(33, 33, 33)" stroke="none" stroke-width="1px">0.3</text><text x="0" y="106.2" dx="0em" dy="0.3em" style="text-anchor: end; visibility: hidden; font-family: Roboto, sans-serif; font-size: 12px; font-weight: 200;" fill="rgb(33, 33, 33)" stroke="none" stroke-width="1px">0.4</text><text x="0" y="88.5" dx="0em" dy="0.3em" style="text-anchor: end; visibility: inherit; font-family: Roboto, sans-serif; font-size: 12px; font-weight: 200;" fill="rgb(33, 33, 33)" stroke="none" stroke-width="1px">0.5</text><text x="0" y="70.8" dx="0em" dy="0.3em" style="text-anchor: end; visibility: hidden; font-family: Roboto, sans-serif; font-size: 12px; font-weight: 200;" fill="rgb(33, 33, 33)" stroke="none" stroke-width="1px">0.6</text><text x="0" y="53.10000000000001" dx="0em" dy="0.3em" style="text-anchor: end; visibility: inherit; font-family: Roboto, sans-serif; font-size: 12px; font-weight: 200;" fill="rgb(33, 33, 33)" stroke="none" stroke-width="1px">0.7</text><text x="0" y="35.39999999999999" dx="0em" dy="0.3em" style="text-anchor: end; visibility: hidden; font-family: Roboto, sans-serif; font-size: 12px; font-weight: 200;" fill="rgb(33, 33, 33)" stroke="none" stroke-width="1px">0.8</text><text x="0" y="17.699999999999996" dx="0em" dy="0.3em" style="text-anchor: end; visibility: inherit; font-family: Roboto, sans-serif; font-size: 12px; font-weight: 200;" fill="rgb(33, 33, 33)" stroke="none" stroke-width="1px">0.9</text><text x="0" y="0" dx="0em" dy="0.3em" style="text-anchor: end; visibility: hidden; font-family: Roboto, sans-serif; font-size: 12px; font-weight: 200;" fill="rgb(33, 33, 33)" stroke="none" stroke-width="1px">1</text></g><line x1="40" y1="0" x2="40" y2="177" fill="rgb(0, 0, 0)" stroke="rgb(204, 204, 204)" stroke-width="1px"></line></g></g><g transform="translate(40, 0)" clip-path="url(#clip_0)"><clipPath id="clip_0"><rect width="290" height="177"></rect></clipPath><g><g><g><line x1="0" y1="0" x2="0" y2="177" fill="rgb(0, 0, 0)" stroke="rgb(66, 66, 66)" stroke-width="1px" opacity="0.25"></line><line x1="24.166666666666664" y1="0" x2="24.166666666666664" y2="177" fill="rgb(0, 0, 0)" stroke="rgb(66, 66, 66)" stroke-width="1px" opacity="0.25"></line><line x1="48.33333333333333" y1="0" x2="48.33333333333333" y2="177" fill="rgb(0, 0, 0)" stroke="rgb(66, 66, 66)" stroke-width="1px" opacity="0.25"></line><line x1="72.5" y1="0" x2="72.5" y2="177" fill="rgb(0, 0, 0)" stroke="rgb(66, 66, 66)" stroke-width="1px" opacity="0.25"></line><line x1="96.66666666666666" y1="0" x2="96.66666666666666" y2="177" fill="rgb(0, 0, 0)" stroke="rgb(66, 66, 66)" stroke-width="1px" opacity="0.25"></line><line x1="120.83333333333334" y1="0" x2="120.83333333333334" y2="177" fill="rgb(0, 0, 0)" stroke="rgb(66, 66, 66)" stroke-width="1px" opacity="0.25"></line><line x1="145" y1="0" x2="145" y2="177" fill="rgb(0, 0, 0)" stroke="rgb(66, 66, 66)" stroke-width="1px" opacity="0.25"></line><line x1="169.16666666666669" y1="0" x2="169.16666666666669" y2="177" fill="rgb(0, 0, 0)" stroke="rgb(66, 66, 66)" stroke-width="1px" opacity="0.25"></line><line x1="193.33333333333331" y1="0" x2="193.33333333333331" y2="177" fill="rgb(0, 0, 0)" stroke="rgb(66, 66, 66)" stroke-width="1px" opacity="0.25"></line><line x1="217.5" y1="0" x2="217.5" y2="177" fill="rgb(0, 0, 0)" stroke="rgb(66, 66, 66)" stroke-width="1px" opacity="0.25"></line><line x1="241.66666666666669" y1="0" x2="241.66666666666669" y2="177" fill="rgb(0, 0, 0)" stroke="rgb(66, 66, 66)" stroke-width="1px" opacity="0.25"></line><line x1="265.8333333333333" y1="0" x2="265.8333333333333" y2="177" fill="rgb(0, 0, 0)" stroke="rgb(66, 66, 66)" stroke-width="1px" opacity="0.25"></line><line x1="290" y1="0" x2="290" y2="177" fill="rgb(0, 0, 0)" stroke="rgb(66, 66, 66)" stroke-width="1px" opacity="0.25"></line></g><g><line x1="0" y1="177" x2="290" y2="177" fill="rgb(0, 0, 0)" stroke="rgb(66, 66, 66)" stroke-width="1px" opacity="0.25"></line><line x1="0" y1="159.3" x2="290" y2="159.3" fill="rgb(0, 0, 0)" stroke="rgb(66, 66, 66)" stroke-width="1px" opacity="0.25"></line><line x1="0" y1="141.6" x2="290" y2="141.6" fill="rgb(0, 0, 0)" stroke="rgb(66, 66, 66)" stroke-width="1px" opacity="0.25"></line><line x1="0" y1="123.89999999999999" x2="290" y2="123.89999999999999" fill="rgb(0, 0, 0)" stroke="rgb(66, 66, 66)" stroke-width="1px" opacity="0.25"></line><line x1="0" y1="106.2" x2="290" y2="106.2" fill="rgb(0, 0, 0)" stroke="rgb(66, 66, 66)" stroke-width="1px" opacity="0.25"></line><line x1="0" y1="88.5" x2="290" y2="88.5" fill="rgb(0, 0, 0)" stroke="rgb(66, 66, 66)" stroke-width="1px" opacity="0.25"></line><line x1="0" y1="70.8" x2="290" y2="70.8" fill="rgb(0, 0, 0)" stroke="rgb(66, 66, 66)" stroke-width="1px" opacity="0.25"></line><line x1="0" y1="53.10000000000001" x2="290" y2="53.10000000000001" fill="rgb(0, 0, 0)" stroke="rgb(66, 66, 66)" stroke-width="1px" opacity="0.25"></line><line x1="0" y1="35.39999999999999" x2="290" y2="35.39999999999999" fill="rgb(0, 0, 0)" stroke="rgb(66, 66, 66)" stroke-width="1px" opacity="0.25"></line><line x1="0" y1="17.699999999999996" x2="290" y2="17.699999999999996" fill="rgb(0, 0, 0)" stroke="rgb(66, 66, 66)" stroke-width="1px" opacity="0.25"></line><line x1="0" y1="0" x2="290" y2="0" fill="rgb(0, 0, 0)" stroke="rgb(66, 66, 66)" stroke-width="1px" opacity="0.25"></line></g></g></g><g><g><line x1="0" y1="177" x2="290" y2="177" fill="rgb(0, 0, 0)" stroke="rgb(153, 153, 153)" stroke-width="1.5px"></line></g></g><g><g><line x1="24.166666666666664" y1="0" x2="24.166666666666664" y2="177" fill="rgb(0, 0, 0)" stroke="rgb(153, 153, 153)" stroke-width="1.5px"></line></g></g><g><g><g><g><g><path stroke="rgb(51, 187, 238)" stroke-width="2px" d="M25.375,158.87520045787096L26.583333333333332,116.67840224504471L27.791666666666668,59.75519871711731L29,48.285605013370514L30.208333333333336,44.037606954574585L31.416666666666668,42.62160408496857L32.625,39.64800649881363L33.833333333333336,36.95760315656662L35.041666666666664,33.4176065325737L36.25,32.70960509777069L37.458333333333336,29.16960847377777L38.666666666666664,30.16080415248871L39.875,28.17840224504471L41.083333333333336,27.89520800113678L42.29166666666667,25.771203696727753L43.5,24.072006583213806L44.708333333333336,24.49680322408676L45.916666666666664,25.629601299762726L47.125,23.505607545375824L48.33333333333333,21.24000084400177L49.541666666666664,21.24000084400177L50.75,20.39040756225586L51.958333333333336,21.24000084400177L53.166666666666664,19.68240612745285L54.375,21.523205637931824L55.583333333333336,21.381603240966797L56.791666666666664,20.53199940919876L58,20.39040756225586L59.208333333333336,18.691199898719788L60.41666666666667,18.549608051776886L61.625,19.96560037136078L62.833333333333336,19.824008524417877L64.04166666666667,17.983209013938904L65.25,17.70000422000885L66.45833333333333,17.841606616973877L67.66666666666667,18.549608051776886L68.875,18.40800565481186L70.08333333333333,18.832802295684814L71.29166666666666,20.53199940919876L72.5,17.558401823043823L73.70833333333333,18.691199898719788L74.91666666666667,17.70000422000885L76.125,17.983209013938904L77.33333333333333,16.142398953437805L78.54166666666666,17.416799426078796L79.75,17.133605182170868L80.95833333333333,16.850400388240814L82.16666666666667,16.42560374736786L83.375,17.133605182170868L84.58333333333334,16.142398953437805L85.79166666666667,16.567206144332886L87,15.71760231256485L88.20833333333333,17.70000422000885L89.41666666666667,16.567206144332886L90.625,15.151203274726868L91.83333333333333,16.284001350402832L93.04166666666667,15.859204709529877L94.25,15.71760231256485L95.45833333333333,14.86800903081894L96.66666666666666,15.434408068656921L97.875,16.567206144332886L99.08333333333333,16.284001350402832L100.29166666666667,14.86800903081894L101.5,15.434408068656921L102.70833333333334,14.86800903081894L103.91666666666667,13.73520040512085L105.125,13.593608558177948L106.33333333333333,13.876802802085876L107.54166666666667,14.16000759601593L108.75,14.726406633853912L109.95833333333333,15.00960087776184L111.16666666666667,15.292805671691895L112.375,14.584804236888885L113.58333333333333,13.02719897031784L114.79166666666666,13.876802802085876L116,14.726406633853912L117.20833333333333,14.726406633853912L118.41666666666667,14.018405199050903L119.625,13.73520040512085L120.83333333333334,13.310403764247894L122.04166666666667,14.584804236888885L123.25,14.443201839923859L124.45833333333333,13.73520040512085L125.66666666666667,13.73520040512085L126.875,14.86800903081894L128.08333333333334,15.00960087776184L129.29166666666669,14.584804236888885L130.5,14.443201839923859L131.70833333333334,14.018405199050903L132.91666666666666,15.292805671691895L134.125,15.292805671691895L135.33333333333334,13.73520040512085L136.54166666666666,16.142398953437805L137.75,14.726406633853912L138.95833333333334,13.593608558177948L140.16666666666666,14.443201839923859L141.375,13.168801367282867L142.58333333333331,13.593608558177948L143.79166666666666,16.708808541297913L145,14.726406633853912L146.20833333333334,14.018405199050903L147.41666666666666,13.73520040512085L148.625,14.16000759601593L149.83333333333334,14.443201839923859L151.04166666666669,14.16000759601593L152.25,14.726406633853912L153.45833333333334,14.16000759601593L154.66666666666666,14.443201839923859L155.875,13.452006161212921L157.08333333333331,14.86800903081894L158.29166666666666,13.452006161212921L159.5,13.452006161212921L160.70833333333334,13.310403764247894L161.91666666666666,13.310403764247894L163.125,13.876802802085876L164.33333333333334,14.584804236888885L165.54166666666666,14.584804236888885L166.75,14.443201839923859L167.95833333333334,13.593608558177948L169.16666666666669,13.73520040512085L170.375,13.02719897031784L171.58333333333334,13.452006161212921L172.79166666666666,12.744004726409912L174,13.73520040512085L175.20833333333331,13.452006161212921L176.41666666666666,13.73520040512085L177.625,14.16000759601593L178.83333333333334,12.885607123374939L180.04166666666666,13.73520040512085L181.25,12.602402329444885L182.45833333333334,13.168801367282867L183.66666666666666,12.885607123374939L184.875,12.460799932479858L186.08333333333334,12.744004726409912L187.29166666666669,12.602402329444885L188.5,13.168801367282867L189.70833333333334,12.885607123374939L190.91666666666666,13.02719897031784L192.125,13.452006161212921L193.33333333333331,12.885607123374939L194.54166666666666,12.885607123374939L195.75,13.310403764247894L196.95833333333334,14.584804236888885L198.16666666666666,13.168801367282867L199.375,13.593608558177948L200.58333333333334,13.452006161212921L201.79166666666666,13.310403764247894L203,13.310403764247894L204.20833333333334,13.02719897031784L205.41666666666669,13.310403764247894L206.625,14.443201839923859L207.83333333333334,13.876802802085876L209.04166666666666,14.443201839923859L210.25,13.876802802085876L211.45833333333331,13.73520040512085L212.66666666666666,12.744004726409912L213.875,13.452006161212921L215.08333333333334,13.593608558177948L216.29166666666666,13.452006161212921L217.5,13.02719897031784L218.70833333333334,13.310403764247894L219.91666666666666,13.168801367282867L221.125,12.744004726409912L222.33333333333334,13.168801367282867L223.54166666666669,13.310403764247894L224.75,12.885607123374939L225.95833333333334,13.73520040512085L227.16666666666666,13.593608558177948L228.375,14.301599442958832L229.58333333333331,14.018405199050903L230.79166666666666,14.018405199050903L232,13.452006161212921L233.20833333333334,13.168801367282867L234.41666666666666,13.02719897031784L235.625,13.452006161212921L236.83333333333334,13.02719897031784L238.04166666666666,13.876802802085876L239.25,13.73520040512085L240.45833333333334,14.018405199050903L241.66666666666669,13.593608558177948L242.875,13.593608558177948L244.08333333333334,13.876802802085876L245.29166666666666,14.018405199050903L246.5,13.593608558177948L247.70833333333331,12.744004726409912L248.91666666666666,12.602402329444885L250.125,13.02719897031784L251.33333333333334,13.452006161212921L252.54166666666666,13.02719897031784L253.75,13.452006161212921L254.95833333333334,12.460799932479858L256.1666666666667,13.02719897031784L257.375,13.310403764247894L258.58333333333337,13.02719897031784L259.7916666666667,12.460799932479858L261,13.310403764247894L262.2083333333333,13.168801367282867L263.4166666666667,12.885607123374939L264.625,12.885607123374939L265.8333333333333,13.02719897031784" style="fill: none;" fill="none"></path></g><g><path stroke="rgb(238, 51, 119)" stroke-width="2px" d="M25.375,48.42720741033554L26.583333333333332,167.79600046947598L27.791666666666668,166.80480017513037L29,169.0704002827406L30.208333333333336,165.38879994302988L31.416666666666668,167.37120053172112L32.625,163.4064006730914L33.833333333333336,159.7248003333807L35.041666666666664,159.01680021733046L36.25,159.15839997678995L37.458333333333336,152.7864015698433L38.666666666666664,155.9016002342105L39.875,149.1047999113798L41.083333333333336,148.39680111408234L42.29166666666667,158.3088001012802L43.5,151.9368003755808L44.708333333333336,157.034400947392L45.916666666666664,142.4496006667614L47.125,151.6536008566618L48.33333333333333,149.2463996708393L49.541666666666664,151.5120010972023L50.75,148.82160039246082L51.958333333333336,150.9455994218588L53.166666666666664,148.68000063300133L54.375,149.1047999113798L55.583333333333336,147.68879967927933L56.791666666666664,152.36159965395927L58,147.68879967927933L59.208333333333336,147.97200183570385L60.41666666666667,150.2376006245613L61.625,152.9280013293028L62.833333333333336,152.36159965395927L64.04166666666667,148.25520135462284L65.25,154.48560132086277L66.45833333333333,147.68879967927933L67.66666666666667,150.2376006245613L68.875,143.86560089886189L70.08333333333333,146.41440184414387L71.29166666666666,149.1047999113798L72.5,148.39680111408234L73.70833333333333,149.1047999113798L74.91666666666667,139.33440068364143L76.125,147.68879967927933L77.33333333333333,132.962400957942L78.54166666666666,143.1576021015644L79.75,149.67120158672333L80.95833333333333,153.49440036714077L82.16666666666667,152.21999989449978L83.375,149.81280134618282L84.58333333333334,149.81280134618282L85.79166666666667,147.12240064144135L87,149.81280134618282L88.20833333333333,147.12240064144135L89.41666666666667,152.21999989449978L90.625,152.36159965395927L91.83333333333333,148.82160039246082L93.04166666666667,146.41440184414387L94.25,142.1664011478424L95.45833333333333,136.07760094106197L96.66666666666666,139.19280092418194L97.875,145.70640040934086L99.08333333333333,145.42320089042187L100.29166666666667,143.5824013799429L101.5,139.61760020256042L102.70833333333334,138.34319972991943L103.91666666666667,144.57359969615936L105.125,140.75040091574192L106.33333333333333,146.83920112252235L107.54166666666667,144.14880041778088L108.75,141.4583997130394L109.95833333333333,144.14880041778088L111.16666666666667,138.62640188634396L112.375,144.85680185258389L113.58333333333333,148.39680111408234L114.79166666666666,144.43199993669987L116,148.11360159516335L117.20833333333333,147.40560016036034L118.41666666666667,146.41440184414387L119.625,149.1047999113798L120.83333333333334,145.14000137150288L122.04166666666667,141.3167999535799L123.25,147.68879967927933L124.45833333333333,141.88320162892342L125.66666666666667,146.83920112252235L126.875,144.14880041778088L128.08333333333334,141.0336004346609L129.29166666666669,140.46720139682293L130.5,146.83920112252235L131.70833333333334,147.54719991981983L132.91666666666666,138.48480212688446L134.125,143.4408016204834L135.33333333333334,148.25520135462284L136.54166666666666,151.08720181882381L137.75,147.40560016036034L138.95833333333334,147.26400040090084L140.16666666666666,151.7952006161213L141.375,150.9455994218588L142.58333333333331,143.01599970459938L143.79166666666666,142.1664011478424L145,148.11360159516335L146.20833333333334,148.39680111408234L147.41666666666666,145.42320089042187L148.625,147.26400040090084L149.83333333333334,147.12240064144135L151.04166666666669,147.83039943873882L152.25,148.53840087354183L153.45833333333334,142.4496006667614L154.66666666666666,145.56480064988136L155.875,145.28160113096237L157.08333333333331,137.77680069208145L158.29166666666666,140.32560163736343L159.5,135.511201903224L160.70833333333334,139.19280092418194L161.91666666666666,142.5912004262209L163.125,144.57359969615936L164.33333333333334,138.48480212688446L165.54166666666666,145.14000137150288L166.75,143.2992018610239L167.95833333333334,144.29040017724037L169.16666666666669,144.7152020931244L170.375,144.14880041778088L171.58333333333334,143.5824013799429L172.79166666666666,142.1664011478424L174,138.20159997045994L175.20833333333331,139.75919996201992L176.41666666666666,139.05120116472244L177.625,142.7328001856804L178.83333333333334,142.5912004262209L180.04166666666666,139.19280092418194L181.25,142.5912004262209L182.45833333333334,144.99840161204338L183.66666666666666,145.42320089042187L184.875,142.5912004262209L186.08333333333334,137.35200141370296L187.29166666666669,132.3959992825985L188.5,138.34319972991943L189.70833333333334,137.35200141370296L190.91666666666666,139.75919996201992L192.125,137.91840045154095L193.33333333333331,140.60880115628242L194.54166666666666,141.4583997130394L195.75,141.60000211000443L196.95833333333334,139.61760020256042L198.16666666666666,138.20159997045994L199.375,143.1576021015644L200.58333333333334,144.14880041778088L201.79166666666666,144.14880041778088L203,142.0248013883829L204.20833333333334,141.88320162892342L205.41666666666669,147.97200183570385L206.625,148.25520135462284L207.83333333333334,144.7152020931244L209.04166666666666,144.85680185258389L210.25,140.18400187790394L211.45833333333331,144.29040017724037L212.66666666666666,142.87439994513988L213.875,141.4583997130394L215.08333333333334,141.60000211000443L216.29166666666666,139.33440068364143L217.5,142.87439994513988L218.70833333333334,144.43199993669987L219.91666666666666,141.3167999535799L221.125,143.7240011394024L222.33333333333334,144.7152020931244L223.54166666666669,145.98959992825985L224.75,139.90079972147942L225.95833333333334,139.05120116472244L227.16666666666666,142.5912004262209L228.375,141.0336004346609L229.58333333333331,137.77680069208145L230.79166666666666,139.33440068364143L232,143.86560089886189L233.20833333333334,142.87439994513988L234.41666666666666,137.06880189478397L235.625,137.49360117316246L236.83333333333334,141.3167999535799L238.04166666666666,143.4408016204834L239.25,144.57359969615936L240.45833333333334,143.86560089886189L241.66666666666669,146.41440184414387L242.875,140.60880115628242L244.08333333333334,144.43199993669987L245.29166666666666,144.29040017724037L246.5,148.25520135462284L247.70833333333331,151.08720181882381L248.91666666666666,149.67120158672333L250.125,151.9368003755808L251.33333333333334,151.5120010972023L252.54166666666666,150.09600086510181L253.75,153.21120084822178L254.95833333333334,149.1047999113798L256.1666666666667,148.25520135462284L257.375,150.9455994218588L258.58333333333337,151.5120010972023L259.7916666666667,149.1047999113798L261,148.25520135462284L262.2083333333333,147.40560016036034L263.4166666666667,147.26400040090084L264.625,147.26400040090084L265.8333333333333,148.82160039246082" style="fill: none;" fill="none"></path></g></g></g></g></g></g><g transform="translate(40, 177)" clip-path="url(#clip_1)"><clipPath id="clip_1"><rect width="290" height="23"></rect></clipPath><g><g><line x1="0" y1="0" x2="0" y2="5" style="visibility: inherit;" fill="rgb(0, 0, 0)" stroke="rgb(204, 204, 204)" stroke-width="1px"></line><line x1="24.166666666666664" y1="0" x2="24.166666666666664" y2="5" style="visibility: inherit;" fill="rgb(0, 0, 0)" stroke="rgb(204, 204, 204)" stroke-width="1px"></line><line x1="48.33333333333333" y1="0" x2="48.33333333333333" y2="5" style="visibility: inherit;" fill="rgb(0, 0, 0)" stroke="rgb(204, 204, 204)" stroke-width="1px"></line><line x1="72.5" y1="0" x2="72.5" y2="5" style="visibility: inherit;" fill="rgb(0, 0, 0)" stroke="rgb(204, 204, 204)" stroke-width="1px"></line><line x1="96.66666666666666" y1="0" x2="96.66666666666666" y2="5" style="visibility: inherit;" fill="rgb(0, 0, 0)" stroke="rgb(204, 204, 204)" stroke-width="1px"></line><line x1="120.83333333333334" y1="0" x2="120.83333333333334" y2="5" style="visibility: inherit;" fill="rgb(0, 0, 0)" stroke="rgb(204, 204, 204)" stroke-width="1px"></line><line x1="145" y1="0" x2="145" y2="5" style="visibility: inherit;" fill="rgb(0, 0, 0)" stroke="rgb(204, 204, 204)" stroke-width="1px"></line><line x1="169.16666666666669" y1="0" x2="169.16666666666669" y2="5" style="visibility: inherit;" fill="rgb(0, 0, 0)" stroke="rgb(204, 204, 204)" stroke-width="1px"></line><line x1="193.33333333333331" y1="0" x2="193.33333333333331" y2="5" style="visibility: inherit;" fill="rgb(0, 0, 0)" stroke="rgb(204, 204, 204)" stroke-width="1px"></line><line x1="217.5" y1="0" x2="217.5" y2="5" style="visibility: inherit;" fill="rgb(0, 0, 0)" stroke="rgb(204, 204, 204)" stroke-width="1px"></line><line x1="241.66666666666669" y1="0" x2="241.66666666666669" y2="5" style="visibility: inherit;" fill="rgb(0, 0, 0)" stroke="rgb(204, 204, 204)" stroke-width="1px"></line><line x1="265.8333333333333" y1="0" x2="265.8333333333333" y2="5" style="visibility: inherit;" fill="rgb(0, 0, 0)" stroke="rgb(204, 204, 204)" stroke-width="1px"></line><line x1="290" y1="0" x2="290" y2="5" style="visibility: inherit;" fill="rgb(0, 0, 0)" stroke="rgb(204, 204, 204)" stroke-width="1px"></line></g><g transform="translate(0, 8)"><text x="0" y="0" dx="0em" dy="0.95em" style="text-anchor: middle; visibility: hidden; font-family: Roboto, sans-serif; font-size: 12px; font-weight: 200;" fill="rgb(33, 33, 33)" stroke="none" stroke-width="1px">-20</text><text x="24.166666666666664" y="0" dx="0em" dy="0.95em" style="text-anchor: middle; visibility: inherit; font-family: Roboto, sans-serif; font-size: 12px; font-weight: 200;" fill="rgb(33, 33, 33)" stroke="none" stroke-width="1px">0</text><text x="48.33333333333333" y="0" dx="0em" dy="0.95em" style="text-anchor: middle; visibility: hidden; font-family: Roboto, sans-serif; font-size: 12px; font-weight: 200;" fill="rgb(33, 33, 33)" stroke="none" stroke-width="1px">20</text><text x="72.5" y="0" dx="0em" dy="0.95em" style="text-anchor: middle; visibility: inherit; font-family: Roboto, sans-serif; font-size: 12px; font-weight: 200;" fill="rgb(33, 33, 33)" stroke="none" stroke-width="1px">40</text><text x="96.66666666666666" y="0" dx="0em" dy="0.95em" style="text-anchor: middle; visibility: hidden; font-family: Roboto, sans-serif; font-size: 12px; font-weight: 200;" fill="rgb(33, 33, 33)" stroke="none" stroke-width="1px">60</text><text x="120.83333333333334" y="0" dx="0em" dy="0.95em" style="text-anchor: middle; visibility: inherit; font-family: Roboto, sans-serif; font-size: 12px; font-weight: 200;" fill="rgb(33, 33, 33)" stroke="none" stroke-width="1px">80</text><text x="145" y="0" dx="0em" dy="0.95em" style="text-anchor: middle; visibility: hidden; font-family: Roboto, sans-serif; font-size: 12px; font-weight: 200;" fill="rgb(33, 33, 33)" stroke="none" stroke-width="1px">100</text><text x="169.16666666666669" y="0" dx="0em" dy="0.95em" style="text-anchor: middle; visibility: inherit; font-family: Roboto, sans-serif; font-size: 12px; font-weight: 200;" fill="rgb(33, 33, 33)" stroke="none" stroke-width="1px">120</text><text x="193.33333333333331" y="0" dx="0em" dy="0.95em" style="text-anchor: middle; visibility: hidden; font-family: Roboto, sans-serif; font-size: 12px; font-weight: 200;" fill="rgb(33, 33, 33)" stroke="none" stroke-width="1px">140</text><text x="217.5" y="0" dx="0em" dy="0.95em" style="text-anchor: middle; visibility: inherit; font-family: Roboto, sans-serif; font-size: 12px; font-weight: 200;" fill="rgb(33, 33, 33)" stroke="none" stroke-width="1px">160</text><text x="241.66666666666669" y="0" dx="0em" dy="0.95em" style="text-anchor: middle; visibility: hidden; font-family: Roboto, sans-serif; font-size: 12px; font-weight: 200;" fill="rgb(33, 33, 33)" stroke="none" stroke-width="1px">180</text><text x="265.8333333333333" y="0" dx="0em" dy="0.95em" style="text-anchor: middle; visibility: inherit; font-family: Roboto, sans-serif; font-size: 12px; font-weight: 200;" fill="rgb(33, 33, 33)" stroke="none" stroke-width="1px">200</text><text x="290" y="0" dx="0em" dy="0.95em" style="text-anchor: middle; visibility: hidden; font-family: Roboto, sans-serif; font-size: 12px; font-weight: 200;" fill="rgb(33, 33, 33)" stroke="none" stroke-width="1px">220</text></g><line x1="0" y1="0" x2="290" y2="0" fill="rgb(0, 0, 0)" stroke="rgb(204, 204, 204)" stroke-width="1px"></line></g></g></g></g></svg>