<svg viewBox="0 0 330 200" xmlns="http://www.w3.org/2000/svg"><g><g><g><g><g><line x1="40" y1="177" x2="35" y2="177" style="visibility: inherit;" fill="rgb(0, 0, 0)" stroke="rgb(204, 204, 204)" stroke-width="1px"></line><line x1="40" y1="159.3" x2="35" y2="159.3" style="visibility: inherit;" fill="rgb(0, 0, 0)" stroke="rgb(204, 204, 204)" stroke-width="1px"></line><line x1="40" y1="141.6" x2="35" y2="141.6" style="visibility: inherit;" fill="rgb(0, 0, 0)" stroke="rgb(204, 204, 204)" stroke-width="1px"></line><line x1="40" y1="123.89999999999999" x2="35" y2="123.89999999999999" style="visibility: inherit;" fill="rgb(0, 0, 0)" stroke="rgb(204, 204, 204)" stroke-width="1px"></line><line x1="40" y1="106.2" x2="35" y2="106.2" style="visibility: inherit;" fill="rgb(0, 0, 0)" stroke="rgb(204, 204, 204)" stroke-width="1px"></line><line x1="40" y1="88.5" x2="35" y2="88.5" style="visibility: inherit;" fill="rgb(0, 0, 0)" stroke="rgb(204, 204, 204)" stroke-width="1px"></line><line x1="40" y1="70.8" x2="35" y2="70.8" style="visibility: inherit;" fill="rgb(0, 0, 0)" stroke="rgb(204, 204, 204)" stroke-width="1px"></line><line x1="40" y1="53.10000000000001" x2="35" y2="53.10000000000001" style="visibility: inherit;" fill="rgb(0, 0, 0)" stroke="rgb(204, 204, 204)" stroke-width="1px"></line><line x1="40" y1="35.39999999999999" x2="35" y2="35.39999999999999" style="visibility: inherit;" fill="rgb(0, 0, 0)" stroke="rgb(204, 204, 204)" stroke-width="1px"></line><line x1="40" y1="17.699999999999996" x2="35" y2="17.699999999999996" style="visibility: inherit;" fill="rgb(0, 0, 0)" stroke="rgb(204, 204, 204)" stroke-width="1px"></line><line x1="40" y1="0" x2="35" y2="0" style="visibility: inherit;" fill="rgb(0, 0, 0)" stroke="rgb(204, 204, 204)" stroke-width="1px"></line></g><g transform="translate(30, 0)"><text x="0" y="177" dx="0em" dy="0.3em" style="text-anchor: end; visibility: hidden; font-family: Roboto, sans-serif; font-size: 12px; font-weight: 200;" fill="rgb(33, 33, 33)" stroke="none" stroke-width="1px">0</text><text x="0" y="159.3" dx="0em" dy="0.3em" style="text-anchor: end; visibility: inherit; font-family: Roboto, sans-serif; font-size: 12px; font-weight: 200;" fill="rgb(33, 33, 33)" stroke="none" stroke-width="1px">0.1</text><text x="0" y="141.6" dx="0em" dy="0.3em" style="text-anchor: end; visibility: hidden; font-family: Roboto, sans-serif; font-size: 12px; font-weight: 200;" fill="rgb(33, 33, 33)" stroke="none" stroke-width="1px">0.2</text><text x="0" y="123.89999999999999" dx="0em" dy="0.3em" style="text-anchor: end; visibility: inherit; font-family: Roboto, sans-serif; font-size: 12px; font-weight: 200;" fill="rgb(33, 33, 33)" stroke="none" stroke-width="1px">0.3</text><text x="0" y="106.2" dx="0em" dy="0.3em" style="text-anchor: end; visibility: hidden; font-family: Roboto, sans-serif; font-size: 12px; font-weight: 200;" fill="rgb(33, 33, 33)" stroke="none" stroke-width="1px">0.4</text><text x="0" y="88.5" dx="0em" dy="0.3em" style="text-anchor: end; visibility: inherit; font-family: Roboto, sans-serif; font-size: 12px; font-weight: 200;" fill="rgb(33, 33, 33)" stroke="none" stroke-width="1px">0.5</text><text x="0" y="70.8" dx="0em" dy="0.3em" style="text-anchor: end; visibility: hidden; font-family: Roboto, sans-serif; font-size: 12px; font-weight: 200;" fill="rgb(33, 33, 33)" stroke="none" stroke-width="1px">0.6</text><text x="0" y="53.10000000000001" dx="0em" dy="0.3em" style="text-anchor: end; visibility: inherit; font-family: Roboto, sans-serif; font-size: 12px; font-weight: 200;" fill="rgb(33, 33, 33)" stroke="none" stroke-width="1px">0.7</text><text x="0" y="35.39999999999999" dx="0em" dy="0.3em" style="text-anchor: end; visibility: hidden; font-family: Roboto, sans-serif; font-size: 12px; font-weight: 200;" fill="rgb(33, 33, 33)" stroke="none" stroke-width="1px">0.8</text><text x="0" y="17.699999999999996" dx="0em" dy="0.3em" style="text-anchor: end; visibility: inherit; font-family: Roboto, sans-serif; font-size: 12px; font-weight: 200;" fill="rgb(33, 33, 33)" stroke="none" stroke-width="1px">0.9</text><text x="0" y="0" dx="0em" dy="0.3em" style="text-anchor: end; visibility: hidden; font-family: Roboto, sans-serif; font-size: 12px; font-weight: 200;" fill="rgb(33, 33, 33)" stroke="none" stroke-width="1px">1</text></g><line x1="40" y1="0" x2="40" y2="177" fill="rgb(0, 0, 0)" stroke="rgb(204, 204, 204)" stroke-width="1px"></line></g></g><g transform="translate(40, 0)" clip-path="url(#clip_0)"><clipPath id="clip_0"><rect width="290" height="177"></rect></clipPath><g><g><g><line x1="0" y1="0" x2="0" y2="177" fill="rgb(0, 0, 0)" stroke="rgb(66, 66, 66)" stroke-width="1px" opacity="0.25"></line><line x1="24.166666666666664" y1="0" x2="24.166666666666664" y2="177" fill="rgb(0, 0, 0)" stroke="rgb(66, 66, 66)" stroke-width="1px" opacity="0.25"></line><line x1="48.33333333333333" y1="0" x2="48.33333333333333" y2="177" fill="rgb(0, 0, 0)" stroke="rgb(66, 66, 66)" stroke-width="1px" opacity="0.25"></line><line x1="72.5" y1="0" x2="72.5" y2="177" fill="rgb(0, 0, 0)" stroke="rgb(66, 66, 66)" stroke-width="1px" opacity="0.25"></line><line x1="96.66666666666666" y1="0" x2="96.66666666666666" y2="177" fill="rgb(0, 0, 0)" stroke="rgb(66, 66, 66)" stroke-width="1px" opacity="0.25"></line><line x1="120.83333333333334" y1="0" x2="120.83333333333334" y2="177" fill="rgb(0, 0, 0)" stroke="rgb(66, 66, 66)" stroke-width="1px" opacity="0.25"></line><line x1="145" y1="0" x2="145" y2="177" fill="rgb(0, 0, 0)" stroke="rgb(66, 66, 66)" stroke-width="1px" opacity="0.25"></line><line x1="169.16666666666669" y1="0" x2="169.16666666666669" y2="177" fill="rgb(0, 0, 0)" stroke="rgb(66, 66, 66)" stroke-width="1px" opacity="0.25"></line><line x1="193.33333333333331" y1="0" x2="193.33333333333331" y2="177" fill="rgb(0, 0, 0)" stroke="rgb(66, 66, 66)" stroke-width="1px" opacity="0.25"></line><line x1="217.5" y1="0" x2="217.5" y2="177" fill="rgb(0, 0, 0)" stroke="rgb(66, 66, 66)" stroke-width="1px" opacity="0.25"></line><line x1="241.66666666666669" y1="0" x2="241.66666666666669" y2="177" fill="rgb(0, 0, 0)" stroke="rgb(66, 66, 66)" stroke-width="1px" opacity="0.25"></line><line x1="265.8333333333333" y1="0" x2="265.8333333333333" y2="177" fill="rgb(0, 0, 0)" stroke="rgb(66, 66, 66)" stroke-width="1px" opacity="0.25"></line><line x1="290" y1="0" x2="290" y2="177" fill="rgb(0, 0, 0)" stroke="rgb(66, 66, 66)" stroke-width="1px" opacity="0.25"></line></g><g><line x1="0" y1="177" x2="290" y2="177" fill="rgb(0, 0, 0)" stroke="rgb(66, 66, 66)" stroke-width="1px" opacity="0.25"></line><line x1="0" y1="159.3" x2="290" y2="159.3" fill="rgb(0, 0, 0)" stroke="rgb(66, 66, 66)" stroke-width="1px" opacity="0.25"></line><line x1="0" y1="141.6" x2="290" y2="141.6" fill="rgb(0, 0, 0)" stroke="rgb(66, 66, 66)" stroke-width="1px" opacity="0.25"></line><line x1="0" y1="123.89999999999999" x2="290" y2="123.89999999999999" fill="rgb(0, 0, 0)" stroke="rgb(66, 66, 66)" stroke-width="1px" opacity="0.25"></line><line x1="0" y1="106.2" x2="290" y2="106.2" fill="rgb(0, 0, 0)" stroke="rgb(66, 66, 66)" stroke-width="1px" opacity="0.25"></line><line x1="0" y1="88.5" x2="290" y2="88.5" fill="rgb(0, 0, 0)" stroke="rgb(66, 66, 66)" stroke-width="1px" opacity="0.25"></line><line x1="0" y1="70.8" x2="290" y2="70.8" fill="rgb(0, 0, 0)" stroke="rgb(66, 66, 66)" stroke-width="1px" opacity="0.25"></line><line x1="0" y1="53.10000000000001" x2="290" y2="53.10000000000001" fill="rgb(0, 0, 0)" stroke="rgb(66, 66, 66)" stroke-width="1px" opacity="0.25"></line><line x1="0" y1="35.39999999999999" x2="290" y2="35.39999999999999" fill="rgb(0, 0, 0)" stroke="rgb(66, 66, 66)" stroke-width="1px" opacity="0.25"></line><line x1="0" y1="17.699999999999996" x2="290" y2="17.699999999999996" fill="rgb(0, 0, 0)" stroke="rgb(66, 66, 66)" stroke-width="1px" opacity="0.25"></line><line x1="0" y1="0" x2="290" y2="0" fill="rgb(0, 0, 0)" stroke="rgb(66, 66, 66)" stroke-width="1px" opacity="0.25"></line></g></g></g><g><g><line x1="0" y1="177" x2="290" y2="177" fill="rgb(0, 0, 0)" stroke="rgb(153, 153, 153)" stroke-width="1.5px"></line></g></g><g><g><line x1="24.166666666666664" y1="0" x2="24.166666666666664" y2="177" fill="rgb(0, 0, 0)" stroke="rgb(153, 153, 153)" stroke-width="1.5px"></line></g></g><g><g><g><g><g><path stroke="rgb(51, 187, 238)" stroke-width="2px" d="M25.375,151.5120010972023L26.583333333333332,123.75840076804161L27.791666666666668,58.622400641441345L29,51.825601637363434L30.208333333333336,46.72799974679947L31.416666666666668,37.5240021944046L32.625,37.5240021944046L33.833333333333336,33.4176065325737L35.041666666666664,32.42640030384064L36.25,34.69200700521469L37.458333333333336,30.868805587291718L38.666666666666664,29.4528027176857L39.875,26.904001772403717L41.083333333333336,25.771203696727753L42.29166666666667,25.771203696727753L43.5,22.656003713607788L44.708333333333336,22.797606110572815L45.916666666666664,22.797606110572815L47.125,22.372798919677734L48.33333333333333,23.788801789283752L49.541666666666664,21.381603240966797L50.75,21.94800227880478L51.958333333333336,19.68240612745285L53.166666666666664,20.673601806163788L54.375,19.25759893655777L55.583333333333336,20.95680660009384L56.791666666666664,19.96560037136078L58,20.248805165290833L59.208333333333336,20.248805165290833L60.41666666666667,18.266403257846832L61.625,17.558401823043823L62.833333333333336,17.983209013938904L64.04166666666667,18.549608051776886L65.25,18.549608051776886L66.45833333333333,18.549608051776886L67.66666666666667,17.841606616973877L68.875,18.40800565481186L70.08333333333333,18.124800860881805L71.29166666666666,18.691199898719788L72.5,17.416799426078796L73.70833333333333,18.266403257846832L74.91666666666667,17.841606616973877L76.125,17.983209013938904L77.33333333333333,16.99200278520584L78.54166666666666,15.434408068656921L79.75,17.133605182170868L80.95833333333333,16.99200278520584L82.16666666666667,16.142398953437805L83.375,14.726406633853912L84.58333333333334,16.142398953437805L85.79166666666667,15.292805671691895L87,15.151203274726868L88.20833333333333,14.726406633853912L89.41666666666667,15.151203274726868L90.625,15.292805671691895L91.83333333333333,16.850400388240814L93.04166666666667,15.00960087776184L94.25,15.859204709529877L95.45833333333333,16.567206144332886L96.66666666666666,15.434408068656921L97.875,15.292805671691895L99.08333333333333,15.00960087776184L100.29166666666667,14.86800903081894L101.5,14.726406633853912L102.70833333333334,14.584804236888885L103.91666666666667,15.434408068656921L105.125,13.73520040512085L106.33333333333333,13.876802802085876L107.54166666666667,14.443201839923859L108.75,14.86800903081894L109.95833333333333,14.443201839923859L111.16666666666667,14.443201839923859L112.375,15.434408068656921L113.58333333333333,14.726406633853912L114.79166666666666,15.151203274726868L116,15.292805671691895L117.20833333333333,15.71760231256485L118.41666666666667,14.443201839923859L119.625,15.00960087776184L120.83333333333334,15.00960087776184L122.04166666666667,14.584804236888885L123.25,13.876802802085876L124.45833333333333,14.86800903081894L125.66666666666667,14.16000759601593L126.875,13.876802802085876L128.08333333333334,13.452006161212921L129.29166666666669,14.018405199050903L130.5,13.310403764247894L131.70833333333334,14.584804236888885L132.91666666666666,13.02719897031784L134.125,14.301599442958832L135.33333333333334,13.73520040512085L136.54166666666666,14.16000759601593L137.75,13.310403764247894L138.95833333333334,13.452006161212921L140.16666666666666,14.018405199050903L141.375,13.593608558177948L142.58333333333331,12.460799932479858L143.79166666666666,13.73520040512085L145,13.593608558177948L146.20833333333334,14.16000759601593L147.41666666666666,13.310403764247894L148.625,12.885607123374939L149.83333333333334,12.319208085536957L151.04166666666669,13.168801367282867L152.25,12.602402329444885L153.45833333333334,13.02719897031784L154.66666666666666,12.460799932479858L155.875,12.319208085536957L157.08333333333331,12.17760568857193L158.29166666666666,12.17760568857193L159.5,12.885607123374939L160.70833333333334,11.752809047698975L161.91666666666666,12.17760568857193L163.125,11.469604253768921L164.33333333333334,12.744004726409912L165.54166666666666,13.593608558177948L166.75,13.168801367282867L167.95833333333334,12.744004726409912L169.16666666666669,13.168801367282867L170.375,12.885607123374939L171.58333333333334,12.744004726409912L172.79166666666666,12.319208085536957L174,11.469604253768921L175.20833333333331,12.602402329444885L176.41666666666666,12.460799932479858L177.625,11.752809047698975L178.83333333333334,12.602402329444885L180.04166666666666,12.602402329444885L181.25,12.17760568857193L182.45833333333334,14.018405199050903L183.66666666666666,13.02719897031784L184.875,13.168801367282867L186.08333333333334,13.452006161212921L187.29166666666669,12.885607123374939L188.5,12.17760568857193L189.70833333333334,13.02719897031784L190.91666666666666,12.460799932479858L192.125,13.73520040512085L193.33333333333331,14.16000759601593L194.54166666666666,13.02719897031784L195.75,13.310403764247894L196.95833333333334,14.16000759601593L198.16666666666666,13.452006161212921L199.375,13.02719897031784L200.58333333333334,13.310403764247894L201.79166666666666,13.593608558177948L203,11.894400894641876L204.20833333333334,13.168801367282867L205.41666666666669,13.02719897031784L206.625,12.744004726409912L207.83333333333334,12.602402329444885L209.04166666666666,12.602402329444885L210.25,13.452006161212921L211.45833333333331,12.744004726409912L212.66666666666666,13.310403764247894L213.875,13.452006161212921L215.08333333333334,13.73520040512085L216.29166666666666,13.310403764247894L217.5,14.443201839923859L218.70833333333334,14.16000759601593L219.91666666666666,13.876802802085876L221.125,13.593608558177948L222.33333333333334,13.02719897031784L223.54166666666669,12.319208085536957L224.75,12.602402329444885L225.95833333333334,13.168801367282867L227.16666666666666,12.885607123374939L228.375,12.460799932479858L229.58333333333331,13.593608558177948L230.79166666666666,13.02719897031784L232,13.02719897031784L233.20833333333334,12.319208085536957L234.41666666666666,12.602402329444885L235.625,12.460799932479858L236.83333333333334,12.319208085536957L238.04166666666666,13.452006161212921L239.25,13.02719897031784L240.45833333333334,12.885607123374939L241.66666666666669,12.319208085536957L242.875,12.460799932479858L244.08333333333334,12.319208085536957L245.29166666666666,12.036003291606903L246.5,12.17760568857193L247.70833333333331,12.17760568857193L248.91666666666666,13.310403764247894L250.125,12.744004726409912L251.33333333333334,12.885607123374939L252.54166666666666,13.593608558177948L253.75,13.02719897031784L254.95833333333334,13.02719897031784L256.1666666666667,11.894400894641876L257.375,12.036003291606903L258.58333333333337,12.17760568857193L259.7916666666667,13.02719897031784L261,13.02719897031784L262.2083333333333,12.17760568857193L263.4166666666667,13.168801367282867L264.625,12.319208085536957L265.8333333333333,12.602402329444885" style="fill: none;" fill="none"></path></g><g><path stroke="rgb(238, 51, 119)" stroke-width="2px" d="M25.375,167.6544000506401L26.583333333333332,173.74319992773235L27.791666666666668,170.91120045259595L29,169.49520022049546L30.208333333333336,166.66320041567087L31.416666666666668,167.37120053172112L32.625,164.53920006752014L33.833333333333336,164.39760030806065L35.041666666666664,164.25600054860115L36.25,164.53920006752014L37.458333333333336,162.84000031650066L38.666666666666664,162.69840055704117L39.875,158.59200093895197L41.083333333333336,160.57440020889044L42.29166666666667,157.88400082290173L43.5,160.57440020889044L44.708333333333336,153.49440036714077L45.916666666666664,151.7952006161213L47.125,151.6536008566618L48.33333333333333,154.91040059924126L49.541666666666664,154.62720108032227L50.75,152.36159965395927L51.958333333333336,154.62720108032227L53.166666666666664,150.09600086510181L54.375,151.7952006161213L55.583333333333336,151.3704013377428L56.791666666666664,152.7864015698433L58,152.07840013504028L59.208333333333336,149.3879994302988L60.41666666666667,150.3792003840208L61.625,152.07840013504028L62.833333333333336,150.9455994218588L64.04166666666667,148.11360159516335L65.25,149.81280134618282L66.45833333333333,151.9368003755808L67.66666666666667,157.034400947392L68.875,156.75120010972023L70.08333333333333,150.8039996623993L71.29166666666666,146.55600160360336L72.5,147.40560016036034L73.70833333333333,150.2376006245613L74.91666666666667,144.85680185258389L76.125,147.97200183570385L77.33333333333333,151.7952006161213L78.54166666666666,157.31760046631098L79.75,151.5120010972023L80.95833333333333,145.98959992825985L82.16666666666667,151.3704013377428L83.375,150.8039996623993L84.58333333333334,150.6623999029398L85.79166666666667,154.06079940497875L87,152.36159965395927L88.20833333333333,146.98080088198185L89.41666666666667,148.96320015192032L90.625,152.07840013504028L91.83333333333333,148.11360159516335L93.04166666666667,151.9368003755808L94.25,148.68000063300133L95.45833333333333,148.11360159516335L96.66666666666666,156.04319999367L97.875,150.09600086510181L99.08333333333333,152.7864015698433L100.29166666666667,157.60079998522997L101.5,157.034400947392L102.70833333333334,153.63600012660027L103.91666666666667,152.9280013293028L105.125,152.07840013504028L106.33333333333333,154.91040059924126L107.54166666666667,156.46800059080124L108.75,157.17600070685148L109.95833333333333,155.476800955832L111.16666666666667,157.17600070685148L112.375,156.32640083134174L113.58333333333333,159.4416008144617L114.79166666666666,156.60960035026073L116,158.87520045787096L117.20833333333333,159.3000010550022L118.41666666666667,159.15839997678995L119.625,155.6184007152915L120.83333333333334,157.60079998522997L122.04166666666667,155.9016002342105L123.25,156.60960035026073L124.45833333333333,155.9016002342105L125.66666666666667,157.88400082290173L126.875,157.31760046631098L128.08333333333334,155.760000474751L129.29166666666669,158.73360069841146L130.5,158.16720034182072L131.70833333333334,158.59200093895197L132.91666666666666,161.42400008440018L134.125,158.02560058236122L135.33333333333334,157.31760046631098L136.54166666666666,157.60079998522997L137.75,154.91040059924126L138.95833333333334,158.87520045787096L140.16666666666666,160.14960093051195L141.375,152.07840013504028L142.58333333333331,155.19360011816025L143.79166666666666,155.476800955832L145,155.19360011816025L146.20833333333334,156.89279986917973L147.41666666666666,157.60079998522997L148.625,157.17600070685148L149.83333333333334,158.16720034182072L151.04166666666669,157.88400082290173L152.25,158.3088001012802L153.45833333333334,156.18480107188225L154.66666666666666,157.034400947392L155.875,155.3352011963725L157.08333333333331,157.60079998522997L158.29166666666666,157.034400947392L159.5,156.04319999367L160.70833333333334,157.31760046631098L161.91666666666666,156.18480107188225L163.125,151.9368003755808L164.33333333333334,151.7952006161213L165.54166666666666,153.35280060768127L166.75,154.76880083978176L167.95833333333334,155.476800955832L169.16666666666669,157.45920022577047L170.375,155.760000474751L171.58333333333334,158.87520045787096L172.79166666666666,155.3352011963725L174,155.3352011963725L175.20833333333331,154.20240180194378L176.41666666666666,156.60960035026073L177.625,157.74240106344223L178.83333333333334,157.17600070685148L180.04166666666666,155.9016002342105L181.25,159.7248003333807L182.45833333333334,154.34400156140327L183.66666666666666,156.75120010972023L184.875,153.35280060768127L186.08333333333334,156.46800059080124L187.29166666666669,155.19360011816025L188.5,156.32640083134174L189.70833333333334,155.476800955832L190.91666666666666,154.76880083978176L192.125,154.76880083978176L193.33333333333331,155.05200035870075L194.54166666666666,154.91040059924126L195.75,154.34400156140327L196.95833333333334,155.9016002342105L198.16666666666666,155.3352011963725L199.375,152.9280013293028L200.58333333333334,155.05200035870075L201.79166666666666,148.96320015192032L203,146.55600160360336L204.20833333333334,148.68000063300133L205.41666666666669,152.9280013293028L206.625,150.8039996623993L207.83333333333334,149.3879994302988L209.04166666666666,154.20240180194378L210.25,149.52960182726383L211.45833333333331,146.27280208468437L212.66666666666666,150.9455994218588L213.875,156.89279986917973L215.08333333333334,155.05200035870075L216.29166666666666,156.89279986917973L217.5,157.31760046631098L218.70833333333334,153.06960108876228L219.91666666666666,154.06079940497875L221.125,154.76880083978176L222.33333333333334,155.9016002342105L223.54166666666669,156.46800059080124L224.75,156.46800059080124L225.95833333333334,156.46800059080124L227.16666666666666,155.476800955832L228.375,153.35280060768127L229.58333333333331,156.32640083134174L230.79166666666666,154.76880083978176L232,155.3352011963725L233.20833333333334,152.9280013293028L234.41666666666666,156.18480107188225L235.625,155.19360011816025L236.83333333333334,154.06079940497875L238.04166666666666,154.48560132086277L239.25,156.75120010972023L240.45833333333334,156.75120010972023L241.66666666666669,155.6184007152915L242.875,153.91919964551926L244.08333333333334,155.3352011963725L245.29166666666666,153.63600012660027L246.5,153.35280060768127L247.70833333333331,154.34400156140327L248.91666666666666,152.6448018103838L250.125,156.32640083134174L251.33333333333334,155.476800955832L252.54166666666666,155.6184007152915L253.75,154.20240180194378L254.95833333333334,154.06079940497875L256.1666666666667,155.760000474751L257.375,154.20240180194378L258.58333333333337,152.7864015698433L259.7916666666667,153.35280060768127L261,155.3352011963725L262.2083333333333,157.60079998522997L263.4166666666667,158.16720034182072L264.625,157.31760046631098L265.8333333333333,158.02560058236122" style="fill: none;" fill="none"></path></g></g></g></g></g></g><g transform="translate(40, 177)" clip-path="url(#clip_1)"><clipPath id="clip_1"><rect width="290" height="23"></rect></clipPath><g><g><line x1="0" y1="0" x2="0" y2="5" style="visibility: inherit;" fill="rgb(0, 0, 0)" stroke="rgb(204, 204, 204)" stroke-width="1px"></line><line x1="24.166666666666664" y1="0" x2="24.166666666666664" y2="5" style="visibility: inherit;" fill="rgb(0, 0, 0)" stroke="rgb(204, 204, 204)" stroke-width="1px"></line><line x1="48.33333333333333" y1="0" x2="48.33333333333333" y2="5" style="visibility: inherit;" fill="rgb(0, 0, 0)" stroke="rgb(204, 204, 204)" stroke-width="1px"></line><line x1="72.5" y1="0" x2="72.5" y2="5" style="visibility: inherit;" fill="rgb(0, 0, 0)" stroke="rgb(204, 204, 204)" stroke-width="1px"></line><line x1="96.66666666666666" y1="0" x2="96.66666666666666" y2="5" style="visibility: inherit;" fill="rgb(0, 0, 0)" stroke="rgb(204, 204, 204)" stroke-width="1px"></line><line x1="120.83333333333334" y1="0" x2="120.83333333333334" y2="5" style="visibility: inherit;" fill="rgb(0, 0, 0)" stroke="rgb(204, 204, 204)" stroke-width="1px"></line><line x1="145" y1="0" x2="145" y2="5" style="visibility: inherit;" fill="rgb(0, 0, 0)" stroke="rgb(204, 204, 204)" stroke-width="1px"></line><line x1="169.16666666666669" y1="0" x2="169.16666666666669" y2="5" style="visibility: inherit;" fill="rgb(0, 0, 0)" stroke="rgb(204, 204, 204)" stroke-width="1px"></line><line x1="193.33333333333331" y1="0" x2="193.33333333333331" y2="5" style="visibility: inherit;" fill="rgb(0, 0, 0)" stroke="rgb(204, 204, 204)" stroke-width="1px"></line><line x1="217.5" y1="0" x2="217.5" y2="5" style="visibility: inherit;" fill="rgb(0, 0, 0)" stroke="rgb(204, 204, 204)" stroke-width="1px"></line><line x1="241.66666666666669" y1="0" x2="241.66666666666669" y2="5" style="visibility: inherit;" fill="rgb(0, 0, 0)" stroke="rgb(204, 204, 204)" stroke-width="1px"></line><line x1="265.8333333333333" y1="0" x2="265.8333333333333" y2="5" style="visibility: inherit;" fill="rgb(0, 0, 0)" stroke="rgb(204, 204, 204)" stroke-width="1px"></line><line x1="290" y1="0" x2="290" y2="5" style="visibility: inherit;" fill="rgb(0, 0, 0)" stroke="rgb(204, 204, 204)" stroke-width="1px"></line></g><g transform="translate(0, 8)"><text x="0" y="0" dx="0em" dy="0.95em" style="text-anchor: middle; visibility: hidden; font-family: Roboto, sans-serif; font-size: 12px; font-weight: 200;" fill="rgb(33, 33, 33)" stroke="none" stroke-width="1px">-20</text><text x="24.166666666666664" y="0" dx="0em" dy="0.95em" style="text-anchor: middle; visibility: inherit; font-family: Roboto, sans-serif; font-size: 12px; font-weight: 200;" fill="rgb(33, 33, 33)" stroke="none" stroke-width="1px">0</text><text x="48.33333333333333" y="0" dx="0em" dy="0.95em" style="text-anchor: middle; visibility: hidden; font-family: Roboto, sans-serif; font-size: 12px; font-weight: 200;" fill="rgb(33, 33, 33)" stroke="none" stroke-width="1px">20</text><text x="72.5" y="0" dx="0em" dy="0.95em" style="text-anchor: middle; visibility: inherit; font-family: Roboto, sans-serif; font-size: 12px; font-weight: 200;" fill="rgb(33, 33, 33)" stroke="none" stroke-width="1px">40</text><text x="96.66666666666666" y="0" dx="0em" dy="0.95em" style="text-anchor: middle; visibility: hidden; font-family: Roboto, sans-serif; font-size: 12px; font-weight: 200;" fill="rgb(33, 33, 33)" stroke="none" stroke-width="1px">60</text><text x="120.83333333333334" y="0" dx="0em" dy="0.95em" style="text-anchor: middle; visibility: inherit; font-family: Roboto, sans-serif; font-size: 12px; font-weight: 200;" fill="rgb(33, 33, 33)" stroke="none" stroke-width="1px">80</text><text x="145" y="0" dx="0em" dy="0.95em" style="text-anchor: middle; visibility: hidden; font-family: Roboto, sans-serif; font-size: 12px; font-weight: 200;" fill="rgb(33, 33, 33)" stroke="none" stroke-width="1px">100</text><text x="169.16666666666669" y="0" dx="0em" dy="0.95em" style="text-anchor: middle; visibility: inherit; font-family: Roboto, sans-serif; font-size: 12px; font-weight: 200;" fill="rgb(33, 33, 33)" stroke="none" stroke-width="1px">120</text><text x="193.33333333333331" y="0" dx="0em" dy="0.95em" style="text-anchor: middle; visibility: hidden; font-family: Roboto, sans-serif; font-size: 12px; font-weight: 200;" fill="rgb(33, 33, 33)" stroke="none" stroke-width="1px">140</text><text x="217.5" y="0" dx="0em" dy="0.95em" style="text-anchor: middle; visibility: inherit; font-family: Roboto, sans-serif; font-size: 12px; font-weight: 200;" fill="rgb(33, 33, 33)" stroke="none" stroke-width="1px">160</text><text x="241.66666666666669" y="0" dx="0em" dy="0.95em" style="text-anchor: middle; visibility: hidden; font-family: Roboto, sans-serif; font-size: 12px; font-weight: 200;" fill="rgb(33, 33, 33)" stroke="none" stroke-width="1px">180</text><text x="265.8333333333333" y="0" dx="0em" dy="0.95em" style="text-anchor: middle; visibility: inherit; font-family: Roboto, sans-serif; font-size: 12px; font-weight: 200;" fill="rgb(33, 33, 33)" stroke="none" stroke-width="1px">200</text><text x="290" y="0" dx="0em" dy="0.95em" style="text-anchor: middle; visibility: hidden; font-family: Roboto, sans-serif; font-size: 12px; font-weight: 200;" fill="rgb(33, 33, 33)" stroke="none" stroke-width="1px">220</text></g><line x1="0" y1="0" x2="290" y2="0" fill="rgb(0, 0, 0)" stroke="rgb(204, 204, 204)" stroke-width="1px"></line></g></g></g></g></svg>