<svg viewBox="0 0 330 200" xmlns="http://www.w3.org/2000/svg"><g><g><g><g><g><line x1="50" y1="177" x2="45" y2="177" style="visibility: inherit;" fill="rgb(0, 0, 0)" stroke="rgb(204, 204, 204)" stroke-width="1px"></line><line x1="50" y1="162.25" x2="45" y2="162.25" style="visibility: inherit;" fill="rgb(0, 0, 0)" stroke="rgb(204, 204, 204)" stroke-width="1px"></line><line x1="50" y1="147.5" x2="45" y2="147.5" style="visibility: inherit;" fill="rgb(0, 0, 0)" stroke="rgb(204, 204, 204)" stroke-width="1px"></line><line x1="50" y1="132.75" x2="45" y2="132.75" style="visibility: inherit;" fill="rgb(0, 0, 0)" stroke="rgb(204, 204, 204)" stroke-width="1px"></line><line x1="50" y1="117.99999999999997" x2="45" y2="117.99999999999997" style="visibility: inherit;" fill="rgb(0, 0, 0)" stroke="rgb(204, 204, 204)" stroke-width="1px"></line><line x1="50" y1="103.24999999999999" x2="45" y2="103.24999999999999" style="visibility: inherit;" fill="rgb(0, 0, 0)" stroke="rgb(204, 204, 204)" stroke-width="1px"></line><line x1="50" y1="88.49999999999999" x2="45" y2="88.49999999999999" style="visibility: inherit;" fill="rgb(0, 0, 0)" stroke="rgb(204, 204, 204)" stroke-width="1px"></line><line x1="50" y1="73.75" x2="45" y2="73.75" style="visibility: inherit;" fill="rgb(0, 0, 0)" stroke="rgb(204, 204, 204)" stroke-width="1px"></line><line x1="50" y1="58.999999999999986" x2="45" y2="58.999999999999986" style="visibility: inherit;" fill="rgb(0, 0, 0)" stroke="rgb(204, 204, 204)" stroke-width="1px"></line><line x1="50" y1="44.24999999999998" x2="45" y2="44.24999999999998" style="visibility: inherit;" fill="rgb(0, 0, 0)" stroke="rgb(204, 204, 204)" stroke-width="1px"></line><line x1="50" y1="29.499999999999993" x2="45" y2="29.499999999999993" style="visibility: inherit;" fill="rgb(0, 0, 0)" stroke="rgb(204, 204, 204)" stroke-width="1px"></line><line x1="50" y1="14.749999999999988" x2="45" y2="14.749999999999988" style="visibility: inherit;" fill="rgb(0, 0, 0)" stroke="rgb(204, 204, 204)" stroke-width="1px"></line><line x1="50" y1="0" x2="45" y2="0" style="visibility: inherit;" fill="rgb(0, 0, 0)" stroke="rgb(204, 204, 204)" stroke-width="1px"></line></g><g transform="translate(40, 0)"><text x="0" y="177" dx="0em" dy="0.3em" style="text-anchor: end; visibility: hidden; font-family: Roboto, sans-serif; font-size: 12px; font-weight: 200;" fill="rgb(33, 33, 33)" stroke="none" stroke-width="1px">0.35</text><text x="0" y="162.25" dx="0em" dy="0.3em" style="text-anchor: end; visibility: inherit; font-family: Roboto, sans-serif; font-size: 12px; font-weight: 200;" fill="rgb(33, 33, 33)" stroke="none" stroke-width="1px">0.4</text><text x="0" y="147.5" dx="0em" dy="0.3em" style="text-anchor: end; visibility: hidden; font-family: Roboto, sans-serif; font-size: 12px; font-weight: 200;" fill="rgb(33, 33, 33)" stroke="none" stroke-width="1px">0.45</text><text x="0" y="132.75" dx="0em" dy="0.3em" style="text-anchor: end; visibility: inherit; font-family: Roboto, sans-serif; font-size: 12px; font-weight: 200;" fill="rgb(33, 33, 33)" stroke="none" stroke-width="1px">0.5</text><text x="0" y="117.99999999999997" dx="0em" dy="0.3em" style="text-anchor: end; visibility: hidden; font-family: Roboto, sans-serif; font-size: 12px; font-weight: 200;" fill="rgb(33, 33, 33)" stroke="none" stroke-width="1px">0.55</text><text x="0" y="103.24999999999999" dx="0em" dy="0.3em" style="text-anchor: end; visibility: inherit; font-family: Roboto, sans-serif; font-size: 12px; font-weight: 200;" fill="rgb(33, 33, 33)" stroke="none" stroke-width="1px">0.6</text><text x="0" y="88.49999999999999" dx="0em" dy="0.3em" style="text-anchor: end; visibility: hidden; font-family: Roboto, sans-serif; font-size: 12px; font-weight: 200;" fill="rgb(33, 33, 33)" stroke="none" stroke-width="1px">0.65</text><text x="0" y="73.75" dx="0em" dy="0.3em" style="text-anchor: end; visibility: inherit; font-family: Roboto, sans-serif; font-size: 12px; font-weight: 200;" fill="rgb(33, 33, 33)" stroke="none" stroke-width="1px">0.7</text><text x="0" y="58.999999999999986" dx="0em" dy="0.3em" style="text-anchor: end; visibility: hidden; font-family: Roboto, sans-serif; font-size: 12px; font-weight: 200;" fill="rgb(33, 33, 33)" stroke="none" stroke-width="1px">0.75</text><text x="0" y="44.24999999999998" dx="0em" dy="0.3em" style="text-anchor: end; visibility: inherit; font-family: Roboto, sans-serif; font-size: 12px; font-weight: 200;" fill="rgb(33, 33, 33)" stroke="none" stroke-width="1px">0.8</text><text x="0" y="29.499999999999993" dx="0em" dy="0.3em" style="text-anchor: end; visibility: hidden; font-family: Roboto, sans-serif; font-size: 12px; font-weight: 200;" fill="rgb(33, 33, 33)" stroke="none" stroke-width="1px">0.85</text><text x="0" y="14.749999999999988" dx="0em" dy="0.3em" style="text-anchor: end; visibility: inherit; font-family: Roboto, sans-serif; font-size: 12px; font-weight: 200;" fill="rgb(33, 33, 33)" stroke="none" stroke-width="1px">0.9</text><text x="0" y="0" dx="0em" dy="0.3em" style="text-anchor: end; visibility: hidden; font-family: Roboto, sans-serif; font-size: 12px; font-weight: 200;" fill="rgb(33, 33, 33)" stroke="none" stroke-width="1px">0.95</text></g><line x1="50" y1="0" x2="50" y2="177" fill="rgb(0, 0, 0)" stroke="rgb(204, 204, 204)" stroke-width="1px"></line></g></g><g transform="translate(50, 0)" clip-path="url(#clip_0)"><clipPath id="clip_0"><rect width="280" height="177"></rect></clipPath><g><g><g><line x1="0" y1="0" x2="0" y2="177" fill="rgb(0, 0, 0)" stroke="rgb(66, 66, 66)" stroke-width="1px" opacity="0.25"></line><line x1="23.333333333333332" y1="0" x2="23.333333333333332" y2="177" fill="rgb(0, 0, 0)" stroke="rgb(66, 66, 66)" stroke-width="1px" opacity="0.25"></line><line x1="46.666666666666664" y1="0" x2="46.666666666666664" y2="177" fill="rgb(0, 0, 0)" stroke="rgb(66, 66, 66)" stroke-width="1px" opacity="0.25"></line><line x1="70" y1="0" x2="70" y2="177" fill="rgb(0, 0, 0)" stroke="rgb(66, 66, 66)" stroke-width="1px" opacity="0.25"></line><line x1="93.33333333333333" y1="0" x2="93.33333333333333" y2="177" fill="rgb(0, 0, 0)" stroke="rgb(66, 66, 66)" stroke-width="1px" opacity="0.25"></line><line x1="116.66666666666667" y1="0" x2="116.66666666666667" y2="177" fill="rgb(0, 0, 0)" stroke="rgb(66, 66, 66)" stroke-width="1px" opacity="0.25"></line><line x1="140" y1="0" x2="140" y2="177" fill="rgb(0, 0, 0)" stroke="rgb(66, 66, 66)" stroke-width="1px" opacity="0.25"></line><line x1="163.33333333333334" y1="0" x2="163.33333333333334" y2="177" fill="rgb(0, 0, 0)" stroke="rgb(66, 66, 66)" stroke-width="1px" opacity="0.25"></line><line x1="186.66666666666666" y1="0" x2="186.66666666666666" y2="177" fill="rgb(0, 0, 0)" stroke="rgb(66, 66, 66)" stroke-width="1px" opacity="0.25"></line><line x1="210" y1="0" x2="210" y2="177" fill="rgb(0, 0, 0)" stroke="rgb(66, 66, 66)" stroke-width="1px" opacity="0.25"></line><line x1="233.33333333333334" y1="0" x2="233.33333333333334" y2="177" fill="rgb(0, 0, 0)" stroke="rgb(66, 66, 66)" stroke-width="1px" opacity="0.25"></line><line x1="256.66666666666663" y1="0" x2="256.66666666666663" y2="177" fill="rgb(0, 0, 0)" stroke="rgb(66, 66, 66)" stroke-width="1px" opacity="0.25"></line><line x1="280" y1="0" x2="280" y2="177" fill="rgb(0, 0, 0)" stroke="rgb(66, 66, 66)" stroke-width="1px" opacity="0.25"></line></g><g><line x1="0" y1="177" x2="280" y2="177" fill="rgb(0, 0, 0)" stroke="rgb(66, 66, 66)" stroke-width="1px" opacity="0.25"></line><line x1="0" y1="162.25" x2="280" y2="162.25" fill="rgb(0, 0, 0)" stroke="rgb(66, 66, 66)" stroke-width="1px" opacity="0.25"></line><line x1="0" y1="147.5" x2="280" y2="147.5" fill="rgb(0, 0, 0)" stroke="rgb(66, 66, 66)" stroke-width="1px" opacity="0.25"></line><line x1="0" y1="132.75" x2="280" y2="132.75" fill="rgb(0, 0, 0)" stroke="rgb(66, 66, 66)" stroke-width="1px" opacity="0.25"></line><line x1="0" y1="117.99999999999997" x2="280" y2="117.99999999999997" fill="rgb(0, 0, 0)" stroke="rgb(66, 66, 66)" stroke-width="1px" opacity="0.25"></line><line x1="0" y1="103.24999999999999" x2="280" y2="103.24999999999999" fill="rgb(0, 0, 0)" stroke="rgb(66, 66, 66)" stroke-width="1px" opacity="0.25"></line><line x1="0" y1="88.49999999999999" x2="280" y2="88.49999999999999" fill="rgb(0, 0, 0)" stroke="rgb(66, 66, 66)" stroke-width="1px" opacity="0.25"></line><line x1="0" y1="73.75" x2="280" y2="73.75" fill="rgb(0, 0, 0)" stroke="rgb(66, 66, 66)" stroke-width="1px" opacity="0.25"></line><line x1="0" y1="58.999999999999986" x2="280" y2="58.999999999999986" fill="rgb(0, 0, 0)" stroke="rgb(66, 66, 66)" stroke-width="1px" opacity="0.25"></line><line x1="0" y1="44.24999999999998" x2="280" y2="44.24999999999998" fill="rgb(0, 0, 0)" stroke="rgb(66, 66, 66)" stroke-width="1px" opacity="0.25"></line><line x1="0" y1="29.499999999999993" x2="280" y2="29.499999999999993" fill="rgb(0, 0, 0)" stroke="rgb(66, 66, 66)" stroke-width="1px" opacity="0.25"></line><line x1="0" y1="14.749999999999988" x2="280" y2="14.749999999999988" fill="rgb(0, 0, 0)" stroke="rgb(66, 66, 66)" stroke-width="1px" opacity="0.25"></line><line x1="0" y1="0" x2="280" y2="0" fill="rgb(0, 0, 0)" stroke="rgb(66, 66, 66)" stroke-width="1px" opacity="0.25"></line></g></g></g><g><g><line x1="0" y1="280.25" x2="280" y2="280.25" fill="rgb(0, 0, 0)" stroke="rgb(153, 153, 153)" stroke-width="1.5px"></line></g></g><g><g><line x1="23.333333333333332" y1="0" x2="23.333333333333332" y2="177" fill="rgb(0, 0, 0)" stroke="rgb(153, 153, 153)" stroke-width="1.5px"></line></g></g><g><g><g><g><g><path stroke="rgb(51, 187, 238)" stroke-width="2px" d="M24.5,245.79400138556957L25.666666666666664,167.20600301027298L26.833333333333336,85.3140058517456L28,69.73800593614578L29.166666666666668,52.510013222694376L30.333333333333336,49.44201403856275L31.5,46.13801085948942L32.666666666666664,45.429998874664285L33.833333333333336,39.05801409482955L35,38.58600610494613L36.16666666666667,36.46200531721113L37.333333333333336,36.22600132226942L38.5,30.798014938831308L39.666666666666664,35.51800692081451L40.833333333333336,31.742013335227952L42,28.43801015615462L43.16666666666667,28.43801015615462L44.33333333333333,227.8580010831356L45.5,27.966002166271196L46.666666666666664,22.066007792949662L47.833333333333336,21.12200939655302L49,19.706003010272973L50.166666666666664,21.12200939655302L51.33333333333333,21.59399980306624L52.5,19.942007005214684L53.66666666666667,19.706003010272973L54.833333333333336,21.83000379800795L56,23.246010184288018L57.166666666666664,18.76200461387633L58.333333333333336,19.942007005214684L59.5,18.290014207363107L60.66666666666667,18.76200461387633L61.83333333333333,22.774002194404595L63,238.71400022506714L64.16666666666666,225.26200109720227L65.33333333333333,16.87400782108306L66.5,15.93000942468642L67.66666666666667,15.694005429744708L68.83333333333333,13.570004642009728L70,13.80600863695144L71.16666666666666,14.986011028289775L72.33333333333334,12.626006245613086L73.5,13.570004642009728L74.66666666666667,15.458001434802997L75.83333333333333,17.34599822759626L77,14.514003038406353L78.16666666666667,14.986011028289775L79.33333333333333,13.098014235496509L80.5,14.514003038406353L81.66666666666667,14.986011028289775L82.83333333333333,10.974013447761529L84,13.570004642009728L85.16666666666666,13.570004642009728L86.33333333333334,12.390002250671374L87.5,14.750007033348064L88.66666666666666,10.974013447761529L89.83333333333334,10.738009452819817L91,14.277999043464641L92.16666666666667,14.277999043464641L93.33333333333333,14.04201263189315L94.5,15.694005429744708L95.66666666666667,14.04201263189315L96.83333333333333,14.04201263189315L98,12.390002250671374L99.16666666666667,13.334000647068017L100.33333333333333,13.570004642009728L101.5,12.862010240554797L102.66666666666666,12.153998255729663L103.83333333333334,12.626006245613086L105,11.682007849216442L106.16666666666666,12.390002250671374L107.33333333333334,10.974013447761529L108.5,11.44600385427473L109.66666666666667,11.918011844158153L110.83333333333333,12.153998255729663L112,12.862010240554797L113.16666666666667,11.682007849216442L114.33333333333333,11.44600385427473L115.5,12.626006245613086L116.66666666666667,11.682007849216442L117.83333333333333,10.502005457878106L119,11.682007849216442L120.16666666666666,13.570004642009728L121.33333333333334,9.322003066539752L122.5,8.61400866508482L123.66666666666666,10.502005457878106L124.83333333333334,11.209999859333019L126,13.570004642009728L127.16666666666667,11.918011844158153L128.33333333333331,12.626006245613086L129.5,12.153998255729663L130.66666666666666,11.918011844158153L131.83333333333334,10.738009452819817L133,12.153998255729663L134.16666666666669,12.862010240554797L135.33333333333334,12.862010240554797L136.5,12.390002250671374L137.66666666666666,13.334000647068017L138.83333333333334,13.334000647068017L140,11.918011844158153L141.16666666666666,14.277999043464641L142.33333333333331,12.153998255729663L143.5,11.918011844158153L144.66666666666669,11.44600385427473L145.83333333333334,12.626006245613086L147,13.098014235496509L148.16666666666666,13.334000647068017L149.33333333333334,12.626006245613086L150.5,13.098014235496509L151.66666666666666,10.266001462936394L152.83333333333331,10.502005457878106L154,13.098014235496509L155.16666666666669,12.862010240554797L156.33333333333334,13.80600863695144L157.5,12.153998255729663L158.66666666666666,12.153998255729663L159.83333333333331,10.974013447761529L161,11.918011844158153L162.16666666666669,10.738009452819817L163.33333333333334,9.794011056423175L164.5,12.153998255729663L165.66666666666666,10.738009452819817L166.83333333333334,10.974013447761529L168,11.682007849216442L169.16666666666666,10.266001462936394L170.33333333333331,10.974013447761529L171.5,11.918011844158153L172.66666666666669,10.502005457878106L173.83333333333334,10.974013447761529L175,10.266001462936394L176.16666666666666,10.266001462936394L177.33333333333331,10.266001462936394L178.5,10.502005457878106L179.66666666666669,10.502005457878106L180.83333333333334,9.794011056423175L182,12.153998255729663L183.16666666666666,12.626006245613086L184.33333333333334,12.626006245613086L185.5,12.153998255729663L186.66666666666666,10.266001462936394L187.83333333333331,10.266001462936394L189,10.030015051364886L190.16666666666669,10.738009452819817L191.33333333333334,10.030015051364886L192.5,10.266001462936394L193.66666666666666,9.322003066539752L194.83333333333331,10.738009452819817L196,8.61400866508482L197.16666666666669,8.378004670143108L198.33333333333334,8.378004670143108L199.5,9.08599907159804L200.66666666666666,8.85001266002653L201.83333333333334,10.030015051364886L203,10.266001462936394L204.16666666666666,9.08599907159804L205.33333333333331,9.794011056423175L206.5,9.08599907159804L207.66666666666669,9.794011056423175L208.83333333333334,8.85001266002653L210,9.558007061481463L211.16666666666666,8.378004670143108L212.33333333333331,8.61400866508482L213.5,10.030015051364886L214.66666666666669,9.08599907159804L215.83333333333334,10.266001462936394L217,9.322003066539752L218.16666666666666,9.08599907159804L219.33333333333334,9.08599907159804L220.5,7.906014263629907L221.66666666666666,9.08599907159804L222.83333333333331,9.322003066539752L224,9.322003066539752L225.16666666666669,9.08599907159804L226.33333333333334,8.85001266002653L227.5,10.502005457878106L228.66666666666666,8.85001266002653L229.83333333333331,9.558007061481463L231,8.378004670143108L232.16666666666669,9.794011056423175L233.33333333333334,9.08599907159804L234.5,9.08599907159804L235.66666666666666,9.558007061481463L236.83333333333334,10.030015051364886L238,9.08599907159804L239.16666666666666,9.794011056423175L240.33333333333331,8.142000675201396L241.5,10.030015051364886L242.66666666666669,9.322003066539752L243.83333333333334,10.030015051364886L245,11.209999859333019L246.16666666666666,10.030015051364886L247.33333333333331,10.266001462936394L248.5,10.030015051364886L249.66666666666669,10.502005457878106L250.83333333333334,10.266001462936394L252,10.502005457878106L253.16666666666666,9.558007061481463L254.33333333333334,10.030015051364886L255.5,10.030015051364886L256.66666666666663,8.61400866508482" style="fill: none;" fill="none"></path></g><g><path stroke="rgb(238, 51, 119)" stroke-width="2px" d="M43.16666666666667,212.51800076663494L44.33333333333333,13.334000647068017L45.5,34.57400852441786L46.666666666666664,55.578012406826L47.833333333333336,115.04999929666518L49,67.61400514841078L50.166666666666664,86.96599864959715L51.33333333333333,131.09800720214844L52.5,121.65800565481184L53.66666666666667,106.08200573921202L54.833333333333336,98.29399698972702L56,93.1019970178604L57.166666666666664,139.35800635814667L58.333333333333336,153.98999908566475L59.5,175.70200616121292L60.66666666666667,164.8460070192814L61.83333333333333,156.11399987339973L63,279.0700000813231L64.16666666666666,21.59399980306624L65.33333333333333,-14.750000000000027L67.66666666666667,-10.50199842453003L68.83333333333333,5.782013475894908L70,6.254003882408129L71.16666666666666,15.222015023231487L72.33333333333334,2.950000703334795L73.5,22.066007792949662L74.66666666666667,25.606014966964707L75.83333333333333,24.898002982139573L77,23.010006189346306L78.16666666666667,16.87400782108306L79.33333333333333,20.650001406669595L80.5,25.842001378536217L81.66666666666667,34.10200053453444L82.83333333333333,73.75000351667403L84,53.21800762414931L85.16666666666666,85.7859962582588L86.33333333333334,86.73001223802565L87.5,58.88199800252913L88.66666666666666,77.76200109720229L89.83333333333334,66.90601074695587L91,66.43400275707245L92.16666666666667,72.09801071882247L93.33333333333333,88.85401302576065L94.5,65.25400036573409L95.66666666666667,61.71401077508924L96.83333333333333,51.80200123786924L98,50.85800284147262L99.16666666666667,65.72600835561751L100.33333333333333,61.71401077508924L101.5,52.03800523281095L102.66666666666666,65.4900043606758L103.83333333333334,56.99400120973586L105,74.69400191307066L106.16666666666666,74.22201150655745L107.33333333333334,92.39400261640549L108.5,65.4900043606758L109.66666666666667,67.61400514841078L110.83333333333333,64.31000196933745L112,95.46200180053711L113.16666666666667,82.4820106625557L114.33333333333333,82.71799707412718L115.5,56.05000281333922L116.66666666666667,61.47800678014753L117.83333333333333,74.22201150655745L119,91.45000422000885L120.16666666666666,92.6300066113472L121.33333333333334,88.61800903081894L122.5,64.54600596427916L123.66666666666666,89.08999943733215L124.83333333333334,67.61400514841078L126,77.76200109720229L127.16666666666667,75.4020138978958L128.33333333333331,99.23801296949387L129.5,119.53400486707687L130.66666666666666,94.9900113940239L131.83333333333334,90.74200981855391L133,85.7859962582588L134.16666666666669,97.8220065832138L135.33333333333334,100.18201136589049L136.5,103.48599696159363L137.66666666666666,92.39400261640549L138.83333333333334,82.24600666761398L140,88.14600104093552L141.16666666666666,82.9540010690689L142.33333333333331,83.42600905895232L143.5,76.58199870586394L144.66666666666669,75.16600990295409L145.83333333333334,86.96599864959715L147,100.417997777462L148.16666666666666,92.6300066113472L149.33333333333334,91.68600821495056L150.5,81.06600427627562L151.66666666666666,94.51800340414047L152.83333333333331,81.30200827121733L154,77.76200109720229L155.16666666666669,71.62600272893904L156.33333333333334,76.81800270080565L157.5,88.38200503587723L158.66666666666666,82.9540010690689L159.83333333333331,84.37000745534895L161,77.998005092144L162.16666666666669,67.37800115346907L163.33333333333334,65.4900043606758L164.5,74.22201150655745L165.66666666666666,81.30200827121733L166.83333333333334,87.9099970459938L168,87.20200264453887L169.16666666666666,96.40600019693373L170.33333333333331,105.6099977493286L171.5,97.11401218175887L172.66666666666669,81.06600427627562L173.83333333333334,91.45000422000885L175,107.02600413560867L176.16666666666666,95.46200180053711L177.33333333333331,106.08200573921202L178.5,101.12600976228714L179.66666666666669,98.53000098466873L180.83333333333334,86.02200025320052L182,90.74200981855391L183.16666666666666,89.08999943733215L184.33333333333334,95.93400979042053L185.5,102.07000815868378L186.66666666666666,90.74200981855391L187.83333333333331,93.57400500774382L189,95.46200180053711L190.16666666666669,90.97799623012543L191.33333333333334,70.4460003376007L192.5,84.60601145029067L193.66666666666666,86.96599864959715L194.83333333333331,86.02200025320052L196,62.186001181602464L197.16666666666669,84.37000745534895L198.33333333333334,93.33800101280211L199.5,93.33800101280211L200.66666666666666,87.43800663948058L201.83333333333334,82.01000267267227L203,89.79801142215729L204.16666666666666,103.48599696159363L205.33333333333331,85.0780018568039L206.5,104.90200334787369L207.66666666666669,105.1380073428154L208.83333333333334,96.40600019693373L210,99.47399938106535L211.16666666666666,101.36199617385864L212.33333333333331,97.8220065832138L213.5,109.85799932479858L214.66666666666669,100.65400177240372L215.83333333333334,96.64200419187544L217,107.26200813055038L218.16666666666666,98.53000098466873L219.33333333333334,103.0140065550804L220.5,84.13400346040724L221.66666666666666,93.1019970178604L222.83333333333331,91.92201220989227L224,81.53801226615904L225.16666666666669,76.34601229429245L226.33333333333334,78.94200348854065L227.5,88.14600104093552L228.66666666666666,98.76600497961044L229.83333333333331,91.92201220989227L231,95.2259978055954L232.16666666666669,108.67799693346022L233.33333333333334,98.05801057815552L234.5,91.45000422000885L235.66666666666666,103.25001055002211L236.83333333333334,96.64200419187544L238,102.77800256013869L239.16666666666666,94.28199940919876L240.33333333333331,98.05801057815552L241.5,91.92201220989227L242.66666666666669,110.56601130962372L243.83333333333334,90.97799623012543L245,101.12600976228714L246.16666666666666,97.8220065832138L247.33333333333331,98.53000098466873L248.5,97.34999859333038L249.66666666666669,96.16999620199202L250.83333333333334,90.74200981855391L252,92.86601060628891L253.16666666666666,101.36199617385864L254.33333333333334,108.20600652694702L255.5,106.08200573921202L256.66666666666663,103.48599696159363" style="fill: none;" fill="none"></path></g></g></g></g></g></g><g transform="translate(50, 177)" clip-path="url(#clip_1)"><clipPath id="clip_1"><rect width="280" height="23"></rect></clipPath><g><g><line x1="0" y1="0" x2="0" y2="5" style="visibility: inherit;" fill="rgb(0, 0, 0)" stroke="rgb(204, 204, 204)" stroke-width="1px"></line><line x1="23.333333333333332" y1="0" x2="23.333333333333332" y2="5" style="visibility: inherit;" fill="rgb(0, 0, 0)" stroke="rgb(204, 204, 204)" stroke-width="1px"></line><line x1="46.666666666666664" y1="0" x2="46.666666666666664" y2="5" style="visibility: inherit;" fill="rgb(0, 0, 0)" stroke="rgb(204, 204, 204)" stroke-width="1px"></line><line x1="70" y1="0" x2="70" y2="5" style="visibility: inherit;" fill="rgb(0, 0, 0)" stroke="rgb(204, 204, 204)" stroke-width="1px"></line><line x1="93.33333333333333" y1="0" x2="93.33333333333333" y2="5" style="visibility: inherit;" fill="rgb(0, 0, 0)" stroke="rgb(204, 204, 204)" stroke-width="1px"></line><line x1="116.66666666666667" y1="0" x2="116.66666666666667" y2="5" style="visibility: inherit;" fill="rgb(0, 0, 0)" stroke="rgb(204, 204, 204)" stroke-width="1px"></line><line x1="140" y1="0" x2="140" y2="5" style="visibility: inherit;" fill="rgb(0, 0, 0)" stroke="rgb(204, 204, 204)" stroke-width="1px"></line><line x1="163.33333333333334" y1="0" x2="163.33333333333334" y2="5" style="visibility: inherit;" fill="rgb(0, 0, 0)" stroke="rgb(204, 204, 204)" stroke-width="1px"></line><line x1="186.66666666666666" y1="0" x2="186.66666666666666" y2="5" style="visibility: inherit;" fill="rgb(0, 0, 0)" stroke="rgb(204, 204, 204)" stroke-width="1px"></line><line x1="210" y1="0" x2="210" y2="5" style="visibility: inherit;" fill="rgb(0, 0, 0)" stroke="rgb(204, 204, 204)" stroke-width="1px"></line><line x1="233.33333333333334" y1="0" x2="233.33333333333334" y2="5" style="visibility: inherit;" fill="rgb(0, 0, 0)" stroke="rgb(204, 204, 204)" stroke-width="1px"></line><line x1="256.66666666666663" y1="0" x2="256.66666666666663" y2="5" style="visibility: inherit;" fill="rgb(0, 0, 0)" stroke="rgb(204, 204, 204)" stroke-width="1px"></line><line x1="280" y1="0" x2="280" y2="5" style="visibility: inherit;" fill="rgb(0, 0, 0)" stroke="rgb(204, 204, 204)" stroke-width="1px"></line></g><g transform="translate(0, 8)"><text x="0" y="0" dx="0em" dy="0.95em" style="text-anchor: middle; visibility: hidden; font-family: Roboto, sans-serif; font-size: 12px; font-weight: 200;" fill="rgb(33, 33, 33)" stroke="none" stroke-width="1px">-20</text><text x="23.333333333333332" y="0" dx="0em" dy="0.95em" style="text-anchor: middle; visibility: inherit; font-family: Roboto, sans-serif; font-size: 12px; font-weight: 200;" fill="rgb(33, 33, 33)" stroke="none" stroke-width="1px">0</text><text x="46.666666666666664" y="0" dx="0em" dy="0.95em" style="text-anchor: middle; visibility: hidden; font-family: Roboto, sans-serif; font-size: 12px; font-weight: 200;" fill="rgb(33, 33, 33)" stroke="none" stroke-width="1px">20</text><text x="70" y="0" dx="0em" dy="0.95em" style="text-anchor: middle; visibility: inherit; font-family: Roboto, sans-serif; font-size: 12px; font-weight: 200;" fill="rgb(33, 33, 33)" stroke="none" stroke-width="1px">40</text><text x="93.33333333333333" y="0" dx="0em" dy="0.95em" style="text-anchor: middle; visibility: hidden; font-family: Roboto, sans-serif; font-size: 12px; font-weight: 200;" fill="rgb(33, 33, 33)" stroke="none" stroke-width="1px">60</text><text x="116.66666666666667" y="0" dx="0em" dy="0.95em" style="text-anchor: middle; visibility: inherit; font-family: Roboto, sans-serif; font-size: 12px; font-weight: 200;" fill="rgb(33, 33, 33)" stroke="none" stroke-width="1px">80</text><text x="140" y="0" dx="0em" dy="0.95em" style="text-anchor: middle; visibility: hidden; font-family: Roboto, sans-serif; font-size: 12px; font-weight: 200;" fill="rgb(33, 33, 33)" stroke="none" stroke-width="1px">100</text><text x="163.33333333333334" y="0" dx="0em" dy="0.95em" style="text-anchor: middle; visibility: inherit; font-family: Roboto, sans-serif; font-size: 12px; font-weight: 200;" fill="rgb(33, 33, 33)" stroke="none" stroke-width="1px">120</text><text x="186.66666666666666" y="0" dx="0em" dy="0.95em" style="text-anchor: middle; visibility: hidden; font-family: Roboto, sans-serif; font-size: 12px; font-weight: 200;" fill="rgb(33, 33, 33)" stroke="none" stroke-width="1px">140</text><text x="210" y="0" dx="0em" dy="0.95em" style="text-anchor: middle; visibility: inherit; font-family: Roboto, sans-serif; font-size: 12px; font-weight: 200;" fill="rgb(33, 33, 33)" stroke="none" stroke-width="1px">160</text><text x="233.33333333333334" y="0" dx="0em" dy="0.95em" style="text-anchor: middle; visibility: hidden; font-family: Roboto, sans-serif; font-size: 12px; font-weight: 200;" fill="rgb(33, 33, 33)" stroke="none" stroke-width="1px">180</text><text x="256.66666666666663" y="0" dx="0em" dy="0.95em" style="text-anchor: middle; visibility: inherit; font-family: Roboto, sans-serif; font-size: 12px; font-weight: 200;" fill="rgb(33, 33, 33)" stroke="none" stroke-width="1px">200</text><text x="280" y="0" dx="0em" dy="0.95em" style="text-anchor: middle; visibility: hidden; font-family: Roboto, sans-serif; font-size: 12px; font-weight: 200;" fill="rgb(33, 33, 33)" stroke="none" stroke-width="1px">220</text></g><line x1="0" y1="0" x2="280" y2="0" fill="rgb(0, 0, 0)" stroke="rgb(204, 204, 204)" stroke-width="1px"></line></g></g></g></g></svg>