<svg viewBox="0 0 330 200" xmlns="http://www.w3.org/2000/svg"><g><g><g><g><g><line x1="40" y1="177" x2="35" y2="177" style="visibility: inherit;" fill="rgb(0, 0, 0)" stroke="rgb(204, 204, 204)" stroke-width="1px"></line><line x1="40" y1="157.33333333333331" x2="35" y2="157.33333333333331" style="visibility: inherit;" fill="rgb(0, 0, 0)" stroke="rgb(204, 204, 204)" stroke-width="1px"></line><line x1="40" y1="137.66666666666666" x2="35" y2="137.66666666666666" style="visibility: inherit;" fill="rgb(0, 0, 0)" stroke="rgb(204, 204, 204)" stroke-width="1px"></line><line x1="40" y1="118" x2="35" y2="118" style="visibility: inherit;" fill="rgb(0, 0, 0)" stroke="rgb(204, 204, 204)" stroke-width="1px"></line><line x1="40" y1="98.33333333333334" x2="35" y2="98.33333333333334" style="visibility: inherit;" fill="rgb(0, 0, 0)" stroke="rgb(204, 204, 204)" stroke-width="1px"></line><line x1="40" y1="78.66666666666666" x2="35" y2="78.66666666666666" style="visibility: inherit;" fill="rgb(0, 0, 0)" stroke="rgb(204, 204, 204)" stroke-width="1px"></line><line x1="40" y1="59.00000000000001" x2="35" y2="59.00000000000001" style="visibility: inherit;" fill="rgb(0, 0, 0)" stroke="rgb(204, 204, 204)" stroke-width="1px"></line><line x1="40" y1="39.33333333333333" x2="35" y2="39.33333333333333" style="visibility: inherit;" fill="rgb(0, 0, 0)" stroke="rgb(204, 204, 204)" stroke-width="1px"></line><line x1="40" y1="19.666666666666657" x2="35" y2="19.666666666666657" style="visibility: inherit;" fill="rgb(0, 0, 0)" stroke="rgb(204, 204, 204)" stroke-width="1px"></line><line x1="40" y1="0" x2="35" y2="0" style="visibility: inherit;" fill="rgb(0, 0, 0)" stroke="rgb(204, 204, 204)" stroke-width="1px"></line></g><g transform="translate(30, 0)"><text x="0" y="177" dx="0em" dy="0.3em" style="text-anchor: end; visibility: hidden; font-family: Roboto, sans-serif; font-size: 12px; font-weight: 200;" fill="rgb(33, 33, 33)" stroke="none" stroke-width="1px">0.1</text><text x="0" y="157.33333333333331" dx="0em" dy="0.3em" style="text-anchor: end; visibility: inherit; font-family: Roboto, sans-serif; font-size: 12px; font-weight: 200;" fill="rgb(33, 33, 33)" stroke="none" stroke-width="1px">0.2</text><text x="0" y="137.66666666666666" dx="0em" dy="0.3em" style="text-anchor: end; visibility: hidden; font-family: Roboto, sans-serif; font-size: 12px; font-weight: 200;" fill="rgb(33, 33, 33)" stroke="none" stroke-width="1px">0.3</text><text x="0" y="118" dx="0em" dy="0.3em" style="text-anchor: end; visibility: inherit; font-family: Roboto, sans-serif; font-size: 12px; font-weight: 200;" fill="rgb(33, 33, 33)" stroke="none" stroke-width="1px">0.4</text><text x="0" y="98.33333333333334" dx="0em" dy="0.3em" style="text-anchor: end; visibility: hidden; font-family: Roboto, sans-serif; font-size: 12px; font-weight: 200;" fill="rgb(33, 33, 33)" stroke="none" stroke-width="1px">0.5</text><text x="0" y="78.66666666666666" dx="0em" dy="0.3em" style="text-anchor: end; visibility: inherit; font-family: Roboto, sans-serif; font-size: 12px; font-weight: 200;" fill="rgb(33, 33, 33)" stroke="none" stroke-width="1px">0.6</text><text x="0" y="59.00000000000001" dx="0em" dy="0.3em" style="text-anchor: end; visibility: hidden; font-family: Roboto, sans-serif; font-size: 12px; font-weight: 200;" fill="rgb(33, 33, 33)" stroke="none" stroke-width="1px">0.7</text><text x="0" y="39.33333333333333" dx="0em" dy="0.3em" style="text-anchor: end; visibility: inherit; font-family: Roboto, sans-serif; font-size: 12px; font-weight: 200;" fill="rgb(33, 33, 33)" stroke="none" stroke-width="1px">0.8</text><text x="0" y="19.666666666666657" dx="0em" dy="0.3em" style="text-anchor: end; visibility: hidden; font-family: Roboto, sans-serif; font-size: 12px; font-weight: 200;" fill="rgb(33, 33, 33)" stroke="none" stroke-width="1px">0.9</text><text x="0" y="0" dx="0em" dy="0.3em" style="text-anchor: end; visibility: hidden; font-family: Roboto, sans-serif; font-size: 12px; font-weight: 200;" fill="rgb(33, 33, 33)" stroke="none" stroke-width="1px">1</text></g><line x1="40" y1="0" x2="40" y2="177" fill="rgb(0, 0, 0)" stroke="rgb(204, 204, 204)" stroke-width="1px"></line></g></g><g transform="translate(40, 0)" clip-path="url(#clip_0)"><clipPath id="clip_0"><rect width="290" height="177"></rect></clipPath><g><g><g><line x1="0" y1="0" x2="0" y2="177" fill="rgb(0, 0, 0)" stroke="rgb(66, 66, 66)" stroke-width="1px" opacity="0.25"></line><line x1="24.166666666666664" y1="0" x2="24.166666666666664" y2="177" fill="rgb(0, 0, 0)" stroke="rgb(66, 66, 66)" stroke-width="1px" opacity="0.25"></line><line x1="48.33333333333333" y1="0" x2="48.33333333333333" y2="177" fill="rgb(0, 0, 0)" stroke="rgb(66, 66, 66)" stroke-width="1px" opacity="0.25"></line><line x1="72.5" y1="0" x2="72.5" y2="177" fill="rgb(0, 0, 0)" stroke="rgb(66, 66, 66)" stroke-width="1px" opacity="0.25"></line><line x1="96.66666666666666" y1="0" x2="96.66666666666666" y2="177" fill="rgb(0, 0, 0)" stroke="rgb(66, 66, 66)" stroke-width="1px" opacity="0.25"></line><line x1="120.83333333333334" y1="0" x2="120.83333333333334" y2="177" fill="rgb(0, 0, 0)" stroke="rgb(66, 66, 66)" stroke-width="1px" opacity="0.25"></line><line x1="145" y1="0" x2="145" y2="177" fill="rgb(0, 0, 0)" stroke="rgb(66, 66, 66)" stroke-width="1px" opacity="0.25"></line><line x1="169.16666666666669" y1="0" x2="169.16666666666669" y2="177" fill="rgb(0, 0, 0)" stroke="rgb(66, 66, 66)" stroke-width="1px" opacity="0.25"></line><line x1="193.33333333333331" y1="0" x2="193.33333333333331" y2="177" fill="rgb(0, 0, 0)" stroke="rgb(66, 66, 66)" stroke-width="1px" opacity="0.25"></line><line x1="217.5" y1="0" x2="217.5" y2="177" fill="rgb(0, 0, 0)" stroke="rgb(66, 66, 66)" stroke-width="1px" opacity="0.25"></line><line x1="241.66666666666669" y1="0" x2="241.66666666666669" y2="177" fill="rgb(0, 0, 0)" stroke="rgb(66, 66, 66)" stroke-width="1px" opacity="0.25"></line><line x1="265.8333333333333" y1="0" x2="265.8333333333333" y2="177" fill="rgb(0, 0, 0)" stroke="rgb(66, 66, 66)" stroke-width="1px" opacity="0.25"></line><line x1="290" y1="0" x2="290" y2="177" fill="rgb(0, 0, 0)" stroke="rgb(66, 66, 66)" stroke-width="1px" opacity="0.25"></line></g><g><line x1="0" y1="177" x2="290" y2="177" fill="rgb(0, 0, 0)" stroke="rgb(66, 66, 66)" stroke-width="1px" opacity="0.25"></line><line x1="0" y1="157.33333333333331" x2="290" y2="157.33333333333331" fill="rgb(0, 0, 0)" stroke="rgb(66, 66, 66)" stroke-width="1px" opacity="0.25"></line><line x1="0" y1="137.66666666666666" x2="290" y2="137.66666666666666" fill="rgb(0, 0, 0)" stroke="rgb(66, 66, 66)" stroke-width="1px" opacity="0.25"></line><line x1="0" y1="118" x2="290" y2="118" fill="rgb(0, 0, 0)" stroke="rgb(66, 66, 66)" stroke-width="1px" opacity="0.25"></line><line x1="0" y1="98.33333333333334" x2="290" y2="98.33333333333334" fill="rgb(0, 0, 0)" stroke="rgb(66, 66, 66)" stroke-width="1px" opacity="0.25"></line><line x1="0" y1="78.66666666666666" x2="290" y2="78.66666666666666" fill="rgb(0, 0, 0)" stroke="rgb(66, 66, 66)" stroke-width="1px" opacity="0.25"></line><line x1="0" y1="59.00000000000001" x2="290" y2="59.00000000000001" fill="rgb(0, 0, 0)" stroke="rgb(66, 66, 66)" stroke-width="1px" opacity="0.25"></line><line x1="0" y1="39.33333333333333" x2="290" y2="39.33333333333333" fill="rgb(0, 0, 0)" stroke="rgb(66, 66, 66)" stroke-width="1px" opacity="0.25"></line><line x1="0" y1="19.666666666666657" x2="290" y2="19.666666666666657" fill="rgb(0, 0, 0)" stroke="rgb(66, 66, 66)" stroke-width="1px" opacity="0.25"></line><line x1="0" y1="0" x2="290" y2="0" fill="rgb(0, 0, 0)" stroke="rgb(66, 66, 66)" stroke-width="1px" opacity="0.25"></line></g></g></g><g><g><line x1="0" y1="196.66666666666669" x2="290" y2="196.66666666666669" fill="rgb(0, 0, 0)" stroke="rgb(153, 153, 153)" stroke-width="1.5px"></line></g></g><g><g><line x1="24.166666666666664" y1="0" x2="24.166666666666664" y2="177" fill="rgb(0, 0, 0)" stroke="rgb(153, 153, 153)" stroke-width="1.5px"></line></g></g><g><g><g><g><g><path stroke="rgb(51, 187, 238)" stroke-width="2px" d="M25.375,166.77333429455757L26.583333333333332,135.93600352605185L27.791666666666668,66.70933723449707L29,56.95466955502828L30.208333333333336,48.144006133079536L31.416666666666668,43.10933629671732L32.625,40.277335246404L33.833333333333336,38.86133472124737L35.041666666666664,174.48266771932444L36.25,56.482673287391655L37.458333333333336,32.25334008534749L38.666666666666664,30.365343292554225L39.875,31.62400782108307L41.083333333333336,31.78133209546407L42.29166666666667,27.84800251324972L43.5,28.949342767397564L44.708333333333336,28.634670774141956L45.916666666666664,28.005338509877514L47.125,25.173337459564216L48.33333333333333,25.488009452819824L49.541666666666664,22.656008402506504L50.75,24.386669198671978L51.958333333333336,23.600000937779743L53.166666666666664,22.813332676887505L54.375,22.97066867351532L55.583333333333336,23.757336934407558L56.791666666666664,25.0160014629364L58,23.91467293103535L59.208333333333336,22.813332676887505L60.41666666666667,22.341336409250896L61.625,21.55466814835866L62.833333333333336,21.240007877349846L64.04166666666667,21.397332151730847L65.25,22.49867240587871L66.45833333333333,21.712004144986476L67.66666666666667,22.341336409250896L68.875,19.981343348821003L70.08333333333333,22.026676138242085L71.29166666666666,21.86934014161427L72.5,20.92533588409424L73.70833333333333,20.92533588409424L74.91666666666667,18.880003094673157L76.125,20.610675613085423L77.33333333333333,19.666671355565395L78.54166666666666,19.194675087928765L79.75,19.351999362309765L80.95833333333333,18.408006827036548L82.16666666666667,20.138667623202L83.375,21.082671880722053L84.58333333333334,19.351999362309765L85.79166666666667,18.880003094673157L87,20.610675613085423L88.20833333333333,18.722667098045342L89.41666666666667,19.82400735219319L90.625,18.250670830408733L91.83333333333333,17.778674562772107L93.04166666666667,19.03733909130097L94.25,17.4640025695165L95.45833333333333,18.408006827036548L96.66666666666666,19.50933535893758L97.875,19.82400735219319L99.08333333333333,18.09333483378092L100.29166666666667,18.880003094673157L101.5,18.09333483378092L102.70833333333334,17.149342298507683L103.91666666666667,17.4640025695165L105.125,17.621338566144313L106.33333333333333,17.935998837153125L107.54166666666667,16.834670305252075L108.75,17.778674562772107L109.95833333333333,17.4640025695165L111.16666666666667,17.621338566144313L112.375,17.149342298507683L113.58333333333333,19.351999362309765L114.79166666666666,17.4640025695165L116,16.52001003424326L117.20833333333333,16.362674037615466L118.41666666666667,16.362674037615466L119.625,17.149342298507683L120.83333333333334,18.250670830408733L122.04166666666667,16.99200630187989L123.25,17.935998837153125L124.45833333333333,17.621338566144313L125.66666666666667,17.149342298507683L126.875,18.408006827036548L128.08333333333334,16.99200630187989L129.29166666666669,16.99200630187989L130.5,17.149342298507683L131.70833333333334,16.52001003424326L132.91666666666666,17.306666572888684L134.125,17.149342298507683L135.33333333333334,16.834670305252075L136.54166666666666,17.306666572888684L137.75,16.362674037615466L138.95833333333334,17.306666572888684L140.16666666666666,17.778674562772107L141.375,16.20533804098765L142.58333333333331,16.834670305252075L143.79166666666666,16.52001003424326L145,17.778674562772107L146.20833333333334,17.306666572888684L147.41666666666666,15.890666047732044L148.625,16.20533804098765L149.83333333333334,16.834670305252075L151.04166666666669,16.67733430862426L152.25,16.048002044359837L153.45833333333334,16.52001003424326L154.66666666666666,16.834670305252075L155.875,17.621338566144313L157.08333333333331,16.048002044359837L158.29166666666666,16.834670305252075L159.5,17.4640025695165L160.70833333333334,14.946673512458808L161.91666666666666,15.57600577672323L163.125,177.0000011722247L164.33333333333334,16.362674037615466L165.54166666666666,16.362674037615466L166.75,15.57600577672323L167.95833333333334,16.52001003424326L169.16666666666669,17.149342298507683L170.375,16.52001003424326L171.58333333333334,15.261333783467602L172.79166666666666,16.048002044359837L174,16.362674037615466L175.20833333333331,16.048002044359837L176.41666666666666,17.621338566144313L177.625,15.733341773351025L178.83333333333334,16.834670305252075L180.04166666666666,16.99200630187989L181.25,16.834670305252075L182.45833333333334,16.67733430862426L183.66666666666666,15.104009509086602L184.875,16.362674037615466L186.08333333333334,16.52001003424326L187.29166666666669,15.261333783467602L188.5,16.67733430862426L189.70833333333334,16.362674037615466L190.91666666666666,15.733341773351025L192.125,16.20533804098765L193.33333333333331,16.048002044359837L194.54166666666666,16.048002044359837L195.75,15.104009509086602L196.95833333333334,15.57600577672323L198.16666666666666,14.946673512458808L199.375,15.261333783467602L200.58333333333334,16.20533804098765L201.79166666666666,15.57600577672323L203,14.946673512458808L204.20833333333334,16.67733430862426L205.41666666666669,15.890666047732044L206.625,15.104009509086602L207.83333333333334,14.632001519203179L209.04166666666666,14.789337515830994L210.25,14.946673512458808L211.45833333333331,14.946673512458808L212.66666666666666,15.57600577672323L213.875,16.362674037615466L215.08333333333334,16.20533804098765L216.29166666666666,16.52001003424326L217.5,16.99200630187989L218.70833333333334,17.149342298507683L219.91666666666666,16.52001003424326L221.125,16.362674037615466L222.33333333333334,16.362674037615466L223.54166666666669,16.834670305252075L224.75,16.20533804098765L225.95833333333334,15.890666047732044L227.16666666666666,16.20533804098765L228.375,16.362674037615466L229.58333333333331,16.834670305252075L230.79166666666666,15.261333783467602L232,16.048002044359837L233.20833333333334,16.362674037615466L234.41666666666666,16.362674037615466L235.625,16.048002044359837L236.83333333333334,15.733341773351025L238.04166666666666,16.362674037615466L239.25,16.20533804098765L240.45833333333334,16.20533804098765L241.66666666666669,15.890666047732044L242.875,16.834670305252075L244.08333333333334,17.149342298507683L245.29166666666666,17.4640025695165L246.5,16.52001003424326L247.70833333333331,16.20533804098765L248.91666666666666,16.834670305252075L250.125,16.52001003424326L251.33333333333334,15.733341773351025L252.54166666666666,17.149342298507683L253.75,16.834670305252075L254.95833333333334,17.149342298507683L256.1666666666667,16.67733430862426L257.375,16.362674037615466L258.58333333333337,16.362674037615466L259.7916666666667,15.57600577672323L261,15.57600577672323L262.2083333333333,15.418669780095415L263.4166666666667,15.57600577672323L264.625,15.261333783467602L265.8333333333333,16.048002044359837" style="fill: none;" fill="none"></path></g><g><path stroke="rgb(238, 51, 119)" stroke-width="2px" d="M25.375,158.43466714024544L26.583333333333332,169.4479993482431L27.791666666666668,188.6426671097676L31.416666666666668,180.93333368500075L32.625,175.11199998358884L33.833333333333336,160.95200205842653L35.041666666666664,132.00266808271408L36.25,57.26934154828389L37.458333333333336,96.28800054391226L38.666666666666664,112.49333272377648L39.875,108.87466927369435L41.083333333333336,129.64266916116077L42.29166666666667,128.85600090026855L43.5,133.26133261124292L44.708333333333336,134.6773331363996L45.916666666666664,131.53066595395407L47.125,135.62133739391965L48.33333333333333,132.4746702114741L49.541666666666664,145.84800134102505L50.75,133.57599874337515L51.958333333333336,149.46666772166887L53.166666666666664,147.73600106438002L54.375,147.4213320016861L55.583333333333336,140.65600136915842L56.791666666666664,143.01600029071173L58,156.23200128475824L59.208333333333336,135.306665400664L60.41666666666667,126.81066811084746L61.625,131.53066595395407L62.833333333333336,145.0613330801328L64.04166666666667,159.3786684672038L65.25,131.53066595395407L66.45833333333333,134.04800087213516L67.66666666666667,137.03733205795288L68.875,139.08267070849735L70.08333333333333,150.0959999859333L71.29166666666666,148.83733545740446L72.5,139.55466697613397L73.70833333333333,143.33066642284393L74.91666666666667,149.93866691986722L76.125,154.34400156140327L77.33333333333333,140.49866537253064L78.54166666666666,142.5440040230751L79.75,148.83733545740446L80.95833333333333,159.06400233507156L82.16666666666667,139.24000084400177L83.375,140.49866537253064L84.58333333333334,166.77333429455757L85.79166666666667,148.99466852347055L87,168.03200175364813L88.20833333333333,158.1200010081132L89.41666666666667,154.9733338256677L90.625,158.90666633844376L91.83333333333333,155.60266902049383L93.04166666666667,148.20800026257834L94.25,141.7573357621829L95.45833333333333,147.26400186618167L96.66666666666666,155.60266902049383L97.875,151.35466744502384L99.08333333333333,147.5786679983139L100.29166666666667,154.18666849533716L101.5,147.1066658695539L102.70833333333334,145.0613330801328L103.91666666666667,151.04000131289163L105.125,150.0959999859333L106.33333333333333,153.40000023444492L107.54166666666667,155.60266902049383L108.75,151.35466744502384L109.95833333333333,147.89333413044614L111.16666666666667,142.0720018943151L112.375,144.9040029446284L113.58333333333333,146.94933573404947L114.79166666666666,150.56800211469334L116,142.7013341585795L117.20833333333333,154.8160007596016L118.41666666666667,150.25333305199942L119.625,138.45333258310956L120.83333333333334,147.26400186618167L122.04166666666667,146.00533733765283L123.25,159.53600153326988L124.45833333333333,156.38933435082436L125.66666666666667,151.51200051108995L126.875,159.53600153326988L128.08333333333334,162.6826687157154L129.29166666666669,156.23200128475824L130.5,161.26666819055876L131.70833333333334,140.81333736578623L132.91666666666666,148.83733545740446L134.125,150.41066904862723L135.33333333333334,148.20800026257834L136.54166666666666,156.86133354902267L137.75,155.2879999577999L138.95833333333334,144.74666694800058L140.16666666666666,148.36533332864443L141.375,145.84800134102505L142.58333333333331,150.88266824682555L143.79166666666666,155.2879999577999L145,151.82666664322218L146.20833333333334,157.0186666150888L147.41666666666666,154.5013346274694L148.625,147.5786679983139L149.83333333333334,146.00533733765283L151.04166666666669,147.26400186618167L152.25,142.7013341585795L153.45833333333334,146.79199973742166L154.66666666666666,148.05066719651222L155.875,152.4560018380483L157.08333333333331,155.76000208655992L158.29166666666666,144.9040029446284L159.5,155.1306668917338L160.70833333333334,154.02933542927104L161.91666666666666,155.1306668917338L163.125,196.66666666666669L164.33333333333334,82.60000328222911L165.54166666666666,73.47466786702473L166.75,80.3973344961802L167.95833333333334,78.98133397102356L169.16666666666669,84.64533607165019L170.375,95.1866720120112L171.58333333333334,92.6693312327067L172.79166666666666,100.69333811601003L174,99.74933385848998L175.20833333333331,87.94933338960011L176.41666666666666,97.07466880480449L177.625,86.37600859006245L178.83333333333334,99.5920037229856L180.04166666666666,104.78400369485219L181.25,106.67200048764546L182.45833333333334,112.49333272377648L183.66666666666666,104.78400369485219L184.875,121.93333427111305L186.08333333333334,118.15733482440312L187.29166666666669,114.85333750645319L188.5,108.71733327706654L189.70833333333334,109.34667140245438L190.91666666666666,110.29066979885101L192.125,107.3013327519099L193.33333333333331,112.65066872040431L194.54166666666666,114.38133537769318L195.75,108.87466927369435L196.95833333333334,112.17866659164429L198.16666666666666,108.08800101280212L199.375,107.77333488066992L200.58333333333334,110.29066979885101L201.79166666666666,109.9760036667188L203,109.50400153795877L204.20833333333334,108.08800101280212L205.41666666666669,108.71733327706654L206.625,110.92000206311543L207.83333333333334,105.57066609462102L209.04166666666666,105.25599996248881L210.25,107.61600474516551L211.45833333333331,109.9760036667188L212.66666666666666,116.89867029587427L213.875,120.67466974258421L215.08333333333334,112.17866659164429L216.29166666666666,125.70933371782303L217.5,115.48266977071762L218.70833333333334,115.16800363858542L219.91666666666666,114.38133537769318L221.125,117.2133364280065L222.33333333333334,118.00000468889873L223.54166666666669,118.62933695316313L224.75,120.04533747831981L225.95833333333334,116.26933803160985L227.16666666666666,117.05600043137868L228.375,115.3253337740898L229.58333333333331,118.94400308529535L230.79166666666666,122.7200025320053L232,122.5626665353775L233.20833333333334,122.09067026774089L234.41666666666666,123.97866706053414L235.625,126.96800410747528L236.83333333333334,125.86666971445084L238.04166666666666,123.97866706053414L239.25,122.09067026774089L240.45833333333334,121.77600413560867L241.66666666666669,122.87733266750972L242.875,123.97866706053414L244.08333333333334,120.36000361045201L245.29166666666666,122.09067026774089L246.5,121.14666601022084L247.70833333333331,117.6853326956431L248.91666666666666,121.14666601022084L250.125,122.4053363998731L251.33333333333334,118.78666708866756L252.54166666666666,115.48266977071762L253.75,119.57333534955978L254.95833333333334,117.5280025601387L256.1666666666667,117.2133364280065L257.375,117.2133364280065L258.58333333333337,115.16800363858542L259.7916666666667,116.42666816711426L261,120.67466974258421L262.2083333333333,118.62933695316313L263.4166666666667,119.41599935293196L264.625,116.11200203498204L265.8333333333333,115.63999990622202" style="fill: none;" fill="none"></path></g></g></g></g></g></g><g transform="translate(40, 177)" clip-path="url(#clip_1)"><clipPath id="clip_1"><rect width="290" height="23"></rect></clipPath><g><g><line x1="0" y1="0" x2="0" y2="5" style="visibility: inherit;" fill="rgb(0, 0, 0)" stroke="rgb(204, 204, 204)" stroke-width="1px"></line><line x1="24.166666666666664" y1="0" x2="24.166666666666664" y2="5" style="visibility: inherit;" fill="rgb(0, 0, 0)" stroke="rgb(204, 204, 204)" stroke-width="1px"></line><line x1="48.33333333333333" y1="0" x2="48.33333333333333" y2="5" style="visibility: inherit;" fill="rgb(0, 0, 0)" stroke="rgb(204, 204, 204)" stroke-width="1px"></line><line x1="72.5" y1="0" x2="72.5" y2="5" style="visibility: inherit;" fill="rgb(0, 0, 0)" stroke="rgb(204, 204, 204)" stroke-width="1px"></line><line x1="96.66666666666666" y1="0" x2="96.66666666666666" y2="5" style="visibility: inherit;" fill="rgb(0, 0, 0)" stroke="rgb(204, 204, 204)" stroke-width="1px"></line><line x1="120.83333333333334" y1="0" x2="120.83333333333334" y2="5" style="visibility: inherit;" fill="rgb(0, 0, 0)" stroke="rgb(204, 204, 204)" stroke-width="1px"></line><line x1="145" y1="0" x2="145" y2="5" style="visibility: inherit;" fill="rgb(0, 0, 0)" stroke="rgb(204, 204, 204)" stroke-width="1px"></line><line x1="169.16666666666669" y1="0" x2="169.16666666666669" y2="5" style="visibility: inherit;" fill="rgb(0, 0, 0)" stroke="rgb(204, 204, 204)" stroke-width="1px"></line><line x1="193.33333333333331" y1="0" x2="193.33333333333331" y2="5" style="visibility: inherit;" fill="rgb(0, 0, 0)" stroke="rgb(204, 204, 204)" stroke-width="1px"></line><line x1="217.5" y1="0" x2="217.5" y2="5" style="visibility: inherit;" fill="rgb(0, 0, 0)" stroke="rgb(204, 204, 204)" stroke-width="1px"></line><line x1="241.66666666666669" y1="0" x2="241.66666666666669" y2="5" style="visibility: inherit;" fill="rgb(0, 0, 0)" stroke="rgb(204, 204, 204)" stroke-width="1px"></line><line x1="265.8333333333333" y1="0" x2="265.8333333333333" y2="5" style="visibility: inherit;" fill="rgb(0, 0, 0)" stroke="rgb(204, 204, 204)" stroke-width="1px"></line><line x1="290" y1="0" x2="290" y2="5" style="visibility: inherit;" fill="rgb(0, 0, 0)" stroke="rgb(204, 204, 204)" stroke-width="1px"></line></g><g transform="translate(0, 8)"><text x="0" y="0" dx="0em" dy="0.95em" style="text-anchor: middle; visibility: hidden; font-family: Roboto, sans-serif; font-size: 12px; font-weight: 200;" fill="rgb(33, 33, 33)" stroke="none" stroke-width="1px">-20</text><text x="24.166666666666664" y="0" dx="0em" dy="0.95em" style="text-anchor: middle; visibility: inherit; font-family: Roboto, sans-serif; font-size: 12px; font-weight: 200;" fill="rgb(33, 33, 33)" stroke="none" stroke-width="1px">0</text><text x="48.33333333333333" y="0" dx="0em" dy="0.95em" style="text-anchor: middle; visibility: hidden; font-family: Roboto, sans-serif; font-size: 12px; font-weight: 200;" fill="rgb(33, 33, 33)" stroke="none" stroke-width="1px">20</text><text x="72.5" y="0" dx="0em" dy="0.95em" style="text-anchor: middle; visibility: inherit; font-family: Roboto, sans-serif; font-size: 12px; font-weight: 200;" fill="rgb(33, 33, 33)" stroke="none" stroke-width="1px">40</text><text x="96.66666666666666" y="0" dx="0em" dy="0.95em" style="text-anchor: middle; visibility: hidden; font-family: Roboto, sans-serif; font-size: 12px; font-weight: 200;" fill="rgb(33, 33, 33)" stroke="none" stroke-width="1px">60</text><text x="120.83333333333334" y="0" dx="0em" dy="0.95em" style="text-anchor: middle; visibility: inherit; font-family: Roboto, sans-serif; font-size: 12px; font-weight: 200;" fill="rgb(33, 33, 33)" stroke="none" stroke-width="1px">80</text><text x="145" y="0" dx="0em" dy="0.95em" style="text-anchor: middle; visibility: hidden; font-family: Roboto, sans-serif; font-size: 12px; font-weight: 200;" fill="rgb(33, 33, 33)" stroke="none" stroke-width="1px">100</text><text x="169.16666666666669" y="0" dx="0em" dy="0.95em" style="text-anchor: middle; visibility: inherit; font-family: Roboto, sans-serif; font-size: 12px; font-weight: 200;" fill="rgb(33, 33, 33)" stroke="none" stroke-width="1px">120</text><text x="193.33333333333331" y="0" dx="0em" dy="0.95em" style="text-anchor: middle; visibility: hidden; font-family: Roboto, sans-serif; font-size: 12px; font-weight: 200;" fill="rgb(33, 33, 33)" stroke="none" stroke-width="1px">140</text><text x="217.5" y="0" dx="0em" dy="0.95em" style="text-anchor: middle; visibility: inherit; font-family: Roboto, sans-serif; font-size: 12px; font-weight: 200;" fill="rgb(33, 33, 33)" stroke="none" stroke-width="1px">160</text><text x="241.66666666666669" y="0" dx="0em" dy="0.95em" style="text-anchor: middle; visibility: hidden; font-family: Roboto, sans-serif; font-size: 12px; font-weight: 200;" fill="rgb(33, 33, 33)" stroke="none" stroke-width="1px">180</text><text x="265.8333333333333" y="0" dx="0em" dy="0.95em" style="text-anchor: middle; visibility: inherit; font-family: Roboto, sans-serif; font-size: 12px; font-weight: 200;" fill="rgb(33, 33, 33)" stroke="none" stroke-width="1px">200</text><text x="290" y="0" dx="0em" dy="0.95em" style="text-anchor: middle; visibility: hidden; font-family: Roboto, sans-serif; font-size: 12px; font-weight: 200;" fill="rgb(33, 33, 33)" stroke="none" stroke-width="1px">220</text></g><line x1="0" y1="0" x2="290" y2="0" fill="rgb(0, 0, 0)" stroke="rgb(204, 204, 204)" stroke-width="1px"></line></g></g></g></g></svg>