<svg viewBox="0 0 330 200" xmlns="http://www.w3.org/2000/svg"><g><g><g><g><g><line x1="50" y1="177" x2="45" y2="177" style="visibility: inherit;" fill="rgb(0, 0, 0)" stroke="rgb(204, 204, 204)" stroke-width="1px"></line><line x1="50" y1="160.9090909090909" x2="45" y2="160.9090909090909" style="visibility: inherit;" fill="rgb(0, 0, 0)" stroke="rgb(204, 204, 204)" stroke-width="1px"></line><line x1="50" y1="144.8181818181818" x2="45" y2="144.8181818181818" style="visibility: inherit;" fill="rgb(0, 0, 0)" stroke="rgb(204, 204, 204)" stroke-width="1px"></line><line x1="50" y1="128.72727272727272" x2="45" y2="128.72727272727272" style="visibility: inherit;" fill="rgb(0, 0, 0)" stroke="rgb(204, 204, 204)" stroke-width="1px"></line><line x1="50" y1="112.63636363636365" x2="45" y2="112.63636363636365" style="visibility: inherit;" fill="rgb(0, 0, 0)" stroke="rgb(204, 204, 204)" stroke-width="1px"></line><line x1="50" y1="96.54545454545453" x2="45" y2="96.54545454545453" style="visibility: inherit;" fill="rgb(0, 0, 0)" stroke="rgb(204, 204, 204)" stroke-width="1px"></line><line x1="50" y1="80.45454545454547" x2="45" y2="80.45454545454547" style="visibility: inherit;" fill="rgb(0, 0, 0)" stroke="rgb(204, 204, 204)" stroke-width="1px"></line><line x1="50" y1="64.36363636363636" x2="45" y2="64.36363636363636" style="visibility: inherit;" fill="rgb(0, 0, 0)" stroke="rgb(204, 204, 204)" stroke-width="1px"></line><line x1="50" y1="48.27272727272725" x2="45" y2="48.27272727272725" style="visibility: inherit;" fill="rgb(0, 0, 0)" stroke="rgb(204, 204, 204)" stroke-width="1px"></line><line x1="50" y1="32.18181818181817" x2="45" y2="32.18181818181817" style="visibility: inherit;" fill="rgb(0, 0, 0)" stroke="rgb(204, 204, 204)" stroke-width="1px"></line><line x1="50" y1="16.090909090909076" x2="45" y2="16.090909090909076" style="visibility: inherit;" fill="rgb(0, 0, 0)" stroke="rgb(204, 204, 204)" stroke-width="1px"></line><line x1="50" y1="0" x2="45" y2="0" style="visibility: inherit;" fill="rgb(0, 0, 0)" stroke="rgb(204, 204, 204)" stroke-width="1px"></line></g><g transform="translate(40, 0)"><text x="0" y="177" dx="0em" dy="0.3em" style="text-anchor: end; visibility: hidden; font-family: Roboto, sans-serif; font-size: 12px; font-weight: 200;" fill="rgb(33, 33, 33)" stroke="none" stroke-width="1px">0.4</text><text x="0" y="160.9090909090909" dx="0em" dy="0.3em" style="text-anchor: end; visibility: inherit; font-family: Roboto, sans-serif; font-size: 12px; font-weight: 200;" fill="rgb(33, 33, 33)" stroke="none" stroke-width="1px">0.45</text><text x="0" y="144.8181818181818" dx="0em" dy="0.3em" style="text-anchor: end; visibility: hidden; font-family: Roboto, sans-serif; font-size: 12px; font-weight: 200;" fill="rgb(33, 33, 33)" stroke="none" stroke-width="1px">0.5</text><text x="0" y="128.72727272727272" dx="0em" dy="0.3em" style="text-anchor: end; visibility: inherit; font-family: Roboto, sans-serif; font-size: 12px; font-weight: 200;" fill="rgb(33, 33, 33)" stroke="none" stroke-width="1px">0.55</text><text x="0" y="112.63636363636365" dx="0em" dy="0.3em" style="text-anchor: end; visibility: hidden; font-family: Roboto, sans-serif; font-size: 12px; font-weight: 200;" fill="rgb(33, 33, 33)" stroke="none" stroke-width="1px">0.6</text><text x="0" y="96.54545454545453" dx="0em" dy="0.3em" style="text-anchor: end; visibility: inherit; font-family: Roboto, sans-serif; font-size: 12px; font-weight: 200;" fill="rgb(33, 33, 33)" stroke="none" stroke-width="1px">0.65</text><text x="0" y="80.45454545454547" dx="0em" dy="0.3em" style="text-anchor: end; visibility: hidden; font-family: Roboto, sans-serif; font-size: 12px; font-weight: 200;" fill="rgb(33, 33, 33)" stroke="none" stroke-width="1px">0.7</text><text x="0" y="64.36363636363636" dx="0em" dy="0.3em" style="text-anchor: end; visibility: inherit; font-family: Roboto, sans-serif; font-size: 12px; font-weight: 200;" fill="rgb(33, 33, 33)" stroke="none" stroke-width="1px">0.75</text><text x="0" y="48.27272727272725" dx="0em" dy="0.3em" style="text-anchor: end; visibility: hidden; font-family: Roboto, sans-serif; font-size: 12px; font-weight: 200;" fill="rgb(33, 33, 33)" stroke="none" stroke-width="1px">0.8</text><text x="0" y="32.18181818181817" dx="0em" dy="0.3em" style="text-anchor: end; visibility: inherit; font-family: Roboto, sans-serif; font-size: 12px; font-weight: 200;" fill="rgb(33, 33, 33)" stroke="none" stroke-width="1px">0.85</text><text x="0" y="16.090909090909076" dx="0em" dy="0.3em" style="text-anchor: end; visibility: hidden; font-family: Roboto, sans-serif; font-size: 12px; font-weight: 200;" fill="rgb(33, 33, 33)" stroke="none" stroke-width="1px">0.9</text><text x="0" y="0" dx="0em" dy="0.3em" style="text-anchor: end; visibility: hidden; font-family: Roboto, sans-serif; font-size: 12px; font-weight: 200;" fill="rgb(33, 33, 33)" stroke="none" stroke-width="1px">0.95</text></g><line x1="50" y1="0" x2="50" y2="177" fill="rgb(0, 0, 0)" stroke="rgb(204, 204, 204)" stroke-width="1px"></line></g></g><g transform="translate(50, 0)" clip-path="url(#clip_0)"><clipPath id="clip_0"><rect width="280" height="177"></rect></clipPath><g><g><g><line x1="0" y1="0" x2="0" y2="177" fill="rgb(0, 0, 0)" stroke="rgb(66, 66, 66)" stroke-width="1px" opacity="0.25"></line><line x1="23.333333333333332" y1="0" x2="23.333333333333332" y2="177" fill="rgb(0, 0, 0)" stroke="rgb(66, 66, 66)" stroke-width="1px" opacity="0.25"></line><line x1="46.666666666666664" y1="0" x2="46.666666666666664" y2="177" fill="rgb(0, 0, 0)" stroke="rgb(66, 66, 66)" stroke-width="1px" opacity="0.25"></line><line x1="70" y1="0" x2="70" y2="177" fill="rgb(0, 0, 0)" stroke="rgb(66, 66, 66)" stroke-width="1px" opacity="0.25"></line><line x1="93.33333333333333" y1="0" x2="93.33333333333333" y2="177" fill="rgb(0, 0, 0)" stroke="rgb(66, 66, 66)" stroke-width="1px" opacity="0.25"></line><line x1="116.66666666666667" y1="0" x2="116.66666666666667" y2="177" fill="rgb(0, 0, 0)" stroke="rgb(66, 66, 66)" stroke-width="1px" opacity="0.25"></line><line x1="140" y1="0" x2="140" y2="177" fill="rgb(0, 0, 0)" stroke="rgb(66, 66, 66)" stroke-width="1px" opacity="0.25"></line><line x1="163.33333333333334" y1="0" x2="163.33333333333334" y2="177" fill="rgb(0, 0, 0)" stroke="rgb(66, 66, 66)" stroke-width="1px" opacity="0.25"></line><line x1="186.66666666666666" y1="0" x2="186.66666666666666" y2="177" fill="rgb(0, 0, 0)" stroke="rgb(66, 66, 66)" stroke-width="1px" opacity="0.25"></line><line x1="210" y1="0" x2="210" y2="177" fill="rgb(0, 0, 0)" stroke="rgb(66, 66, 66)" stroke-width="1px" opacity="0.25"></line><line x1="233.33333333333334" y1="0" x2="233.33333333333334" y2="177" fill="rgb(0, 0, 0)" stroke="rgb(66, 66, 66)" stroke-width="1px" opacity="0.25"></line><line x1="256.66666666666663" y1="0" x2="256.66666666666663" y2="177" fill="rgb(0, 0, 0)" stroke="rgb(66, 66, 66)" stroke-width="1px" opacity="0.25"></line><line x1="280" y1="0" x2="280" y2="177" fill="rgb(0, 0, 0)" stroke="rgb(66, 66, 66)" stroke-width="1px" opacity="0.25"></line></g><g><line x1="0" y1="177" x2="280" y2="177" fill="rgb(0, 0, 0)" stroke="rgb(66, 66, 66)" stroke-width="1px" opacity="0.25"></line><line x1="0" y1="160.9090909090909" x2="280" y2="160.9090909090909" fill="rgb(0, 0, 0)" stroke="rgb(66, 66, 66)" stroke-width="1px" opacity="0.25"></line><line x1="0" y1="144.8181818181818" x2="280" y2="144.8181818181818" fill="rgb(0, 0, 0)" stroke="rgb(66, 66, 66)" stroke-width="1px" opacity="0.25"></line><line x1="0" y1="128.72727272727272" x2="280" y2="128.72727272727272" fill="rgb(0, 0, 0)" stroke="rgb(66, 66, 66)" stroke-width="1px" opacity="0.25"></line><line x1="0" y1="112.63636363636365" x2="280" y2="112.63636363636365" fill="rgb(0, 0, 0)" stroke="rgb(66, 66, 66)" stroke-width="1px" opacity="0.25"></line><line x1="0" y1="96.54545454545453" x2="280" y2="96.54545454545453" fill="rgb(0, 0, 0)" stroke="rgb(66, 66, 66)" stroke-width="1px" opacity="0.25"></line><line x1="0" y1="80.45454545454547" x2="280" y2="80.45454545454547" fill="rgb(0, 0, 0)" stroke="rgb(66, 66, 66)" stroke-width="1px" opacity="0.25"></line><line x1="0" y1="64.36363636363636" x2="280" y2="64.36363636363636" fill="rgb(0, 0, 0)" stroke="rgb(66, 66, 66)" stroke-width="1px" opacity="0.25"></line><line x1="0" y1="48.27272727272725" x2="280" y2="48.27272727272725" fill="rgb(0, 0, 0)" stroke="rgb(66, 66, 66)" stroke-width="1px" opacity="0.25"></line><line x1="0" y1="32.18181818181817" x2="280" y2="32.18181818181817" fill="rgb(0, 0, 0)" stroke="rgb(66, 66, 66)" stroke-width="1px" opacity="0.25"></line><line x1="0" y1="16.090909090909076" x2="280" y2="16.090909090909076" fill="rgb(0, 0, 0)" stroke="rgb(66, 66, 66)" stroke-width="1px" opacity="0.25"></line><line x1="0" y1="0" x2="280" y2="0" fill="rgb(0, 0, 0)" stroke="rgb(66, 66, 66)" stroke-width="1px" opacity="0.25"></line></g></g></g><g><g><line x1="0" y1="305.72727272727275" x2="280" y2="305.72727272727275" fill="rgb(0, 0, 0)" stroke="rgb(153, 153, 153)" stroke-width="1.5px"></line></g></g><g><g><line x1="23.333333333333332" y1="0" x2="23.333333333333332" y2="177" fill="rgb(0, 0, 0)" stroke="rgb(153, 153, 153)" stroke-width="1.5px"></line></g></g><g><g><g><g><g><path stroke="rgb(51, 187, 238)" stroke-width="2px" d="M25.666666666666664,191.16000759601593L26.833333333333336,98.4763656312769L28,73.76073288917542L29.166666666666668,62.17527404698458L30.333333333333336,56.25381517410278L31.5,54.70910011638295L32.666666666666664,47.24290700392288L33.833333333333336,40.54909060218116L35,40.806549505753935L36.16666666666667,40.29165088046679L37.333333333333336,34.112733104012214L38.5,29.478549567135882L39.666666666666664,31.795641335574057L40.833333333333336,242.9083648486571L42,58.57090694254094L43.16666666666667,25.61674274097789L44.33333333333333,26.131641366265022L45.5,224.62908960472456L46.666666666666664,27.16145779869773L47.833333333333336,23.557090694254086L49,22.527274261821397L50.166666666666664,21.49745782938869L51.33333333333333,22.26983454010703L52.5,22.527274261821397L53.66666666666667,19.695283868096077L54.833333333333336,19.695283868096077L56,19.695283868096077L57.166666666666664,20.210182493383222L58.333333333333336,18.15054962851783L59.5,18.40800853209061L60.66666666666667,16.090916763652434L61.83333333333333,18.40800853209061L63,247.0276401693171L64.16666666666666,18.40800853209061L65.33333333333333,17.12073319608514L66.5,15.833457860079672L67.66666666666667,14.803641427646966L68.83333333333333,16.090916763652434L70,15.318559234792525L71.16666666666666,15.318559234792525L72.33333333333334,15.318559234792525L73.5,14.803641427646966L74.66666666666667,16.86327429251236L75.83333333333333,15.061100331219745L77,15.318559234792525L78.16666666666667,14.288742802359838L79.33333333333333,14.546182524074187L80.5,15.061100331219745L81.66666666666667,16.090916763652434L82.83333333333333,15.061100331219745L84,13.773824995214278L85.16666666666666,15.833457860079672L86.33333333333334,15.061100331219745L87.5,18.922907157377757L88.66666666666666,15.575998956506893L89.83333333333334,15.575998956506893L91,15.575998956506893L92.16666666666667,12.229090755636031L93.33333333333333,12.744008562781591L94.5,13.773824995214278L95.66666666666667,14.031283898787057L96.83333333333333,12.229090755636031L98,11.971651033921663L99.16666666666667,12.744008562781591L100.33333333333333,11.199274323203344L101.5,13.516366091641498L102.66666666666666,14.546182524074187L103.83333333333334,11.714192130348883L105,10.941834601488974L106.16666666666666,11.456733226776104L107.33333333333334,11.971651033921663L108.5,12.229090755636031L109.66666666666667,11.971651033921663L110.83333333333333,11.714192130348883L112,10.941834601488974L113.16666666666667,12.48654965920881L114.33333333333333,11.714192130348883L115.5,13.773824995214278L116.66666666666667,11.456733226776104L117.83333333333333,13.00146746635435L119,12.744008562781591L120.16666666666666,11.456733226776104L121.33333333333334,10.941834601488974L122.5,11.456733226776104L123.66666666666666,11.199274323203344L124.83333333333334,10.426916794343416L126,11.456733226776104L127.16666666666667,11.456733226776104L128.33333333333331,13.516366091641498L129.5,10.941834601488974L130.66666666666666,10.169457890770635L131.83333333333334,10.426916794343416L133,10.169457890770635L134.16666666666669,11.456733226776104L135.33333333333334,11.714192130348883L136.5,10.684375697916195L137.66666666666666,12.229090755636031L138.83333333333334,11.714192130348883L140,11.456733226776104L141.16666666666666,11.199274323203344L142.33333333333331,13.00146746635435L143.5,11.714192130348883L144.66666666666669,13.00146746635435L145.83333333333334,9.911998987197856L147,10.684375697916195L148.16666666666666,11.971651033921663L149.33333333333334,10.684375697916195L150.5,11.199274323203344L151.66666666666666,10.169457890770635L152.83333333333331,9.654559265483488L154,9.139641458337948L155.16666666666669,11.199274323203344L156.33333333333334,9.911998987197856L157.5,10.684375697916195L158.66666666666666,10.169457890770635L159.83333333333331,9.139641458337948L161,10.169457890770635L162.16666666666669,8.88218255476517L163.33333333333334,10.684375697916195L164.5,11.714192130348883L165.66666666666666,11.456733226776104L166.83333333333334,10.684375697916195L168,8.36728392947802L169.16666666666666,9.654559265483488L170.33333333333331,9.397100361910727L171.5,8.109825025905241L172.66666666666669,9.911998987197856L173.83333333333334,11.456733226776104L175,9.911998987197856L176.16666666666666,10.684375697916195L177.33333333333331,9.654559265483488L178.5,9.139641458337948L179.66666666666669,10.941834601488974L180.83333333333334,8.36728392947802L182,8.88218255476517L183.16666666666666,9.397100361910727L184.33333333333334,11.456733226776104L185.5,9.139641458337948L186.66666666666666,11.456733226776104L187.83333333333331,9.654559265483488L189,9.139641458337948L190.16666666666669,9.654559265483488L191.33333333333334,9.397100361910727L192.5,10.169457890770635L193.66666666666666,9.397100361910727L194.83333333333331,9.139641458337948L196,9.397100361910727L197.16666666666669,10.684375697916195L198.33333333333334,10.169457890770635L199.5,10.684375697916195L200.66666666666666,10.169457890770635L201.83333333333334,11.199274323203344L203,10.426916794343416L204.16666666666666,10.169457890770635L205.33333333333331,9.654559265483488L206.5,9.654559265483488L207.66666666666669,8.6247428330508L208.83333333333334,8.109825025905241L210,9.139641458337948L211.16666666666666,9.911998987197856L212.33333333333331,9.654559265483488L213.5,10.169457890770635L214.66666666666669,9.397100361910727L215.83333333333334,9.911998987197856L217,9.911998987197856L218.16666666666666,8.88218255476517L219.33333333333334,9.139641458337948L220.5,8.6247428330508L221.66666666666666,10.169457890770635L222.83333333333331,9.139641458337948L224,10.426916794343416L225.16666666666669,10.426916794343416L226.33333333333334,9.911998987197856L227.5,10.426916794343416L228.66666666666666,10.684375697916195L229.83333333333331,9.911998987197856L231,9.911998987197856L232.16666666666669,8.88218255476517L233.33333333333334,8.88218255476517L234.5,10.684375697916195L235.66666666666666,8.109825025905241L236.83333333333334,9.139641458337948L238,10.684375697916195L239.16666666666666,11.456733226776104L240.33333333333331,8.88218255476517L241.5,9.397100361910727L242.66666666666669,10.426916794343416L243.83333333333334,9.397100361910727L245,8.6247428330508L246.16666666666666,9.397100361910727L247.33333333333331,8.88218255476517L248.5,8.109825025905241L249.66666666666669,9.139641458337948L250.83333333333334,8.6247428330508L252,9.654559265483488L253.16666666666666,8.36728392947802L254.33333333333334,9.397100361910727L255.5,9.911998987197856L256.66666666666663,9.397100361910727" style="fill: none;" fill="none"></path></g><g><path stroke="rgb(238, 51, 119)" stroke-width="2px" d="M40.833333333333336,-1.1585420478474189L42,15.318559234792525L43.16666666666667,74.53309041803533L44.33333333333333,113.92365048148416L45.5,-7.852358449589143L46.666666666666664,2.9607428637417827L47.833333333333336,7.080008593472553L49,27.16145779869773L50.166666666666664,65.52218224785544L51.33333333333333,56.25381517410278L52.5,57.79854941368103L53.66666666666667,77.87999861890619L54.833333333333336,81.48436572334982L56,105.94255874373697L57.166666666666664,80.45454929091714L58.333333333333336,105.94255874373697L59.5,91.78254922953518L60.66666666666667,105.4276409365914L61.83333333333333,120.61746688322589L63,225.91636494073003L64.16666666666666,-2.4458173838528863L65.33333333333333,17.37819209965792L66.5,27.16145779869773L67.66666666666667,7.594907218759701L68.83333333333333,3.7331003926016906L70,28.448733134703197L71.16666666666666,38.74691664088854L72.33333333333334,56.25381517410278L73.5,62.69019185413014L74.66666666666667,43.38110017776489L75.83333333333333,62.17527404698458L77,71.9585589278828L78.16666666666667,45.44073304263027L79.33333333333333,70.9287424954501L80.5,77.36509999361904L81.66666666666667,106.19999846545132L82.83333333333333,90.23781498995693L84,77.87999861890619L85.16666666666666,66.29455895857376L86.33333333333334,116.4981819716367L87.5,77.10764109004627L88.66666666666666,60.88799871097911L89.83333333333334,79.68219176205722L91,92.04000813310796L92.16666666666667,95.6443752375516L93.33333333333333,90.49527389352971L94.5,126.53890657424927L95.66666666666667,127.56872300668195L96.83333333333333,104.14036560058594L98,115.46836553920399L99.16666666666667,110.06182447346774L100.33333333333333,107.22981489788403L101.5,117.270558682355L102.66666666666666,116.75564087520947L103.83333333333334,105.4276409365914L105,117.01309977878223L106.16666666666666,115.72582444277676L107.33333333333334,119.07273264364764L108.5,105.68509984016418L109.66666666666667,124.73673261295666L110.83333333333333,134.00509968670931L112,117.5279984040694L113.16666666666667,118.81527374007486L114.33333333333333,147.39273249019277L115.5,126.2814668525349L116.66666666666667,97.18909029527143L117.83333333333333,116.75564087520947L119,125.76654904538935L120.16666666666666,109.03200804103504L121.33333333333334,124.73673261295666L122.5,116.24072306806391L123.66666666666666,131.1730901111256L124.83333333333334,130.65819148583844L126,132.71782435070384L127.16666666666667,117.5279984040694L128.33333333333331,97.18909029527143L129.5,109.28946694460781L130.66666666666666,103.88290669701315L131.83333333333334,123.44945727695118L133,118.30037511478771L134.16666666666669,124.2218148058111L135.33333333333334,113.4087326743386L136.5,136.32219145514748L137.66666666666666,137.60946679115295L138.83333333333334,126.53890657424927L140,123.44945727695118L141.16666666666666,145.33309962532738L142.33333333333331,147.13527358661997L143.5,132.97528325427663L144.66666666666669,135.54981474442914L145.83333333333334,122.67709974809125L147,131.94546682184392L148.16666666666666,124.73673261295666L149.33333333333334,140.95637499202383L150.5,149.9672735712745L151.66666666666666,151.76945712349632L152.83333333333331,150.7396406910636L154,144.0458242893219L155.16666666666669,149.70982425863093L156.33333333333334,128.85599834268743L157.5,130.65819148583844L158.66666666666666,152.799273555929L159.83333333333331,144.56072291460904L161,138.38182432001287L162.16666666666669,132.2029065435583L163.33333333333334,134.51999831199646L164.5,128.59855862097308L165.66666666666666,134.77745721556923L166.83333333333334,126.02400794896214L168,126.53890657424927L169.16666666666666,142.24363114617088L170.33333333333331,163.61236527833074L171.5,147.9076407064091L172.66666666666669,152.0269160270691L173.83333333333334,157.1760077801618L175,145.07564072175458L176.16666666666666,141.72873252088374L177.33333333333331,142.75854895331642L178.5,142.24363114617088L179.66666666666669,132.2029065435583L180.83333333333334,128.85599834268743L182,123.70691618052396L183.16666666666666,138.38182432001287L184.33333333333334,153.57164067571813L185.5,149.1949160424146L186.66666666666666,156.14618175679988L187.83333333333331,147.13527358661997L189,140.4414571848783L190.16666666666669,137.86690651286733L191.33333333333334,136.57963117686185L192.5,143.01600785688922L193.66666666666666,140.1839982813055L194.83333333333331,149.9672735712745L196,142.75854895331642L197.16666666666669,147.39273249019277L198.33333333333334,134.26255859028208L199.5,132.4603654471311L200.66666666666666,140.4414571848783L201.83333333333334,139.92655855959111L203,135.54981474442914L204.16666666666666,144.56072291460904L205.33333333333331,146.36291605776006L206.5,150.9970995946364L207.66666666666669,142.24363114617088L208.83333333333334,151.25454890727997L210,152.799273555929L211.16666666666666,154.34400779550725L212.33333333333331,148.42254892262548L213.5,140.4414571848783L214.66666666666669,142.24363114617088L215.83333333333334,140.95637499202383L217,146.87782427397642L218.16666666666666,146.1054571541873L219.33333333333334,135.80727364800194L220.5,145.59054893797094L221.66666666666666,147.13527358661997L222.83333333333331,158.20582421259448L224,152.0269160270691L225.16666666666669,161.55273241346532L226.33333333333334,154.60145710815084L227.5,158.20582421259448L228.66666666666666,150.9970995946364L229.83333333333331,153.57164067571813L231,163.35491596568716L232.16666666666669,153.31418177214536L233.33333333333334,157.94836530902168L234.5,167.98908991163427L235.66666666666666,160.7803652936762L236.83333333333334,145.8480078415437L238,146.36291605776006L239.16666666666666,155.8887324441563L240.33333333333331,139.66909965601835L241.5,144.56072291460904L242.66666666666669,153.05673245950177L243.83333333333334,147.65018180283636L245,155.8887324441563L246.16666666666666,158.20582421259448L247.33333333333331,159.23564064502716L248.5,167.7316405989907L249.66666666666669,162.8400077494708L250.83333333333334,175.45527343316513L252,170.56364058364522L253.16666666666666,165.15708992697975L254.33333333333334,165.67200773412532L255.5,168.24654881520706L256.66666666666663,173.6530898809433" style="fill: none;" fill="none"></path></g></g></g></g></g></g><g transform="translate(50, 177)" clip-path="url(#clip_1)"><clipPath id="clip_1"><rect width="280" height="23"></rect></clipPath><g><g><line x1="0" y1="0" x2="0" y2="5" style="visibility: inherit;" fill="rgb(0, 0, 0)" stroke="rgb(204, 204, 204)" stroke-width="1px"></line><line x1="23.333333333333332" y1="0" x2="23.333333333333332" y2="5" style="visibility: inherit;" fill="rgb(0, 0, 0)" stroke="rgb(204, 204, 204)" stroke-width="1px"></line><line x1="46.666666666666664" y1="0" x2="46.666666666666664" y2="5" style="visibility: inherit;" fill="rgb(0, 0, 0)" stroke="rgb(204, 204, 204)" stroke-width="1px"></line><line x1="70" y1="0" x2="70" y2="5" style="visibility: inherit;" fill="rgb(0, 0, 0)" stroke="rgb(204, 204, 204)" stroke-width="1px"></line><line x1="93.33333333333333" y1="0" x2="93.33333333333333" y2="5" style="visibility: inherit;" fill="rgb(0, 0, 0)" stroke="rgb(204, 204, 204)" stroke-width="1px"></line><line x1="116.66666666666667" y1="0" x2="116.66666666666667" y2="5" style="visibility: inherit;" fill="rgb(0, 0, 0)" stroke="rgb(204, 204, 204)" stroke-width="1px"></line><line x1="140" y1="0" x2="140" y2="5" style="visibility: inherit;" fill="rgb(0, 0, 0)" stroke="rgb(204, 204, 204)" stroke-width="1px"></line><line x1="163.33333333333334" y1="0" x2="163.33333333333334" y2="5" style="visibility: inherit;" fill="rgb(0, 0, 0)" stroke="rgb(204, 204, 204)" stroke-width="1px"></line><line x1="186.66666666666666" y1="0" x2="186.66666666666666" y2="5" style="visibility: inherit;" fill="rgb(0, 0, 0)" stroke="rgb(204, 204, 204)" stroke-width="1px"></line><line x1="210" y1="0" x2="210" y2="5" style="visibility: inherit;" fill="rgb(0, 0, 0)" stroke="rgb(204, 204, 204)" stroke-width="1px"></line><line x1="233.33333333333334" y1="0" x2="233.33333333333334" y2="5" style="visibility: inherit;" fill="rgb(0, 0, 0)" stroke="rgb(204, 204, 204)" stroke-width="1px"></line><line x1="256.66666666666663" y1="0" x2="256.66666666666663" y2="5" style="visibility: inherit;" fill="rgb(0, 0, 0)" stroke="rgb(204, 204, 204)" stroke-width="1px"></line><line x1="280" y1="0" x2="280" y2="5" style="visibility: inherit;" fill="rgb(0, 0, 0)" stroke="rgb(204, 204, 204)" stroke-width="1px"></line></g><g transform="translate(0, 8)"><text x="0" y="0" dx="0em" dy="0.95em" style="text-anchor: middle; visibility: hidden; font-family: Roboto, sans-serif; font-size: 12px; font-weight: 200;" fill="rgb(33, 33, 33)" stroke="none" stroke-width="1px">-20</text><text x="23.333333333333332" y="0" dx="0em" dy="0.95em" style="text-anchor: middle; visibility: inherit; font-family: Roboto, sans-serif; font-size: 12px; font-weight: 200;" fill="rgb(33, 33, 33)" stroke="none" stroke-width="1px">0</text><text x="46.666666666666664" y="0" dx="0em" dy="0.95em" style="text-anchor: middle; visibility: hidden; font-family: Roboto, sans-serif; font-size: 12px; font-weight: 200;" fill="rgb(33, 33, 33)" stroke="none" stroke-width="1px">20</text><text x="70" y="0" dx="0em" dy="0.95em" style="text-anchor: middle; visibility: inherit; font-family: Roboto, sans-serif; font-size: 12px; font-weight: 200;" fill="rgb(33, 33, 33)" stroke="none" stroke-width="1px">40</text><text x="93.33333333333333" y="0" dx="0em" dy="0.95em" style="text-anchor: middle; visibility: hidden; font-family: Roboto, sans-serif; font-size: 12px; font-weight: 200;" fill="rgb(33, 33, 33)" stroke="none" stroke-width="1px">60</text><text x="116.66666666666667" y="0" dx="0em" dy="0.95em" style="text-anchor: middle; visibility: inherit; font-family: Roboto, sans-serif; font-size: 12px; font-weight: 200;" fill="rgb(33, 33, 33)" stroke="none" stroke-width="1px">80</text><text x="140" y="0" dx="0em" dy="0.95em" style="text-anchor: middle; visibility: hidden; font-family: Roboto, sans-serif; font-size: 12px; font-weight: 200;" fill="rgb(33, 33, 33)" stroke="none" stroke-width="1px">100</text><text x="163.33333333333334" y="0" dx="0em" dy="0.95em" style="text-anchor: middle; visibility: inherit; font-family: Roboto, sans-serif; font-size: 12px; font-weight: 200;" fill="rgb(33, 33, 33)" stroke="none" stroke-width="1px">120</text><text x="186.66666666666666" y="0" dx="0em" dy="0.95em" style="text-anchor: middle; visibility: hidden; font-family: Roboto, sans-serif; font-size: 12px; font-weight: 200;" fill="rgb(33, 33, 33)" stroke="none" stroke-width="1px">140</text><text x="210" y="0" dx="0em" dy="0.95em" style="text-anchor: middle; visibility: inherit; font-family: Roboto, sans-serif; font-size: 12px; font-weight: 200;" fill="rgb(33, 33, 33)" stroke="none" stroke-width="1px">160</text><text x="233.33333333333334" y="0" dx="0em" dy="0.95em" style="text-anchor: middle; visibility: hidden; font-family: Roboto, sans-serif; font-size: 12px; font-weight: 200;" fill="rgb(33, 33, 33)" stroke="none" stroke-width="1px">180</text><text x="256.66666666666663" y="0" dx="0em" dy="0.95em" style="text-anchor: middle; visibility: inherit; font-family: Roboto, sans-serif; font-size: 12px; font-weight: 200;" fill="rgb(33, 33, 33)" stroke="none" stroke-width="1px">200</text><text x="280" y="0" dx="0em" dy="0.95em" style="text-anchor: middle; visibility: hidden; font-family: Roboto, sans-serif; font-size: 12px; font-weight: 200;" fill="rgb(33, 33, 33)" stroke="none" stroke-width="1px">220</text></g><line x1="0" y1="0" x2="280" y2="0" fill="rgb(0, 0, 0)" stroke="rgb(204, 204, 204)" stroke-width="1px"></line></g></g></g></g></svg>