<svg viewBox="0 0 330 200" xmlns="http://www.w3.org/2000/svg"><g><g><g><g><g><line x1="40" y1="177" x2="35" y2="177" style="visibility: inherit;" fill="rgb(0, 0, 0)" stroke="rgb(204, 204, 204)" stroke-width="1px"></line><line x1="40" y1="157.33333333333331" x2="35" y2="157.33333333333331" style="visibility: inherit;" fill="rgb(0, 0, 0)" stroke="rgb(204, 204, 204)" stroke-width="1px"></line><line x1="40" y1="137.66666666666666" x2="35" y2="137.66666666666666" style="visibility: inherit;" fill="rgb(0, 0, 0)" stroke="rgb(204, 204, 204)" stroke-width="1px"></line><line x1="40" y1="118" x2="35" y2="118" style="visibility: inherit;" fill="rgb(0, 0, 0)" stroke="rgb(204, 204, 204)" stroke-width="1px"></line><line x1="40" y1="98.33333333333334" x2="35" y2="98.33333333333334" style="visibility: inherit;" fill="rgb(0, 0, 0)" stroke="rgb(204, 204, 204)" stroke-width="1px"></line><line x1="40" y1="78.66666666666666" x2="35" y2="78.66666666666666" style="visibility: inherit;" fill="rgb(0, 0, 0)" stroke="rgb(204, 204, 204)" stroke-width="1px"></line><line x1="40" y1="59.00000000000001" x2="35" y2="59.00000000000001" style="visibility: inherit;" fill="rgb(0, 0, 0)" stroke="rgb(204, 204, 204)" stroke-width="1px"></line><line x1="40" y1="39.33333333333333" x2="35" y2="39.33333333333333" style="visibility: inherit;" fill="rgb(0, 0, 0)" stroke="rgb(204, 204, 204)" stroke-width="1px"></line><line x1="40" y1="19.666666666666657" x2="35" y2="19.666666666666657" style="visibility: inherit;" fill="rgb(0, 0, 0)" stroke="rgb(204, 204, 204)" stroke-width="1px"></line><line x1="40" y1="0" x2="35" y2="0" style="visibility: inherit;" fill="rgb(0, 0, 0)" stroke="rgb(204, 204, 204)" stroke-width="1px"></line></g><g transform="translate(30, 0)"><text x="0" y="177" dx="0em" dy="0.3em" style="text-anchor: end; visibility: hidden; font-family: Roboto, sans-serif; font-size: 12px; font-weight: 200;" fill="rgb(33, 33, 33)" stroke="none" stroke-width="1px">0.1</text><text x="0" y="157.33333333333331" dx="0em" dy="0.3em" style="text-anchor: end; visibility: inherit; font-family: Roboto, sans-serif; font-size: 12px; font-weight: 200;" fill="rgb(33, 33, 33)" stroke="none" stroke-width="1px">0.2</text><text x="0" y="137.66666666666666" dx="0em" dy="0.3em" style="text-anchor: end; visibility: hidden; font-family: Roboto, sans-serif; font-size: 12px; font-weight: 200;" fill="rgb(33, 33, 33)" stroke="none" stroke-width="1px">0.3</text><text x="0" y="118" dx="0em" dy="0.3em" style="text-anchor: end; visibility: inherit; font-family: Roboto, sans-serif; font-size: 12px; font-weight: 200;" fill="rgb(33, 33, 33)" stroke="none" stroke-width="1px">0.4</text><text x="0" y="98.33333333333334" dx="0em" dy="0.3em" style="text-anchor: end; visibility: hidden; font-family: Roboto, sans-serif; font-size: 12px; font-weight: 200;" fill="rgb(33, 33, 33)" stroke="none" stroke-width="1px">0.5</text><text x="0" y="78.66666666666666" dx="0em" dy="0.3em" style="text-anchor: end; visibility: inherit; font-family: Roboto, sans-serif; font-size: 12px; font-weight: 200;" fill="rgb(33, 33, 33)" stroke="none" stroke-width="1px">0.6</text><text x="0" y="59.00000000000001" dx="0em" dy="0.3em" style="text-anchor: end; visibility: hidden; font-family: Roboto, sans-serif; font-size: 12px; font-weight: 200;" fill="rgb(33, 33, 33)" stroke="none" stroke-width="1px">0.7</text><text x="0" y="39.33333333333333" dx="0em" dy="0.3em" style="text-anchor: end; visibility: inherit; font-family: Roboto, sans-serif; font-size: 12px; font-weight: 200;" fill="rgb(33, 33, 33)" stroke="none" stroke-width="1px">0.8</text><text x="0" y="19.666666666666657" dx="0em" dy="0.3em" style="text-anchor: end; visibility: hidden; font-family: Roboto, sans-serif; font-size: 12px; font-weight: 200;" fill="rgb(33, 33, 33)" stroke="none" stroke-width="1px">0.9</text><text x="0" y="0" dx="0em" dy="0.3em" style="text-anchor: end; visibility: hidden; font-family: Roboto, sans-serif; font-size: 12px; font-weight: 200;" fill="rgb(33, 33, 33)" stroke="none" stroke-width="1px">1</text></g><line x1="40" y1="0" x2="40" y2="177" fill="rgb(0, 0, 0)" stroke="rgb(204, 204, 204)" stroke-width="1px"></line></g></g><g transform="translate(40, 0)" clip-path="url(#clip_0)"><clipPath id="clip_0"><rect width="290" height="177"></rect></clipPath><g><g><g><line x1="0" y1="0" x2="0" y2="177" fill="rgb(0, 0, 0)" stroke="rgb(66, 66, 66)" stroke-width="1px" opacity="0.25"></line><line x1="24.166666666666664" y1="0" x2="24.166666666666664" y2="177" fill="rgb(0, 0, 0)" stroke="rgb(66, 66, 66)" stroke-width="1px" opacity="0.25"></line><line x1="48.33333333333333" y1="0" x2="48.33333333333333" y2="177" fill="rgb(0, 0, 0)" stroke="rgb(66, 66, 66)" stroke-width="1px" opacity="0.25"></line><line x1="72.5" y1="0" x2="72.5" y2="177" fill="rgb(0, 0, 0)" stroke="rgb(66, 66, 66)" stroke-width="1px" opacity="0.25"></line><line x1="96.66666666666666" y1="0" x2="96.66666666666666" y2="177" fill="rgb(0, 0, 0)" stroke="rgb(66, 66, 66)" stroke-width="1px" opacity="0.25"></line><line x1="120.83333333333334" y1="0" x2="120.83333333333334" y2="177" fill="rgb(0, 0, 0)" stroke="rgb(66, 66, 66)" stroke-width="1px" opacity="0.25"></line><line x1="145" y1="0" x2="145" y2="177" fill="rgb(0, 0, 0)" stroke="rgb(66, 66, 66)" stroke-width="1px" opacity="0.25"></line><line x1="169.16666666666669" y1="0" x2="169.16666666666669" y2="177" fill="rgb(0, 0, 0)" stroke="rgb(66, 66, 66)" stroke-width="1px" opacity="0.25"></line><line x1="193.33333333333331" y1="0" x2="193.33333333333331" y2="177" fill="rgb(0, 0, 0)" stroke="rgb(66, 66, 66)" stroke-width="1px" opacity="0.25"></line><line x1="217.5" y1="0" x2="217.5" y2="177" fill="rgb(0, 0, 0)" stroke="rgb(66, 66, 66)" stroke-width="1px" opacity="0.25"></line><line x1="241.66666666666669" y1="0" x2="241.66666666666669" y2="177" fill="rgb(0, 0, 0)" stroke="rgb(66, 66, 66)" stroke-width="1px" opacity="0.25"></line><line x1="265.8333333333333" y1="0" x2="265.8333333333333" y2="177" fill="rgb(0, 0, 0)" stroke="rgb(66, 66, 66)" stroke-width="1px" opacity="0.25"></line><line x1="290" y1="0" x2="290" y2="177" fill="rgb(0, 0, 0)" stroke="rgb(66, 66, 66)" stroke-width="1px" opacity="0.25"></line></g><g><line x1="0" y1="177" x2="290" y2="177" fill="rgb(0, 0, 0)" stroke="rgb(66, 66, 66)" stroke-width="1px" opacity="0.25"></line><line x1="0" y1="157.33333333333331" x2="290" y2="157.33333333333331" fill="rgb(0, 0, 0)" stroke="rgb(66, 66, 66)" stroke-width="1px" opacity="0.25"></line><line x1="0" y1="137.66666666666666" x2="290" y2="137.66666666666666" fill="rgb(0, 0, 0)" stroke="rgb(66, 66, 66)" stroke-width="1px" opacity="0.25"></line><line x1="0" y1="118" x2="290" y2="118" fill="rgb(0, 0, 0)" stroke="rgb(66, 66, 66)" stroke-width="1px" opacity="0.25"></line><line x1="0" y1="98.33333333333334" x2="290" y2="98.33333333333334" fill="rgb(0, 0, 0)" stroke="rgb(66, 66, 66)" stroke-width="1px" opacity="0.25"></line><line x1="0" y1="78.66666666666666" x2="290" y2="78.66666666666666" fill="rgb(0, 0, 0)" stroke="rgb(66, 66, 66)" stroke-width="1px" opacity="0.25"></line><line x1="0" y1="59.00000000000001" x2="290" y2="59.00000000000001" fill="rgb(0, 0, 0)" stroke="rgb(66, 66, 66)" stroke-width="1px" opacity="0.25"></line><line x1="0" y1="39.33333333333333" x2="290" y2="39.33333333333333" fill="rgb(0, 0, 0)" stroke="rgb(66, 66, 66)" stroke-width="1px" opacity="0.25"></line><line x1="0" y1="19.666666666666657" x2="290" y2="19.666666666666657" fill="rgb(0, 0, 0)" stroke="rgb(66, 66, 66)" stroke-width="1px" opacity="0.25"></line><line x1="0" y1="0" x2="290" y2="0" fill="rgb(0, 0, 0)" stroke="rgb(66, 66, 66)" stroke-width="1px" opacity="0.25"></line></g></g></g><g><g><line x1="0" y1="196.66666666666669" x2="290" y2="196.66666666666669" fill="rgb(0, 0, 0)" stroke="rgb(153, 153, 153)" stroke-width="1.5px"></line></g></g><g><g><line x1="24.166666666666664" y1="0" x2="24.166666666666664" y2="177" fill="rgb(0, 0, 0)" stroke="rgb(153, 153, 153)" stroke-width="1.5px"></line></g></g><g><g><g><g><g><path stroke="rgb(51, 187, 238)" stroke-width="2px" d="M25.375,177.1573342382908L26.583333333333332,121.46133800347646L27.791666666666668,73.16000759601593L29,54.752000768979386L30.208333333333336,46.88534160455067L31.416666666666668,44.05334055423737L32.625,41.37867550055187L33.833333333333336,39.33334271113079L35.041666666666664,35.71467339992523L36.25,37.130673925081894L37.458333333333336,32.4106760819753L38.666666666666664,30.994675556818645L39.875,29.735999306042988L41.083333333333336,31.62400782108307L42.29166666666667,27.690666516621906L43.5,28.79200677076975L44.708333333333336,25.80266972382864L45.916666666666664,24.858665466308587L47.125,25.645333727200825L48.33333333333333,23.285340666770928L49.541666666666664,23.757336934407558L50.75,25.0160014629364L51.958333333333336,23.757336934407558L53.166666666666664,24.072008927663166L54.375,24.072008927663166L55.583333333333336,23.285340666770928L56.791666666666664,22.026676138242085L58,22.341336409250896L59.208333333333336,22.026676138242085L60.41666666666667,21.240007877349846L61.625,21.240007877349846L62.833333333333336,21.397332151730847L64.04166666666667,20.610675613085423L65.25,20.92533588409424L66.45833333333333,20.138667623202L67.66666666666667,21.712004144986476L68.875,19.981343348821003L70.08333333333333,20.92533588409424L71.29166666666666,19.194675087928765L72.5,19.03733909130097L73.70833333333333,19.82400735219319L74.91666666666667,20.767999887466424L76.125,19.82400735219319L77.33333333333333,20.138667623202L78.54166666666666,20.767999887466424L79.75,19.50933535893758L80.95833333333333,20.767999887466424L82.16666666666667,19.981343348821003L83.375,19.50933535893758L84.58333333333334,19.351999362309765L85.79166666666667,19.50933535893758L87,18.09333483378092L88.20833333333333,18.250670830408733L89.41666666666667,19.666671355565395L90.625,18.880003094673157L91.83333333333333,20.138667623202L93.04166666666667,17.4640025695165L94.25,18.09333483378092L95.45833333333333,18.408006827036548L96.66666666666666,18.722667098045342L97.875,17.4640025695165L99.08333333333333,18.250670830408733L100.29166666666667,17.306666572888684L101.5,17.149342298507683L102.70833333333334,17.149342298507683L103.91666666666667,17.4640025695165L105.125,16.834670305252075L106.33333333333333,17.778674562772107L107.54166666666667,17.306666572888684L108.75,17.935998837153125L109.95833333333333,17.149342298507683L111.16666666666667,17.4640025695165L112.375,16.52001003424326L113.58333333333333,16.52001003424326L114.79166666666666,18.56534282366434L116,18.09333483378092L117.20833333333333,16.834670305252075L118.41666666666667,16.362674037615466L119.625,16.834670305252075L120.83333333333334,16.52001003424326L122.04166666666667,17.935998837153125L123.25,17.4640025695165L124.45833333333333,17.4640025695165L125.66666666666667,17.935998837153125L126.875,16.048002044359837L128.08333333333334,18.09333483378092L129.29166666666669,17.306666572888684L130.5,17.149342298507683L131.70833333333334,18.250670830408733L132.91666666666666,16.67733430862426L134.125,16.99200630187989L135.33333333333334,16.834670305252075L136.54166666666666,17.306666572888684L137.75,16.20533804098765L138.95833333333334,16.048002044359837L140.16666666666666,16.99200630187989L141.375,16.99200630187989L142.58333333333331,16.67733430862426L143.79166666666666,19.03733909130097L145,17.149342298507683L146.20833333333334,16.834670305252075L147.41666666666666,15.57600577672323L148.625,16.67733430862426L149.83333333333334,17.149342298507683L151.04166666666669,16.20533804098765L152.25,15.733341773351025L153.45833333333334,15.418669780095415L154.66666666666666,15.261333783467602L155.875,16.52001003424326L157.08333333333331,16.048002044359837L158.29166666666666,15.890666047732044L159.5,16.834670305252075L160.70833333333334,16.048002044359837L161.91666666666666,16.67733430862426L163.125,15.890666047732044L164.33333333333334,14.789337515830994L165.54166666666666,15.261333783467602L166.75,15.104009509086602L167.95833333333334,15.733341773351025L169.16666666666669,16.048002044359837L170.375,16.048002044359837L171.58333333333334,16.048002044359837L172.79166666666666,15.418669780095415L174,15.733341773351025L175.20833333333331,14.946673512458808L176.41666666666666,15.57600577672323L177.625,16.362674037615466L178.83333333333334,14.946673512458808L180.04166666666666,15.733341773351025L181.25,15.57600577672323L182.45833333333334,15.104009509086602L183.66666666666666,15.104009509086602L184.875,16.20533804098765L186.08333333333334,15.733341773351025L187.29166666666669,15.733341773351025L188.5,15.890666047732044L189.70833333333334,15.57600577672323L190.91666666666666,14.946673512458808L192.125,15.57600577672323L193.33333333333331,15.733341773351025L194.54166666666666,15.261333783467602L195.75,15.57600577672323L196.95833333333334,15.57600577672323L198.16666666666666,16.048002044359837L199.375,15.418669780095415L200.58333333333334,16.20533804098765L201.79166666666666,16.834670305252075L203,16.52001003424326L204.20833333333334,16.52001003424326L205.41666666666669,15.57600577672323L206.625,16.99200630187989L207.83333333333334,15.733341773351025L209.04166666666666,16.362674037615466L210.25,15.733341773351025L211.45833333333331,15.890666047732044L212.66666666666666,14.946673512458808L213.875,14.789337515830994L215.08333333333334,16.048002044359837L216.29166666666666,14.317341248194385L217.5,14.474665522575386L218.70833333333334,16.362674037615466L219.91666666666666,15.104009509086602L221.125,15.418669780095415L222.33333333333334,14.474665522575386L223.54166666666669,14.946673512458808L224.75,15.104009509086602L225.95833333333334,14.946673512458808L227.16666666666666,15.418669780095415L228.375,15.890666047732044L229.58333333333331,16.20533804098765L230.79166666666666,16.362674037615466L232,15.733341773351025L233.20833333333334,15.733341773351025L234.41666666666666,15.890666047732044L235.625,16.20533804098765L236.83333333333334,16.52001003424326L238.04166666666666,16.20533804098765L239.25,15.733341773351025L240.45833333333334,177.7866665025552L241.66666666666669,17.149342298507683L242.875,16.20533804098765L244.08333333333334,15.418669780095415L245.29166666666666,16.362674037615466L246.5,16.20533804098765L247.70833333333331,15.890666047732044L248.91666666666666,16.20533804098765L250.125,176.05599984526634L251.33333333333334,17.149342298507683L252.54166666666666,15.890666047732044L253.75,16.20533804098765L254.95833333333334,16.362674037615466L256.1666666666667,16.362674037615466L257.375,16.20533804098765L258.58333333333337,16.362674037615466L259.7916666666667,15.890666047732044L261,15.104009509086602L262.2083333333333,16.20533804098765L263.4166666666667,16.362674037615466L264.625,15.57600577672323L265.8333333333333,15.890666047732044" style="fill: none;" fill="none"></path></g><g><path stroke="rgb(238, 51, 119)" stroke-width="2px" d="M25.375,88.42134137948354L26.583333333333332,186.44000052163997L35.041666666666664,181.562667414546L36.25,176.3706674426794L37.458333333333336,176.84266664087772L38.666666666666664,168.81866708397865L39.875,159.3786684672038L41.083333333333336,170.0773345430692L42.29166666666667,166.61600122849146L43.5,164.09866631031036L44.708333333333336,158.27733407417932L45.916666666666664,166.14400203029317L47.125,161.58133432269096L48.33333333333333,163.46933404604596L49.541666666666664,166.93066736062366L50.75,171.65066813429195L51.958333333333336,168.50400095184645L53.166666666666664,171.80800120035806L54.375,162.6826687157154L55.583333333333336,168.18933481971425L56.791666666666664,165.0426676372687L58,163.31200097997984L59.208333333333336,163.15466791391373L60.41666666666667,166.14400203029317L61.625,160.7946689923604L62.833333333333336,168.18933481971425L64.04166666666667,167.55999962488812L65.25,163.94133324424425L66.45833333333333,168.97600015004474L67.66666666666667,165.0426676372687L68.875,163.62666711211205L70.08333333333333,157.64800180991492L71.29166666666666,162.05333352088928L72.5,167.7173326909542L73.70833333333333,155.76000208655992L74.91666666666667,156.07466821869212L76.125,160.3226668636004L77.33333333333333,159.85066766540209L78.54166666666666,164.7280015051365L79.75,166.77333429455757L80.95833333333333,163.15466791391373L82.16666666666667,160.0080007314682L83.375,160.7946689923604L84.58333333333334,165.51466683546704L85.79166666666667,163.94133324424425L87,161.89600045482317L88.20833333333333,157.17599968115488L89.41666666666667,160.47999992966652L90.625,145.37599921226501L91.83333333333333,155.76000208655992L93.04166666666667,160.0080007314682L94.25,153.71466636657715L95.45833333333333,160.1653337975343L96.66666666666666,161.73866738875708L97.875,143.33066642284393L99.08333333333333,155.445333023866L100.29166666666667,161.58133432269096L101.5,163.15466791391373L102.70833333333334,154.8160007596016L103.91666666666667,148.83733545740446L105.125,141.91466589768726L106.33333333333333,160.63733299573263L107.54166666666667,162.36799965302149L108.75,153.87200236320496L109.95833333333333,154.5013346274694L111.16666666666667,169.29066628217697L112.375,162.21066658695537L113.58333333333333,163.15466791391373L114.79166666666666,161.26666819055876L116,162.36799965302149L117.20833333333333,162.6826687157154L118.41666666666667,162.6826687157154L119.625,160.0080007314682L120.83333333333334,155.76000208655992L122.04166666666667,154.5013346274694L123.25,148.99466852347055L124.45833333333333,154.8160007596016L125.66666666666667,148.83733545740446L126.875,152.7706679701805L128.08333333333334,152.2986687719822L129.29166666666669,152.2986687719822L130.5,146.00533733765283L131.70833333333334,161.89600045482317L132.91666666666666,156.86133354902267L134.125,153.87200236320496L135.33333333333334,163.62666711211205L136.54166666666666,164.88533457120258L137.75,169.60533534487087L138.95833333333334,165.82933296759924L140.16666666666666,163.46933404604596L141.375,157.96266794204712L142.58333333333331,156.7040004829566L143.79166666666666,149.62400078773499L145,161.73866738875708L146.20833333333334,161.26666819055876L147.41666666666666,157.17599968115488L148.625,148.83733545740446L149.83333333333334,157.4906687438488L151.04166666666669,154.5013346274694L152.25,155.76000208655992L153.45833333333334,153.24266716837883L154.66666666666666,153.71466636657715L155.875,153.24266716837883L157.08333333333331,153.71466636657715L158.29166666666666,155.60266902049383L159.5,153.24266716837883L160.70833333333334,156.38933435082436L161.91666666666666,151.9839997092883L163.125,154.9733338256677L164.33333333333334,154.18666849533716L165.54166666666666,155.76000208655992L166.75,148.99466852347055L167.95833333333334,149.46666772166887L169.16666666666669,150.88266824682555L170.375,154.8160007596016L171.58333333333334,151.82666664322218L172.79166666666666,155.91733515262604L174,152.61333490411442L175.20833333333331,151.9839997092883L176.41666666666666,157.96266794204712L177.625,154.9733338256677L178.83333333333334,151.04000131289163L180.04166666666666,155.1306668917338L181.25,153.08533410231271L182.45833333333334,156.07466821869212L183.66666666666666,162.8400017817815L184.875,163.46933404604596L186.08333333333334,158.59200020631155L187.29166666666669,164.7280015051365L188.5,161.73866738875708L189.70833333333334,161.58133432269096L190.91666666666666,157.805334875981L192.125,152.7706679701805L193.33333333333331,158.43466714024544L194.54166666666666,162.9973348478476L195.75,163.94133324424425L196.95833333333334,157.3333356777827L198.16666666666666,154.9733338256677L199.375,154.34400156140327L200.58333333333334,151.9839997092883L201.79166666666666,154.6586676935355L203,149.93866691986722L204.20833333333334,150.0959999859333L205.41666666666669,152.61333490411442L206.625,158.74933327237767L207.83333333333334,153.55733330051103L209.04166666666666,157.4906687438488L210.25,162.6826687157154L211.45833333333331,154.18666849533716L212.66666666666666,149.7813338538011L213.875,148.68000239133835L215.08333333333334,147.5786679983139L216.29166666666666,150.72533518075943L217.5,149.62400078773499L218.70833333333334,151.66933357715607L219.91666666666666,153.87200236320496L221.125,151.35466744502384L222.33333333333334,157.64800180991492L223.54166666666669,152.7706679701805L224.75,155.91733515262604L225.95833333333334,157.64800180991492L227.16666666666666,154.8160007596016L228.375,157.805334875981L229.58333333333331,152.14133570591608L230.79166666666666,151.66933357715607L232,153.40000023444492L233.20833333333334,153.87200236320496L234.41666666666666,155.76000208655992L235.625,154.6586676935355L236.83333333333334,154.5013346274694L238.04166666666666,152.4560018380483L239.25,151.04000131289163L240.45833333333334,196.66666666666669L241.66666666666669,33.19733262062073L242.875,36.97333792845408L244.08333333333334,42.794676025708505L245.29166666666666,48.144006133079536L246.5,53.96533250808715L247.70833333333331,54.9093367656072L248.91666666666666,54.122668504714966L250.125,196.66666666666669L251.33333333333334,6.2933343648910585L252.54166666666666,7.080002625783276L253.75,9.912003676096594L254.95833333333334,11.485340197881067L256.1666666666667,15.890666047732044L257.375,18.56534282366434L258.58333333333337,21.712004144986476L259.7916666666667,25.33067345619201L261,30.050671299298596L262.2083333333333,32.096004088719674L263.4166666666667,38.38933845361073L264.625,39.33334271113079L265.8333333333333,37.76000618934631" style="fill: none;" fill="none"></path></g></g></g></g></g></g><g transform="translate(40, 177)" clip-path="url(#clip_1)"><clipPath id="clip_1"><rect width="290" height="23"></rect></clipPath><g><g><line x1="0" y1="0" x2="0" y2="5" style="visibility: inherit;" fill="rgb(0, 0, 0)" stroke="rgb(204, 204, 204)" stroke-width="1px"></line><line x1="24.166666666666664" y1="0" x2="24.166666666666664" y2="5" style="visibility: inherit;" fill="rgb(0, 0, 0)" stroke="rgb(204, 204, 204)" stroke-width="1px"></line><line x1="48.33333333333333" y1="0" x2="48.33333333333333" y2="5" style="visibility: inherit;" fill="rgb(0, 0, 0)" stroke="rgb(204, 204, 204)" stroke-width="1px"></line><line x1="72.5" y1="0" x2="72.5" y2="5" style="visibility: inherit;" fill="rgb(0, 0, 0)" stroke="rgb(204, 204, 204)" stroke-width="1px"></line><line x1="96.66666666666666" y1="0" x2="96.66666666666666" y2="5" style="visibility: inherit;" fill="rgb(0, 0, 0)" stroke="rgb(204, 204, 204)" stroke-width="1px"></line><line x1="120.83333333333334" y1="0" x2="120.83333333333334" y2="5" style="visibility: inherit;" fill="rgb(0, 0, 0)" stroke="rgb(204, 204, 204)" stroke-width="1px"></line><line x1="145" y1="0" x2="145" y2="5" style="visibility: inherit;" fill="rgb(0, 0, 0)" stroke="rgb(204, 204, 204)" stroke-width="1px"></line><line x1="169.16666666666669" y1="0" x2="169.16666666666669" y2="5" style="visibility: inherit;" fill="rgb(0, 0, 0)" stroke="rgb(204, 204, 204)" stroke-width="1px"></line><line x1="193.33333333333331" y1="0" x2="193.33333333333331" y2="5" style="visibility: inherit;" fill="rgb(0, 0, 0)" stroke="rgb(204, 204, 204)" stroke-width="1px"></line><line x1="217.5" y1="0" x2="217.5" y2="5" style="visibility: inherit;" fill="rgb(0, 0, 0)" stroke="rgb(204, 204, 204)" stroke-width="1px"></line><line x1="241.66666666666669" y1="0" x2="241.66666666666669" y2="5" style="visibility: inherit;" fill="rgb(0, 0, 0)" stroke="rgb(204, 204, 204)" stroke-width="1px"></line><line x1="265.8333333333333" y1="0" x2="265.8333333333333" y2="5" style="visibility: inherit;" fill="rgb(0, 0, 0)" stroke="rgb(204, 204, 204)" stroke-width="1px"></line><line x1="290" y1="0" x2="290" y2="5" style="visibility: inherit;" fill="rgb(0, 0, 0)" stroke="rgb(204, 204, 204)" stroke-width="1px"></line></g><g transform="translate(0, 8)"><text x="0" y="0" dx="0em" dy="0.95em" style="text-anchor: middle; visibility: hidden; font-family: Roboto, sans-serif; font-size: 12px; font-weight: 200;" fill="rgb(33, 33, 33)" stroke="none" stroke-width="1px">-20</text><text x="24.166666666666664" y="0" dx="0em" dy="0.95em" style="text-anchor: middle; visibility: inherit; font-family: Roboto, sans-serif; font-size: 12px; font-weight: 200;" fill="rgb(33, 33, 33)" stroke="none" stroke-width="1px">0</text><text x="48.33333333333333" y="0" dx="0em" dy="0.95em" style="text-anchor: middle; visibility: hidden; font-family: Roboto, sans-serif; font-size: 12px; font-weight: 200;" fill="rgb(33, 33, 33)" stroke="none" stroke-width="1px">20</text><text x="72.5" y="0" dx="0em" dy="0.95em" style="text-anchor: middle; visibility: inherit; font-family: Roboto, sans-serif; font-size: 12px; font-weight: 200;" fill="rgb(33, 33, 33)" stroke="none" stroke-width="1px">40</text><text x="96.66666666666666" y="0" dx="0em" dy="0.95em" style="text-anchor: middle; visibility: hidden; font-family: Roboto, sans-serif; font-size: 12px; font-weight: 200;" fill="rgb(33, 33, 33)" stroke="none" stroke-width="1px">60</text><text x="120.83333333333334" y="0" dx="0em" dy="0.95em" style="text-anchor: middle; visibility: inherit; font-family: Roboto, sans-serif; font-size: 12px; font-weight: 200;" fill="rgb(33, 33, 33)" stroke="none" stroke-width="1px">80</text><text x="145" y="0" dx="0em" dy="0.95em" style="text-anchor: middle; visibility: hidden; font-family: Roboto, sans-serif; font-size: 12px; font-weight: 200;" fill="rgb(33, 33, 33)" stroke="none" stroke-width="1px">100</text><text x="169.16666666666669" y="0" dx="0em" dy="0.95em" style="text-anchor: middle; visibility: inherit; font-family: Roboto, sans-serif; font-size: 12px; font-weight: 200;" fill="rgb(33, 33, 33)" stroke="none" stroke-width="1px">120</text><text x="193.33333333333331" y="0" dx="0em" dy="0.95em" style="text-anchor: middle; visibility: hidden; font-family: Roboto, sans-serif; font-size: 12px; font-weight: 200;" fill="rgb(33, 33, 33)" stroke="none" stroke-width="1px">140</text><text x="217.5" y="0" dx="0em" dy="0.95em" style="text-anchor: middle; visibility: inherit; font-family: Roboto, sans-serif; font-size: 12px; font-weight: 200;" fill="rgb(33, 33, 33)" stroke="none" stroke-width="1px">160</text><text x="241.66666666666669" y="0" dx="0em" dy="0.95em" style="text-anchor: middle; visibility: hidden; font-family: Roboto, sans-serif; font-size: 12px; font-weight: 200;" fill="rgb(33, 33, 33)" stroke="none" stroke-width="1px">180</text><text x="265.8333333333333" y="0" dx="0em" dy="0.95em" style="text-anchor: middle; visibility: inherit; font-family: Roboto, sans-serif; font-size: 12px; font-weight: 200;" fill="rgb(33, 33, 33)" stroke="none" stroke-width="1px">200</text><text x="290" y="0" dx="0em" dy="0.95em" style="text-anchor: middle; visibility: hidden; font-family: Roboto, sans-serif; font-size: 12px; font-weight: 200;" fill="rgb(33, 33, 33)" stroke="none" stroke-width="1px">220</text></g><line x1="0" y1="0" x2="290" y2="0" fill="rgb(0, 0, 0)" stroke="rgb(204, 204, 204)" stroke-width="1px"></line></g></g></g></g></svg>