<svg viewBox="0 0 330 200" xmlns="http://www.w3.org/2000/svg"><g><g><g><g><g><line x1="50" y1="177" x2="45" y2="177" style="visibility: inherit;" fill="rgb(0, 0, 0)" stroke="rgb(204, 204, 204)" stroke-width="1px"></line><line x1="50" y1="162.25" x2="45" y2="162.25" style="visibility: inherit;" fill="rgb(0, 0, 0)" stroke="rgb(204, 204, 204)" stroke-width="1px"></line><line x1="50" y1="147.5" x2="45" y2="147.5" style="visibility: inherit;" fill="rgb(0, 0, 0)" stroke="rgb(204, 204, 204)" stroke-width="1px"></line><line x1="50" y1="132.75" x2="45" y2="132.75" style="visibility: inherit;" fill="rgb(0, 0, 0)" stroke="rgb(204, 204, 204)" stroke-width="1px"></line><line x1="50" y1="118.00000000000001" x2="45" y2="118.00000000000001" style="visibility: inherit;" fill="rgb(0, 0, 0)" stroke="rgb(204, 204, 204)" stroke-width="1px"></line><line x1="50" y1="103.25" x2="45" y2="103.25" style="visibility: inherit;" fill="rgb(0, 0, 0)" stroke="rgb(204, 204, 204)" stroke-width="1px"></line><line x1="50" y1="88.50000000000001" x2="45" y2="88.50000000000001" style="visibility: inherit;" fill="rgb(0, 0, 0)" stroke="rgb(204, 204, 204)" stroke-width="1px"></line><line x1="50" y1="73.75000000000001" x2="45" y2="73.75000000000001" style="visibility: inherit;" fill="rgb(0, 0, 0)" stroke="rgb(204, 204, 204)" stroke-width="1px"></line><line x1="50" y1="59.00000000000003" x2="45" y2="59.00000000000003" style="visibility: inherit;" fill="rgb(0, 0, 0)" stroke="rgb(204, 204, 204)" stroke-width="1px"></line><line x1="50" y1="44.25000000000002" x2="45" y2="44.25000000000002" style="visibility: inherit;" fill="rgb(0, 0, 0)" stroke="rgb(204, 204, 204)" stroke-width="1px"></line><line x1="50" y1="29.500000000000014" x2="45" y2="29.500000000000014" style="visibility: inherit;" fill="rgb(0, 0, 0)" stroke="rgb(204, 204, 204)" stroke-width="1px"></line><line x1="50" y1="14.750000000000007" x2="45" y2="14.750000000000007" style="visibility: inherit;" fill="rgb(0, 0, 0)" stroke="rgb(204, 204, 204)" stroke-width="1px"></line><line x1="50" y1="0" x2="45" y2="0" style="visibility: inherit;" fill="rgb(0, 0, 0)" stroke="rgb(204, 204, 204)" stroke-width="1px"></line></g><g transform="translate(40, 0)"><text x="0" y="177" dx="0em" dy="0.3em" style="text-anchor: end; visibility: hidden; font-family: Roboto, sans-serif; font-size: 12px; font-weight: 200;" fill="rgb(33, 33, 33)" stroke="none" stroke-width="1px">-0.1</text><text x="0" y="162.25" dx="0em" dy="0.3em" style="text-anchor: end; visibility: inherit; font-family: Roboto, sans-serif; font-size: 12px; font-weight: 200;" fill="rgb(33, 33, 33)" stroke="none" stroke-width="1px">0</text><text x="0" y="147.5" dx="0em" dy="0.3em" style="text-anchor: end; visibility: hidden; font-family: Roboto, sans-serif; font-size: 12px; font-weight: 200;" fill="rgb(33, 33, 33)" stroke="none" stroke-width="1px">0.1</text><text x="0" y="132.75" dx="0em" dy="0.3em" style="text-anchor: end; visibility: inherit; font-family: Roboto, sans-serif; font-size: 12px; font-weight: 200;" fill="rgb(33, 33, 33)" stroke="none" stroke-width="1px">0.2</text><text x="0" y="118.00000000000001" dx="0em" dy="0.3em" style="text-anchor: end; visibility: hidden; font-family: Roboto, sans-serif; font-size: 12px; font-weight: 200;" fill="rgb(33, 33, 33)" stroke="none" stroke-width="1px">0.3</text><text x="0" y="103.25" dx="0em" dy="0.3em" style="text-anchor: end; visibility: inherit; font-family: Roboto, sans-serif; font-size: 12px; font-weight: 200;" fill="rgb(33, 33, 33)" stroke="none" stroke-width="1px">0.4</text><text x="0" y="88.50000000000001" dx="0em" dy="0.3em" style="text-anchor: end; visibility: hidden; font-family: Roboto, sans-serif; font-size: 12px; font-weight: 200;" fill="rgb(33, 33, 33)" stroke="none" stroke-width="1px">0.5</text><text x="0" y="73.75000000000001" dx="0em" dy="0.3em" style="text-anchor: end; visibility: inherit; font-family: Roboto, sans-serif; font-size: 12px; font-weight: 200;" fill="rgb(33, 33, 33)" stroke="none" stroke-width="1px">0.6</text><text x="0" y="59.00000000000003" dx="0em" dy="0.3em" style="text-anchor: end; visibility: hidden; font-family: Roboto, sans-serif; font-size: 12px; font-weight: 200;" fill="rgb(33, 33, 33)" stroke="none" stroke-width="1px">0.7</text><text x="0" y="44.25000000000002" dx="0em" dy="0.3em" style="text-anchor: end; visibility: inherit; font-family: Roboto, sans-serif; font-size: 12px; font-weight: 200;" fill="rgb(33, 33, 33)" stroke="none" stroke-width="1px">0.8</text><text x="0" y="29.500000000000014" dx="0em" dy="0.3em" style="text-anchor: end; visibility: hidden; font-family: Roboto, sans-serif; font-size: 12px; font-weight: 200;" fill="rgb(33, 33, 33)" stroke="none" stroke-width="1px">0.9</text><text x="0" y="14.750000000000007" dx="0em" dy="0.3em" style="text-anchor: end; visibility: inherit; font-family: Roboto, sans-serif; font-size: 12px; font-weight: 200;" fill="rgb(33, 33, 33)" stroke="none" stroke-width="1px">1</text><text x="0" y="0" dx="0em" dy="0.3em" style="text-anchor: end; visibility: hidden; font-family: Roboto, sans-serif; font-size: 12px; font-weight: 200;" fill="rgb(33, 33, 33)" stroke="none" stroke-width="1px">1.1</text></g><line x1="50" y1="0" x2="50" y2="177" fill="rgb(0, 0, 0)" stroke="rgb(204, 204, 204)" stroke-width="1px"></line></g></g><g transform="translate(50, 0)" clip-path="url(#clip_0)"><clipPath id="clip_0"><rect width="280" height="177"></rect></clipPath><g><g><g><line x1="0" y1="0" x2="0" y2="177" fill="rgb(0, 0, 0)" stroke="rgb(66, 66, 66)" stroke-width="1px" opacity="0.25"></line><line x1="23.333333333333332" y1="0" x2="23.333333333333332" y2="177" fill="rgb(0, 0, 0)" stroke="rgb(66, 66, 66)" stroke-width="1px" opacity="0.25"></line><line x1="46.666666666666664" y1="0" x2="46.666666666666664" y2="177" fill="rgb(0, 0, 0)" stroke="rgb(66, 66, 66)" stroke-width="1px" opacity="0.25"></line><line x1="70" y1="0" x2="70" y2="177" fill="rgb(0, 0, 0)" stroke="rgb(66, 66, 66)" stroke-width="1px" opacity="0.25"></line><line x1="93.33333333333333" y1="0" x2="93.33333333333333" y2="177" fill="rgb(0, 0, 0)" stroke="rgb(66, 66, 66)" stroke-width="1px" opacity="0.25"></line><line x1="116.66666666666667" y1="0" x2="116.66666666666667" y2="177" fill="rgb(0, 0, 0)" stroke="rgb(66, 66, 66)" stroke-width="1px" opacity="0.25"></line><line x1="140" y1="0" x2="140" y2="177" fill="rgb(0, 0, 0)" stroke="rgb(66, 66, 66)" stroke-width="1px" opacity="0.25"></line><line x1="163.33333333333334" y1="0" x2="163.33333333333334" y2="177" fill="rgb(0, 0, 0)" stroke="rgb(66, 66, 66)" stroke-width="1px" opacity="0.25"></line><line x1="186.66666666666666" y1="0" x2="186.66666666666666" y2="177" fill="rgb(0, 0, 0)" stroke="rgb(66, 66, 66)" stroke-width="1px" opacity="0.25"></line><line x1="210" y1="0" x2="210" y2="177" fill="rgb(0, 0, 0)" stroke="rgb(66, 66, 66)" stroke-width="1px" opacity="0.25"></line><line x1="233.33333333333334" y1="0" x2="233.33333333333334" y2="177" fill="rgb(0, 0, 0)" stroke="rgb(66, 66, 66)" stroke-width="1px" opacity="0.25"></line><line x1="256.66666666666663" y1="0" x2="256.66666666666663" y2="177" fill="rgb(0, 0, 0)" stroke="rgb(66, 66, 66)" stroke-width="1px" opacity="0.25"></line><line x1="280" y1="0" x2="280" y2="177" fill="rgb(0, 0, 0)" stroke="rgb(66, 66, 66)" stroke-width="1px" opacity="0.25"></line></g><g><line x1="0" y1="177" x2="280" y2="177" fill="rgb(0, 0, 0)" stroke="rgb(66, 66, 66)" stroke-width="1px" opacity="0.25"></line><line x1="0" y1="162.25" x2="280" y2="162.25" fill="rgb(0, 0, 0)" stroke="rgb(66, 66, 66)" stroke-width="1px" opacity="0.25"></line><line x1="0" y1="147.5" x2="280" y2="147.5" fill="rgb(0, 0, 0)" stroke="rgb(66, 66, 66)" stroke-width="1px" opacity="0.25"></line><line x1="0" y1="132.75" x2="280" y2="132.75" fill="rgb(0, 0, 0)" stroke="rgb(66, 66, 66)" stroke-width="1px" opacity="0.25"></line><line x1="0" y1="118.00000000000001" x2="280" y2="118.00000000000001" fill="rgb(0, 0, 0)" stroke="rgb(66, 66, 66)" stroke-width="1px" opacity="0.25"></line><line x1="0" y1="103.25" x2="280" y2="103.25" fill="rgb(0, 0, 0)" stroke="rgb(66, 66, 66)" stroke-width="1px" opacity="0.25"></line><line x1="0" y1="88.50000000000001" x2="280" y2="88.50000000000001" fill="rgb(0, 0, 0)" stroke="rgb(66, 66, 66)" stroke-width="1px" opacity="0.25"></line><line x1="0" y1="73.75000000000001" x2="280" y2="73.75000000000001" fill="rgb(0, 0, 0)" stroke="rgb(66, 66, 66)" stroke-width="1px" opacity="0.25"></line><line x1="0" y1="59.00000000000003" x2="280" y2="59.00000000000003" fill="rgb(0, 0, 0)" stroke="rgb(66, 66, 66)" stroke-width="1px" opacity="0.25"></line><line x1="0" y1="44.25000000000002" x2="280" y2="44.25000000000002" fill="rgb(0, 0, 0)" stroke="rgb(66, 66, 66)" stroke-width="1px" opacity="0.25"></line><line x1="0" y1="29.500000000000014" x2="280" y2="29.500000000000014" fill="rgb(0, 0, 0)" stroke="rgb(66, 66, 66)" stroke-width="1px" opacity="0.25"></line><line x1="0" y1="14.750000000000007" x2="280" y2="14.750000000000007" fill="rgb(0, 0, 0)" stroke="rgb(66, 66, 66)" stroke-width="1px" opacity="0.25"></line><line x1="0" y1="0" x2="280" y2="0" fill="rgb(0, 0, 0)" stroke="rgb(66, 66, 66)" stroke-width="1px" opacity="0.25"></line></g></g></g><g><g><line x1="0" y1="162.25" x2="280" y2="162.25" fill="rgb(0, 0, 0)" stroke="rgb(153, 153, 153)" stroke-width="1.5px"></line></g></g><g><g><line x1="23.333333333333332" y1="0" x2="23.333333333333332" y2="177" fill="rgb(0, 0, 0)" stroke="rgb(153, 153, 153)" stroke-width="1.5px"></line></g></g><g><g><g><g><g><path stroke="rgb(51, 187, 238)" stroke-width="2px" d="M24.5,147.5000008791685L25.666666666666664,105.86075155436994L26.833333333333336,61.97950384020807L28,58.115004360675826L29.166666666666668,53.60150268673899L30.333333333333336,51.25625035166742L31.5,51.315251350402846L32.666666666666664,49.560000211000464L33.833333333333336,48.83725336194041L35,47.731004416942625L36.16666666666667,47.61300241947177L37.333333333333336,46.654251575469985L38.5,45.75450173020365L39.666666666666664,46.02000182867053L40.833333333333336,45.01700243353846L42,45.090755879879026L43.16666666666667,44.78100723028186L44.33333333333333,45.636499732732794L45.5,44.810503333807006L46.666666666666664,44.61875668168069L47.833333333333336,44.42700123786929L49,44.64825278520586L50.166666666666664,44.308999240398435L51.33333333333333,44.70725378394129L52.5,44.22050213813784L53.66666666666667,44.825255781412146L54.833333333333336,44.95800143480303L56,44.884256780147574L57.166666666666664,44.47124978899958L58.333333333333336,44.884256780147574L59.5,44.29425558447841L60.66666666666667,44.39750513434412L61.83333333333333,43.95500203967098L63,43.4092493951321L64.16666666666666,43.67474949359896L65.33333333333333,43.70425438880924L66.5,43.09950074553493L67.66666666666667,43.586252391338384L68.83333333333333,43.792751491069815L70,43.586252391338384L71.16666666666666,44.23525458574298L72.33333333333334,43.807503938674955L73.5,43.42400184273722L74.66666666666667,43.49775528907779L75.83333333333333,43.822256386280095L77,43.23225519061091L78.16666666666667,43.49775528907779L79.33333333333333,43.70425438880924L80.5,43.571499943733244L81.66666666666667,43.64525339007381L82.83333333333333,43.85175248980524L84,144.88925064355135L85.16666666666666,48.86674946546556L86.33333333333334,44.087756484746954L87.5,43.6895019412041L88.66666666666666,43.94024959206584L89.83333333333334,44.087756484746954L91,43.792751491069815L92.16666666666667,44.17625358700755L93.33333333333333,43.63050094246867L94.5,43.807503938674955L95.66666666666667,43.91075348854067L96.83333333333333,44.589251786470435L98,43.67474949359896L99.16666666666667,43.66000583767893L100.33333333333333,43.64525339007381L101.5,43.837000042200124L102.66666666666666,43.837000042200124L103.83333333333334,44.17625358700755L105,43.4535067379475L106.16666666666666,43.70425438880924L107.33333333333334,43.70425438880924L108.5,43.527251392602956L109.66666666666667,43.46825039386753L110.83333333333333,43.71900683641436L112,43.11425319314005L113.16666666666667,44.10250014066698L114.33333333333333,44.10250014066698L115.5,43.70425438880924L116.66666666666667,43.67474949359896L117.83333333333333,44.574499338865294L119,43.777999043464696L120.16666666666666,43.807503938674955L121.33333333333334,43.74850293993953L122.5,43.74850293993953L123.66666666666666,43.42400184273722L124.83333333333334,43.335504740476644L126,44.13200503587726L127.16666666666667,43.48300284147265L128.33333333333331,44.27950313687327L129.5,44.338504135608694L130.66666666666666,44.47124978899958L131.83333333333334,44.13200503587726L133,147.0427508316934L134.16666666666669,90.06350009143354L135.33333333333334,45.2677500844002L136.5,43.95500203967098L137.66666666666666,43.92550593614581L138.83333333333334,43.92550593614581L140,43.91075348854067L141.16666666666666,44.028755486011526L142.33333333333331,44.264750689268126L143.5,44.64825278520586L144.66666666666669,44.308999240398435L145.83333333333334,44.48600223660472L147,44.69250133633615L148.16666666666666,44.69250133633615L149.33333333333334,44.264750689268126L150.5,43.98450693488124L151.66666666666666,44.043499141931555L152.83333333333331,43.94024959206584L154,43.94024959206584L155.16666666666669,44.01400303840641L156.33333333333334,44.94324898719789L157.5,44.29425558447841L158.66666666666666,44.264750689268126L159.83333333333331,43.92550593614581L161,44.14674869179729L162.16666666666669,44.39750513434412L163.33333333333334,44.38275268673898L164.5,43.85175248980524L165.66666666666666,43.67474949359896L166.83333333333334,43.542003840208075L168,43.71900683641436L169.16666666666666,43.67474949359896L170.33333333333331,144.88925064355135L171.5,138.04525128006935L172.66666666666669,138.04525128006935L173.83333333333334,145.59725053980947L175,145.59725053980947L176.16666666666666,145.59725053980947L177.33333333333331,145.59725053980947L178.5,145.59725053980947L179.66666666666669,145.59725053980947L180.83333333333334,145.59725053980947L182,147.5000008791685L183.16666666666666,147.5000008791685L184.33333333333334,123.00025156140329L185.5,74.72349977493289L186.66666666666666,44.48600223660472L187.83333333333331,44.51550713181498L189,44.41224879026415L190.16666666666669,44.54500323534015L191.33333333333334,44.589251786470435L192.5,44.589251786470435L193.66666666666666,44.47124978899958L194.83333333333331,44.47124978899958L196,44.10250014066698L197.16666666666669,44.29425558447841L198.33333333333334,44.2500070333481L199.5,44.63350033760072L200.66666666666666,44.559755682945266L201.83333333333334,44.64825278520586L203,44.338504135608694L204.16666666666666,44.45650613307955L205.33333333333331,44.559755682945266L206.5,44.63350033760072L207.66666666666669,44.45650613307955L208.83333333333334,44.45650613307955L210,44.48600223660472L211.16666666666666,44.44175368547441L212.33333333333331,43.99925059080127L213.5,44.42700123786929L214.66666666666669,43.95500203967098L215.83333333333334,43.95500203967098L217,43.95500203967098L218.16666666666666,43.837000042200124L219.33333333333334,44.2500070333481L220.5,43.66000583767893L221.66666666666666,44.20574969053272L222.83333333333331,44.23525458574298L224,44.11725258827212L225.16666666666669,43.74850293993953L226.33333333333334,44.41224879026415L227.5,44.353256583213835L228.66666666666666,44.44175368547441L229.83333333333331,44.48600223660472L231,44.559755682945266L232.16666666666669,44.028755486011526L233.33333333333334,44.23525458574298L234.5,44.50075468420984L235.66666666666666,44.72200623154643L236.83333333333334,44.559755682945266L238,44.44175368547441L239.16666666666666,44.19100603461269L240.33333333333331,44.27950313687327L241.5,44.50075468420984L242.66666666666669,43.92550593614581L243.83333333333334,43.91075348854067L245,43.42400184273722L246.16666666666666,43.571499943733244L247.33333333333331,43.67474949359896L248.5,43.807503938674955L249.66666666666669,43.76325538754467L250.83333333333334,43.76325538754467L252,43.837000042200124L253.16666666666666,43.85175248980524L254.33333333333334,44.01400303840641L255.5,44.23525458574298L256.66666666666663,44.44175368547441" style="fill: none;" fill="none"></path></g><g><path stroke="rgb(238, 51, 119)" stroke-width="2px" d="M24.5,162.25L25.666666666666664,161.6452499970328L26.833333333333336,160.30300001055002L28,158.51825002022088L29.166666666666668,157.2055003270507L30.333333333333336,156.65974988043308L31.5,150.95149996131659L32.666666666666664,154.56525014154613L33.833333333333336,152.69199975207448L35,157.23500027693808L36.16666666666667,158.4297501705587L37.333333333333336,156.24675003252923L38.5,154.52099994197488L39.666666666666664,156.85150037892163L40.833333333333336,151.4972504079342L42,137.7059999331832L43.16666666666667,154.3145002927631L44.33333333333333,155.47975023649633L45.5,157.32350012660027L46.666666666666664,153.606500396505L47.833333333333336,146.26100078597665L49,154.7717503402382L50.166666666666664,156.52700038067997L51.33333333333333,159.5950001142919L52.5,148.90125042200089L53.66666666666667,154.28500034287572L54.833333333333336,154.4325000923127L56,158.97550006769598L57.166666666666664,155.18475018814206L58.333333333333336,158.14950009714812L59.5,152.3527506031096L60.66666666666667,148.51775052398443L61.83333333333333,155.99600018374622L63,152.8690005503595L64.16666666666666,158.35600002110004L65.33333333333333,151.3792506083846L66.5,155.7452503349632L67.66666666666667,153.53275024704635L68.83333333333333,152.10200075432658L70,153.6655002962798L71.16666666666666,153.68024999648333L72.33333333333334,155.11100003868341L73.5,153.04600024968386L74.66666666666667,153.23775019869208L75.83333333333333,157.16125012747943L77,141.3935008123517L78.16666666666667,151.5857508070767L79.33333333333333,155.5682500861585L80.5,153.50325029715896L81.66666666666667,153.28200039826334L82.83333333333333,149.68300046771765L84,162.25L85.16666666666666,21.69725111126901L86.33333333333334,39.633255809545545L87.5,40.63625520467762L88.66666666666666,63.98550263047221L89.83333333333334,71.06549939513208L91,55.047005176544204L92.16666666666667,60.54875379800799L93.33333333333333,82.34924918413164L94.5,76.87700545787813L95.66666666666667,90.66825373470785L96.83333333333333,84.25199842453004L98,80.40225139260293L99.16666666666667,83.54400402307513L100.33333333333333,81.7297518849373L101.5,86.18425256013873L102.66666666666666,86.18425256013873L103.83333333333334,90.84525233507159L105,66.9060037136078L106.16666666666666,100.06400233507158L107.33333333333334,100.06400233507158L108.5,113.41275191307071L109.66666666666667,107.96999989449978L110.83333333333333,129.34275122731924L112,111.58375172317028L113.16666666666667,93.63300336897376L114.33333333333333,93.63300336897376L115.5,89.8570009917021L116.66666666666667,86.00724956393245L117.83333333333333,126.33375084400177L119,132.41075041145086L120.16666666666666,118.04425118863585L121.33333333333334,118.30975128710271L122.5,118.30975128710271L123.66666666666666,127.08600039035082L124.83333333333334,114.79924900829795L126,115.2860006541014L127.16666666666667,116.70200264453888L128.33333333333331,110.41850177943707L129.5,125.81750089675188L130.66666666666666,117.17400184273721L131.83333333333334,129.13624992966652L133,162.25L134.16666666666669,76.65575391054155L135.33333333333334,23.437749803066254L136.5,34.61825004220012L137.66666666666666,35.00175213813785L138.83333333333334,35.00175213813785L140,38.276250422000906L141.16666666666666,39.29400226473812L142.33333333333331,50.65150550007822L143.5,49.67800220847132L144.66666666666669,47.40650331974032L145.83333333333334,46.59525057673456L147,43.12900564074519L148.16666666666666,43.12900564074519L149.33333333333334,37.59775212407114L150.5,53.955499887466445L151.66666666666666,47.92275106906894L152.83333333333331,42.539004445076024L154,42.539004445076024L155.16666666666669,51.093999803066275L156.33333333333334,67.46650001406671L157.5,62.65800213813783L158.66666666666666,66.77324926853181L159.83333333333331,69.39875414967538L161,85.24025416374208L162.16666666666669,103.5007511675358L163.33333333333334,94.32624971866609L164.5,106.56875035166742L165.66666666666666,105.60999950766563L166.83333333333334,103.51550361514091L168,87.55600160360338L169.16666666666666,87.30525395274164L170.33333333333331,162.25L171.5,162.25L172.66666666666669,162.25L173.83333333333334,162.25L175,162.25L176.16666666666666,162.25L177.33333333333331,162.25L178.5,162.25L179.66666666666669,162.25L180.83333333333334,162.25L182,162.25L183.16666666666666,162.25L184.33333333333334,156.1729998830706L185.5,74.26625302433969L186.66666666666666,14.838505893945714L187.83333333333331,14.838505893945714L189,14.809000998735435L190.16666666666669,14.838505893945714L191.33333333333334,14.941755443811429L192.5,14.941755443811429L193.66666666666666,14.941755443811429L194.83333333333331,14.941755443811429L196,14.941755443811429L197.16666666666669,14.971251547336598L198.33333333333334,15.059757441282285L199.5,15.163006991148002L200.66666666666666,15.295752644538886L201.83333333333334,15.531756639480598L203,15.399002194404622L204.16666666666666,15.531756639480598L205.33333333333331,15.635006189346333L206.5,15.70875084400179L207.66666666666669,15.413754642009742L208.83333333333334,15.413754642009742L210,15.251504093408597L211.16666666666666,15.782504290342338L212.33333333333331,15.69400718808176L213.5,15.782504290342338L214.66666666666669,15.47275564074517L215.83333333333334,15.47275564074517L217,15.47275564074517L218.16666666666666,15.69400718808176L219.33333333333334,15.620253741741193L220.5,15.635006189346333L221.66666666666666,15.369506090879453L222.83333333333331,15.45800319314005L224,15.340001195669194L225.16666666666669,15.384249746799481L226.33333333333334,15.340001195669194L227.5,15.325257539749165L228.66666666666666,15.340001195669194L229.83333333333331,15.546500295400627L231,15.67925474047662L232.16666666666669,15.67925474047662L233.33333333333334,15.605501294136054L234.5,16.387257933616645L235.66666666666666,16.166006386280074L236.83333333333334,16.77075123786927L238,16.874000787735007L239.16666666666666,17.419753432273886L240.33333333333331,17.58200398087503L241.5,16.81499978899958L242.66666666666669,17.655757427215597L243.83333333333334,17.493506878614433L245,16.903505682945266L246.16666666666666,16.623253136873267L247.33333333333331,16.697006583213813L248.5,17.183749437332175L249.66666666666669,17.080499887466438L250.83333333333334,17.080499887466438L252,16.475755035877242L253.16666666666666,16.04800438880922L254.33333333333334,16.859257131814978L255.5,17.81800797581674L256.66666666666663,18.33425572514536" style="fill: none;" fill="none"></path></g></g></g></g></g></g><g transform="translate(50, 177)" clip-path="url(#clip_1)"><clipPath id="clip_1"><rect width="280" height="23"></rect></clipPath><g><g><line x1="0" y1="0" x2="0" y2="5" style="visibility: inherit;" fill="rgb(0, 0, 0)" stroke="rgb(204, 204, 204)" stroke-width="1px"></line><line x1="23.333333333333332" y1="0" x2="23.333333333333332" y2="5" style="visibility: inherit;" fill="rgb(0, 0, 0)" stroke="rgb(204, 204, 204)" stroke-width="1px"></line><line x1="46.666666666666664" y1="0" x2="46.666666666666664" y2="5" style="visibility: inherit;" fill="rgb(0, 0, 0)" stroke="rgb(204, 204, 204)" stroke-width="1px"></line><line x1="70" y1="0" x2="70" y2="5" style="visibility: inherit;" fill="rgb(0, 0, 0)" stroke="rgb(204, 204, 204)" stroke-width="1px"></line><line x1="93.33333333333333" y1="0" x2="93.33333333333333" y2="5" style="visibility: inherit;" fill="rgb(0, 0, 0)" stroke="rgb(204, 204, 204)" stroke-width="1px"></line><line x1="116.66666666666667" y1="0" x2="116.66666666666667" y2="5" style="visibility: inherit;" fill="rgb(0, 0, 0)" stroke="rgb(204, 204, 204)" stroke-width="1px"></line><line x1="140" y1="0" x2="140" y2="5" style="visibility: inherit;" fill="rgb(0, 0, 0)" stroke="rgb(204, 204, 204)" stroke-width="1px"></line><line x1="163.33333333333334" y1="0" x2="163.33333333333334" y2="5" style="visibility: inherit;" fill="rgb(0, 0, 0)" stroke="rgb(204, 204, 204)" stroke-width="1px"></line><line x1="186.66666666666666" y1="0" x2="186.66666666666666" y2="5" style="visibility: inherit;" fill="rgb(0, 0, 0)" stroke="rgb(204, 204, 204)" stroke-width="1px"></line><line x1="210" y1="0" x2="210" y2="5" style="visibility: inherit;" fill="rgb(0, 0, 0)" stroke="rgb(204, 204, 204)" stroke-width="1px"></line><line x1="233.33333333333334" y1="0" x2="233.33333333333334" y2="5" style="visibility: inherit;" fill="rgb(0, 0, 0)" stroke="rgb(204, 204, 204)" stroke-width="1px"></line><line x1="256.66666666666663" y1="0" x2="256.66666666666663" y2="5" style="visibility: inherit;" fill="rgb(0, 0, 0)" stroke="rgb(204, 204, 204)" stroke-width="1px"></line><line x1="280" y1="0" x2="280" y2="5" style="visibility: inherit;" fill="rgb(0, 0, 0)" stroke="rgb(204, 204, 204)" stroke-width="1px"></line></g><g transform="translate(0, 8)"><text x="0" y="0" dx="0em" dy="0.95em" style="text-anchor: middle; visibility: hidden; font-family: Roboto, sans-serif; font-size: 12px; font-weight: 200;" fill="rgb(33, 33, 33)" stroke="none" stroke-width="1px">-20</text><text x="23.333333333333332" y="0" dx="0em" dy="0.95em" style="text-anchor: middle; visibility: inherit; font-family: Roboto, sans-serif; font-size: 12px; font-weight: 200;" fill="rgb(33, 33, 33)" stroke="none" stroke-width="1px">0</text><text x="46.666666666666664" y="0" dx="0em" dy="0.95em" style="text-anchor: middle; visibility: hidden; font-family: Roboto, sans-serif; font-size: 12px; font-weight: 200;" fill="rgb(33, 33, 33)" stroke="none" stroke-width="1px">20</text><text x="70" y="0" dx="0em" dy="0.95em" style="text-anchor: middle; visibility: inherit; font-family: Roboto, sans-serif; font-size: 12px; font-weight: 200;" fill="rgb(33, 33, 33)" stroke="none" stroke-width="1px">40</text><text x="93.33333333333333" y="0" dx="0em" dy="0.95em" style="text-anchor: middle; visibility: hidden; font-family: Roboto, sans-serif; font-size: 12px; font-weight: 200;" fill="rgb(33, 33, 33)" stroke="none" stroke-width="1px">60</text><text x="116.66666666666667" y="0" dx="0em" dy="0.95em" style="text-anchor: middle; visibility: inherit; font-family: Roboto, sans-serif; font-size: 12px; font-weight: 200;" fill="rgb(33, 33, 33)" stroke="none" stroke-width="1px">80</text><text x="140" y="0" dx="0em" dy="0.95em" style="text-anchor: middle; visibility: hidden; font-family: Roboto, sans-serif; font-size: 12px; font-weight: 200;" fill="rgb(33, 33, 33)" stroke="none" stroke-width="1px">100</text><text x="163.33333333333334" y="0" dx="0em" dy="0.95em" style="text-anchor: middle; visibility: inherit; font-family: Roboto, sans-serif; font-size: 12px; font-weight: 200;" fill="rgb(33, 33, 33)" stroke="none" stroke-width="1px">120</text><text x="186.66666666666666" y="0" dx="0em" dy="0.95em" style="text-anchor: middle; visibility: hidden; font-family: Roboto, sans-serif; font-size: 12px; font-weight: 200;" fill="rgb(33, 33, 33)" stroke="none" stroke-width="1px">140</text><text x="210" y="0" dx="0em" dy="0.95em" style="text-anchor: middle; visibility: inherit; font-family: Roboto, sans-serif; font-size: 12px; font-weight: 200;" fill="rgb(33, 33, 33)" stroke="none" stroke-width="1px">160</text><text x="233.33333333333334" y="0" dx="0em" dy="0.95em" style="text-anchor: middle; visibility: hidden; font-family: Roboto, sans-serif; font-size: 12px; font-weight: 200;" fill="rgb(33, 33, 33)" stroke="none" stroke-width="1px">180</text><text x="256.66666666666663" y="0" dx="0em" dy="0.95em" style="text-anchor: middle; visibility: inherit; font-family: Roboto, sans-serif; font-size: 12px; font-weight: 200;" fill="rgb(33, 33, 33)" stroke="none" stroke-width="1px">200</text><text x="280" y="0" dx="0em" dy="0.95em" style="text-anchor: middle; visibility: hidden; font-family: Roboto, sans-serif; font-size: 12px; font-weight: 200;" fill="rgb(33, 33, 33)" stroke="none" stroke-width="1px">220</text></g><line x1="0" y1="0" x2="280" y2="0" fill="rgb(0, 0, 0)" stroke="rgb(204, 204, 204)" stroke-width="1px"></line></g></g></g></g></svg>