<svg viewBox="0 0 330 200" xmlns="http://www.w3.org/2000/svg"><g><g><g><g><g><line x1="50" y1="177" x2="45" y2="177" style="visibility: inherit;" fill="rgb(0, 0, 0)" stroke="rgb(204, 204, 204)" stroke-width="1px"></line><line x1="50" y1="159.3" x2="45" y2="159.3" style="visibility: inherit;" fill="rgb(0, 0, 0)" stroke="rgb(204, 204, 204)" stroke-width="1px"></line><line x1="50" y1="141.6" x2="45" y2="141.6" style="visibility: inherit;" fill="rgb(0, 0, 0)" stroke="rgb(204, 204, 204)" stroke-width="1px"></line><line x1="50" y1="123.89999999999999" x2="45" y2="123.89999999999999" style="visibility: inherit;" fill="rgb(0, 0, 0)" stroke="rgb(204, 204, 204)" stroke-width="1px"></line><line x1="50" y1="106.2" x2="45" y2="106.2" style="visibility: inherit;" fill="rgb(0, 0, 0)" stroke="rgb(204, 204, 204)" stroke-width="1px"></line><line x1="50" y1="88.5" x2="45" y2="88.5" style="visibility: inherit;" fill="rgb(0, 0, 0)" stroke="rgb(204, 204, 204)" stroke-width="1px"></line><line x1="50" y1="70.8" x2="45" y2="70.8" style="visibility: inherit;" fill="rgb(0, 0, 0)" stroke="rgb(204, 204, 204)" stroke-width="1px"></line><line x1="50" y1="53.10000000000001" x2="45" y2="53.10000000000001" style="visibility: inherit;" fill="rgb(0, 0, 0)" stroke="rgb(204, 204, 204)" stroke-width="1px"></line><line x1="50" y1="35.40000000000001" x2="45" y2="35.40000000000001" style="visibility: inherit;" fill="rgb(0, 0, 0)" stroke="rgb(204, 204, 204)" stroke-width="1px"></line><line x1="50" y1="17.699999999999996" x2="45" y2="17.699999999999996" style="visibility: inherit;" fill="rgb(0, 0, 0)" stroke="rgb(204, 204, 204)" stroke-width="1px"></line><line x1="50" y1="0" x2="45" y2="0" style="visibility: inherit;" fill="rgb(0, 0, 0)" stroke="rgb(204, 204, 204)" stroke-width="1px"></line></g><g transform="translate(40, 0)"><text x="0" y="177" dx="0em" dy="0.3em" style="text-anchor: end; visibility: hidden; font-family: Roboto, sans-serif; font-size: 12px; font-weight: 200;" fill="rgb(33, 33, 33)" stroke="none" stroke-width="1px">-0.1</text><text x="0" y="159.3" dx="0em" dy="0.3em" style="text-anchor: end; visibility: inherit; font-family: Roboto, sans-serif; font-size: 12px; font-weight: 200;" fill="rgb(33, 33, 33)" stroke="none" stroke-width="1px">0</text><text x="0" y="141.6" dx="0em" dy="0.3em" style="text-anchor: end; visibility: hidden; font-family: Roboto, sans-serif; font-size: 12px; font-weight: 200;" fill="rgb(33, 33, 33)" stroke="none" stroke-width="1px">0.1</text><text x="0" y="123.89999999999999" dx="0em" dy="0.3em" style="text-anchor: end; visibility: inherit; font-family: Roboto, sans-serif; font-size: 12px; font-weight: 200;" fill="rgb(33, 33, 33)" stroke="none" stroke-width="1px">0.2</text><text x="0" y="106.2" dx="0em" dy="0.3em" style="text-anchor: end; visibility: hidden; font-family: Roboto, sans-serif; font-size: 12px; font-weight: 200;" fill="rgb(33, 33, 33)" stroke="none" stroke-width="1px">0.3</text><text x="0" y="88.5" dx="0em" dy="0.3em" style="text-anchor: end; visibility: inherit; font-family: Roboto, sans-serif; font-size: 12px; font-weight: 200;" fill="rgb(33, 33, 33)" stroke="none" stroke-width="1px">0.4</text><text x="0" y="70.8" dx="0em" dy="0.3em" style="text-anchor: end; visibility: hidden; font-family: Roboto, sans-serif; font-size: 12px; font-weight: 200;" fill="rgb(33, 33, 33)" stroke="none" stroke-width="1px">0.5</text><text x="0" y="53.10000000000001" dx="0em" dy="0.3em" style="text-anchor: end; visibility: inherit; font-family: Roboto, sans-serif; font-size: 12px; font-weight: 200;" fill="rgb(33, 33, 33)" stroke="none" stroke-width="1px">0.6</text><text x="0" y="35.40000000000001" dx="0em" dy="0.3em" style="text-anchor: end; visibility: hidden; font-family: Roboto, sans-serif; font-size: 12px; font-weight: 200;" fill="rgb(33, 33, 33)" stroke="none" stroke-width="1px">0.7</text><text x="0" y="17.699999999999996" dx="0em" dy="0.3em" style="text-anchor: end; visibility: inherit; font-family: Roboto, sans-serif; font-size: 12px; font-weight: 200;" fill="rgb(33, 33, 33)" stroke="none" stroke-width="1px">0.8</text><text x="0" y="0" dx="0em" dy="0.3em" style="text-anchor: end; visibility: hidden; font-family: Roboto, sans-serif; font-size: 12px; font-weight: 200;" fill="rgb(33, 33, 33)" stroke="none" stroke-width="1px">0.9</text></g><line x1="50" y1="0" x2="50" y2="177" fill="rgb(0, 0, 0)" stroke="rgb(204, 204, 204)" stroke-width="1px"></line></g></g><g transform="translate(50, 0)" clip-path="url(#clip_0)"><clipPath id="clip_0"><rect width="280" height="177"></rect></clipPath><g><g><g><line x1="0" y1="0" x2="0" y2="177" fill="rgb(0, 0, 0)" stroke="rgb(66, 66, 66)" stroke-width="1px" opacity="0.25"></line><line x1="23.333333333333332" y1="0" x2="23.333333333333332" y2="177" fill="rgb(0, 0, 0)" stroke="rgb(66, 66, 66)" stroke-width="1px" opacity="0.25"></line><line x1="46.666666666666664" y1="0" x2="46.666666666666664" y2="177" fill="rgb(0, 0, 0)" stroke="rgb(66, 66, 66)" stroke-width="1px" opacity="0.25"></line><line x1="70" y1="0" x2="70" y2="177" fill="rgb(0, 0, 0)" stroke="rgb(66, 66, 66)" stroke-width="1px" opacity="0.25"></line><line x1="93.33333333333333" y1="0" x2="93.33333333333333" y2="177" fill="rgb(0, 0, 0)" stroke="rgb(66, 66, 66)" stroke-width="1px" opacity="0.25"></line><line x1="116.66666666666667" y1="0" x2="116.66666666666667" y2="177" fill="rgb(0, 0, 0)" stroke="rgb(66, 66, 66)" stroke-width="1px" opacity="0.25"></line><line x1="140" y1="0" x2="140" y2="177" fill="rgb(0, 0, 0)" stroke="rgb(66, 66, 66)" stroke-width="1px" opacity="0.25"></line><line x1="163.33333333333334" y1="0" x2="163.33333333333334" y2="177" fill="rgb(0, 0, 0)" stroke="rgb(66, 66, 66)" stroke-width="1px" opacity="0.25"></line><line x1="186.66666666666666" y1="0" x2="186.66666666666666" y2="177" fill="rgb(0, 0, 0)" stroke="rgb(66, 66, 66)" stroke-width="1px" opacity="0.25"></line><line x1="210" y1="0" x2="210" y2="177" fill="rgb(0, 0, 0)" stroke="rgb(66, 66, 66)" stroke-width="1px" opacity="0.25"></line><line x1="233.33333333333334" y1="0" x2="233.33333333333334" y2="177" fill="rgb(0, 0, 0)" stroke="rgb(66, 66, 66)" stroke-width="1px" opacity="0.25"></line><line x1="256.66666666666663" y1="0" x2="256.66666666666663" y2="177" fill="rgb(0, 0, 0)" stroke="rgb(66, 66, 66)" stroke-width="1px" opacity="0.25"></line><line x1="280" y1="0" x2="280" y2="177" fill="rgb(0, 0, 0)" stroke="rgb(66, 66, 66)" stroke-width="1px" opacity="0.25"></line></g><g><line x1="0" y1="177" x2="280" y2="177" fill="rgb(0, 0, 0)" stroke="rgb(66, 66, 66)" stroke-width="1px" opacity="0.25"></line><line x1="0" y1="159.3" x2="280" y2="159.3" fill="rgb(0, 0, 0)" stroke="rgb(66, 66, 66)" stroke-width="1px" opacity="0.25"></line><line x1="0" y1="141.6" x2="280" y2="141.6" fill="rgb(0, 0, 0)" stroke="rgb(66, 66, 66)" stroke-width="1px" opacity="0.25"></line><line x1="0" y1="123.89999999999999" x2="280" y2="123.89999999999999" fill="rgb(0, 0, 0)" stroke="rgb(66, 66, 66)" stroke-width="1px" opacity="0.25"></line><line x1="0" y1="106.2" x2="280" y2="106.2" fill="rgb(0, 0, 0)" stroke="rgb(66, 66, 66)" stroke-width="1px" opacity="0.25"></line><line x1="0" y1="88.5" x2="280" y2="88.5" fill="rgb(0, 0, 0)" stroke="rgb(66, 66, 66)" stroke-width="1px" opacity="0.25"></line><line x1="0" y1="70.8" x2="280" y2="70.8" fill="rgb(0, 0, 0)" stroke="rgb(66, 66, 66)" stroke-width="1px" opacity="0.25"></line><line x1="0" y1="53.10000000000001" x2="280" y2="53.10000000000001" fill="rgb(0, 0, 0)" stroke="rgb(66, 66, 66)" stroke-width="1px" opacity="0.25"></line><line x1="0" y1="35.40000000000001" x2="280" y2="35.40000000000001" fill="rgb(0, 0, 0)" stroke="rgb(66, 66, 66)" stroke-width="1px" opacity="0.25"></line><line x1="0" y1="17.699999999999996" x2="280" y2="17.699999999999996" fill="rgb(0, 0, 0)" stroke="rgb(66, 66, 66)" stroke-width="1px" opacity="0.25"></line><line x1="0" y1="0" x2="280" y2="0" fill="rgb(0, 0, 0)" stroke="rgb(66, 66, 66)" stroke-width="1px" opacity="0.25"></line></g></g></g><g><g><line x1="0" y1="159.3" x2="280" y2="159.3" fill="rgb(0, 0, 0)" stroke="rgb(153, 153, 153)" stroke-width="1.5px"></line></g></g><g><g><line x1="23.333333333333332" y1="0" x2="23.333333333333332" y2="177" fill="rgb(0, 0, 0)" stroke="rgb(153, 153, 153)" stroke-width="1.5px"></line></g></g><g><g><g><g><g><path stroke="rgb(51, 187, 238)" stroke-width="2px" d="M25.666666666666664,140.67959998100997L28,98.34120200872421L30.333333333333336,43.40040038824082L32.666666666666664,33.205207157135014L35,28.69170724153519L37.333333333333336,27.364208507537846L39.666666666666664,23.895002532005314L42,24.479104506969456L44.33333333333333,23.771103072166447L46.666666666666664,23.080804574489598L49,22.03650008440018L51.33333333333333,119.70510231256485L53.66666666666667,59.082607376575474L56,23.381701755523686L58.333333333333336,21.240005064010624L60.66666666666667,20.638200151920323L63,19.470006752014164L65.33333333333333,20.10720698833466L67.66666666666667,19.38150261640549L70,20.160305249691014L72.33333333333334,18.850498902797703L74.66666666666667,19.275306093692784L77,18.231001603603367L79.33333333333333,17.841600286960606L81.66666666666667,19.50540207624436L84,18.726599442958836L86.33333333333334,18.4788005232811L88.66666666666666,18.4788005232811L91,18.691204118728642L93.33333333333333,17.7354037642479L95.66666666666667,18.4788005232811L98,18.28409986495972L100.33333333333333,118.67850075960159L102.66666666666666,43.29420386552811L105,18.000905621051793L107.33333333333334,18.160200405120854L109.66666666666667,17.965499746799473L112,17.682305502891545L114.33333333333333,18.461108136177067L116.66666666666667,18.461108136177067L119,18.372604000568394L121.33333333333334,18.60269998311997L123.66666666666666,17.61150430440903L126,18.248704540729527L128.33333333333331,18.354901063442234L130.66666666666666,17.859303224086766L133,18.40799932479859L135.33333333333334,18.99210129976273L137.66666666666666,18.49650346040726L140,18.4788005232811L142.33333333333331,18.673501181602482L144.66666666666669,19.18680195808411L147,18.939003038406376L149.33333333333334,18.655808794498448L151.66666666666666,18.425702261924748L154,18.51420639753342L156.33333333333334,18.655808794498448L158.66666666666666,18.655808794498448L161,18.49650346040726L163.33333333333334,18.461108136177067L165.66666666666666,18.160200405120854L168,17.841600286960606L170.33333333333331,17.91240148544312L172.66666666666669,18.266407477855687L175,18.443405199050908L177.33333333333331,18.054003882408146L179.66666666666669,17.682305502891545L182,17.576098430156712L184.33333333333334,18.531898784637455L186.66666666666666,17.788502025604252L189,19.50540207624436L191.33333333333334,18.28409986495972L193.66666666666666,18.4788005232811L196,17.664602565765385L198.33333333333334,17.664602565765385L200.66666666666666,18.08939920663834L203,18.531898784637455L205.33333333333331,17.43450658321381L207.66666666666669,18.549601721763615L210,18.3372086763382L212.33333333333331,17.983202683925633L214.66666666666669,17.983202683925633L217,18.390306937694554L219.33333333333334,17.52300016880036L221.66666666666666,18.000905621051793L224,17.646899628639225L226.33333333333334,17.89469854831696L228.66666666666666,18.213298666477208L231,18.354901063442234L233.33333333333334,18.195606279373173L235.66666666666666,18.49650346040726L238,18.000905621051793L240.33333333333331,18.12480508089066L242.66666666666669,18.461108136177067L245,17.89469854831696L247.33333333333331,18.97439836263657L249.66666666666669,18.956705975532536L252,18.655808794498448L254.33333333333334,18.585007596015934L256.66666666666663,18.779708254337315" style="fill: none;" fill="none"></path></g><g><path stroke="rgb(238, 51, 119)" stroke-width="2px" d="M25.666666666666664,159.3L28,159.28230000044715L30.333333333333336,156.98129998259247L32.666666666666664,157.7247000385076L35,158.07870001411067L37.333333333333336,157.7247000385076L39.666666666666664,155.84849992878736L42,153.35280021205546L44.33333333333333,154.80420005433263L46.666666666666664,155.21130002215506L49,157.51230006963016L51.33333333333333,159.3L53.66666666666667,52.10880010128022L56,0.5310079336166421L58.333333333333336,9.257100033760075L60.66666666666667,39.55950658321381L63,62.23320268392563L65.33333333333333,66.21569888591766L67.66666666666667,62.604901063442234L70,60.56940089464188L72.33333333333334,79.40220319032669L74.66666666666667,84.16350202560425L77,92.57099928259849L79.33333333333333,109.93470044732094L81.66666666666667,97.82790123224258L84,71.82660155296325L86.33333333333334,85.36710129976272L88.66666666666666,117.08550016880035L91,100.9785018146038L93.33333333333333,114.16500084400177L95.66666666666667,110.92590140104294L98,118.67850075960159L100.33333333333333,159.3L102.66666666666666,66.97679858207702L105,-9.805798244476334L107.33333333333334,-5.8764003038406525L109.66666666666667,4.3719017386436505L112,10.248306262493138L114.33333333333333,34.16100751161576L116.66666666666667,34.16100751161576L119,35.02830373048783L121.33333333333334,26.974807190895085L123.66666666666666,4.619700658321385L126,13.68210636377335L128.33333333333331,25.328708338737492L130.66666666666666,13.699798750877385L133,15.080406296253209L135.33333333333334,24.302106785774235L137.66666666666666,43.152601468563084L140,51.542401063442234L142.33333333333331,50.2857035279274L144.66666666666669,54.16200320720673L147,43.98450236320496L149.33333333333334,41.18790249824524L151.66666666666666,42.14370285272599L154,50.9229037642479L156.33333333333334,60.162307190895085L158.66666666666666,60.162307190895085L161,81.63240401744842L163.33333333333334,59.11800270080567L165.66666666666666,61.047306346893315L168,52.604397940635685L170.33333333333331,51.17070268392563L172.66666666666669,58.887906718254094L175,70.48139988183975L177.33333333333331,74.481604295969L179.66666666666669,76.95960404276848L182,56.92320774793625L184.33333333333334,40.479901063442234L186.66666666666666,51.63090519905091L189,80.44650240540504L191.33333333333334,81.27840330004692L193.66666666666666,93.6506990969181L196,100.9961994767189L198.33333333333334,100.9961994767189L200.66666666666666,100.3413015782833L203,65.06519787311554L205.33333333333331,90.12840013504028L207.66666666666669,81.72090287804603L210,90.2877001941204L212.33333333333331,110.44800122380256L214.66666666666669,110.44800122380256L217,110.14709876775741L219.33333333333334,107.13810058236122L221.66666666666666,74.62320141792297L224,95.96940405964851L226.33333333333334,67.18920217752456L228.66666666666666,80.8536013841629L231,68.4105043888092L233.33333333333334,73.4019044816494L235.66666666666666,79.73850097060203L238,86.74770357012748L240.33333333333331,85.86270441412925L242.66666666666669,70.28669922351837L245,66.72899966239929L247.33333333333331,70.94160239696502L249.66666666666669,124.89120042622089L252,127.26300101280212L254.33333333333334,111.0321031987667L256.66666666666663,116.55450173020363" style="fill: none;" fill="none"></path></g></g></g></g></g></g><g transform="translate(50, 177)" clip-path="url(#clip_1)"><clipPath id="clip_1"><rect width="280" height="23"></rect></clipPath><g><g><line x1="0" y1="0" x2="0" y2="5" style="visibility: inherit;" fill="rgb(0, 0, 0)" stroke="rgb(204, 204, 204)" stroke-width="1px"></line><line x1="23.333333333333332" y1="0" x2="23.333333333333332" y2="5" style="visibility: inherit;" fill="rgb(0, 0, 0)" stroke="rgb(204, 204, 204)" stroke-width="1px"></line><line x1="46.666666666666664" y1="0" x2="46.666666666666664" y2="5" style="visibility: inherit;" fill="rgb(0, 0, 0)" stroke="rgb(204, 204, 204)" stroke-width="1px"></line><line x1="70" y1="0" x2="70" y2="5" style="visibility: inherit;" fill="rgb(0, 0, 0)" stroke="rgb(204, 204, 204)" stroke-width="1px"></line><line x1="93.33333333333333" y1="0" x2="93.33333333333333" y2="5" style="visibility: inherit;" fill="rgb(0, 0, 0)" stroke="rgb(204, 204, 204)" stroke-width="1px"></line><line x1="116.66666666666667" y1="0" x2="116.66666666666667" y2="5" style="visibility: inherit;" fill="rgb(0, 0, 0)" stroke="rgb(204, 204, 204)" stroke-width="1px"></line><line x1="140" y1="0" x2="140" y2="5" style="visibility: inherit;" fill="rgb(0, 0, 0)" stroke="rgb(204, 204, 204)" stroke-width="1px"></line><line x1="163.33333333333334" y1="0" x2="163.33333333333334" y2="5" style="visibility: inherit;" fill="rgb(0, 0, 0)" stroke="rgb(204, 204, 204)" stroke-width="1px"></line><line x1="186.66666666666666" y1="0" x2="186.66666666666666" y2="5" style="visibility: inherit;" fill="rgb(0, 0, 0)" stroke="rgb(204, 204, 204)" stroke-width="1px"></line><line x1="210" y1="0" x2="210" y2="5" style="visibility: inherit;" fill="rgb(0, 0, 0)" stroke="rgb(204, 204, 204)" stroke-width="1px"></line><line x1="233.33333333333334" y1="0" x2="233.33333333333334" y2="5" style="visibility: inherit;" fill="rgb(0, 0, 0)" stroke="rgb(204, 204, 204)" stroke-width="1px"></line><line x1="256.66666666666663" y1="0" x2="256.66666666666663" y2="5" style="visibility: inherit;" fill="rgb(0, 0, 0)" stroke="rgb(204, 204, 204)" stroke-width="1px"></line><line x1="280" y1="0" x2="280" y2="5" style="visibility: inherit;" fill="rgb(0, 0, 0)" stroke="rgb(204, 204, 204)" stroke-width="1px"></line></g><g transform="translate(0, 8)"><text x="0" y="0" dx="0em" dy="0.95em" style="text-anchor: middle; visibility: hidden; font-family: Roboto, sans-serif; font-size: 12px; font-weight: 200;" fill="rgb(33, 33, 33)" stroke="none" stroke-width="1px">-10</text><text x="23.333333333333332" y="0" dx="0em" dy="0.95em" style="text-anchor: middle; visibility: inherit; font-family: Roboto, sans-serif; font-size: 12px; font-weight: 200;" fill="rgb(33, 33, 33)" stroke="none" stroke-width="1px">0</text><text x="46.666666666666664" y="0" dx="0em" dy="0.95em" style="text-anchor: middle; visibility: inherit; font-family: Roboto, sans-serif; font-size: 12px; font-weight: 200;" fill="rgb(33, 33, 33)" stroke="none" stroke-width="1px">10</text><text x="70" y="0" dx="0em" dy="0.95em" style="text-anchor: middle; visibility: inherit; font-family: Roboto, sans-serif; font-size: 12px; font-weight: 200;" fill="rgb(33, 33, 33)" stroke="none" stroke-width="1px">20</text><text x="93.33333333333333" y="0" dx="0em" dy="0.95em" style="text-anchor: middle; visibility: inherit; font-family: Roboto, sans-serif; font-size: 12px; font-weight: 200;" fill="rgb(33, 33, 33)" stroke="none" stroke-width="1px">30</text><text x="116.66666666666667" y="0" dx="0em" dy="0.95em" style="text-anchor: middle; visibility: inherit; font-family: Roboto, sans-serif; font-size: 12px; font-weight: 200;" fill="rgb(33, 33, 33)" stroke="none" stroke-width="1px">40</text><text x="140" y="0" dx="0em" dy="0.95em" style="text-anchor: middle; visibility: inherit; font-family: Roboto, sans-serif; font-size: 12px; font-weight: 200;" fill="rgb(33, 33, 33)" stroke="none" stroke-width="1px">50</text><text x="163.33333333333334" y="0" dx="0em" dy="0.95em" style="text-anchor: middle; visibility: inherit; font-family: Roboto, sans-serif; font-size: 12px; font-weight: 200;" fill="rgb(33, 33, 33)" stroke="none" stroke-width="1px">60</text><text x="186.66666666666666" y="0" dx="0em" dy="0.95em" style="text-anchor: middle; visibility: inherit; font-family: Roboto, sans-serif; font-size: 12px; font-weight: 200;" fill="rgb(33, 33, 33)" stroke="none" stroke-width="1px">70</text><text x="210" y="0" dx="0em" dy="0.95em" style="text-anchor: middle; visibility: inherit; font-family: Roboto, sans-serif; font-size: 12px; font-weight: 200;" fill="rgb(33, 33, 33)" stroke="none" stroke-width="1px">80</text><text x="233.33333333333334" y="0" dx="0em" dy="0.95em" style="text-anchor: middle; visibility: inherit; font-family: Roboto, sans-serif; font-size: 12px; font-weight: 200;" fill="rgb(33, 33, 33)" stroke="none" stroke-width="1px">90</text><text x="256.66666666666663" y="0" dx="0em" dy="0.95em" style="text-anchor: middle; visibility: inherit; font-family: Roboto, sans-serif; font-size: 12px; font-weight: 200;" fill="rgb(33, 33, 33)" stroke="none" stroke-width="1px">100</text><text x="280" y="0" dx="0em" dy="0.95em" style="text-anchor: middle; visibility: hidden; font-family: Roboto, sans-serif; font-size: 12px; font-weight: 200;" fill="rgb(33, 33, 33)" stroke="none" stroke-width="1px">110</text></g><line x1="0" y1="0" x2="280" y2="0" fill="rgb(0, 0, 0)" stroke="rgb(204, 204, 204)" stroke-width="1px"></line></g></g></g></g></svg>